<svg width="100" height="104" viewBox="0 0 100 104" fill="none" xmlns="http://www.w3.org/2000/svg">
<rect x="0.160645" y="0.508545" width="99.5893" height="103.125" rx="5.89286" fill="#E37B1B"/>
<mask id="mask0" mask-type="alpha" maskUnits="userSpaceOnUse" x="0" y="0" width="100" height="104">
<rect x="0.160645" y="0.589478" width="99.5893" height="103.125" rx="5.89286" fill="#1BE3B3"/>
</mask>
<g mask="url(#mask0)">
<path fill-rule="evenodd" clip-rule="evenodd" d="M66.2906 63.0524C65.5103 60.0251 64.7926 58.7415 63.4064 57.6893C62.1097 56.7051 60.2169 55.8785 57.4551 55.2747C54.5786 54.7717 54.497 53.2763 53.7757 50.8729C53.5653 50.1504 52.5226 49.9582 52.0726 50.4789C52.0092 50.4104 51.943 50.3477 51.8746 50.291C51.9358 49.9464 51.4342 48.9588 51.451 48.6292C51.6259 45.1887 50.5008 43.4611 47.6926 42.8188C47.0819 42.6791 42.9338 42.5969 42.3383 42.7615C39.7352 43.4814 37.1725 45.767 37.5647 48.5203C36.7476 49.5884 35.9478 50.2403 34.6872 50.5844C32.7239 50.8337 33.7101 78.6528 37.1198 95.3193C38.5827 102.47 73.5632 90.299 71.9825 86.7176C72.2066 86.0611 71.7982 85.3396 71.9825 84.6617C72.1159 84.1711 72.4575 83.9682 72.6295 83.4824C72.8715 82.7988 72.6083 81.8816 72.3359 81.1841C72.2242 80.8364 72.5414 80.4622 72.6295 80.1074C73.0475 78.434 72.0903 78.5815 71.4002 77.4629C71.4105 77.4594 71.59 76.6608 71.5892 76.6648C71.6948 76.0946 71.4301 75.3642 71.1992 74.8883C71.0432 74.5666 70.7089 74.3653 70.3767 74.4022C70.7112 73.2664 71.1343 72.3213 71.5892 71.2271C72.3937 69.2982 73.1588 67.2804 74.314 65.5345C74.7871 64.8196 74.405 64.1621 73.6394 64.1134C71.1614 63.9559 68.7105 63.5991 66.2906 63.0524Z" fill="#D08B5B"/>
<path fill-rule="evenodd" clip-rule="evenodd" d="M62.4223 63.286L56.7659 72.8613C56.7659 72.8613 58.1077 72.9953 58.6508 73.2562C59.1939 73.5172 61.6873 76.6878 61.6873 76.6878L62.0835 78.4338L61.1447 79.8414L61.5108 80.7252C61.5108 80.7252 61.772 80.1264 62.4223 79.6616C63.0727 79.1968 64.5068 78.4338 64.5068 78.4338C64.5068 78.4338 64.0302 78.1787 64.0302 77.8793C64.0302 77.5799 63.6104 76.3025 64.5068 75.82C65.4032 75.3375 70.0354 74.2082 70.0354 74.2082L74.7299 64.303L62.4223 63.286Z" fill="#EC7495"/>
<path fill-rule="evenodd" clip-rule="evenodd" d="M37.1889 50.6495L55.15 53.8026L63.4063 57.6894L64.7541 58.728L56.7657 72.8616L44.4311 75.1127L41.2886 83.2774L41.93 92.4807L61.9961 90.0876L70.6516 89.0588L72.6863 97.2753L72.3187 100.655L71.7841 102.369L50.3264 108.164C50.3264 108.164 39.3999 107.105 37.463 107.105C35.526 107.105 21.3249 108.515 21.3249 108.515L18.0392 108.164C18.0392 108.164 10.7694 100.5 9.64189 97.7725C8.51436 95.0448 6.07617 78.464 6.07617 78.464L6.34464 75.9164L12.6255 59.7484C12.6255 59.7484 13.4642 58.9865 14.5217 57.6894C15.5791 56.3922 37.1889 50.6495 37.1889 50.6495Z" fill="#9DDADB"/>
<path fill-rule="evenodd" clip-rule="evenodd" d="M69.6965 74.0042C68.0733 74.0867 66.4484 74.4727 64.9801 75.1722C64.3793 75.4588 63.835 75.8726 63.6756 76.5533C63.595 76.9009 63.6147 77.26 63.6576 77.6111C63.6899 77.877 63.698 78.2165 63.929 78.3965C63.9684 78.427 64.0105 78.4502 64.0543 78.4673C63.5127 78.7118 62.9969 79.0056 62.5385 79.3083C62.1196 79.585 61.6889 80.0114 61.4956 80.4923C61.4794 80.4377 61.4633 80.3867 61.4472 80.3383C61.1177 79.3639 60.6101 78.5659 59.8106 78.0293C59.7198 77.6983 58.7455 76.2739 57.8404 76.3276C56.8493 76.3858 56.0521 76.4583 55.1558 76.9142C54.8291 76.907 54.5032 76.9115 54.1809 76.9258C54.1254 76.9276 54.1281 77.003 54.1809 77.0091C54.4424 77.0424 54.7038 77.079 54.9652 77.122C55.5866 77.2215 56.2061 77.3477 56.8121 77.5044C57.5392 77.6926 58.2913 77.8815 58.9708 78.2102C60.2886 78.8489 61.1043 80.5184 60.9369 81.9711C60.9091 82.2093 60.8169 82.9294 60.4865 82.8551C60.2072 82.7924 60.0962 82.2093 59.9986 81.9934C59.7372 81.4202 59.2663 81.0458 58.7013 80.7924C58.0379 80.4941 57.3279 80.2926 56.6402 80.058C56.2509 79.9246 55.8614 79.791 55.4711 79.6585C55.0718 79.5215 54.6922 79.3325 54.2669 79.4283C54.0099 79.4865 53.9804 79.7928 54.1245 79.9685C54.3439 80.2362 54.6698 80.315 54.9858 80.4252C55.403 80.5703 55.8193 80.7154 56.2357 80.8604C56.8793 81.0844 57.5535 81.2733 58.1811 81.5474L58.1614 81.5922C58.1103 81.5779 58.0503 81.6289 58.0603 81.6916C58.1543 82.2711 58.285 82.941 58.1399 83.5215C58.0254 83.9818 57.6215 84.4915 57.0969 84.3562C57.1793 84.2809 57.2097 84.1511 57.1542 84.0311C56.9464 83.5868 54.2248 81.8331 53.9822 82.4844C53.9741 82.5075 53.9991 82.5246 54.0189 82.5211C54.2257 82.478 54.5722 82.8309 54.7377 82.9428C54.9768 83.1041 55.2194 83.2617 55.4558 83.4274C55.7146 83.6084 55.9671 83.7983 56.2133 83.9943C56.4067 84.1485 56.5526 84.3087 56.7745 84.3867C56.6582 84.4422 56.5659 84.5452 56.5266 84.6768C56.4264 85.0199 56.233 85.3109 55.8972 85.4624C55.5454 85.6199 55.1488 85.5205 54.7781 85.5591C54.2732 85.6101 53.8327 85.8502 53.4647 86.1932C52.692 86.9151 52.3044 88.187 51.2238 88.5281C50.5782 88.7315 49.862 88.6034 49.2084 88.5111C48.4788 88.4081 47.7679 88.3266 47.0328 88.4341C46.3291 88.5372 45.6639 88.7807 45.0211 89.0781C44.4186 89.3566 43.7525 89.672 43.218 90.0875C43.1078 89.748 42.9968 89.4121 42.9126 89.0655C42.7139 88.2461 42.6065 87.4112 42.5804 86.5693C42.5563 85.7678 42.6011 84.9626 42.6699 84.1645C42.7041 83.7659 42.7578 83.3692 42.7918 82.9706C42.8007 82.8703 42.8186 82.7628 42.8321 82.6554C43.7865 82.092 44.7891 81.6604 45.7999 81.2161C45.8027 81.2152 45.8054 81.2133 45.8081 81.2125C45.8394 81.1981 45.8698 81.1848 45.9012 81.1713C45.9003 81.1694 45.8994 81.1677 45.8976 81.1659C46.0131 81.0952 46.0937 81.0011 46.142 80.8954C47.5987 79.929 48.8163 78.6098 49.7241 77.0709C50.1046 76.4261 50.4708 75.757 50.9686 75.1919C51.4986 74.5891 52.128 74.2308 52.9069 74.0445C53.8174 73.8261 54.7557 73.6952 55.6886 73.6209C56.1981 73.5807 56.7674 73.5179 57.3226 73.5207C57.7093 73.5233 58.0879 73.5564 58.4354 73.6522C58.9502 73.7937 59.251 74.1852 59.5742 74.581C59.8831 74.9609 60.1902 75.3415 60.4785 75.7374C60.7515 76.1126 61.0094 76.5004 61.2332 76.907C61.3675 77.1507 61.492 77.4015 61.5967 77.6603C61.6334 77.7517 61.6818 77.8555 61.7042 77.9505C61.7265 78.0463 61.6854 78.1476 61.7928 78.1476C61.3496 78.1538 61.0551 79.2593 61.4956 79.2333C62.1149 79.1973 62.4263 78.4545 62.3049 77.7955C62.0884 76.6198 60.9192 75.1998 60.6879 74.899C60.1767 74.2344 59.6494 73.3674 58.8311 73.0584C58.8195 73.0539 58.807 73.0495 58.7953 73.0459C59.0335 72.8202 59.2215 72.5498 59.4014 72.2747C59.5868 71.9917 59.8078 71.6675 59.8688 71.3316C59.9073 71.1176 59.6414 70.9957 59.5151 71.1829C59.3316 71.4561 59.243 71.8018 59.106 72.1019C58.9663 72.4064 58.7962 72.6939 58.6619 73.0011C58.3387 72.9017 57.9896 72.8561 57.6341 72.8409C58.0827 72.2336 58.849 71.062 58.9413 70.9115C59.3656 70.2147 59.7694 69.4965 60.1553 68.7772C60.5724 67.998 60.9297 67.1865 61.329 66.3983C61.5555 65.9515 61.7838 65.5009 62.0354 65.0674C62.1223 64.9187 62.2154 64.77 62.321 64.6348C62.3416 64.608 62.3676 64.5856 62.3918 64.5605C62.4195 64.5452 62.4482 64.5282 62.4643 64.5194C62.6092 64.4361 62.6603 64.2426 62.7623 64.1198C62.9254 63.922 63.117 63.8987 63.3623 63.8959C63.885 63.8905 64.4098 63.9111 64.9317 63.9254C65.699 63.9469 66.4654 63.9774 67.2318 64.0177C67.4636 64.0302 67.6946 64.0428 67.9265 64.0571C69.0412 64.1235 70.1549 64.2103 71.266 64.3169C72.249 64.4109 73.2321 64.5641 74.216 64.6376C72.8838 67.8037 71.4066 70.9125 69.734 73.913C69.7171 73.9433 69.7045 73.9738 69.6965 74.0042ZM62.3056 82.1609C62.0906 82.2596 61.8818 82.3824 61.6873 82.5223C61.7196 82.3045 61.7276 82.0749 61.7187 81.8445C61.8791 82.0166 62.0843 82.1152 62.3056 82.1609ZM71.4774 76.7145C71.4622 76.7162 71.4479 76.7243 71.4407 76.7395C71.1435 77.353 71.2678 78.0382 71.7532 78.5191C72.0074 78.7699 72.5616 79.053 72.5436 79.465C72.5284 79.7981 72.1659 80.0776 72.011 80.3526C71.8669 80.6087 71.8132 80.8899 71.9286 81.1677C72.0764 81.5232 72.4891 81.6647 72.6306 82.0141C72.8096 82.4573 72.5187 82.9921 72.3145 83.3781C72.1247 83.7354 71.8793 84.0928 71.7165 84.4708C70.6251 85.036 68.1487 86.0623 67.8505 86.1197C67.4871 86.1904 67.1227 86.2576 66.7573 86.3204C66.0563 86.4421 65.3535 86.5549 64.6489 86.6544C64.2478 86.7108 63.8459 86.7663 63.4439 86.8102C63.0929 86.8478 62.6972 86.8989 62.4143 86.6348C61.844 86.1008 62.1636 85.2061 62.5244 84.6669C62.5316 84.6563 62.5316 84.6463 62.5289 84.6374C62.8691 84.5576 63.2084 84.4645 63.5468 84.3991C64.1977 84.2737 64.8531 84.1681 65.5093 84.0741C66.8577 83.8814 68.2149 83.7542 69.5703 83.6263C69.9061 83.5939 69.9097 83.0656 69.5703 83.0969C67.6231 83.2752 65.666 83.4443 63.7447 83.8197C63.263 83.9128 62.7848 84.0185 62.3095 84.1376C62.0848 84.1932 61.844 84.2801 61.6085 84.2828C61.5942 84.2828 61.5798 84.2828 61.5655 84.2818C61.1044 84.2675 61.0373 83.8726 61.2907 83.5438C61.322 83.5035 61.3542 83.4632 61.3874 83.4247C61.835 82.8908 62.3927 82.5344 62.9675 82.1654C63.6113 82.0776 64.2532 81.8823 64.8835 81.739C66.4395 81.3843 67.9956 81.0297 69.5525 80.6759C69.8577 80.606 69.728 80.1367 69.4227 80.2057C68.2409 80.4736 67.0591 80.7413 65.8772 81.0091L64.1476 81.4015C63.802 81.4793 63.3704 81.636 62.9639 81.6925C62.7634 81.7202 62.5692 81.7238 62.3937 81.6827C61.827 81.5483 61.7983 80.8398 62.0427 80.4188C62.3167 79.946 62.8342 79.6504 63.2935 79.3826C64.0894 78.9177 64.9363 78.5836 65.7636 78.1985C65.9104 78.1663 66.0573 78.134 66.2041 78.1018C67.0582 77.9137 68.0341 77.8214 68.8381 77.4767C69.0789 77.3745 68.9472 76.9947 68.7091 77.0001C68.0851 77.0136 67.4324 77.2357 66.8227 77.3673C66.1629 77.5106 65.5022 77.6531 64.8423 77.7955C64.7761 77.8098 64.3839 77.9352 64.3248 77.9074C64.2872 77.8895 64.2738 77.7588 64.2613 77.6728C64.2209 77.3897 64.1914 77.0925 64.2353 76.8085C64.332 76.1716 64.8629 75.8725 65.4001 75.628C66.5962 75.0843 67.9078 74.7441 69.2132 74.6078C69.514 74.5765 69.8148 74.5569 70.1175 74.5469C70.4728 74.5362 70.7656 74.4735 70.9456 74.8237C71.2285 75.3754 71.3843 76.0849 71.4774 76.7145ZM69.8161 96.7184C69.5555 95.8167 69.6264 94.8538 69.4479 93.9341C69.3557 93.4596 69.2299 92.9888 69.0926 92.5256C68.9818 92.1514 68.7969 91.7534 68.7759 91.3629C68.7747 91.3368 68.8054 91.3218 68.8265 91.3338C69.1942 91.5444 69.4766 91.9999 69.6863 92.3572C69.9373 92.7849 70.129 93.2327 70.2836 93.7036C70.5918 94.6416 70.8448 95.773 70.4474 96.7184C70.3291 96.9998 69.9137 97.0562 69.8161 96.7184ZM59.6448 103.545C59.2564 103.274 58.9734 102.894 58.644 102.56C58.3201 102.231 58.8265 101.724 59.1505 102.053C59.4315 102.339 59.6755 102.695 60.0062 102.926C60.1654 103.037 60.2391 103.238 60.1348 103.416C60.0426 103.574 59.8035 103.655 59.6448 103.545ZM57.4788 93.1239C58.1878 92.8172 58.8851 92.4832 59.6271 92.2623C60.0705 92.1302 60.2583 92.8219 59.8175 92.9532C59.1341 93.1567 58.4932 93.4602 57.8403 93.7425C57.4212 93.9238 57.0569 93.3063 57.4788 93.1239ZM49.9916 92.9094C49.8182 92.4815 50.5114 92.2971 50.6822 92.719C50.8789 93.2046 51.1044 93.6778 51.301 94.1634C51.4743 94.5914 50.7812 94.7759 50.6104 94.354C50.4137 93.8683 50.1882 93.3952 49.9916 92.9094ZM42.6014 101.456C42.4859 101.61 42.2933 101.693 42.1114 101.584C41.959 101.493 41.866 101.25 41.9829 101.094C42.3243 100.639 42.6701 100.189 43.0702 99.7834C43.3946 99.4544 43.9008 99.9615 43.5767 100.29C43.2194 100.652 42.9063 101.049 42.6014 101.456ZM41.5446 53.5031C41.8734 53.7278 42.1614 54.0007 42.4423 54.2815C42.7688 54.6079 42.2622 55.1145 41.9357 54.788C41.6991 54.5514 41.4604 54.3112 41.1831 54.1218C41.0229 54.0124 40.951 53.8088 41.0546 53.6317C41.1475 53.4729 41.3848 53.394 41.5446 53.5031ZM52.2966 65.0336C52.1107 65.4059 51.9434 65.7709 51.9328 66.1941C51.9216 66.6551 51.2053 66.6553 51.2167 66.1941C51.2304 65.6403 51.4345 65.16 51.6781 64.6719C51.8842 64.2587 52.5018 64.6221 52.2966 65.0336ZM56.2411 55.7732C56.6262 55.5164 56.9844 56.1374 56.6027 56.3919C56.2933 56.5982 55.9838 56.8047 55.6744 57.011C55.2895 57.2677 54.9313 56.6468 55.3129 56.3923C55.6223 56.1859 55.9317 55.9796 56.2411 55.7732ZM39.1305 71.964C39.0648 72.4194 38.3747 72.2246 38.4398 71.7736C38.5405 71.0766 38.6634 70.3889 38.8524 69.71C38.9762 69.2657 39.6669 69.4556 39.5431 69.9005C39.3541 70.5794 39.2311 71.2671 39.1305 71.964ZM36.6196 80.1716C36.1586 80.1618 36.1585 79.4453 36.6196 79.4551C37.0368 79.4639 37.4469 79.5737 37.8493 79.6742C38.297 79.7861 38.1061 80.4769 37.6589 80.3651C37.3187 80.2801 36.9723 80.1791 36.6196 80.1716ZM35.6924 96.7056C35.534 96.7828 35.3715 96.8522 35.2114 96.9254C34.8908 97.072 34.5704 97.2188 34.25 97.366C33.5827 97.6725 32.9157 97.98 32.2493 98.2885C30.9153 98.9063 29.571 99.5022 28.2338 100.113C26.8702 100.736 25.5101 101.368 24.1518 102.003C23.5118 102.301 22.867 102.589 22.2234 102.88C21.6732 103.129 20.993 103.564 20.389 103.605C20.3579 103.607 20.3475 103.568 20.3652 103.548C20.5935 103.288 20.9575 103.137 21.2574 102.968C21.5638 102.796 21.8759 102.634 22.1866 102.469C22.8342 102.126 23.4827 101.785 24.1366 101.454C25.4447 100.792 26.7552 100.135 28.066 99.478C29.4029 98.8084 30.738 98.1342 32.0866 97.4883C32.7216 97.1842 33.3572 96.881 33.9931 96.5787C34.3376 96.415 34.6823 96.2515 35.027 96.0884C35.1759 96.0179 35.3232 95.9418 35.4755 95.8788C35.6777 95.795 35.8314 95.8121 36.04 95.7605C36.3802 95.6765 36.5275 96.1093 36.2664 96.2978C36.0513 96.453 35.9381 96.5857 35.6924 96.7056ZM30.9109 104.053C30.8374 103.874 30.9913 103.657 31.1611 103.612C31.3644 103.558 31.5274 103.682 31.6016 103.862C31.798 104.34 32.0777 104.778 32.4377 105.149C32.7594 105.48 32.2532 105.986 31.9312 105.655C31.4801 105.191 31.156 104.649 30.9109 104.053ZM27.3931 92.5517C27.0666 92.2251 27.5732 91.7185 27.8996 92.0451L28.8278 92.9736C29.1544 93.3002 28.6477 93.8068 28.3214 93.4803L27.3931 92.5517ZM17.8698 91.0378C17.2025 91.2336 16.4241 91.4136 15.9691 91.9832C15.9469 92.011 15.9096 91.9753 15.9229 91.9475C16.5054 90.7395 18.1758 90.3158 19.3324 89.8926C20.1504 89.5931 20.9898 89.3449 21.8362 89.1231C21.7516 88.1571 21.9849 87.1219 22.066 86.1606C22.1526 85.1344 22.2231 84.1055 22.2592 83.076C22.2962 82.0259 22.3052 80.9686 22.2706 79.9182C22.2362 78.8716 22.1004 77.8379 22.0409 76.7948C22.0352 76.694 22.1756 76.6891 22.2059 76.7725C22.5574 77.7404 22.7075 78.8126 22.8219 79.8332C22.9397 80.8846 22.9789 81.933 22.9638 82.9905C22.9482 84.0778 22.885 85.1625 22.7983 86.2464C22.7572 86.7601 22.7095 87.2731 22.6644 87.7865C22.6301 88.1783 22.6141 88.5669 22.5343 88.9462C23.0448 88.8209 23.5564 88.7023 24.0665 88.5871C25.6929 88.2199 27.3261 87.8792 28.9457 87.4822C29.7407 87.2874 30.5244 87.054 31.3158 86.8467C32.0611 86.6516 32.8477 86.4149 33.6128 86.3279C33.8859 86.2967 33.9206 86.6704 33.7399 86.7972C33.118 87.234 32.2921 87.5382 31.5738 87.7827C30.8529 88.028 30.1035 88.2045 29.3646 88.3862C27.8237 88.7654 26.2682 89.0754 24.715 89.3982C23.164 89.7208 21.61 90.0409 20.0765 90.4388C19.3379 90.6305 18.6019 90.8229 17.8698 91.0378ZM14.2126 71.8684C13.8139 72.1026 13.4539 71.4831 13.8512 71.2497C14.3711 70.9444 14.9252 70.7151 15.4838 70.4913C15.9125 70.3197 16.0969 71.013 15.6742 71.1823C15.1722 71.3833 14.6798 71.5941 14.2126 71.8684ZM12.7689 98.4886C12.369 98.7206 12.0087 98.1011 12.4074 97.87C12.9673 97.5453 13.5805 97.3286 14.1608 97.0445C14.5736 96.8423 14.9362 97.4606 14.5222 97.6632C13.9421 97.9473 13.3288 98.1639 12.7689 98.4886ZM12.1194 83.378C12.506 83.7454 13.0219 83.9183 13.5084 84.1113C13.9326 84.2794 13.7466 84.9721 13.318 84.8022C12.7119 84.5618 12.0945 84.3422 11.6129 83.8846C11.2779 83.5662 11.7852 83.0605 12.1194 83.378ZM16.3964 62.8562C16.8214 63.023 16.6353 63.7157 16.206 63.5472C15.7299 63.3604 15.2382 63.2182 14.7621 63.0313C14.3372 62.8646 14.5232 62.172 14.9525 62.3403C15.4286 62.5272 15.9203 62.6694 16.3964 62.8562ZM23.9413 54.7053C24.3929 54.6292 24.5852 55.3197 24.1318 55.3963C23.5692 55.4913 23.0151 55.6025 22.4815 55.809C22.0506 55.9758 21.8658 55.2827 22.2911 55.1181C22.8248 54.9116 23.3788 54.8003 23.9413 54.7053ZM26.4344 74.5512C26.0203 74.3475 26.3836 73.7299 26.7958 73.9325C27.2302 74.1462 27.6803 74.3113 28.1543 74.4123C28.6056 74.5084 28.4134 75.1991 27.9638 75.1033C27.4304 74.9895 26.9229 74.7915 26.4344 74.5512ZM28.7888 63.3723C29.2347 63.2502 29.4233 63.9415 28.9793 64.0633C28.1981 64.2774 27.3939 64.3887 26.607 64.5792C26.1585 64.6878 25.9688 63.9967 26.4166 63.8883C27.2034 63.6977 28.0078 63.5866 28.7888 63.3723ZM38.7773 59.864C39.2307 59.9479 39.0375 60.6384 38.587 60.555C38.1074 60.4663 37.6213 60.4648 37.1351 60.4646C36.6735 60.4644 36.6743 59.7479 37.1351 59.748C37.6875 59.7483 38.2328 59.7633 38.7773 59.864ZM71.3538 63.6075C70.1836 63.4956 69.0117 63.406 67.8379 63.3388C67.7832 63.336 67.7296 63.3325 67.6749 63.3298C67.6687 63.3173 67.6607 63.3056 67.6525 63.293C67.2694 62.7306 66.9874 62.1682 66.743 61.5322C66.5093 60.9267 66.2828 60.3025 65.9229 59.7562C65.5124 59.1337 64.9582 58.6467 64.3508 58.2245C63.9824 58.4724 63.6405 58.7626 63.3277 59.0701C62.9985 59.3937 62.4919 58.8871 62.8212 58.5635C63.0992 58.2901 63.3959 58.0376 63.7095 57.8095C63.3474 57.5893 62.9779 57.3825 62.6174 57.1766C61.2663 56.4056 59.8832 55.6925 58.4713 55.0406C57.815 54.7369 57.1507 54.4673 56.4819 54.1941C56.1219 54.0473 55.7666 53.8582 55.4067 53.6882C55.4326 53.4337 55.3565 53.1489 55.1614 52.9814C55.0172 52.8587 54.9053 52.813 54.7334 52.7262C54.6949 52.7127 54.6716 52.7046 54.6609 52.7002C54.6689 52.702 54.6922 52.7091 54.7306 52.7217C54.822 52.7638 54.8292 52.7512 54.7522 52.6849C54.7477 52.5399 54.462 52.2336 54.3968 52.084C54.1694 51.5707 54.0986 51.028 53.7629 50.5604C53.3 49.9165 52.5229 49.6729 51.7985 49.8914C51.7234 49.1167 51.7037 48.308 51.4118 47.6164C51.4038 47.5977 51.3778 47.5896 51.3662 47.6102C51.0618 48.1288 51.0358 48.7064 51.0125 49.3047C50.9901 49.8663 51.0115 50.4404 51.085 50.9984C51.0385 51.0342 50.991 51.0684 50.9418 51.1014C50.7108 51.2537 50.4619 51.371 50.2005 51.458C49.7027 51.6227 49.1807 51.6943 48.6588 51.7194C47.3113 51.7839 45.9227 51.6478 44.5977 51.4167C43.2574 51.1829 41.2027 50.8318 40.0101 50.161C39.2231 49.7186 38.4971 49.1785 37.7611 48.6554C38.0279 47.7956 38.096 46.8713 37.8274 46.1449C37.7952 46.058 37.6591 46.0419 37.6331 46.1449C37.4648 46.8381 37.4156 47.5349 37.1917 48.2201C37.1882 48.23 37.1846 48.2408 37.181 48.2506C37.1112 48.2032 37.0413 48.1565 36.9715 48.1099C36.8103 48.0034 36.591 48.0832 36.4943 48.2353C34.948 50.6724 32.4995 50.8121 29.9281 51.2475C27.1141 51.7239 24.2859 52.238 21.5803 53.1704C18.9929 54.0625 16.5201 55.3612 14.5612 57.3012C14.1177 57.7404 13.703 58.2084 13.3116 58.697C13.6903 58.7447 14.0659 58.8191 14.4366 58.9356C14.8756 59.0735 14.687 59.7651 14.2462 59.6265C13.7697 59.4768 13.288 59.4027 12.8013 59.3658C11.4702 61.1874 10.4324 63.2528 9.53494 65.2859C7.81355 69.1838 6.69307 73.335 6.17747 77.5613C6.46056 77.3916 6.74876 77.2299 7.04412 77.0796C7.45453 76.8708 7.8165 77.4891 7.40565 77.6983C6.9494 77.9304 6.50622 78.1863 6.07684 78.4638C5.88927 80.3138 5.81657 82.1756 5.86062 84.0346C5.96537 88.4663 6.56343 93.0278 7.91624 97.2562C8.57966 99.3314 9.45884 101.39 10.7687 103.143C11.3614 103.938 12.0346 104.654 12.8279 105.252C13.212 105.542 13.6184 105.801 14.0473 106.019C14.5997 106.302 15.3195 106.395 15.7958 106.796C15.9525 106.928 16.0733 107.101 16.1647 107.297C16.1118 107.67 16.1056 108.043 16.2076 108.416C16.2399 108.533 16.3276 108.627 16.4359 108.673C16.4377 108.705 16.4377 108.737 16.4377 108.767C16.4377 108.781 16.4592 108.785 16.4619 108.771C16.4664 108.743 16.4709 108.715 16.4753 108.687C16.5102 108.698 16.547 108.704 16.5846 108.704C17.9445 108.709 19.3062 108.676 20.6679 108.629C20.5627 108.307 20.4486 107.987 20.3391 107.664C20.1904 107.226 20.8824 107.039 21.0297 107.474C21.1579 107.851 21.2918 108.225 21.411 108.603C22.87 108.549 24.3287 108.484 25.7847 108.436C28.8815 108.333 31.9775 108.299 35.0751 108.233C39.8857 108.131 44.7313 107.923 49.5492 108.127C49.7159 107.773 49.9023 107.427 50.0792 107.078C50.2878 106.667 50.9055 107.03 50.6976 107.44C50.5747 107.683 50.4474 107.922 50.3264 108.164C51.3022 108.215 52.277 108.282 53.2498 108.373C54.9097 108.529 56.5535 108.806 58.2116 108.978C59.8974 109.153 61.5466 109.122 63.2191 108.843C63.5199 108.793 63.6972 108.611 63.7706 108.386C63.7732 108.385 63.7751 108.383 63.7768 108.38C63.8627 108.28 63.9434 108.197 64.0265 108.124C64.126 108.06 64.2335 108.005 64.3597 107.957C64.5952 107.867 64.8405 107.812 65.0894 107.776C65.3633 107.735 65.6409 107.731 65.9148 107.697C66.1457 107.667 66.3714 107.623 66.597 107.57C67.0026 107.473 67.3876 107.347 67.7708 107.179C68.1047 107.033 68.4064 106.824 68.6912 106.595C69.2803 106.164 69.7905 105.615 70.2365 105.043C70.4961 104.709 70.7405 104.362 70.9625 104.001C71.3493 103.376 71.6788 102.727 72.0118 102.072C72.1327 101.878 72.243 101.679 72.3438 101.477C71.6929 101.285 71.0358 101.128 70.3458 101.117C69.8845 101.11 69.8846 100.393 70.3458 100.401C71.1371 100.413 71.8857 100.598 72.6294 100.819C72.6657 100.722 72.7004 100.625 72.7326 100.527C72.8212 100.322 72.8946 100.112 72.9555 99.8984C72.9912 99.8016 73.0271 99.7049 73.0629 99.6082C73.1435 99.2732 73.2241 98.9373 73.3055 98.6015C73.4676 98.0641 73.5955 97.5186 73.6896 96.966C73.7684 96.6024 73.8293 96.236 73.8705 95.8652C73.9958 94.9669 74.0979 94.0704 74.1051 93.1622C74.0943 92.6024 74.0585 92.0435 73.9976 91.4873C73.9717 91.1093 73.9278 90.7332 73.8687 90.3597C73.7917 89.8044 73.7156 89.2545 73.5876 88.7063C73.4918 88.3356 73.396 87.9647 73.3002 87.5939C73.0611 86.821 72.7791 86.0632 72.454 85.3225C72.4362 85.276 72.3457 85.1738 72.2912 85.1729C72.25 85.172 72.1926 85.2097 72.2114 85.2599C72.2133 85.2643 72.215 85.2697 72.2169 85.2741C72.1981 85.2321 72.1802 85.1891 72.1614 85.147C72.1452 85.1076 72.0826 85.0288 72.0342 85.0297C72.0315 85.0297 72.0288 85.0297 72.0253 85.0305C72.0378 85.0217 72.0494 85.0099 72.0611 84.9966C72.3825 84.6159 72.5911 84.1152 72.8212 83.6745C73.0119 83.3109 73.1918 82.9275 73.2438 82.5164C73.2893 82.1556 73.2277 81.7999 73.0012 81.5079C72.7433 81.1756 72.258 81.0198 72.5275 80.5397C72.8337 79.9934 73.2841 79.5196 72.8355 78.8989C72.6072 78.5827 72.2455 78.4091 71.9769 78.134C71.668 77.816 71.5211 77.3906 71.5293 76.9562C71.5481 76.967 71.5731 76.9617 71.5821 76.9347C71.8417 76.1501 71.6537 75.2886 71.3878 74.5245C71.2428 74.1099 70.9356 73.9961 70.5785 73.9756C72.1255 70.9528 73.5732 67.8815 74.8634 64.7395C74.9064 64.6365 74.9484 64.5336 74.9904 64.4305C75.0532 64.2765 74.9207 64.0715 74.7676 64.0373C73.652 63.7928 72.4899 63.7149 71.3538 63.6075Z" fill="black"/>
<path fill-rule="evenodd" clip-rule="evenodd" d="M59.2985 17.2751C59.1001 16.7731 58.7492 16.1421 58.1627 16.1169C57.709 14.7264 56.581 13.3103 55.012 13.3479C50.4066 8.62658 44.6087 8.84915 38.5469 9.84861C35.3488 10.4432 32.1015 11.6076 29.7163 13.9053C26.8595 16.6103 25.7471 21.3303 27.9842 24.7509C26.0508 25.7896 26.0133 28.2544 26.8401 30.0331C25.8462 30.7222 25.7858 32.3945 26.905 32.9201C26.8455 33.1644 26.8876 33.417 27.001 33.6341C26.4461 34.0972 25.7239 34.4392 25.1268 34.7332C24.8629 34.8632 24.7107 35.0755 24.6474 35.3147C22.6869 36.6041 17.7983 39.7552 17.8566 42.2631C17.8278 43.5715 18.7959 44.4325 19.9724 44.7754C19.2724 46.1782 18.7411 47.8168 19.4111 49.3301C19.5963 49.7874 20.984 51.1311 21.0539 51.1559C21.176 51.2609 23.1668 50.3446 24.1343 49.8773C24.3219 51.1008 25.627 51.7418 26.7519 51.3225C27.8185 51.0002 28.4742 50.0949 29.1469 49.2715C30.0399 51.2243 32.6671 51.2467 34.3652 50.4048C35.8901 49.6986 37.0493 48.4042 37.6951 46.8444C41.1242 48.5273 45.1362 49.0178 48.8617 48.3456C49.1008 48.7698 49.63 49.0547 50.1015 48.8906C52.0825 48.2936 54.2729 48.2601 55.9522 46.8922C59.4525 44.3735 59.7472 39.7301 59.5031 35.7719C59.2867 31.8254 59.4762 27.846 58.7605 23.9422C59.0711 22.7928 59.5877 21.7766 60.0656 20.6968C60.5849 19.5646 60.574 17.8814 59.2985 17.2751Z" fill="#D08B5B"/>
<path fill-rule="evenodd" clip-rule="evenodd" d="M43.408 9.44141L43.5441 9.44194C43.769 9.44343 43.9936 9.44788 44.2176 9.45529C45.4014 9.49434 46.6359 9.64829 48.0259 9.91181L48.2373 9.95252C48.583 10.0204 48.8927 10.0885 49.3867 10.2041L50.367 10.4357C50.8662 10.5523 51.2336 10.633 51.5726 10.6979L51.6169 10.7063C51.6169 10.7063 54.2294 11.9617 55.0732 12.7875L55.1574 12.8706L55.1932 12.9065L55.56 12.9181L55.5636 12.9645L55.5667 12.965C55.9309 13.0218 56.2604 13.2109 56.5668 13.5054L56.5995 13.5373L56.631 13.569C56.8698 13.8124 57.0602 14.0718 57.3224 14.4829L57.3819 14.5768L57.4885 14.7464L57.5749 14.8826C57.631 14.9716 57.6849 15.0597 57.7367 15.147L57.7877 15.2341L57.8245 15.2981L58.7716 15.8519C58.9081 15.9318 59.0323 16.035 59.1459 16.1587L59.1766 16.193L59.2068 16.2282L59.4649 16.536L59.4129 16.5903L59.438 16.6235L59.4831 16.6854L59.527 16.7481L59.5698 16.8116L59.5882 16.8395L59.6161 16.8998L59.6296 16.9299L59.6404 16.9547L59.6727 16.9714L59.7385 17.0904C60.08 17.708 60.2639 18.4094 60.2763 19.1301C60.2849 19.6273 60.2237 20.0788 60.0785 20.5143C59.978 20.8155 59.8433 21.0522 59.6105 21.378L59.4265 21.631L59.3889 21.6832L59.344 21.7467C59.3369 21.7569 59.3299 21.7669 59.3231 21.7768C59.0238 22.2113 56.4667 23.0336 54.895 23.0733L54.8477 23.0743L54.7873 23.0749C54.6373 23.0755 54.4923 23.0701 54.3527 23.0584C53.748 23.0077 53.1828 22.8802 52.5261 22.6716L52.3899 22.6275L51.6664 22.3838C51.6433 22.3762 51.6247 22.3701 51.6119 22.366L51.5458 22.3453C51.3865 22.2963 51.2707 22.2681 51.1917 22.2579L51.1757 22.256L51.174 22.286L51.1735 22.3142L51.1735 22.3372C51.1782 22.6711 50.976 22.9144 50.6622 23.0695C50.4625 23.1682 50.2051 23.2388 49.882 23.2917L49.8304 23.2999C49.3024 23.3817 48.6726 23.4166 47.619 23.4406C47.5789 23.4415 47.5385 23.441 47.4977 23.4391C47.2714 23.4287 47.0937 23.3901 46.7632 23.295L46.607 23.25L46.5223 23.2266C46.3651 23.184 46.2776 23.167 46.1949 23.1624L46.1708 23.1613L46.1469 23.1609C46.0476 23.1608 45.9759 23.183 45.9053 23.237L45.8692 23.266L45.3834 23.6739C45.3202 23.7267 45.2635 23.7735 45.2219 23.8067L45.2051 23.82C44.5384 24.344 43.9028 24.6434 43.154 24.6718L43.1039 24.6733L43.0517 24.6739C43.0136 24.674 42.9755 24.6733 42.9372 24.6718C42.6219 24.6598 42.2945 24.5426 41.8476 24.3167L41.7549 24.2692L41.6901 24.2353C41.657 24.2178 41.6225 24.1995 41.5851 24.1794L41.2516 24.0005L41.0812 23.9113C40.8776 23.8063 40.7641 23.7556 40.6877 23.7348L40.6752 23.7315L40.6681 23.7384C40.4912 23.9115 40.3395 24.1293 40.1762 24.4301L40.1516 24.4758L40.1158 24.5439L39.8839 25.0068L39.84 25.0929C39.6678 25.4271 39.5317 25.6406 39.3534 25.828C39.0947 26.0999 38.7814 26.2577 38.3975 26.283L38.3589 26.2851L38.3132 26.2862C38.1324 26.288 37.9408 26.2601 37.7331 26.2023L37.6849 26.1884L37.6379 26.174C37.3284 26.076 36.8392 26.137 36.4507 26.3437C36.0288 26.5682 35.7964 26.9108 35.8068 27.3485C35.8119 27.566 35.8369 27.7991 35.8807 28.0517L35.8931 28.1211C35.9507 28.4335 36.0288 28.7468 36.149 29.1649L36.4076 30.0393L36.4368 30.1413L36.466 30.2463C36.508 30.3992 36.5415 30.5324 36.5691 30.6579C36.6746 31.1375 36.6922 31.4977 36.5864 31.8045C36.12 33.1575 35.3107 33.8762 34.3894 33.9066L34.3575 33.9073L34.3181 33.9074C33.6103 33.8997 32.9689 33.4374 32.9767 32.8384C32.9775 32.7757 32.9894 32.7172 33.0101 32.6643L33.0196 32.642L33.0241 32.6325L33.0168 32.6145C32.7992 32.0925 32.2961 31.7114 31.7054 31.6367L31.6718 31.6328L31.6387 31.6296C31.6063 31.6268 31.5739 31.6248 31.5433 31.6237L31.5132 31.623L31.4773 31.6227C30.69 31.6239 29.9109 32.1493 29.298 33.0088C29.1702 33.1881 29.0516 33.3838 28.945 33.5905L28.91 33.6599L28.7396 34.0093L28.6244 34.3473C27.9903 36.2084 28.3114 38.1558 29.5492 39.1627L29.587 39.1929C30.0329 39.5435 30.5574 39.7565 31.1173 39.8139C31.1818 39.8205 31.2466 39.8247 31.309 39.8264L31.3553 39.8272L31.4085 39.827C31.5909 39.8246 31.7654 39.8019 31.9222 39.7594C32.05 39.7248 32.139 39.6829 32.2009 39.6293C32.2172 39.6152 32.2303 39.6025 32.2416 39.5898L32.2511 39.5784L32.2547 39.5736L33.1007 39.6993C33.2446 40.6151 33.6603 41.5639 34.3365 42.652L34.3791 42.7202L34.4534 42.8376L34.529 42.955C35.3247 44.1819 36.2121 45.215 37.1876 46.0078L37.2558 46.0627L37.3472 46.1354L37.4311 46.2012C37.5941 46.328 37.7299 46.4268 37.8658 46.5148L37.8998 46.5367L38.2206 46.7404L38.0716 47.0906C37.7242 47.9076 37.2447 48.6504 36.6537 49.2829L36.598 49.3418L36.1872 49.7665L35.8713 49.3633C35.8689 49.3602 35.8618 49.3564 35.8534 49.3548L35.8476 49.3541H35.8444L35.8401 49.3545L35.8351 49.3559L35.8299 49.3582C35.5934 49.4868 35.4635 49.585 35.2769 49.7773L35.2499 49.8055L35.2183 49.8387L35.1749 49.8841C34.981 50.0832 34.7738 50.2528 34.548 50.394C34.0263 50.7199 33.4473 50.901 32.8478 50.9174L32.7915 50.9184L32.7349 50.9184C32.7146 50.9183 32.6942 50.9179 32.6738 50.9173C31.4229 50.8825 30.302 50.0792 29.7511 48.9017C29.7292 48.8549 29.7091 48.8397 29.672 48.8366L29.6614 48.8361L29.6482 48.8359C29.5563 48.8365 29.4437 48.8913 29.3809 48.965L29.3698 48.979L29.1589 49.263L29.078 49.3702C28.3258 50.3603 27.7082 50.9018 26.8786 51.0663C26.8133 51.0792 26.7442 51.0871 26.6708 51.0904L26.6263 51.0922H26.6003C26.2435 51.0932 25.8324 50.9896 25.5119 50.8071C25.0881 50.5657 24.826 50.1945 24.8592 49.7346L24.8617 49.7051L24.8676 49.6559C24.8953 49.4104 24.6992 49.2769 24.5492 49.3974L24.539 49.4061L24.5266 49.4174C23.9086 49.9984 23.1977 50.4442 22.432 50.7194L22.3643 50.7432L22.2637 50.7776C21.7809 50.941 21.4404 51.022 21.0819 51.0283C20.7716 51.0337 20.5136 50.9215 20.327 50.7058C20.2025 50.5619 20.1265 50.402 20.0505 50.1688L20.0379 50.1292L20.0102 50.0385L19.993 49.9794C19.7709 49.1959 19.766 48.358 19.9404 47.4336C20.0707 46.7431 20.2781 46.076 20.6268 45.1409L20.6945 44.9607L20.8342 44.5929C20.8483 44.556 20.7644 44.4273 20.7124 44.4127L20.7063 44.4116L20.6589 44.4167C20.6257 44.4198 20.5922 44.4221 20.5579 44.4234L20.5057 44.4247H20.4715C19.3387 44.4131 18.4734 43.2994 18.4815 42.1197C18.4902 41.0146 19.0446 40.0644 20.103 38.9365L20.195 38.8394L20.2945 38.7361L20.3928 38.6352C21.3333 37.6752 22.2948 36.8371 23.2961 36.1184L23.379 36.0591L23.4713 35.9938C23.8085 35.7567 24.1363 35.5417 24.59 35.259L24.857 35.0937L25.9394 33.8133C25.9654 33.7985 25.991 33.7838 26.0162 33.7691L26.03 33.3249L27.0728 33.3465C26.8082 33.2104 26.5889 33.0452 26.4109 32.8336C25.8189 32.13 25.8932 31.1525 26.6129 30.6722L26.6383 30.6556L26.9417 30.4678L27.19 30.6862C27.4062 30.8763 27.6356 31.0024 27.8747 31.0606L27.9126 31.0693L28.0997 31.109L28.1361 31.1682L28.1572 31.1375C28.1571 31.1345 28.1565 31.1314 28.1555 31.1285L28.1537 31.1241L28.1497 31.118L28.1261 31.089L28.1001 31.0578C28.0169 30.9597 27.9234 30.8644 27.7537 30.7006L27.6346 30.5859L27.5419 30.4955C27.2987 30.256 27.1692 30.1077 27.0315 29.9017C26.6888 29.3891 26.4953 28.8112 26.4872 28.2243C26.4704 27.0037 27.2276 25.8497 28.3498 25.323C28.3891 25.3046 28.4181 25.1735 28.371 25.0869C27.2845 23.0883 26.983 20.6925 27.5287 18.4639C28.038 16.3847 29.305 14.5494 31.119 13.1435C34.2329 10.7298 38.5525 9.4852 43.1357 9.44234L43.2747 9.44141H43.408Z" fill="#ECDCBF"/>
<path fill-rule="evenodd" clip-rule="evenodd" d="M26.7554 34.0267C26.9617 33.9748 27.0725 34.2527 26.8974 34.3644C25.7856 35.0733 24.6371 35.7064 23.5631 36.4778C22.5417 37.211 21.5982 38.0463 20.7184 38.9443L20.6209 39.0444C19.8255 39.8647 18.9446 40.9083 18.9356 42.1184C18.9287 43.059 19.6521 44.0857 20.6614 43.9621C21.0417 43.9155 21.3912 44.3992 21.2585 44.7479L21.1189 45.1154C20.5573 46.6026 19.986 48.2877 20.4296 49.8524L20.4458 49.9082C20.5531 50.2664 20.6662 50.5831 21.0811 50.5759C21.466 50.5691 21.8666 50.4389 22.227 50.3147C22.9749 50.0569 23.6527 49.6269 24.2279 49.0861C24.7368 48.6078 25.3869 49.0937 25.3184 49.7016L25.3159 49.721C25.2222 50.4031 26.3062 50.7198 26.799 50.6223C27.772 50.4294 28.4657 49.452 29.0183 48.7069C29.2839 48.3489 29.9291 48.208 30.1624 48.7069C30.6249 49.6953 31.578 50.434 32.6931 50.465C33.2723 50.481 33.828 50.3158 34.3186 50.0093C34.5188 49.8841 34.6979 49.7353 34.8621 49.5666L34.9029 49.524C35.1459 49.2658 35.3136 49.1285 35.624 48.9599C35.9298 48.7937 36.3254 48.9997 36.3235 49.3622C36.321 49.8317 36.1838 50.1438 35.8608 50.4844C35.5936 50.7664 35.2761 51.014 34.9423 51.2118C34.2715 51.6091 33.474 51.8327 32.6931 51.8068C31.4622 51.7659 30.2872 51.1509 29.5256 50.1943C28.748 51.1264 27.7834 51.9829 26.5298 51.9599C25.5914 51.9427 24.7168 51.4529 24.2978 50.6941C23.7063 51.103 23.057 51.4226 22.3625 51.6314L22.3006 51.6498C21.3175 51.9366 20.1861 52.0506 19.5533 51.0722C18.9592 50.1536 18.9149 48.8815 19.051 47.8315C19.1726 46.8936 19.4605 46.0029 19.7911 45.1243C18.8501 44.8426 18.1198 43.9566 17.8689 43.0014C17.4894 41.5571 18.2256 40.1564 19.1358 39.0832C20.1246 37.9174 21.369 36.9314 22.6227 36.0684C23.8732 35.2077 25.2739 34.399 26.7554 34.0267ZM58.9064 22.7296C58.9087 22.6895 58.9743 22.6754 58.9804 22.7195C59.4123 25.8612 59.6623 28.9967 59.8693 32.16C59.9743 33.7626 60.0935 35.3636 60.2239 36.9642C60.3491 38.4991 60.5574 40.0748 60.5104 41.6159C60.4367 44.0292 59.2677 45.9914 57.351 47.4035C55.5144 48.7567 53.236 49.4258 51.0006 49.7084C49.7024 49.8726 48.3861 49.8805 47.0865 49.7263C46.4115 49.6462 45.7373 49.5395 45.0762 49.3794L44.7903 49.3077C44.2697 49.1744 43.6884 48.9935 43.6141 48.3753C43.5781 48.0758 43.7368 47.855 43.993 47.7047C44.3271 47.5087 44.7101 47.6241 45.0543 47.7134C45.6344 47.8638 46.2207 47.993 46.8135 48.0823C48.0869 48.2743 49.3959 48.2857 50.6758 48.1528C52.8288 47.929 55.0998 47.229 56.7598 45.7832C57.4812 45.155 58.1085 44.3895 58.4384 43.4801C58.8626 42.3109 58.7998 41.0354 58.7856 39.811C58.7527 36.9642 58.7817 34.1174 58.7422 31.2703C58.7025 28.4145 58.7371 25.5812 58.9064 22.7296ZM37.2562 9.42531C39.7719 8.77489 42.325 8.60588 44.9091 8.80167C47.346 8.98617 50.1221 9.53279 52.1125 11.0354C52.2091 11.1083 52.1513 11.2464 52.0317 11.2273C50.7011 11.0146 49.404 10.6279 48.0791 10.372C46.8047 10.1259 45.5074 9.94112 44.2098 9.8983C39.8212 9.7533 34.9379 10.7502 31.399 13.4932C29.7397 14.7793 28.4734 16.5086 27.9694 18.5662C27.4526 20.6766 27.7322 22.9589 28.7701 24.868C28.9196 25.1429 28.8579 25.5777 28.5461 25.724C27.6 26.1681 26.9261 27.1519 26.9407 28.2135C26.9478 28.7284 27.1249 29.2222 27.4094 29.6478C27.7103 30.0979 28.1684 30.4128 28.5049 30.8331C28.6374 30.9986 28.6425 31.2266 28.5375 31.379C28.7344 31.4654 28.9466 31.5118 29.1403 31.6139C29.3045 31.7006 29.3092 31.9709 29.1403 32.0562C28.7133 32.2718 28.2516 32.043 27.9633 31.6954C27.9119 31.6333 27.8674 31.5687 27.8268 31.5028C27.4816 31.4294 27.1723 31.2558 26.9022 31.0182C26.3876 31.3272 26.3171 32.0148 26.7592 32.5403C26.985 32.8086 27.3057 32.9742 27.6299 33.0932L27.6688 33.1073C27.9842 33.2196 28.2732 33.2823 28.4781 33.5353C28.6133 33.2528 28.7685 32.9865 28.9414 32.7439C29.5703 31.8619 30.537 31.0795 31.684 31.1788C32.5826 31.2565 33.361 31.9014 33.5451 32.7911C33.5587 32.8569 33.4597 32.9083 33.4302 32.8396C32.9992 31.8319 31.6352 31.795 30.8227 32.3201C29.8672 32.9377 29.345 34.1016 29.1355 35.1856C28.9293 36.2534 29.0485 37.5521 29.8457 38.3643C30.1719 38.6967 30.6156 38.9265 31.0788 38.987C31.3052 39.0168 31.5049 38.9875 31.7214 38.9438L31.8648 38.9138C31.9644 38.8932 32.0633 38.8765 32.1677 38.8857L32.3233 38.9067L32.4117 38.9481C32.4883 38.9827 32.4814 38.9732 32.3909 38.9197C32.6552 38.898 32.7918 39.0938 32.8063 39.3085C32.8147 39.3139 32.8228 39.3197 32.8296 39.328C33.8325 40.5585 34.5772 41.9728 35.6415 43.1629L35.9531 43.5116C36.754 44.4048 37.6685 45.3732 38.7565 45.8366L38.886 45.8903C39.2026 46.0243 39.5205 46.2078 39.5608 46.5903C39.597 46.933 39.3276 47.1909 39.0169 47.2708C38.3095 47.4528 37.5031 46.8225 36.985 46.409C35.8709 45.52 34.9346 44.3868 34.1614 43.1945L34.085 43.0758C33.4493 42.0806 32.8519 40.9456 32.6663 39.7645L32.6328 39.8189C32.6303 39.8228 32.6283 39.8257 32.627 39.8274C32.5892 39.879 32.5474 39.9226 32.499 39.9643C32.3689 40.0769 32.2103 40.1426 32.0454 40.1872C31.736 40.271 31.3968 40.2874 31.0788 40.2548C30.4327 40.1887 29.8289 39.9422 29.3182 39.5407C27.7633 38.3183 27.5797 36.0435 28.2086 34.198C27.6925 34.3215 27.1048 33.9734 26.7018 33.675C26.2398 33.3327 25.8587 32.8386 25.7677 32.2573C25.6773 31.6805 26.0441 30.9167 26.5882 30.6941C26.0236 30.0146 25.695 29.0502 25.661 28.2781C25.602 26.935 26.3138 25.6655 27.4067 24.9326C26.379 22.7248 26.181 20.1633 26.8729 17.819C28.246 13.1671 32.8457 10.5657 37.2562 9.42531ZM33.3409 44.7697L33.3538 44.7288C33.4632 44.3691 33.6046 43.6535 34.1407 43.9259C34.6529 44.1861 34.3259 44.9563 34.1468 45.3312C33.9325 45.7798 33.5623 46.1395 33.0652 46.2359C32.6609 46.3142 32.2168 46.2136 31.934 45.9004C31.8515 45.8091 31.805 45.709 31.7561 45.5984C31.7371 45.5554 31.7285 45.526 31.7249 45.5068C31.7203 45.5279 31.7071 45.5592 31.6733 45.5961C31.4476 45.8433 31.2344 46.1311 31.0707 46.4235C31.0319 46.4927 30.9097 46.4442 30.9406 46.3685C31.1313 45.9008 31.0993 45.1776 31.5244 44.8393C31.8992 44.5411 32.2513 44.7758 32.4496 45.1231L32.4597 45.1411C32.7494 45.6685 33.2111 45.1676 33.3409 44.7697ZM29.2645 43.08L29.3036 43.0255C29.7043 42.4765 30.3801 41.816 31.0563 42.3266C31.2713 42.489 31.2793 42.76 31.0563 42.9212L30.9719 42.9816C30.6765 43.1915 30.3824 43.3898 30.1654 43.6909C29.9296 44.0182 29.7179 44.3649 29.4009 44.6216C28.8403 45.0757 27.9343 45.1653 27.4478 44.5531L27.3999 44.4924C27.3592 44.4398 27.3126 44.3766 27.2747 44.3134L27.2451 44.3544C27.2422 44.3586 27.2395 44.3625 27.237 44.3662L27.2303 44.3766C27.0303 44.6969 26.7777 44.9606 26.4632 45.1688C25.8653 45.5642 25.1916 45.6192 24.5152 45.4099C24.449 45.3893 24.4667 45.3004 24.5308 45.2945C25.3323 45.2194 26.1132 44.6486 26.4392 43.9135L26.476 43.831C26.608 43.5386 26.7558 43.2608 27.0817 43.146C27.3989 43.0342 27.732 43.1522 27.9495 43.3928C28.1314 43.5939 28.1783 43.9936 28.5064 43.9055C28.8657 43.8089 29.068 43.3578 29.2645 43.08ZM26.9691 38.1966C27.1467 38.0613 27.4247 38.2064 27.4736 38.4024C27.695 39.2896 26.7752 40.3351 25.8912 40.3626C25.6637 40.3696 25.4448 40.3144 25.2432 40.2089C25.0869 40.127 24.9019 39.9178 24.7303 39.8831C24.5086 39.8384 24.3122 40.1343 24.1561 40.2862C23.9625 40.4748 23.771 40.6498 23.5541 40.8105C23.4674 40.8747 23.333 40.7668 23.3696 40.6682L23.443 40.4722C23.7086 39.7743 24.166 38.7555 25.0221 39.0451C25.4416 39.187 25.7573 39.6655 26.199 39.2866C26.5527 38.9832 26.5857 38.4887 26.9691 38.1966ZM30.7464 34.6245C31.5445 33.7061 33.4206 34.1911 33.7763 35.3085C33.855 35.5552 33.7729 35.876 33.5807 36.0506C33.3274 36.2807 32.9661 36.3504 32.6586 36.1699C32.394 36.0147 32.2853 35.7607 32.0908 35.5428C31.8056 35.2235 31.4176 35.0462 31.0177 34.9192C30.9178 34.9719 30.8248 35.0411 30.7413 35.1246C30.6986 35.1673 30.6179 35.1087 30.6558 35.0584C30.7073 34.99 30.7702 34.9256 30.8417 34.8662L30.8073 34.8561C30.7021 34.8267 30.6793 34.7018 30.7464 34.6245ZM35.9334 24.4845C36.1122 24.4848 36.3206 24.6532 36.2977 24.8498L36.2908 24.9044C36.2393 25.2786 36.1194 25.4906 35.7457 25.6645C35.4286 25.8118 35.0955 25.8932 34.748 25.9254C34.6165 25.9376 34.4773 25.9383 34.3362 25.9279L34.3065 26.0997C34.2475 26.4433 34.1929 26.7871 34.1826 27.1374C34.1635 27.7866 34.4052 28.3217 34.6644 28.9013C35.1619 30.0148 35.2178 31.1263 34.6761 32.2382C34.5969 32.4007 34.3726 32.5333 34.1916 32.5168C33.9569 32.4955 33.8435 32.4274 33.707 32.2382C33.5923 32.0793 33.6185 31.8546 33.6979 31.6885L33.707 31.6702C33.9799 31.1401 34.0659 30.5412 33.9266 29.9585C33.7956 29.4108 33.4989 28.9185 33.3664 28.3725C33.1506 27.4832 33.3804 26.6009 33.8296 25.8379C33.4906 25.74 33.177 25.5656 32.9678 25.2995L32.9687 25.2991C32.8888 25.2136 32.9324 25.0349 33.0726 25.0456L33.2311 25.0585C33.6846 25.0965 34.102 25.136 34.5605 25.0093C34.7956 24.9442 34.9985 24.8358 35.2003 24.7046L35.2436 24.6761C35.496 24.5079 35.636 24.4842 35.9334 24.4845ZM37.0184 17.9112C38.1552 17.8464 39.1257 18.5985 39.5975 19.5997C40.11 20.6866 39.895 21.9337 39.4426 23.0031L39.3141 23.3024C39.0892 23.821 38.7939 24.4377 38.3332 24.7159C37.8157 25.0285 37.3684 24.666 37.521 24.0898C37.6119 23.7467 37.858 23.4821 38.0572 23.1988C38.243 22.9344 38.4164 22.6607 38.5685 22.3751C38.8664 21.8152 39.0887 21.1912 39.0863 20.5497C39.0821 19.3787 38.3104 18.0368 37.0184 18.054C36.9261 18.055 36.9276 17.9163 37.0184 17.9112ZM42.7678 16.0219C42.6969 15.968 42.7603 15.8481 42.8395 15.8987C44.1578 16.7392 45.142 18.318 45.3402 19.869C45.4502 20.7295 45.3662 21.6492 45.0006 22.4433C44.7909 22.899 44.4311 23.3341 43.9279 23.459C43.4653 23.5737 42.9885 23.3089 42.8449 22.8562C42.7892 22.6806 42.885 22.4969 43.0297 22.401C43.4987 22.0901 43.8763 21.6978 44.0973 21.1701C44.3272 20.6214 44.4188 20.0391 44.4216 19.4473C44.4284 18.0613 43.8766 16.8667 42.7678 16.0219ZM58.8707 16.6223C58.8097 16.5545 58.8865 16.4545 58.9672 16.497C59.9202 16.9995 60.5258 17.9619 60.6993 19.016C60.8693 20.048 60.6406 21.4529 59.8438 22.1993C59.3941 22.6206 58.5886 22.0603 58.9624 21.5176C59.226 21.1349 59.5109 20.8197 59.6618 20.3675C59.7963 19.964 59.8439 19.5571 59.8366 19.1331C59.8206 18.2081 59.491 17.312 58.8707 16.6223ZM47.2194 15.33C48.8476 15.2523 49.8344 17.1157 50.0605 18.5046C50.2 19.3627 50.0951 20.2465 49.6225 20.9908L49.5945 21.0342C49.2046 21.6287 48.4956 22.3133 47.7317 22.0317C47.4084 21.9127 47.3223 21.5655 47.5395 21.3021C47.8719 20.8988 48.3856 20.7345 48.6981 20.3039C49.0487 19.8211 49.1636 19.2162 49.1433 18.629L49.1405 18.5641C49.0862 17.484 48.5723 15.4109 47.2194 15.4476C47.1435 15.4496 47.1444 15.3335 47.2194 15.33ZM52.3119 15.0208C53.8868 14.819 54.8459 16.6764 55.1417 17.956C55.3264 18.7559 55.3668 19.6482 55.1305 20.4421L55.1129 20.4987C54.9205 21.0912 54.353 22.1064 53.6121 21.8036C53.4091 21.7207 53.202 21.4947 53.2992 21.2511C53.4233 20.9396 53.6024 20.8589 53.8411 20.6596C54.025 20.5062 54.1534 20.2859 54.2479 20.069C54.4997 19.4908 54.5558 18.8154 54.5214 18.1924L54.5166 18.1187C54.4276 16.9018 53.7695 15.0882 52.3119 15.1216C52.2453 15.1231 52.2499 15.0287 52.3119 15.0208ZM55.1953 13.2744C56.0719 12.9398 56.79 13.78 57.2939 14.3797C57.9251 15.131 58.4977 15.9404 58.8213 16.8758C59.1096 17.7092 59.1604 18.6358 58.9007 19.4842C58.7721 19.9042 58.5718 20.2938 58.2984 20.6366L58.2635 20.6799C57.979 21.0277 57.7043 21.2414 57.2382 21.1169C57.0485 21.0661 56.9684 20.8781 57.0012 20.6984C57.0714 20.3145 57.2688 20.2148 57.5244 19.9469C57.7498 19.7105 57.917 19.4194 58.0295 19.1134C58.2614 18.482 58.2735 17.798 58.1178 17.1476C57.9436 16.4195 57.6007 15.7471 57.2039 15.117L57.1184 14.982C56.698 14.3159 56.0987 13.29 55.212 13.3981C55.1361 13.4074 55.1351 13.2974 55.1953 13.2744Z" fill="black"/>
<path fill-rule="evenodd" clip-rule="evenodd" d="M52.0184 39.619C53.0812 39.619 53.5312 39.7918 54.2227 40.1983C54.9141 40.6047 55.6533 41.1286 55.8281 41.9134C55.9913 42.6446 55.6703 43.3571 54.9599 43.636C54.5625 43.7921 49.984 44.1575 49.2657 44.2053C48.5475 44.253 47.8621 44.194 47.4008 43.7155C46.2091 42.4791 47.8641 40.876 48.9216 40.2841C49.8659 39.7553 50.9556 39.619 52.0184 39.619ZM51.7722 40.4529C50.9727 40.4529 49.663 41.0378 49.663 41.3226C49.663 41.6074 53.4801 41.3247 53.562 41.0811C53.6438 40.8374 52.5716 40.4529 51.7722 40.4529ZM52.3874 33.9256C53.0635 34.3367 54.0937 35.2954 53.3664 36.3146C52.5102 37.2132 51.2776 36.1828 50.6702 35.7169C50.107 35.3557 49.4742 36.2846 49.9968 36.7063C54.3859 39.957 56.1671 34.0331 52.7294 33.4423C52.3509 33.3772 52.2103 33.7985 52.3874 33.9256ZM44.7528 30.1999C45.9044 29.3493 47.6269 30.004 47.9107 31.3347C48.108 31.4385 48.2153 31.6035 48.2387 31.8452L48.2445 31.9056C48.2723 32.1927 48.017 32.4644 47.7618 32.5401C47.4745 32.6252 47.247 32.5812 46.9803 32.4591C46.7247 32.342 46.6357 32.01 46.6821 31.7573L46.6863 31.7364C46.7546 31.4229 46.4859 31.1191 46.2154 30.9948C45.9102 30.8547 45.5677 30.9424 45.3024 31.1282C45.0077 31.3343 44.7627 31.6868 44.6798 32.0381L44.6715 32.0746C44.6061 32.3778 44.557 32.9467 44.8511 33.1209C44.9032 33.1517 44.8661 33.2222 44.8123 33.2129C44.1732 33.1036 43.7926 32.719 43.7887 32.031C43.7846 31.3025 44.1758 30.626 44.7528 30.1999ZM55.3569 29.9578C56.5069 29.5497 57.9451 30.6459 57.5021 31.912C57.2112 32.7433 56.0861 32.41 56.1909 31.5768L56.1945 31.5514C56.2612 31.1179 55.933 30.9134 55.5306 31.0557C54.9343 31.2666 54.6127 32.204 54.8921 32.7509C54.9264 32.818 54.8305 32.8749 54.7906 32.8102L54.7523 32.7486C54.4403 32.2515 54.1556 31.8846 54.2581 31.2496C54.3525 30.6643 54.8002 30.1552 55.3569 29.9578ZM53.0243 26.944C53.0214 26.888 53.0803 26.8503 53.1306 26.863C53.5394 26.9659 53.9094 27.2632 54.2817 27.4561C54.688 27.6666 55.1041 27.8367 55.5453 27.9614C55.9753 28.0828 56.4097 28.1434 56.8566 28.1396C57.3401 28.1356 57.8134 27.954 58.2876 27.969C59.0007 27.9915 59.3732 29.0286 58.671 29.3851C57.6486 29.904 56.1322 29.527 55.1377 29.0956C54.3372 28.7484 53.0764 27.9279 53.0243 26.944ZM47.8308 27.1814C48.2038 26.7009 48.9585 26.6721 49.2896 27.2382C49.6317 27.823 49.2206 28.4094 48.6393 28.5304C47.5785 29.0048 46.4919 29.3679 45.3332 29.5185L45.1763 29.5383C44.1678 29.661 42.8952 29.7279 41.9839 29.2626C41.8946 29.2169 41.9217 29.0809 42.011 29.0553C42.5247 28.9084 43.1001 28.9087 43.6284 28.8123C44.1309 28.7206 44.6293 28.6193 45.1187 28.4707C46.0855 28.177 47.0016 27.7573 47.8308 27.1814Z" fill="black"/>
<path fill-rule="evenodd" clip-rule="evenodd" d="M49.0232 41.5707C49.0232 41.5707 49.9324 40.0923 51.4282 40.0923C52.9239 40.0923 54.6559 40.8707 54.5348 41.2408C54.4701 41.4385 53.0792 41.9971 50.759 42.0192C50.1836 42.0246 49.0232 41.5707 49.0232 41.5707Z" stroke="#22252B" stroke-width="0.883929"/>
</g>
</svg>
