<svg width="100" height="104" viewBox="0 0 100 104" fill="none" xmlns="http://www.w3.org/2000/svg">
<rect x="0.0539551" y="0.508545" width="99.5893" height="103.125" rx="5.89286" fill="#1B8FE3"/>
<mask id="mask0" mask-type="alpha" maskUnits="userSpaceOnUse" x="0" y="0" width="100" height="104">
<rect x="0.0537109" y="0.589478" width="99.5893" height="103.125" rx="5.89286" fill="#1BE3B3"/>
</mask>
<g mask="url(#mask0)">
<path fill-rule="evenodd" clip-rule="evenodd" d="M45.845 116.809C38.5795 116.829 34.2279 116.744 26.0098 116.625C16.498 116.373 13.9345 116.826 8.60589 115.779C7.79116 115.606 7.17134 115.344 6.54266 114.978C6.31731 115.233 5.93529 115.612 5.57251 115.361C4.90426 114.919 5.21063 113.376 5.04491 112.504C4.77059 104.83 4.3318 96.9267 5.83179 89.3453C4.92243 89.0495 -0.406048 86.8567 -0.697021 86.1221C4.12159 73.5175 14.6921 58.7674 28.5996 59.3229C28.8793 59.6679 29.1281 60.1785 29.4385 60.5298C31.3294 59.8215 33.9541 59.1116 34.0837 56.3844C34.4111 54.5644 34.647 52.8651 34.8047 51.1923C34.8332 51.001 35.0626 50.9353 35.2035 50.8538C35.2634 50.4213 35.4009 49.9792 35.6994 49.6826C38.1368 49.4636 43.7007 50.4691 45.1607 50.8834C47.1526 51.2244 46.9454 53.3629 47.3164 54.984C47.9046 56.988 48.3141 59.0679 49.1882 61.0258C49.386 61.053 49.94 61.1495 50.1442 61.1852C50.1549 60.9634 50.0509 60.3049 50.2542 60.1705C50.631 59.7917 50.718 60.5123 50.8017 60.7473C59.0324 59.1925 64.4146 66.1796 66.2182 73.9843C67.5244 77.9093 69.2553 81.8815 71.5148 86.1416C72.9317 88.7866 68.8609 89.2781 67.1545 90.3337C68.9153 97.1878 69.1273 104.168 69.4163 111.076C69.4926 112.139 69.5963 113.584 69.22 114.112C69.0415 114.251 68.9174 114.247 68.7364 114.258C68.3871 114.635 67.788 114.61 67.2836 114.717C65.6893 115.007 64.0555 115.201 62.5205 115.23C58.2119 117.898 51.5695 116.406 45.845 116.809Z" fill="#D08B5B"/>
<rect x="20.6111" y="70.1624" width="39.2143" height="25.7948" fill="white"/>
<path fill-rule="evenodd" clip-rule="evenodd" d="M34.2048 51.1873C34.4312 50.0538 36.3013 50.3164 36.2163 51.4595C35.2723 55.7139 35.847 60.8928 29.8801 60.4741C33.6678 67.1392 45.3644 71.1929 49.1451 62.4423C47.2821 62.2199 46.9135 57.8143 46.6886 56.2728L46.6793 56.135C46.6294 55.3422 46.6461 54.6074 47.1226 53.9294C47.598 54.2854 47.7891 54.9302 47.95 55.5182L48.0679 55.9891C48.462 57.5585 48.8744 59.1207 49.4997 60.6185L49.5218 60.6221C49.4906 59.6062 50.7942 59.1418 51.1174 60.23C59.9378 59.0149 64.7627 66.2965 66.6664 73.9118C68.0549 78.0805 69.865 82.091 71.9211 85.9676C73.4729 88.9966 69.7046 89.6899 67.7114 90.6977C69.2444 96.842 69.5454 103.207 69.8295 109.509C69.7353 110.854 70.3431 113.613 69.5313 114.578C68.3292 115.519 67.6815 113.906 67.8666 112.871C68.0392 105.559 67.278 98.2791 67.0594 90.9784C65.5545 91.6144 64.0312 92.2004 62.4909 92.7448C62.5693 99.5958 63.3836 106.447 63.6741 113.263C64.0551 113.563 64.2656 114.084 63.9402 114.537C62.1976 116.969 59.0471 117.332 56.2751 117.367C49.6782 117.449 43.0745 117.424 36.4772 117.404C29.9968 117.257 23.46 117.672 17.0138 116.929C15.7506 117.879 15.4922 115.833 15.6614 114.96L15.7257 113.211C15.7689 112.046 15.8147 110.881 15.8736 109.716L16.0205 106.876C16.2664 102.143 16.527 97.4126 16.9405 92.689C13.196 92.1769 9.5053 91.2678 5.93224 90.041C6.22635 98.2412 5.623 106.529 6.62905 114.688C7.29292 115.589 5.96152 116.435 5.1843 115.87C4.22042 115.135 4.63378 113.697 4.44129 112.638L4.4166 111.954C4.1468 104.574 3.77823 97.0395 5.15324 89.761L4.56179 89.5315C2.75887 88.8273 -1.87768 86.9443 -1.26966 86.0152C3.57079 73.3271 14.3987 58.1511 28.7394 58.8723C29.1027 59.1245 29.2882 59.6159 29.5577 59.9681L29.9842 59.8132C31.6366 59.2081 33.431 58.441 33.4799 56.4065C33.7927 54.6729 34.0408 52.9389 34.2048 51.1873ZM57.8382 82.8132C59.8925 79.9389 45.6448 84.4816 44.6318 84.7815L44.2504 84.9205C38.0101 87.1899 31.2827 89.3845 26.3068 93.9081C26.2023 94.0227 26.3324 94.1809 26.4677 94.1167L26.4851 94.1065C26.683 93.9963 27.5402 93.6902 26.9329 93.8061C34.1227 89.2703 42.4756 86.7787 50.6374 84.5995C51.8235 84.3126 53.0152 84.0488 54.2116 83.8087C55.4185 83.5153 56.7804 83.5185 57.8382 82.8132ZM35.3245 81.8779C35.5003 81.1614 36.681 74.5766 34.7199 76.3831C34.1971 77.3306 33.9963 78.4285 33.9022 79.4954C33.6493 80.7392 34.2877 82.0798 33.667 83.2265C33.1112 84.7242 31.0688 86.4738 30.9323 83.6912C34.274 83.577 33.2708 79.3413 30.9957 80.6508C29.75 81.7175 29.5344 83.726 30.1581 85.1974C29.151 84.1008 27.5179 84.0971 26.3522 83.2696C24.2471 80.9932 27.7829 78.6243 29.7083 77.8044C29.8167 77.685 31.3951 77.1347 31.0606 77.0681C29.5492 77.0821 28.0345 77.4038 26.7302 78.1991C24.0305 79.5167 23.1116 83.5961 26.1999 85.0258C26.8677 85.3476 27.5985 85.5207 28.2597 85.8531C29.9258 86.717 29.3875 87.8028 27.6674 87.8347C26.96 87.9893 24.6253 87.3415 24.8867 88.5818C25.309 89.3573 26.2287 89.4728 27.0344 89.4945C29.1878 89.6422 31.8654 88.4254 30.6484 85.8913C32.1175 87.1433 33.9518 85.393 34.5814 84.0327C35.3486 85.5377 37.2771 85.0845 38.3654 84.194C40.0284 85.504 42.1149 84.0479 42.8557 82.4216C42.8708 82.7599 42.886 83.0982 42.9024 83.4366C42.9358 84.1301 44.0102 84.3528 44.169 83.6081C44.4106 82.476 44.7436 81.3565 45.2018 80.2924C46.2557 77.495 46.9002 78.7564 46.9369 80.9485C47.0667 81.7715 47.4787 82.509 48.3881 82.5644C48.6415 82.5799 48.9722 82.3544 49.0117 82.0894L49.0641 81.7389C49.1749 81.0044 49.3032 80.2481 49.5804 79.558C49.8475 81.8424 52.8382 81.8314 53.672 79.9372C55.4019 80.9758 57.2171 79.5248 58.0236 78.0242L58.0477 77.9788C58.3296 77.4655 57.6134 76.8449 57.204 77.3275L57.0619 77.4756C56.2898 78.275 55.0613 79.4342 54.046 78.4469C54.0798 78.0017 54.0662 77.5469 54.0388 77.1089C54.0059 76.5866 53.2852 76.1219 52.8754 76.589C52.2978 76.0981 51.5804 76.1687 50.9762 76.5112C49.4112 76.9536 48.4254 78.4776 48.0859 79.9924C48.0498 78.7821 47.654 77.469 46.3249 77.3551C44.9633 77.3436 44.442 78.8664 43.9776 79.8913C43.9507 79.4323 43.9247 78.9734 43.9013 78.5143C43.8613 77.7244 42.766 77.7326 42.6763 78.4909L42.6739 78.5144C42.5014 80.1531 41.594 84.0788 39.3043 83.3106C40.2698 82.2466 42.0163 79.0045 40.3559 77.9947C37.8007 77.3514 36.4899 81.3837 37.5797 83.2602L37.5231 83.2998C36.9006 83.7294 35.8718 84.2077 35.5243 83.2447L35.4849 83.1559C35.3064 82.7488 35.1488 82.3078 35.3245 81.8779ZM31.6689 81.423C32.1527 81.1405 32.3249 82.0761 32.2014 82.3901C32.0035 82.8938 31.4638 83.1744 30.9259 83.3664L30.9278 83.3095C30.9515 82.7342 31.1433 81.7303 31.6689 81.423ZM39.8131 79.0879C39.8241 79.1553 39.8062 79.2377 39.804 79.3003C39.7213 80.4031 39.2308 81.462 38.5487 82.3227C38.156 81.1534 38.6621 79.6082 39.8131 79.0879ZM51.4454 77.7087C51.7589 77.626 52.0913 77.6492 52.4145 77.7366C52.391 78.1042 52.4708 78.4719 52.6308 78.8093C51.7964 81.3158 49.835 79.3863 51.4454 77.7087Z" fill="black"/>
<path fill-rule="evenodd" clip-rule="evenodd" d="M50.4858 24.5483C44.6098 19.7605 35.1935 18.2059 28.9036 23.0362C24.0163 27.5694 21.9938 40.4512 22.8587 46.9243C23.0992 51.0761 26.2632 55.7819 30.9078 54.4688C31.6965 54.391 32.4624 54.0879 33.2583 54.0244C34.2104 53.9145 35.1698 53.9126 36.12 54.0472C38.1906 54.3408 40.0261 55.4429 42.0357 55.9582C45.7647 56.9142 49.9255 56.2712 53.1353 54.1176C63.7425 47.1264 58.9378 31.3149 50.4858 24.5483Z" fill="#D08B5B"/>
<path fill-rule="evenodd" clip-rule="evenodd" d="M49.703 56.0733C49.812 56.0356 49.9207 55.9964 50.0287 55.9561C50.0358 55.9811 50.0474 56.0052 50.0609 56.0286C50.076 56.0661 50.0912 56.1027 50.1081 56.1394C49.9725 56.1404 49.8368 56.1161 49.703 56.0733ZM49.4853 9.67637C49.4372 9.56824 49.3818 9.4645 49.3193 9.36424C49.471 9.41352 49.6227 9.48149 49.7601 9.56914C49.6673 9.60044 49.5762 9.63621 49.4853 9.67637ZM26.2752 23.8434C26.2689 23.8423 26.2628 23.8414 26.2566 23.8404C26.3364 23.6274 26.4785 23.4264 26.6354 23.2813C26.6636 23.2552 26.6941 23.2311 26.7236 23.2062C26.557 23.4051 26.4058 23.6173 26.2752 23.8434ZM68.7437 46.0859C68.6651 45.3389 68.565 44.5947 68.4355 43.8549C68.3113 43.1465 68.2068 42.3888 67.8467 41.76C67.4894 41.1339 67.1311 40.5257 66.7059 39.975C66.7666 39.6937 66.8471 39.4295 66.9167 39.2164C67.3187 37.9893 67.7146 36.4309 66.8792 35.2907C66.6853 35.0265 66.4486 34.8241 66.1778 34.6414C66.0626 34.5634 65.8715 34.4927 65.7829 34.3852C65.7204 34.3091 65.7419 34.3503 65.7392 34.3127C65.724 34.1102 66.1975 33.683 66.3083 33.5227C66.5156 33.2261 66.6701 32.8922 66.788 32.5509C67.2544 31.2003 66.9372 29.7126 66.6568 28.3592C66.5085 27.6418 66.345 26.9226 66.2913 26.19C66.2413 25.5021 66.3351 24.8304 66.3905 24.1461C66.4442 23.4707 66.4299 22.774 66.1412 22.1487C66 21.8442 65.7866 21.5755 65.5265 21.3659C65.2729 21.1609 64.9565 21.0418 64.7092 20.8376C64.4625 20.6342 64.5331 20.3593 64.5975 20.078C64.6858 19.6965 64.7975 19.3176 64.8082 18.9236C64.8279 18.2366 64.5482 17.5674 64.1115 17.0481C63.6611 16.5116 63.0178 16.1487 62.3228 16.0672C62.0047 16.0296 61.692 16.0933 61.3757 16.0709C61.063 16.0494 60.9952 15.8927 60.9362 15.6061C60.8005 14.9495 60.8558 14.3011 60.5333 13.6885C60.2474 13.1439 59.739 12.7748 59.177 12.5573C58.147 12.1578 56.949 12.2402 55.8625 12.4757C55.2211 10.5841 53.219 9.34365 51.249 9.32842C50.9416 8.80536 50.4207 8.41486 49.8267 8.18548C48.8439 7.80483 47.803 8.02704 46.7792 8.02704H46.7748C46.6719 8.02068 46.5692 8.01808 46.4665 8.01898C46.37 8.01351 46.2735 8.00545 46.177 7.9948C45.012 7.85678 43.8595 7.3785 42.7052 7.84701C42.1906 8.0557 41.7814 8.37724 41.5224 8.78745C41.132 8.89394 40.7468 9.01584 40.369 9.15735C38.7313 9.20025 37.1088 10.0807 36.2807 11.5075C35.1148 11.375 33.8498 11.5998 33.0787 12.5546C32.8778 12.803 32.7223 13.0949 32.6192 13.4048C31.833 13.6597 31.1055 14.1139 30.6294 14.798C30.1949 15.4223 30.1114 16.2294 30.4053 16.8996C29.7034 17.4093 29.155 18.139 28.8908 19.0006C28.7302 19.5241 28.7064 20.065 28.8097 20.5802C28.0911 20.74 27.4038 21.0362 26.7948 21.4807C26.1567 21.9464 25.3596 22.6875 25.3177 23.5406C25.3145 23.6032 25.3169 23.6658 25.3219 23.7282C23.9171 23.6292 22.4846 23.8678 21.5349 24.997C20.8219 25.8442 20.512 26.9352 20.7023 27.9284C19.0307 28.2688 17.4502 29.1447 16.3477 30.4399C15.5464 31.3812 14.8343 32.5778 14.8771 33.8594C14.8905 34.2455 14.9809 34.6342 15.1372 34.9934V34.9942C15.0702 35.1205 15.0013 35.2612 14.9352 35.4107C13.8997 36.137 13.1475 37.2755 12.724 38.5303C12.3819 39.5468 12.1666 40.867 12.5319 41.9015C12.5874 42.0592 12.658 42.2078 12.7402 42.3457C12.6713 42.4192 12.6062 42.4927 12.5427 42.567C11.8449 43.3846 11.1382 44.4146 11.1865 45.5405C11.2062 45.9938 11.3741 46.4496 11.6484 46.8239C10.6835 47.8048 9.90627 49.0426 9.98302 50.4246C10.0491 51.6274 10.7077 52.8491 11.7395 53.4268C11.5671 54.3538 11.7976 55.3318 12.5176 56.0555C12.8769 56.4174 13.3003 56.6556 13.7488 56.7828C13.8489 57.8746 14.8155 58.7532 15.842 59.0057C16.0333 59.0533 16.2245 59.0819 16.4147 59.0953C17.3385 59.5495 18.4401 59.4974 19.3826 59.0809C19.6605 59.4348 20.0223 59.7232 20.444 59.9301C20.6146 60.0143 20.7952 60.0842 20.9836 60.1405C22.3148 60.5355 23.68 60 24.8441 59.3748C24.8816 59.3551 24.9504 59.33 25.0111 59.3023C25.1719 59.4823 25.465 59.6605 25.6178 59.7483C26.136 60.0466 26.7695 60.1853 27.3645 60.146C28.0622 60.0994 28.6777 59.8683 29.2477 59.5396C29.3309 59.5539 29.4148 59.562 29.4988 59.5665C30.0349 59.5951 30.5128 59.425 30.9426 59.1563C31.2266 59.1939 31.5179 59.1903 31.8127 59.1384C32.4623 59.304 33.0948 59.0407 33.6031 58.6225C33.8283 58.4371 34.0185 58.2194 34.2223 58.0116C34.434 57.7957 34.5949 57.7456 34.8422 57.6005C35.4275 57.2575 35.498 56.3878 35.2443 55.759C35.2925 55.6489 35.3203 55.5262 35.3203 55.3901C35.3184 54.2024 34.7727 53.1133 34.1026 52.163C33.8032 51.7394 33.4781 51.3246 33.1215 50.9485C32.8347 50.6466 32.4319 50.1568 32.0075 50.034C31.9816 50.0152 31.9547 49.9963 31.9279 49.9785C32.0102 49.69 32.0584 49.3963 32.0379 49.0963C32.0164 48.7881 31.9172 48.4961 31.7583 48.2472C32.2916 47.211 32.5168 46.0744 32.4096 44.8885C32.8437 44.2713 33.1725 43.5898 33.3422 42.8429C33.4467 42.3807 33.5067 41.8944 33.4986 41.4205C33.495 41.1931 33.4119 40.9055 33.4102 40.67C33.4227 40.7443 33.5192 40.4667 33.5567 40.3976C33.9873 39.5961 34.5403 38.9709 34.6324 38.026C34.6859 37.4733 34.5555 36.8626 34.2249 36.4094C34.4366 35.5728 34.434 34.6744 34.1007 33.8765C34.0114 33.6633 33.9087 33.4546 33.7908 33.2567C33.8452 33.0901 33.8953 32.9217 33.9596 32.7703C33.9847 32.7102 34.0096 32.6494 34.0346 32.5885C34.2767 32.3744 34.5019 32.1407 34.6914 31.9113C35.1112 31.4036 35.432 30.8214 35.4722 30.1505C35.4918 29.8146 35.4132 29.4931 35.3158 29.1743C35.2729 29.0301 35.247 28.8698 35.196 28.7292C35.1675 28.6511 35.0987 28.5715 35.0746 28.4981C35.0692 28.482 35.0647 28.4685 35.0611 28.4578C35.0647 28.447 35.0675 28.4246 35.0675 28.3825C35.0683 28.0609 35.1103 27.7465 35.1121 27.4367C35.4061 27.7341 35.7599 27.9561 36.1619 28.0861C36.9721 28.3467 37.8174 28.2285 38.5347 27.8263C39.3067 28.3566 40.1741 28.8365 41.0837 29.0292C41.6241 29.1438 42.1656 29.0964 42.7079 29.1671C43.2466 29.2379 43.7675 29.4734 44.2749 29.6571C45.4043 30.0664 46.5308 30.4863 47.6636 30.885C48.5785 31.2065 49.5684 31.4618 50.5262 31.2809C50.7951 31.6964 51.1445 32.0476 51.5921 32.3055C51.9127 32.4891 52.2647 32.6135 52.6283 32.6754C52.95 32.73 53.3271 32.7085 53.5879 32.9298C53.8425 33.1447 54.0015 33.4653 54.2302 33.7072C54.4849 33.9777 54.7993 34.2123 55.129 34.3807C55.3934 34.516 55.6633 34.6135 55.9375 34.6772C55.9135 35.2889 55.8902 35.8998 55.883 36.5124C55.8697 37.8433 55.875 39.1742 55.8572 40.5052C55.8393 41.8316 55.7974 43.1581 55.7277 44.4828C55.6615 45.726 55.5685 46.9735 55.2728 48.1863C54.2919 52.2105 50.6173 55.0918 46.504 55.2387C45.2828 55.2826 44.0739 55.1106 42.9062 54.7505C41.6966 54.3771 40.6164 53.6085 39.3763 53.3721C39.052 53.3112 38.7465 53.6382 38.9323 53.9524C39.2522 54.4926 39.6408 54.8222 40.1724 55.1472C40.729 55.4868 41.349 55.7385 41.961 55.9588C43.0867 56.3635 44.2777 56.5983 45.4722 56.6637C46.3834 56.7137 47.2982 56.6511 48.1907 56.4792C48.2534 56.6717 48.3642 56.8589 48.448 57.0372C48.4606 57.0631 48.5026 57.0452 48.4946 57.0183C48.4811 56.9736 48.4723 56.9342 48.4687 56.9019C48.7688 57.2942 49.2325 57.5655 49.7087 57.6973C50.0446 57.7904 50.4011 57.819 50.7469 57.7797C50.8586 57.767 50.9648 57.7483 51.0703 57.725C51.4222 58.034 51.8725 58.24 52.3246 58.343C52.2469 58.8159 52.48 59.3318 53.0206 59.4662C53.2475 59.5226 53.4655 59.5235 53.6835 59.5029C53.8595 59.5853 54.0489 59.6498 54.25 59.6937C54.5116 59.751 54.8243 59.6775 55.0218 59.4877C55.1299 59.5638 55.2308 59.6166 55.3309 59.7375C55.7429 60.2355 56.6308 59.8388 56.6701 59.2629C56.8006 59.2629 56.9319 59.2646 57.0633 59.2691C57.0945 59.2835 57.1258 59.2978 57.1579 59.313C57.7324 59.5807 58.3274 59.8146 58.9627 59.6041C59.0797 59.5655 59.1869 59.5163 59.2843 59.459C59.7319 59.4993 60.1732 59.5002 60.6271 59.3533C60.8952 59.2663 61.147 59.1285 61.357 58.9476C62.0574 59.1536 62.7964 59.2467 63.4932 58.9914C64.0149 58.8007 64.4349 58.4998 64.7305 58.1029C65.1827 58.1191 65.6418 58.0098 66.0554 57.794C66.763 57.4268 67.2589 56.729 67.6046 56.0296C68.3659 54.4863 68.8162 52.8285 68.993 51.1187C69.1672 49.4349 68.9188 47.76 68.7437 46.0859Z" fill="black"/>
<path fill-rule="evenodd" clip-rule="evenodd" d="M47.1644 49.6454C46.5626 49.3998 46.0256 48.9901 45.633 48.4667C45.4965 48.2847 45.4611 48.0926 45.4898 47.9169C45.5219 47.7193 45.6388 47.5402 45.7982 47.4201C45.958 47.2996 46.158 47.2401 46.3513 47.2704C46.5193 47.2968 46.6865 47.3888 46.8189 47.5796L46.8465 47.6178C47.0799 47.9337 47.3841 48.1928 47.7306 48.3599C48.0646 48.5209 48.4382 48.5961 48.8248 48.5524C49.5611 48.4692 50.0686 48.0708 50.608 47.5299C50.6748 47.4616 50.7417 47.3911 50.809 47.3196C50.8514 47.2547 50.9103 47.213 50.9757 47.1911C51.0484 47.1668 51.1305 47.1682 51.2058 47.1945C51.2784 47.2198 51.3433 47.2678 51.3868 47.3317C51.4281 47.3925 51.4516 47.4675 51.444 47.5538C51.3946 48.1144 51.1016 48.6147 50.6855 49.0076C50.2233 49.4439 49.6106 49.7457 49.0338 49.8516C48.3983 49.9682 47.7508 49.8847 47.1644 49.6454ZM49.3334 40.9973C50.0094 41.4084 51.0396 42.367 50.3123 43.3862C49.4562 44.2849 48.2236 43.2545 47.6161 42.7885C47.0529 42.4274 46.4201 43.3562 46.9427 43.7779C51.3318 47.0287 53.113 41.1048 49.6753 40.5139C49.2968 40.4488 49.1562 40.8701 49.3334 40.9973ZM41.4681 37.2154C41.5428 36.2879 42.955 36.0772 43.0954 36.9951C43.2212 37.8173 43.0731 38.5726 42.7029 39.3129C42.3492 40.0201 41.4601 39.6901 41.3929 39.0462C41.3027 38.1829 41.4217 37.7924 41.4681 37.2154ZM52.2175 36.8051C52.4144 36.5471 52.6986 36.3711 53.0392 36.4706C54.1033 36.7816 53.7897 38.2929 53.416 39.0285C53.2129 39.4279 52.5566 39.5292 52.2599 39.1775C51.7765 38.6039 51.5449 37.4585 52.1596 36.8935C52.1762 36.8643 52.1948 36.8348 52.2175 36.8051ZM42.6881 33.1564L42.8562 33.1269C43.3761 33.037 44.0227 32.9505 44.3905 33.3687C44.5856 33.5905 44.6527 34.0027 44.3905 34.2149C43.9292 34.5884 43.4193 34.4437 42.8665 34.4753C42.411 34.5015 41.9732 34.5769 41.5344 34.7024C40.5718 34.9776 39.7874 35.4801 38.9652 36.0318C38.8573 36.1041 38.7472 35.9661 38.7987 35.8652C39.2733 34.9352 40.193 34.1713 41.1143 33.7057C41.606 33.4571 42.1441 33.2509 42.6881 33.1564ZM51.2475 32.7403L51.3762 32.7667C52.7762 33.0594 54.5951 33.6442 55.2581 35.0199C55.2834 35.2144 55.2567 35.2561 55.235 35.2834L55.2277 35.2924C55.2099 35.3157 55.1956 35.3478 55.1113 35.3742C55.0879 35.3687 55.0643 35.3627 55.0404 35.3565C54.7365 35.2768 54.4961 35.1671 54.2633 35.0532L54.0109 34.9288C53.7181 34.7852 53.4227 34.6468 53.1097 34.5446C52.4416 34.3266 51.7544 34.173 51.0566 34.091C50.9053 34.0733 50.7597 34.0222 50.6448 33.9347C50.5357 33.8516 50.4524 33.7366 50.4144 33.5837C50.3652 33.3858 50.3793 33.2361 50.4854 33.0576C50.5652 32.9235 50.6794 32.8306 50.8105 32.7773C50.9441 32.7229 51.0963 32.71 51.2475 32.7403Z" fill="black"/>
</g>
</svg>
