<svg width="100" height="104" viewBox="0 0 100 104" fill="none" xmlns="http://www.w3.org/2000/svg">
<rect x="0.107178" y="0.507751" width="99.5893" height="103.125" rx="5.89286" fill="#E164CD"/>
<mask id="mask0" mask-type="alpha" maskUnits="userSpaceOnUse" x="0" y="0" width="100" height="104">
<rect y="0.696777" width="99.5893" height="103.125" rx="5.89286" fill="#1BE3B3"/>
</mask>
<g mask="url(#mask0)">
<path fill-rule="evenodd" clip-rule="evenodd" d="M66.1658 75.113C65.8954 74.3702 66.2903 73.6294 66.5094 72.9108C67.2875 70.4188 65.1591 64.1334 63.6704 64.0415C63.126 62.6325 61.6731 62.048 60.5295 61.2365C59.2318 60.4263 57.9695 59.4956 56.6199 58.7853C56.5448 58.1141 55.7313 57.9477 55.2338 58.4278C53.8674 57.5776 52.2288 57.7355 50.7641 57.1784C49.6512 55.3787 49.5677 53.4864 49.273 51.7502C49.1445 50.9934 49.281 50.2632 48.7641 49.5884C47.0276 47.1452 40.1663 46.0858 37.6365 47.5337C36.2748 46.6841 36.242 48.2228 36.0257 49.1724C35.7853 49.6476 35.6552 50.1856 35.6954 50.7526C35.0507 52.0996 34.5041 53.7845 33.1493 54.7906C31.4302 56.0671 28.7853 56.5524 27.1093 57.1784C26.7333 56.8165 26.6183 56.2932 26.6183 56.2932C24.0207 56.8581 21.4996 57.8512 19.3231 59.4018C16.8505 60.1253 15.1091 62.1371 13.8498 64.2943C13.7111 64.5217 13.6784 64.7536 13.7189 64.9665C9.84662 70.645 7.99848 77.4429 7.73889 84.3088C5.24874 85.8039 8.92246 99.2344 9.77767 102.023C9.77853 102.022 9.77939 102.022 9.78026 102.022C10.3351 103.004 10.965 105.808 12.3536 105.591C13.306 106.669 14.8239 106.457 16.1164 106.54C15.9059 107.347 16.0094 108.272 16.2599 109.07C16.5563 110.02 18.0105 110.052 18.2168 109.016C31.0883 111.518 44.2951 109.522 57.3114 109.898C61.0748 109.924 64.8378 110.041 68.5922 110.309C69.1209 110.347 69.6568 109.806 69.6209 109.28C68.8137 100.689 68.0556 89.3874 67.153 80.8806C66.9389 78.9405 66.7696 76.9792 66.1658 75.113Z" fill="#D08B5B"/>
<path fill-rule="evenodd" clip-rule="evenodd" d="M53.3049 74.4131L57.088 65.8404C57.088 65.8404 57.6597 64.3838 58.6304 64.3838C59.6011 64.3838 68.4029 64.6595 68.4029 64.6595C68.4029 64.6595 70.2042 64.8894 69.6226 65.8404C69.041 66.7913 60.3922 84.4872 60.3922 84.4872H56.7242V83.5931L60.8078 82.451C60.8078 82.451 61.5511 81.6621 60.3922 81.6621C59.2334 81.6621 52.4912 81.4041 52.4912 81.4041L58.92 80.4604L62.1001 79.237L61.6323 78.5938L58.92 78.2062L50.0872 78.5938L52.4912 77.7805L57.8634 76.6398C57.8634 76.6398 58.92 75.8955 58.92 75.1655C58.92 74.4355 56.0895 74.1548 56.0895 74.1548L53.3049 74.4131Z" fill="white"/>
<path fill-rule="evenodd" clip-rule="evenodd" d="M36.2382 48.0642C36.2751 47.9635 36.4256 47.9768 36.4284 48.09C36.4877 50.5055 35.8866 53.4573 33.9544 55.0889C32.9626 55.9264 31.6513 56.3097 30.4471 56.7502L30.3113 56.8003L28.1837 57.5932C27.6194 57.8035 27.0107 58.127 26.5123 57.8299C26.9156 58.8304 27.2542 59.8585 27.7454 60.8228C28.3569 62.0232 29.0962 63.1215 30.001 64.1204C33.5855 68.0778 39.2585 69.2849 44.3494 68.1254C46.9709 67.5282 49.5218 66.3966 51.3103 64.3327C52.6696 62.7638 53.4505 60.6582 53.6345 58.5813C53.5807 58.5899 53.5244 58.5895 53.4664 58.5768C52.8223 58.4362 52.172 58.0908 51.6052 57.7521L51.5506 57.7193C51.0053 57.3909 50.4369 57.0146 50.0455 56.5043C49.6568 55.9976 49.2489 54.3446 49.2489 54.3446C49.1378 53.7234 49.0335 52.4857 49.0514 51.8578C49.053 51.7985 49.3158 51.7636 49.3438 51.8251C49.5866 52.3582 49.6652 53.5296 49.8526 54.0844L49.8904 54.1952C50.0905 54.7746 50.2621 55.4801 50.6771 55.9485C51.4561 56.8281 52.6315 57.2004 53.6807 57.6415C53.756 56.6474 55.3432 56.6706 55.323 57.7074C55.3219 57.7636 55.3194 57.8196 55.3174 57.8756C55.4426 57.9445 55.563 58.0232 55.6755 58.0991L55.7853 58.1737C56.2009 58.4565 56.6196 58.7252 57.0621 58.9651C57.9188 59.4296 58.8257 59.7979 59.7035 60.2196C60.5915 60.6462 61.422 61.1545 62.1974 61.7629C62.5616 62.0485 62.9108 62.3527 63.242 62.676L63.3319 62.7647C63.6472 63.0788 64.0574 63.43 64.2371 63.8428C64.2766 63.9338 64.475 64.1455 64.5826 64.1526C66.2504 64.262 67.9145 64.4164 69.5718 64.648C70.0009 64.7079 70.1705 64.9291 70.0119 65.2869C69.4669 66.5163 67.3332 71.4261 66.7659 72.7438C66.8321 73.7118 66.7426 74.8514 66.8023 75.8197C66.8897 77.2327 67.0041 78.6452 67.1412 80.0542C67.6318 85.0946 68.3756 90.1104 69.0476 95.1287C69.384 97.6402 69.6907 100.155 69.9934 102.671C70.1462 103.943 70.276 105.215 70.3758 106.492C70.4174 107.024 70.4551 107.556 70.4884 108.089L70.5171 108.561C70.5567 109.156 70.6476 109.724 70.2798 110.234C70.1131 110.465 69.7323 110.596 69.5131 110.333C69.2375 110.002 69.1351 109.755 69.1087 109.321C69.0886 108.989 69.0838 108.655 69.0686 108.322C69.0359 107.601 68.9948 106.88 68.9466 106.159C68.8504 104.719 68.7407 103.279 68.6136 101.842C68.168 96.7998 67.3211 91.796 66.7576 86.7666C66.4736 84.2312 66.2718 81.691 66.165 79.1415C66.1115 77.8683 66.0922 76.5952 66.1047 75.321C66.1095 74.845 66.132 74.3712 66.1646 73.8985C65.3204 75.817 64.433 77.717 63.5051 79.5918L63.2852 80.0358C62.6972 81.2208 62.0933 82.4102 61.3867 83.5273L61.2652 83.7177C60.9789 84.1715 60.5878 84.887 60.0657 85.0302C59.702 85.1299 59.2576 85.0597 58.8848 85.0525C58.5147 85.0455 58.1443 85.0439 57.7745 85.0289C57.3597 85.0122 56.964 84.9577 56.5631 84.8496C56.4965 84.8317 56.4335 84.8122 56.3761 84.7874C55.9722 85.4485 55.2861 85.9521 54.5845 86.2454C54.0226 86.4804 53.4336 86.6415 52.8436 86.7906L52.6354 86.8428C52.003 87.0005 51.2794 87.0754 50.9228 87.6864L50.8399 87.828C50.5747 88.2788 50.3203 88.6746 49.8814 88.9977C49.4089 89.3457 48.8492 89.5645 48.2916 89.7348C47.7207 89.9091 47.1365 90.0425 46.5568 90.1855L46.3988 90.2247C46.0161 90.3206 45.63 90.4085 45.2496 90.5128C45.0873 90.5572 44.9222 90.603 44.7629 90.6578C44.5765 90.7218 44.441 90.8219 44.2939 90.9307C44.1617 91.3928 43.5966 91.6437 43.132 91.6115C42.888 91.5946 42.6691 91.5118 42.47 91.3904C42.1223 91.6864 41.7396 91.9516 41.3852 92.2258C40.889 92.6099 40.3908 92.9912 39.8899 93.3691C38.857 94.1479 37.8163 94.9164 36.7648 95.6697C34.8983 97.0069 32.9914 98.2829 31.052 99.5117C30.2433 100.024 29.4293 100.535 28.6072 101.035L28.6949 101.067L28.8689 101.133C29.2803 101.287 29.7386 101.535 29.8183 102.015C29.8815 102.396 29.6689 102.658 29.2931 102.705C28.8465 102.76 28.4989 102.444 28.2208 102.143C28.0981 102.01 27.9607 101.886 27.8431 101.75C27.7952 101.694 27.7584 101.629 27.7259 101.562C26.9146 102.04 26.0947 102.502 25.2618 102.934L25.0533 103.042C22.9878 104.098 20.9774 105.256 18.8944 106.283C18.351 106.55 17.6885 106.84 16.998 107.038C17.1812 107.748 17.1784 108.528 17.183 109.25C17.1874 109.952 16.071 109.949 16.0946 109.25L16.1059 108.912C16.1263 108.344 16.1595 107.754 16.2942 107.201C14.2595 107.539 12.227 106.805 11.8485 106.585C11.4308 106.342 11.0517 105.953 10.7362 105.593C10.0609 104.821 9.59234 103.895 9.17661 102.964C8.28611 100.97 7.65521 98.8388 7.19395 96.7074C5.49342 88.8489 6.22486 80.4379 8.98648 72.9048C9.67643 71.0227 10.491 69.182 11.4245 67.4079L11.5404 67.1886C12.4719 65.4343 13.5071 63.6866 14.8222 62.1936C16.1919 60.6387 17.8816 59.4293 19.7213 58.4906C20.6191 58.0325 21.5429 57.6355 22.4871 57.2836C22.6388 57.2271 22.7915 57.1764 22.9445 57.128C23.9285 56.5005 25.1227 55.9002 26.3173 55.9238C26.3984 55.9252 26.4642 55.9561 26.5132 56.0025C26.5708 56.0125 26.6284 56.0248 26.6861 56.0416C26.8134 56.0785 26.9478 56.2181 26.9296 56.3614L26.9234 56.4091C26.92 56.4324 26.9158 56.455 26.9085 56.4769C26.9512 56.4833 26.9931 56.4934 27.0341 56.5075C28.1771 56.1846 29.3016 55.6908 30.417 55.2924L30.671 55.2027C31.6051 54.8752 32.5634 54.5542 33.3297 53.9061C34.0921 53.2614 34.6653 52.4262 35.0797 51.5234C35.5903 50.4111 35.8189 49.2062 36.2382 48.0642ZM59.1212 106.73C59.3475 106.561 59.6151 106.757 59.6998 106.965C59.9778 107.649 59.8404 108.712 59.4486 109.317C59.0425 109.944 58.0705 109.697 58.047 108.937C58.0224 108.146 58.4824 107.205 59.1212 106.73ZM61.4586 87.8391C61.479 87.7502 61.617 87.751 61.6377 87.8391C61.8261 88.6418 61.8217 89.5063 61.877 90.3294L61.8834 90.4206C61.9498 91.3283 62.0055 92.2384 62.0453 93.1476C62.1234 94.9364 62.2167 96.7254 62.3213 98.5128C62.3732 99.3992 62.4288 100.285 62.4881 101.172C62.6738 101.068 62.8651 100.977 63.0635 100.897C63.3606 100.777 63.6499 100.763 63.9691 100.766C64.3579 100.77 64.6506 101.112 64.5991 101.493C64.543 101.908 64.1778 102.086 63.7986 102.027C63.3786 101.961 62.9567 101.859 62.5326 101.817C62.5799 102.502 62.6287 103.187 62.6804 103.871C62.749 104.778 62.8385 105.683 62.9013 106.589C62.9073 106.676 62.9138 106.762 62.9204 106.849C63.1733 106.718 63.4418 106.65 63.7462 106.567L63.8254 106.545C64.2672 106.418 64.74 106.243 65.149 106.54C65.4239 106.74 65.4788 107.069 65.2511 107.332C64.9058 107.732 64.3948 107.655 63.9178 107.634L63.6612 107.625C63.4194 107.615 63.1963 107.6 62.9727 107.539C63.0138 108.129 63.0354 108.722 62.963 109.304C62.9238 109.619 62.5099 109.701 62.4004 109.38C62.1142 108.542 62.055 107.637 61.9503 106.759C61.8525 105.939 61.793 105.112 61.7289 104.288L61.7095 104.041C61.5655 102.228 61.4502 100.415 61.366 98.598C61.2818 96.7817 61.2312 94.9657 61.211 93.1476C61.2019 92.3221 61.2155 91.4936 61.2478 90.6682L61.2581 90.4206C61.2953 89.5717 61.2693 88.6709 61.4586 87.8391ZM23.6367 106.863C23.6477 106.747 23.7405 106.603 23.8787 106.621C24.006 106.638 24.1372 106.63 24.2631 106.651C24.4293 106.678 24.5631 106.777 24.7176 106.839C24.9689 106.939 25.2428 106.991 25.5005 107.073C25.9842 107.228 26.2477 107.737 26.0475 108.213C25.8368 108.713 25.3076 108.826 24.8503 108.616C24.4898 108.451 24.2211 108.186 23.9788 107.881L23.9101 107.793C23.8056 107.662 23.6871 107.515 23.6433 107.356C23.6007 107.201 23.6217 107.021 23.6367 106.863ZM47.1341 104.513C47.7365 104.428 48.2511 104.634 48.8085 104.828L48.8538 104.844C49.4211 105.04 50.2488 105.176 50.5396 105.756C50.715 106.107 50.5787 106.572 50.1659 106.675C49.5122 106.839 48.926 106.361 48.3854 106.04L48.357 106.023C47.8352 105.717 47.2966 105.46 46.9635 104.933C46.8745 104.792 46.9517 104.539 47.1341 104.513ZM26.105 56.5871C25.8637 56.6412 25.6223 56.689 25.3812 56.735C24.4641 57.2267 23.574 57.737 22.6271 58.1751C21.6225 58.64 20.6215 59.1201 19.6673 59.6825C17.7393 60.8186 16.15 62.2959 14.8367 64.1066C12.5682 67.2344 10.8808 70.8414 9.67309 74.5013C9.3628 75.4416 9.08513 76.3925 8.83948 77.3513C9.2738 76.9495 9.78799 76.7025 10.3646 76.4909C10.6089 76.4013 10.9131 76.553 11.037 76.7646C11.0927 76.8597 11.1241 76.9537 11.1183 77.0652C11.1055 77.3113 10.9454 77.5909 10.6812 77.6396C10.0651 77.7532 9.46617 77.9743 8.87219 78.1689C8.78215 78.1985 8.70478 78.1873 8.64298 78.1525C8.0533 80.6512 7.68439 83.2013 7.55374 85.7668C7.44322 87.9387 7.51139 90.1277 7.75187 92.2966C7.93667 92.2135 8.11742 92.1356 8.32003 92.0884C8.58281 92.0273 8.84129 91.9529 9.09761 91.8688C9.83731 91.6261 10.1747 92.8478 9.41866 93.0339C9.13729 93.1033 8.8542 93.1608 8.56749 93.2029C8.31762 93.2396 8.09659 93.2234 7.86101 93.185C8.04099 94.5381 8.28681 95.8815 8.59994 97.2057L8.66904 97.4954C9.07578 99.1868 9.54984 100.894 10.2354 102.492C10.5717 103.276 11.0169 104.021 11.5667 104.675C11.8368 104.996 12.1366 105.272 12.4635 105.533C12.7356 105.75 13.6607 106.222 14.7564 106.222C15.8521 106.222 16.1487 106.118 16.7015 105.927C17.7947 105.551 18.8326 104.95 19.8578 104.415L19.9639 104.36C20.4172 104.125 20.8688 103.887 21.3192 103.647C21.2623 103.188 21.3619 102.802 21.6012 102.377C21.8598 101.918 22.5007 102.147 22.5484 102.616L22.5499 102.634C22.5571 102.74 22.5749 102.848 22.5969 102.956C25.6086 101.305 28.5566 99.5392 31.4577 97.699C33.3264 96.5135 35.1752 95.2927 36.997 94.0361C37.9077 93.408 38.8105 92.7686 39.7044 92.1166C40.1726 91.775 40.6387 91.4307 41.1026 91.0835C41.2959 90.9388 41.4854 90.7869 41.6791 90.6415C41.632 90.5826 41.5861 90.5238 41.5417 90.4656C40.8185 89.5184 40.3493 88.3894 40.1156 87.2247C39.9744 86.5219 39.9062 85.7923 39.8855 85.0757L39.8764 84.7642C39.8621 84.2392 39.8583 83.6898 39.955 83.1812C39.8234 83.2535 39.689 83.3245 39.555 83.4004C39.0741 83.673 38.5928 83.9449 38.1107 84.2155C37.1453 84.7572 36.1771 85.2927 35.1965 85.8066C33.4451 86.7245 31.6765 87.5977 29.8602 88.3802L28.9763 88.7613C27.4424 89.4213 25.896 90.0695 24.3012 90.56C23.4017 90.8367 22.0529 91.1792 21.1404 91.3904C21.1404 91.3904 22.2401 92.4269 21.4443 92.7835C20.6484 93.14 19.9891 91.7723 19.9629 91.6484C19.5426 91.7364 18.3422 91.949 18.3422 91.949C17.2016 92.1693 16.0957 92.6054 15.0761 93.1635C14.7217 93.3575 14.6229 92.9805 14.9984 92.7179C16.0965 91.95 17.3774 91.5154 18.6989 91.1507L18.7638 91.1329C19.2487 91 19.7327 90.8616 20.2156 90.7181C20.1625 90.5259 20.1319 90.3265 20.138 90.1066C20.1516 89.6168 20.1949 89.1252 20.2209 88.6357C20.2754 87.6083 20.3451 86.5841 20.4267 85.5586C20.458 85.1635 20.4931 84.7674 20.5333 84.3715C20.2743 84.2326 20.051 84.0483 19.7622 83.9576L19.7135 83.9433C19.4046 83.8601 19.5089 83.462 19.7832 83.4279C20.0317 83.3972 20.279 83.4113 20.5239 83.4639C20.5619 83.4722 20.5978 83.4814 20.632 83.4918C20.677 83.1252 20.727 82.7595 20.7837 82.3958C20.9337 81.4351 21.0398 80.4228 21.3521 79.4997C21.3753 79.4313 21.4767 79.4069 21.5144 79.4785C21.9686 80.343 21.9844 81.4036 22.0356 82.3663L22.042 82.4813C22.1023 83.5317 22.1058 84.5922 22.0863 85.644C22.0663 86.7279 22.0292 87.8091 21.9806 88.892C21.9611 89.328 21.9618 89.7804 21.8876 90.1974C24.5909 89.3183 27.2465 88.266 29.7919 87.02C31.5875 86.1411 33.3675 85.227 35.1272 84.2785C36.009 83.8034 36.8948 83.3359 37.7756 82.859C38.0842 82.6918 38.3926 82.5242 38.7008 82.3562L39.1631 82.104C39.5957 81.8678 39.9567 81.6329 40.4606 81.6163C40.6108 81.6113 40.7455 81.6818 40.8411 81.7883C41.1119 81.5962 41.4249 81.4782 41.7533 81.481C42.2477 80.7978 42.7497 80.1202 43.2716 79.4574L43.6572 78.9667C44.3246 78.12 45.0316 77.2605 45.8826 76.616C46.2625 76.3285 46.6803 76.1128 47.116 75.9346C47.0135 75.9095 46.9131 75.8591 46.8237 75.7761C46.4075 75.3901 46.3502 74.6731 46.2657 74.1344C46.1779 73.5759 46.2119 73.0759 46.2985 72.5192C46.3321 72.3028 46.6903 72.2578 46.7778 72.4565C46.9621 72.8755 47.1572 73.2771 47.3249 73.7009L47.3743 73.8287C47.5543 74.3057 47.9377 74.8075 47.9124 75.325C47.9055 75.4668 47.858 75.5904 47.7847 75.6898C48.1504 75.5683 48.5213 75.46 48.8866 75.347C50.0363 74.9916 51.1904 74.6463 52.3621 74.3705C52.6741 74.2972 52.9875 74.2291 53.3023 74.1666C53.4672 73.3833 53.7075 72.6146 53.9909 71.8597C53.7226 71.7222 53.5489 71.4917 53.3179 71.2867C53.1017 71.0947 52.9531 70.8609 52.7687 70.6404C52.6007 70.4399 52.6951 70.0776 52.9968 70.0893L53.0823 70.0929C53.395 70.1074 53.6978 70.1397 53.9812 70.2857L54.0822 70.3378C54.2208 70.4097 54.3724 70.4922 54.5074 70.5896C54.6839 70.1832 54.8675 69.7808 55.053 69.3824L55.2938 68.8672C55.918 67.5264 56.5405 66.1345 57.3242 64.886C57.6726 64.331 58.1363 63.9844 58.8018 63.9307C59.4871 63.8756 60.1996 63.9469 60.8858 63.9714C61.6814 63.9999 62.4767 64.0336 63.2715 64.0754C63.0678 63.862 62.8819 63.6243 62.6773 63.4195C62.3376 63.0798 61.9788 62.7577 61.6016 62.4601C60.8551 61.871 60.0343 61.3856 59.1818 60.9677C58.3291 60.5496 57.4513 60.1852 56.6508 59.6687C56.1443 59.3419 55.6916 58.9307 55.2785 58.4857C55.0185 61.2919 53.664 63.899 51.6291 65.8577C49.5155 67.892 46.5947 69.0096 43.7375 69.485C40.8231 69.9699 37.7814 69.792 34.9934 68.7786C33.5559 68.256 32.1772 67.5095 30.9477 66.5731C30.9342 66.6545 30.9179 66.735 30.886 66.8107C30.8431 66.9124 30.7907 66.9991 30.7306 67.0884L30.6234 67.2452C30.5558 67.3437 30.4869 67.4414 30.4102 67.5329C30.2243 67.7543 29.961 67.8512 29.6774 67.8502C29.1344 67.8484 28.7231 67.3157 28.8693 66.7889C28.9611 66.4579 29.1576 66.2586 29.4644 66.129C29.5613 66.088 29.6602 66.0537 29.7596 66.0199L29.8342 65.9946C29.9346 65.9603 30.0343 65.9275 30.1377 65.9084C29.5555 65.3944 29.0153 64.8354 28.5316 64.2321C27.0144 62.3403 25.5179 59.6907 26.0251 57.1783C26.0339 57.1351 26.0727 57.108 26.1146 57.1011C26.144 56.9248 26.2378 56.7542 26.3663 56.6395C26.2798 56.6168 26.1926 56.5992 26.105 56.5871ZM41.8594 100.027C42.1599 99.8598 42.4703 100.257 42.2261 100.502L41.8615 100.867C41.5232 101.207 41.1939 101.551 40.9042 101.939L40.8341 102.034C40.4431 102.566 40.0262 103.182 39.3857 103.381C38.6108 103.621 37.8662 102.677 38.3149 101.988C38.7069 101.385 39.4617 101.157 40.1124 100.908C40.7279 100.673 41.284 100.347 41.8594 100.027ZM16.8641 97.2453C17.0406 97.0141 17.5009 97.1359 17.3804 97.4631C16.9886 98.5254 16.829 99.9741 15.8397 100.68C15.5205 100.907 15.0191 100.803 14.7564 100.54C14.4578 100.241 14.4458 99.8207 14.6166 99.4563C14.8248 99.0118 15.3371 98.6895 15.6962 98.3509L15.7284 98.3201C16.1147 97.9447 16.5325 97.6796 16.8641 97.2453ZM58.2119 98.4683C58.527 98.3325 59.3483 98.0683 59.5916 98.381C59.603 98.3924 59.6127 98.4049 59.6206 98.4187C59.6802 98.5225 59.6891 98.6688 59.6206 98.7718C59.337 99.1982 59.0416 99.5165 58.6384 99.8199L58.5931 99.8536C58.1542 100.176 57.7418 100.556 57.2069 100.701C56.4656 100.903 55.9478 99.9745 56.4684 99.4322C56.8879 98.9955 57.5282 98.7687 58.084 98.5251L58.2119 98.4683ZM28.441 92.3978C28.3169 92.1736 28.5703 91.8985 28.7998 92.0388C29.4544 92.439 30.2169 92.7393 30.9521 92.955C31.2497 93.0423 31.5181 93.344 31.496 93.6696L31.4925 93.7189C31.4838 93.8339 31.4679 93.9481 31.3949 94.0437C31.1388 94.3787 30.7725 94.5078 30.3813 94.3095C29.5095 93.8676 28.9127 93.2507 28.441 92.3978ZM47.5729 91.7189C47.557 91.6246 47.626 91.5518 47.7217 91.57C48.2749 91.6749 48.7859 91.9422 49.2609 92.2494C49.5157 92.4142 49.7614 92.5952 50.0156 92.7616C50.3296 92.9671 50.4471 93.1368 50.4935 93.5139C50.5242 93.7628 50.2919 93.9901 50.0788 94.0588C49.4982 94.2461 48.833 93.6315 48.4396 93.2322L48.4219 93.2142C48.0102 92.7943 47.6705 92.2979 47.5729 91.7189ZM64.1877 91.0663C64.0616 90.7256 64.4962 90.4432 64.7804 90.6105C65.048 90.768 65.3383 90.8986 65.5908 91.0791C65.8228 91.245 66.0343 91.4416 66.2567 91.6214L66.3667 91.7085C66.7747 92.0366 67.4481 92.8481 66.8647 93.3188C66.3095 93.7668 65.5734 93.1946 65.2008 92.7763L65.1748 92.7467C64.9604 92.499 64.6961 92.2298 64.5405 91.9404C64.3941 91.668 64.2948 91.3554 64.1877 91.0663ZM58.7124 64.697C58.0171 64.832 57.7336 65.6906 57.4408 66.2503C56.7497 67.5712 56.1142 68.9162 55.4759 70.263C55.2794 70.6773 55.088 71.0947 54.895 71.5114C54.8832 71.544 54.868 71.5761 54.8502 71.6079C54.4547 72.4597 54.0474 73.306 53.5713 74.1146C54.007 74.033 54.445 73.9634 54.8845 73.9086C54.8624 73.4946 55.1458 72.9405 55.286 72.5919L55.2976 72.5625C55.4724 72.1158 55.6557 71.4122 56.1057 71.1804C56.2556 71.1032 56.4159 71.1999 56.4275 71.3651C56.4616 71.8567 55.9808 72.4194 55.7459 72.8367C55.6038 73.0892 55.4653 73.3427 55.3303 73.5991C55.2797 73.695 55.2374 73.7893 55.1855 73.8738C55.4123 73.8493 55.6392 73.8274 55.8668 73.8115L56.0151 73.8014C56.8588 73.7457 57.7549 73.7298 58.5171 74.146C59.2244 74.532 59.5859 75.3562 59.1974 76.1066C58.7133 77.0414 57.6474 77.1653 56.71 77.2411C55.5393 77.3356 54.3659 77.5061 53.2034 77.6725C52.001 77.8445 50.8687 78.288 49.6842 78.5159C49.574 78.5371 49.5054 78.3929 49.6064 78.3314C50.5408 77.7624 51.6767 77.4493 52.7213 77.1304L52.8058 77.1045C53.3724 76.9304 53.9262 76.7315 54.5124 76.6328C55.0814 76.5369 55.6539 76.4593 56.2279 76.4002L56.2836 76.395C56.9155 76.342 58.5276 76.3601 58.4595 75.4242C58.4144 74.8047 57.4078 74.6978 56.9484 74.6904C54.8419 74.6566 52.7202 75.216 50.7182 75.8153L50.2713 75.9493C49.4515 76.1961 48.6306 76.4499 47.8263 76.7392C46.9148 77.0669 46.1967 77.5779 45.5328 78.2774C44.7967 79.0529 44.0838 79.846 43.3202 80.5953C42.8388 81.0678 42.3512 81.5318 41.8596 81.9921C41.7486 82.1359 41.6597 82.2923 41.5982 82.4953C41.4942 82.8381 41.5182 83.1568 41.5574 83.509C41.6564 84.3984 41.6783 85.297 41.8023 86.1836C41.9173 87.005 42.0781 87.8565 42.419 88.6184C42.554 88.9202 42.7297 89.2165 42.9298 89.4816L43.0913 89.6916C43.1617 89.7828 43.2404 89.8827 43.3231 89.9766C43.4445 89.8285 43.62 89.7321 43.8241 89.7562C44.2578 89.8073 44.5988 89.7951 45.0242 89.6953C45.3535 89.6183 45.6803 89.528 46.0081 89.4443C46.6518 89.2801 47.3016 89.1306 47.9388 88.9419L48.0483 88.9089C48.5232 88.7632 48.9982 88.5807 49.3934 88.274C49.8526 87.9176 49.9938 87.4035 50.334 86.9589C51.0603 86.0096 52.6297 86.0295 53.6924 85.7694C54.5955 85.5485 55.4645 85.1999 56.0895 84.5444L56.126 84.5054C56.0983 84.3884 56.1432 84.2564 56.2518 84.1958L56.2755 84.1826C56.3178 84.1589 56.3634 84.1491 56.4082 84.1501C56.4662 84.0648 56.5222 83.9768 56.573 83.8831C56.6149 83.8059 56.7194 83.8627 56.7057 83.939C56.6976 83.9846 56.6862 84.029 56.6754 84.0735C57.2808 83.9177 57.9457 83.9475 58.5603 83.9479L59.358 83.9451C59.496 83.9434 59.7018 83.9365 59.7201 83.9282L59.7388 83.9198C59.7886 83.8982 59.718 83.9339 59.7527 83.8878C59.791 83.8369 59.8285 83.7854 59.8655 83.7335C59.9977 83.5484 60.1228 83.3578 60.2454 83.1654C58.9096 83.5058 57.5259 83.7176 56.162 83.8942C54.6988 84.0839 53.2163 84.2155 51.74 84.2169C51.333 84.2173 51.3367 83.6027 51.74 83.5873C53.3032 83.5276 54.8583 83.4448 56.411 83.2444C57.214 83.1406 58.0136 83.0105 58.8087 82.8583C59.1157 82.7997 59.422 82.7374 59.7275 82.6715L59.9564 82.6215C60.1001 82.5897 60.506 82.544 60.704 82.4111C60.7429 82.3442 60.7818 82.2775 60.8203 82.2107C60.8014 81.9761 60.2051 82.0075 60.0653 82.0071C59.6689 82.0064 59.2725 82.0095 58.8761 82.0106C58.0832 82.0129 57.2905 82.006 56.4976 81.9996C54.9136 81.9867 53.3235 81.9314 51.7407 81.9991C51.3565 82.0155 51.1546 81.3991 51.5344 81.2369C53.2109 80.5209 55.0719 80.3653 56.8621 80.1451C57.8034 80.0295 58.7453 79.8958 59.6656 79.6616L59.8931 79.6037C60.4712 79.4555 61.1096 79.2747 61.5964 78.9214C60.8647 78.6253 59.9552 78.6592 59.1968 78.6173L59.1387 78.6139C58.0767 78.5486 57.0128 78.5152 55.9487 78.5137C53.7716 78.5106 51.5938 78.5878 49.4191 78.691C49.3646 78.6936 49.3533 78.6074 49.4063 78.5959C51.6415 78.108 53.9132 77.8729 56.2007 77.8368C57.266 77.8199 58.3318 77.835 59.3962 77.8821L59.7868 77.9001C60.6943 77.9393 61.7013 77.9498 62.4606 78.4981C62.5764 78.5816 62.6374 78.6883 62.647 78.8012C63.6653 76.7705 64.6058 74.6975 65.5501 72.6381C66.2842 71.0369 66.9909 69.4223 67.7518 67.8335L67.9981 67.3196C68.328 66.6337 68.6659 65.9478 69.0411 65.2869C67.638 65.0992 66.2271 64.969 64.8154 64.8693C63.529 64.7783 59.3317 64.5768 58.7124 64.697ZM58.0911 86.7051C58.2511 86.6161 58.4962 86.6886 58.5356 86.886C58.565 87.033 58.6151 87.1961 58.6151 87.3465C58.6151 87.5266 58.5507 87.7223 58.5164 87.8985C58.4374 88.3037 58.3403 88.633 58.1343 88.9939C58.0054 89.2198 57.7452 89.3731 57.4838 89.3671C57.2767 89.3624 57.0932 89.3068 56.9511 89.1464C56.7808 88.9543 56.6639 88.6718 56.7573 88.4132C57.0019 87.7355 57.4516 87.0603 58.0911 86.7051ZM24.1532 86.0289C24.5276 85.3728 25.4151 84.7865 26.1895 84.8446C27.3524 84.9317 27.5897 86.4981 26.4638 86.8719C25.7908 87.0953 24.865 86.8659 24.2762 86.4982C24.1175 86.3992 24.0593 86.1932 24.1532 86.0289ZM12.2013 83.7877C12.1163 83.6641 12.2568 83.5228 12.3835 83.5506C12.6646 83.6123 12.9675 83.6393 13.2428 83.7231C13.5247 83.8089 13.7975 83.9511 14.0768 84.049C14.6617 84.254 15.2865 84.3569 15.8526 84.6043C16.0789 84.7033 16.2569 85.0311 16.236 85.2728L16.2306 85.3293C16.2181 85.4493 16.1973 85.5539 16.1303 85.6635C15.9501 85.9578 15.5932 86.1099 15.2563 86.0193C14.6313 85.8514 14.0206 85.4199 13.4878 85.0615L13.3893 84.996C13.1565 84.8425 12.9061 84.6821 12.7185 84.4846C12.5227 84.2784 12.3618 84.0212 12.2013 83.7877ZM33.6847 81.4017C33.6127 81.1425 33.935 80.9713 34.1229 81.1464C34.4984 81.4963 34.891 81.8208 35.2587 82.1796L35.2833 82.204C35.5467 82.4687 35.9297 82.9788 35.5873 83.3214C35.1485 83.7603 34.5375 83.109 34.3021 82.7696C34.0035 82.3391 33.8244 81.9052 33.6847 81.4017ZM62.4161 79.2587C61.8591 79.8488 61.001 80.1201 60.2455 80.345C59.3496 80.6113 58.4266 80.7704 57.5026 80.9013C56.6098 81.0277 55.7238 81.1407 54.8452 81.2858C55.5099 81.2941 56.1744 81.299 56.8375 81.3109C57.6023 81.3247 58.3666 81.3413 59.1311 81.3635C59.6879 81.3797 60.3412 81.3033 60.8703 81.5103C60.9656 81.5475 61.0547 81.5992 61.1325 81.662C61.5773 80.8708 62.0036 80.0686 62.4161 79.2587ZM28.0611 73.7399C28.6425 73.5552 29.1891 73.3101 29.8054 73.3737C29.9692 73.3905 30.0865 73.5501 29.9971 73.7076C29.705 74.2218 29.2301 74.512 28.7626 74.8559L28.7214 74.8864C28.2097 75.2672 27.6603 75.6141 27.1038 75.9266C26.1458 76.4644 25.2872 74.9251 26.2547 74.4734C26.8369 74.2015 27.4485 73.9347 28.0611 73.7399ZM38.5274 72.4038C39.4167 72.4624 40.3056 72.5022 41.1961 72.5381C42.2276 72.5799 41.8808 74.1678 41.0192 73.8464C40.1679 73.5289 39.3166 73.2154 38.4576 72.9192C38.1962 72.829 38.2172 72.3994 38.5108 72.4032L38.5274 72.4038ZM15.716 69.5786C15.9465 69.5624 16.179 69.6128 16.4099 69.6352L16.6555 69.659C17.1618 69.7094 17.6366 69.7716 18.1195 69.9777C19.0105 70.3581 18.532 71.791 17.6375 71.7581C16.9764 71.7338 16.4111 71.4498 15.8528 71.1191C15.3648 70.8301 15.0656 70.4684 14.736 70.0145C14.6269 69.8642 14.779 69.6957 14.9276 69.6805C15.1895 69.6539 15.4541 69.5969 15.716 69.5786ZM60.3803 66.6527C60.2329 67.5731 59.8669 68.4357 59.3154 69.1867C59.0383 69.5641 58.5517 69.5784 58.2771 69.1867C57.8885 68.6326 58.1281 67.9978 58.4208 67.4656L58.5074 67.3097C58.6385 67.0761 58.8398 66.7352 59.0698 66.4999L59.0737 66.4758C59.1969 65.5122 60.5322 65.7045 60.3803 66.6527ZM24.408 60.7459C24.6297 60.5461 25.038 60.6061 25.11 60.9312C25.2107 61.3866 25.272 61.8996 25.206 62.3618C25.1703 62.6123 25.1569 62.8936 25.0584 63.127C24.9526 63.378 24.7489 63.5711 24.5571 63.7598C24.174 64.1366 23.3666 64.012 23.264 63.4183L23.251 63.3455C23.1994 63.0646 23.1334 62.7643 23.2098 62.4859C23.2674 62.2758 23.3964 62.0615 23.503 61.8667L23.5255 61.8252C23.7391 61.4272 24.0721 61.0483 24.408 60.7459ZM55.5739 61.7144L55.6541 61.7153C56.273 61.7275 57.4044 61.8782 57.4104 62.6432C57.4119 62.8235 57.2784 63.0104 57.0994 63.0519C56.7295 63.1377 56.4904 62.919 56.2268 62.6981C56.0112 62.5174 55.7598 62.3732 55.4988 62.2694C55.2168 62.1572 55.2352 61.7139 55.5739 61.7144Z" fill="black"/>
<path fill-rule="evenodd" clip-rule="evenodd" d="M56.5683 31.8999C56.2495 29.3494 55.248 26.6414 54.1947 24.2636C51.8264 19.2362 46.4044 18.5441 41.5438 17.5075C36.7473 16.8075 31.6682 16.1754 26.944 17.5721C24.2882 18.2244 23.2509 21.3953 23.6701 23.8976C23.9093 25.4569 24.6173 26.9327 25.221 28.3778C26.421 31.3455 27.1823 34.5227 27.1836 37.7358C27.1012 39.8356 26.8056 42.2323 29.2126 43.1216C31.503 44.2635 31.6965 47.3588 34.5645 49.115C35.7242 51.4699 38.8832 51.6772 41.1568 52.2234C42.5938 52.4991 44.0471 52.7021 45.5043 52.8332C49.7237 53.3752 53.0992 52.1495 55.308 48.3813C56.7861 46.0881 57.8867 43.4401 57.6148 40.6608C57.344 37.7341 56.8928 34.8227 56.5683 31.8999Z" fill="#D08B5B"/>
<path fill-rule="evenodd" clip-rule="evenodd" d="M41.5802 11.3978C41.8211 11.1242 42.1921 11.218 42.4173 11.4344C42.5639 11.4777 42.706 11.5421 42.8402 11.6274C43.1434 11.5884 43.4612 11.5884 43.7586 11.5993C43.8307 11.5588 43.908 11.5227 43.9922 11.4917C44.5935 11.2713 45.1259 11.3833 45.565 11.6783C45.7766 11.4777 46.0434 11.3518 46.3846 11.3708C46.6891 11.3878 46.906 11.5315 47.092 11.7206C47.2774 11.4526 47.5772 11.2614 47.9506 11.2348C48.4726 11.1976 48.9744 11.4074 49.3903 11.7323C49.6326 11.4536 49.9629 11.2935 50.331 11.2919C50.5732 11.2478 50.8288 11.2652 51.0598 11.3352C51.3951 11.4367 51.6895 11.6269 51.924 11.8737C52.295 11.5176 52.7491 11.2614 53.2727 11.2987C53.9504 11.3478 54.5121 11.8473 54.7732 12.4621C55.2318 12.6463 55.6553 12.909 56.0091 13.2836C56.028 13.3033 56.0461 13.3239 56.065 13.3447C56.2556 13.4152 56.4352 13.5152 56.5932 13.6468C57.0939 14.0645 57.2056 14.669 57.0398 15.2613C57.063 15.3561 57.0828 15.4526 57.1008 15.5489C57.5698 15.6204 57.9958 15.8917 58.238 16.3334C58.5695 16.9396 58.5043 17.7386 58.1452 18.3173C57.9909 18.5662 57.795 18.776 57.5749 18.9594C57.8237 19.526 57.7044 20.2021 57.3032 20.6603C57.2054 20.8183 57.0854 20.9609 56.9504 21.09C57.0994 21.6758 56.8344 22.2801 56.3053 22.5931L56.26 22.7067C56.2524 22.7255 56.2447 22.7443 56.2368 22.7629C56.2309 22.787 56.2237 22.8104 56.2166 22.8339C56.2039 23.0417 56.1357 23.2457 56.0001 23.4379C55.7226 23.8318 55.3787 24.0886 55.1963 24.5484L55.1781 24.5967C55.0996 24.8143 54.8464 24.9678 54.6307 24.9007C55.8286 27.3668 56.4566 30.1109 56.8878 32.8002C57.1028 34.1418 57.2687 35.4881 57.4033 36.8395L57.5352 38.1853C57.6513 39.3815 57.7546 40.5817 57.7553 41.7819C57.757 44.4969 56.9823 47.1084 55.3194 49.2688C53.7468 51.3112 51.5214 52.7913 49.0074 53.3743C46.4117 53.9753 43.3669 53.7385 41.0393 52.3625C40.353 51.9579 40.9543 50.9848 41.6526 51.3104C42.9744 51.9269 44.3177 52.385 45.783 52.4875C47.2114 52.5881 48.6432 52.409 49.9977 51.9406C52.2386 51.1649 54.1453 49.5401 55.371 47.5166C55.9748 46.5194 56.412 45.4371 56.6447 44.2936C56.9345 42.8683 56.8908 41.3951 56.7844 39.9516L56.777 39.8532C56.5666 37.0719 56.2891 34.2734 55.8408 31.5199C55.4445 29.0849 54.8351 26.6992 54.044 24.3664C53.7341 24.0929 53.3874 23.8666 53.0165 23.6948C50.3 23.581 47.5787 23.6143 44.8657 23.8021C42.552 23.9634 40.2495 24.2363 37.9644 24.634L37.7196 24.6771C37.2137 24.7674 36.652 24.819 36.1753 25.0232C35.7665 25.1989 35.6007 25.5364 35.4977 25.9513C35.2383 27.001 35.1988 28.1497 35.155 29.226C35.112 30.2781 35.2091 31.3391 35.1249 32.3877C35.0536 33.2652 34.8294 34.1632 34.181 34.7979C33.8417 35.1302 33.4243 35.3119 33.0326 35.5642C32.7792 35.727 32.6719 35.8948 32.7045 36.1962C32.7749 36.8558 33.3049 37.6867 32.7097 38.2515C32.6049 38.3506 32.4236 38.3635 32.3206 38.2515C32.0749 37.9838 31.7357 37.7797 31.4445 37.5635C31.3225 37.4741 31.4239 37.3002 31.5622 37.3621C31.7442 37.4439 31.9298 37.5404 32.1196 37.6248C31.7004 37.2786 31.1044 37.1089 30.6079 37.0082C30.358 36.9582 30.0951 36.9436 29.8349 36.9669C29.6425 37.059 29.4458 37.1443 29.2491 37.2277C28.9992 37.3329 28.7467 37.4284 28.4924 37.5189C27.6103 38.2395 27.1895 39.4115 27.3733 40.5575C27.4738 41.1903 27.7649 41.8784 28.3138 42.2478C28.964 42.6852 29.8349 42.4974 30.5375 42.8221C31.1954 43.126 31.5957 43.74 31.8954 44.3755L32.0204 44.64C32.2986 45.2258 32.5846 45.796 32.9647 46.3291C33.4045 46.9465 33.943 47.501 34.5305 47.9773C34.8155 48.2077 35.1193 48.4151 35.4333 48.6039L35.5191 48.6549C35.8369 48.8418 36.0645 49.0199 36.086 49.4151C36.0929 49.5529 36.0061 49.6786 35.8945 49.7501C35.4135 50.0558 34.9351 49.6735 34.5348 49.4065C34.1028 49.1189 33.6897 48.7953 33.3074 48.4422C32.5808 47.7723 31.9521 46.9767 31.4685 46.113C31.1001 45.4552 30.8905 44.5296 30.3082 44.0198C29.9526 43.7089 29.4501 43.7064 29.0061 43.6495C28.5929 43.5962 28.2021 43.5101 27.8345 43.306C26.3392 42.4734 25.9166 40.4576 26.2713 38.9C26.3314 38.6373 26.4156 38.3816 26.5195 38.1353C25.963 38.2283 25.3377 37.6515 25.5636 37.0693C25.5807 37.0254 25.6005 36.9841 25.6194 36.9419C25.2526 36.6999 24.9632 36.3332 24.8258 35.8535C24.7553 35.6055 24.745 35.3549 24.782 35.113C24.6042 34.9934 24.4573 34.8288 24.3628 34.6265C24.0674 34.4896 23.8054 34.2847 23.6491 33.992C23.4326 33.588 23.4601 33.2161 23.625 32.8811C23.6018 32.839 23.5795 32.796 23.558 32.752C22.9525 32.3672 22.5299 31.7041 22.578 30.9687C22.5935 30.725 22.6536 30.5055 22.7464 30.3075C22.7386 30.2825 22.7309 30.2566 22.724 30.2316C22.2173 29.9733 21.7981 29.5489 21.6487 28.9823C21.4992 28.4122 21.6753 27.8439 22.0275 27.4065C21.5121 27.0286 21.2021 26.5008 21.3902 25.7025C21.4666 25.378 21.6203 25.0825 21.8282 24.8337C21.8273 24.826 21.8256 24.8183 21.8239 24.8104L21.7757 24.7729C21.1395 24.2697 20.7738 23.6283 21.1643 22.8395C21.3395 22.4848 21.5894 22.2376 21.8832 22.0749L21.8978 22.0284C21.6873 21.5763 21.616 21.0743 21.7612 20.5465C21.8797 20.1117 22.1606 19.7655 22.5196 19.5357C22.4956 19.341 22.499 19.1336 22.5376 18.9088C22.6021 18.5291 22.7902 18.1976 23.065 17.9625C23.0753 17.9125 23.0882 17.8635 23.1028 17.8143C23.1956 17.5139 23.3691 17.1876 23.5701 16.9455C23.7358 16.7449 23.9213 16.6717 24.1481 16.664C24.1344 16.4789 24.1438 16.2911 24.1816 16.1008C24.2975 15.5137 24.6703 14.9617 25.2226 14.7111C25.4493 14.6086 25.6881 14.5786 25.9183 14.6035C26.1141 14.1902 26.4963 13.8906 26.9662 13.826C27.1491 13.8002 27.3192 13.8018 27.4755 13.8252C27.564 13.7837 27.6559 13.7468 27.7521 13.7131C27.8156 13.6907 27.88 13.6701 27.9445 13.6495C28.1618 13.3791 28.4478 13.1629 28.7819 13.033C29.1675 12.8823 29.5601 12.8977 29.9079 13.0243L30.0187 13.001C30.1922 12.6997 30.4688 12.4663 30.8939 12.3604C31.3766 12.2407 31.8722 12.4078 32.2519 12.7118C32.2536 12.7118 32.2553 12.7118 32.2579 12.7109C32.4563 12.2657 32.7955 11.9557 33.365 11.9772C33.7197 11.991 34.0401 12.1676 34.2875 12.4191C34.4249 12.4017 34.5623 12.3862 34.7006 12.3708C34.8466 12.1994 35.0089 12.0393 35.1884 11.8955C35.4822 11.6595 35.8644 11.6785 36.0808 12.0108C36.1281 12.0832 36.1719 12.1563 36.2157 12.2295L36.4141 12.2158C36.6477 11.8997 36.9664 11.6862 37.4027 11.6691C37.803 11.6526 38.0881 11.849 38.3054 12.1236C38.4823 12.1193 38.6601 12.116 38.8379 12.1133C39.0449 11.8731 39.2889 11.6612 39.5671 11.4856C39.7801 11.3513 40.0945 11.397 40.2671 11.5761C40.3838 11.6978 40.4924 11.8249 40.5933 11.9565C40.8534 11.6641 41.2048 11.4715 41.5802 11.3978ZM28.939 38.7406C29.3401 38.5116 29.8795 38.7596 30.2677 38.9542C30.741 39.191 31.2108 39.5483 31.5002 39.996C31.8945 40.6057 30.9677 41.0982 30.5529 40.5514C30.2978 40.2148 30.0942 39.8755 29.785 39.581C29.5024 39.3106 29.0927 39.1298 28.9304 38.7733C28.9244 38.7613 28.9261 38.7475 28.939 38.7406ZM29.221 23.9431L29.2285 23.9216C29.3425 23.6088 28.8447 23.474 28.7316 23.7842C28.5602 24.2544 28.7578 24.7656 29.2211 24.9687C29.3495 25.025 29.4962 25.0054 29.5736 24.876C29.6386 24.7671 29.6085 24.5784 29.4812 24.5226C29.2205 24.4084 29.1332 24.2067 29.221 23.9431ZM24.9319 23.0685C25.1811 22.8481 24.8155 22.4838 24.5675 22.7032C24.3361 22.908 24.1645 23.1861 24.2091 23.506C24.2545 23.832 24.4997 24.0622 24.7681 24.2248C25.0526 24.3973 25.3119 23.9507 25.0282 23.7787L24.9964 23.7592C24.8773 23.685 24.7379 23.5831 24.7177 23.4372C24.6963 23.2822 24.8272 23.1612 24.9319 23.0685ZM26.3468 19.1792L26.3644 19.1662C26.6321 18.9747 26.375 18.5264 26.1043 18.7201C25.856 18.8977 25.657 19.1285 25.636 19.4467C25.6156 19.756 25.7726 20.0241 25.9779 20.2417C26.2063 20.4838 26.5703 20.118 26.3424 19.8765C26.1203 19.6411 26.0768 19.3842 26.3468 19.1792Z" fill="black"/>
<path fill-rule="evenodd" clip-rule="evenodd" d="M50.8463 44.5355C50.906 44.5193 50.9586 44.5996 50.9091 44.6435C50.7065 44.8234 50.5778 45.1585 50.4299 45.3869C50.2893 45.6043 50.1537 45.8193 50.0301 46.0468C49.8914 46.3018 49.7575 46.5558 49.6495 46.8256L49.6282 46.88C49.6605 46.9569 49.6858 47.0329 49.7044 47.0827L49.7098 47.0968C49.8941 47.5678 49.5072 48.0912 49.0707 48.2229C48.3241 48.4481 47.6836 47.8347 47.6657 47.1053C47.6517 46.5315 48.0405 46.0202 48.4356 45.6409C48.7811 45.3092 49.1681 45.0267 49.601 44.8198C49.792 44.7286 49.9904 44.6524 50.1977 44.6081C50.4098 44.5629 50.6386 44.5916 50.8463 44.5355ZM49.4395 46.6149C49.4941 46.6407 49.5408 46.7037 49.5801 46.7773C49.5605 46.7149 49.52 46.6528 49.4395 46.6149ZM49.9064 38.6422C50.5564 39.0375 51.5467 39.9591 50.8475 40.9389C50.0245 41.8028 48.8395 40.8123 48.2556 40.3643C47.7141 40.0171 47.1057 40.91 47.6081 41.3154C51.8277 44.4407 53.5401 38.7456 50.2352 38.1775C49.8713 38.1149 49.7361 38.52 49.9064 38.6422ZM44.5637 34.847L44.6786 34.8374C45.1767 34.7935 45.681 34.7265 46.1723 34.8393C46.8322 34.9908 46.7838 35.9512 46.1723 36.1278C45.6333 36.2834 45.036 36.2161 44.4797 36.2214C44.3921 36.2223 44.3048 36.2245 44.2173 36.226C44.2001 36.4341 44.1318 36.6136 44.0273 36.7928C43.9525 36.9215 43.8569 37.0437 43.7629 37.1579C43.5395 37.4295 43.0125 37.4234 42.787 37.1579C42.6202 36.9614 42.4873 36.7354 42.4852 36.4694C42.4847 36.4013 42.4929 36.329 42.5092 36.2579L42.2055 36.2632C41.4623 36.2745 40.7134 36.2695 39.9836 36.1513C39.724 36.2051 39.5116 35.7365 39.8699 35.5962C40.844 35.2151 41.9322 35.1029 42.9658 34.9885C43.497 34.9296 44.031 34.889 44.5637 34.847ZM52.8619 34.4533L52.8884 34.4507C53.533 34.3846 54.2435 34.2703 54.8894 34.336C55.8538 34.4341 55.8521 35.7383 54.8894 35.8358C54.536 35.8717 54.1637 35.8543 53.7923 35.82C53.9821 36.2228 53.757 36.7039 53.2997 36.7653C52.8747 36.8225 52.4343 36.4093 52.5737 35.9662L52.5802 35.9467C52.6074 35.8698 52.6318 35.7838 52.6608 35.699L52.507 35.686C52.0474 35.6454 51.4093 35.5624 51.2401 35.1993C51.1891 35.0898 51.2009 34.9882 51.2795 34.8947C51.6017 34.511 52.3961 34.4984 52.8619 34.4533ZM46.0071 31.4667C46.4736 31.2971 46.9584 31.6939 47.0189 32.1411C47.0886 32.6563 46.7171 32.9956 46.2462 33.0571L46.2226 33.06C45.1832 33.1745 44.1516 33.3839 43.1108 33.5023C42.6381 33.556 42.1619 33.5913 41.686 33.604L41.346 33.6117C40.9292 33.6222 40.4823 33.6317 40.0975 33.4882L40.099 33.4856C39.9968 33.456 39.9498 33.3086 40.0635 33.228C40.4732 32.9382 41.0253 32.8287 41.5021 32.691C41.9816 32.5525 42.4645 32.4248 42.9488 32.3048C43.9656 32.0532 45.0219 31.8247 46.0071 31.4667ZM50.3101 31.5877C50.4337 30.9358 51.3568 30.8659 51.6959 31.3402C51.915 31.4155 52.2363 31.494 52.4354 31.5531C52.7823 31.656 53.1294 31.7583 53.4773 31.8574C54.1977 32.0626 54.9008 32.3229 55.609 32.5654C55.682 32.5905 55.662 32.6831 55.5918 32.6923C54.6033 32.821 53.6313 32.8809 52.6367 32.8397L52.4328 32.8305C51.5564 32.7963 50.0687 32.8615 50.3101 31.5877Z" fill="black"/>
<path fill-rule="evenodd" clip-rule="evenodd" d="M51.7296 48.2813C50.928 47.5668 50.0295 46.1306 48.878 47.267C48.5932 47.5881 48.4778 48.308 48.0423 48.4492C47.4639 48.6369 46.8907 48.0247 46.6935 47.5545C45.8871 44.9423 49.221 44.2259 51.1202 44.6479C52.0481 45.0291 52.7315 46.5635 52.7728 47.3642C52.7995 47.9024 52.3442 48.6937 51.7296 48.2813ZM57.777 44.2548C57.7692 44.2201 57.7582 44.1888 57.7451 44.1603C57.3905 44.0262 57.11 44.163 56.9367 44.4184C56.9424 44.4818 56.9613 44.5461 56.9733 44.6091C56.8395 44.891 56.7188 45.2398 56.5376 45.4834C56.5017 45.4862 56.4647 45.4824 56.429 45.472C53.424 45.786 54.8911 42.6406 51.8432 41.8594C49.4871 41.4705 45.2288 41.916 44.1174 44.3692C43.2408 48.2877 38.7837 45.5573 37.3203 43.5194C35.7589 41.6648 34.7493 39.3985 33.7758 37.1993C33.5701 36.7339 32.9281 37.0667 32.9979 37.5133C32.0981 39.319 32.1281 41.488 31.9052 43.4662C31.5262 47.4129 31.1568 52.9476 34.8224 55.3574C39.5982 60.7577 51.5242 62.6634 57.0326 57.7015C58.9395 53.6002 58.7044 48.5969 57.777 44.2548Z" fill="black"/>
</g>
</svg>
