<svg width="100" height="104" viewBox="0 0 100 104" fill="none" xmlns="http://www.w3.org/2000/svg">
<rect y="0.508789" width="99.5893" height="103.125" rx="5.89286" fill="#1BE3B3"/>
<mask id="mask0" mask-type="alpha" maskUnits="userSpaceOnUse" x="0" y="0" width="100" height="104">
<rect width="99.5893" height="103.125" rx="5.89286" fill="#1BE3B3"/>
</mask>
<g mask="url(#mask0)">
<path fill-rule="evenodd" clip-rule="evenodd" d="M90.3479 66.2078C88.9763 66.3425 87.6048 66.477 86.2332 66.6117C79.6645 67.1138 73.0984 68.1623 66.5799 68.7916C66.4176 68.5273 66.0999 68.5709 65.907 68.7545C65.2566 68.6975 64.5276 68.2002 63.9384 68.7175C63.9193 68.7148 63.9001 68.7116 63.8808 68.7098C62.8317 66.6955 62.1066 64.5471 61.4028 62.3957C60.9536 61.0731 60.3492 59.7927 59.2323 58.9046C57.3263 57.581 52.9591 54.897 50.7209 55.0098C50.6838 54.6089 50.497 54.1957 50.1903 53.9288C50.8663 52.7758 48.1633 52.0235 47.9726 52.1572C48.0948 48.3052 46.2836 44.96 42.2898 44.1929C38.7118 43.4471 33.6228 43.3218 31.6985 47.0624C31.487 47.0386 29.3248 47.0273 29.1155 47.0507C28.7903 46.6386 25.2182 50.5439 26.6822 51.9034C13.5931 57.6958 6.1506 57.0047 2.52774 73.2887C2.03796 74.8185 2.00229 76.4924 1.48511 77.988C-0.354877 82.2862 -1.84729 86.863 -2.21871 91.5398C-3.11577 91.7697 -3.21894 93.352 -2.17986 93.5809C-1.78297 93.6685 -1.45106 93.788 -1.16166 94.0147C-1.38789 97.8473 -0.461313 106.602 0.122499 106.575C1.31291 110.365 6.62277 111.435 10.382 110.103C9.73393 111.323 10.382 112.09 10.382 112.741C23.9086 113.253 38.6985 112.958 52.2213 113.66C53.9511 113.636 55.7705 114.085 57.4767 113.827C58.5172 113.577 58.5189 111.94 57.4635 111.738L62.0752 110.736C61.9721 110.697 63.9762 109.364 65.4908 106.872C66.9006 104.084 65.9411 100.719 66.5799 97.6873C71.5692 97.2791 76.641 97.1046 81.5757 96.2593C82.2486 98.2732 85.1612 95.8647 86.087 94.8958C86.0858 94.8943 86.0847 94.8928 86.0835 94.8913C86.5316 94.7687 86.8909 94.3486 86.9029 93.8512C87.2171 93.4021 87.2831 92.7691 86.9818 92.335C88.3628 84.3628 90.4683 76.2229 91.2293 68.1757C91.4983 68.1161 91.7517 67.9981 91.9665 67.8163L91.9491 67.7989C92.313 67.393 92.3837 66.6924 91.777 66.3476C91.2877 66.0691 90.879 66.1555 90.3479 66.2078Z" fill="#D08B5B"/>
<path fill-rule="evenodd" clip-rule="evenodd" d="M38.1844 96.0461L39.241 96.7187L47.8856 99.5053L53.1684 100.178L57.4907 99.5053V106.904L58.3551 113.823C57.9709 114.527 54.321 114.527 47.4053 113.823C42.9968 113.373 26.8846 113.155 23.2162 113.06L23.0084 113.054C18.6976 112.929 14.4393 112.929 10.2336 113.054V110.459L22.2399 104.502L32.9977 98.4483L38.1844 96.0461ZM32.059 46.4576L32.8529 47.0506L31.1195 49.8997L39.5636 56.7326V62.1904L42.2369 64.7198L43.765 62.1904L45.9182 59.3258L47.4484 54.6824L46.9274 51.6233L47.9751 51.5245C47.9802 51.7336 47.9793 51.9446 47.9726 52.1571C48.1632 52.0234 50.8662 52.7757 50.1902 53.9287C50.4969 54.1956 50.6838 54.6088 50.7209 55.0097C52.959 54.8969 57.3262 57.5809 59.2323 58.9045C60.3491 59.7926 60.9535 61.073 61.4027 62.3956L61.5085 62.7183L61.6177 63.0495L61.7277 63.3805C62.3356 65.2 62.9919 67.003 63.8808 68.7097C63.9001 68.7115 63.9192 68.7147 63.9384 68.7174C64.5275 68.2001 65.2565 68.6974 65.907 68.7544C66.0954 68.575 66.4028 68.5293 66.5683 68.7735L66.5798 68.7915L58.4759 70.3886L53.1296 89.1493L48.4738 85.3686L45.9747 85.7404L39.3751 88.1216L31.6994 90.1161L14.1768 94.9489H11.9453L-1.03929 91.8121L-2.20947 91.4257C-1.82305 86.7885 -0.339965 82.2511 1.48507 77.9879C2.00225 76.4923 2.03792 74.8184 2.5277 73.2886C6.15056 57.0046 13.5931 57.6957 26.6822 51.9033C25.2181 50.5438 28.7902 46.6385 29.1155 47.0506L29.136 47.0489L29.1803 47.0465L29.2374 47.0445C29.7481 47.0296 31.5086 47.0409 31.6985 47.0623C31.8086 46.8483 31.929 46.6469 32.059 46.4576Z" fill="#FFCF77"/>
<path fill-rule="evenodd" clip-rule="evenodd" d="M91.643 66.7775L91.4016 68.1232C91.3442 68.142 91.2858 68.1579 91.2267 68.171C91.1508 68.9732 91.0616 69.7764 90.9611 70.5802L89.4645 78.9245C89.2064 80.4007 88.9614 81.8801 88.7181 83.36L88.3958 84.9496L88.1961 85.9376C87.7652 88.0771 87.3466 90.2097 86.9792 92.3304C87.0346 92.4103 87.0776 92.4969 87.109 92.5878L87.0807 92.7074L87.061 92.7871L87.0409 92.8658C86.7511 93.9805 86.2467 95.0615 85.0581 95.3895C84.1615 95.6368 83.1778 95.6592 82.252 95.7568L82.1494 95.768L65.9495 97.5905C63.9921 97.8106 62.0355 98.0374 60.0792 98.2667L58.3833 98.4656C56.0194 98.7395 53.642 98.955 51.313 99.4507C51.2274 99.4689 51.1565 99.5031 51.0987 99.5481C51.5677 97.7721 52.0166 95.9984 52.4235 94.2044C52.8815 92.1853 53.3161 90.1622 53.806 88.1504C54.7928 84.0974 55.899 80.071 57.11 76.0792C57.3642 75.2414 57.6242 74.4052 57.8899 73.571L58.0763 72.9879L58.2198 72.5233C58.4419 71.8147 58.7167 71.0865 59.3678 70.6957C60.1298 70.2383 61.169 70.1625 62.0332 70.0043L62.6185 69.8943C63.4941 69.7309 64.3709 69.5737 65.2487 69.4227C69.4515 68.6995 73.6782 68.1194 77.9203 67.6836C82.3347 67.2301 86.7644 66.9355 91.1994 66.7914L91.643 66.7775ZM51.4344 94.5993L51.4757 94.6028L50.8706 99.4419C50.7739 99.3742 50.651 99.3326 50.5011 99.333C48.5162 99.3389 46.6135 98.7043 44.7732 98.0066L44.493 97.8997L43.7116 97.5993C42.9174 97.2949 42.1189 96.9972 41.3055 96.7503L40.9768 96.651L40.8096 96.6016C40.1938 96.4218 39.546 96.2583 38.9054 96.2176L38.8181 96.2128L39.0046 96.1149C39.0319 96.1006 39.0558 96.0846 39.0771 96.0673C39.4297 96.0934 39.7829 96.0863 40.1549 96.0192C40.8543 95.8932 41.5344 95.6498 42.159 95.3109L42.4379 95.1597L42.5521 95.0991L42.6275 95.06L42.7025 95.022C43.2389 94.7545 43.7518 94.5871 44.429 94.7295C45.1978 94.8914 45.8716 95.3059 46.5646 95.6562L46.6876 95.7174L46.7703 95.7574L46.8546 95.7971L46.9399 95.8361C47.8771 96.258 49.3686 96.7133 49.728 95.4385C49.8723 94.9264 49.7593 94.4468 49.5088 94.0263C49.9756 93.9859 50.8095 94.5365 51.4344 94.5993ZM74.763 78.6554L74.7743 78.7134C74.9069 79.4271 74.5745 80.1098 74.0716 80.6076C73.6591 81.0158 72.929 81.2426 72.7222 81.8298C72.6044 82.1639 72.7297 82.4807 72.9715 82.7016L72.9158 82.7291L72.8614 82.757L72.8082 82.7851L72.7564 82.8135L72.7059 82.842C71.8843 83.3142 71.2152 84.0821 71.9562 85.0097C72.7968 86.0619 74.5533 86.096 75.7909 86.0137L75.8742 86.0078C77.0742 85.9178 78.4957 85.5146 79.1464 84.4061C79.4448 83.8976 79.412 83.2827 78.996 82.8475C78.745 82.585 78.2973 82.3153 77.8868 82.2834C77.9047 82.0521 77.8772 81.8286 77.7958 81.6399C77.6199 81.2322 77.1516 80.9577 76.7 80.9478C76.7365 80.0821 76.0434 79.2276 75.533 78.5355L75.4809 78.4645L75.4304 78.3947C75.1962 78.0687 74.6952 78.2513 74.763 78.6554ZM75.4478 79.577L75.9128 81.3194L75.9048 81.3338C75.741 81.6449 76.1704 81.9981 76.425 81.7367L76.4507 81.709C76.7529 81.3968 77.2169 81.8165 77.2226 82.1489C77.2309 82.6168 76.9264 82.9785 76.5637 83.2175L76.5383 83.234L76.4714 83.2755C76.1737 83.4724 76.3991 83.8839 76.7263 83.8338C77.1313 83.7718 77.4631 83.4505 77.6677 83.0493C77.8863 83.112 78.1351 83.1044 78.3653 83.2332C78.9455 83.5578 78.6118 84.1257 78.234 84.4689L78.2187 84.4827L78.1879 84.5095C77.4948 85.1008 76.5511 85.3062 75.6616 85.3502L75.6103 85.3526C74.7118 85.391 73.5411 85.4039 72.771 84.8752C72.2917 84.5462 72.1529 84.0796 72.5585 83.6377C72.7879 83.3879 73.0194 83.136 73.2578 82.8925C73.6147 83.0629 73.9334 82.9938 74.2983 82.8325C74.345 82.8118 74.3191 82.7402 74.2733 82.7402C74.072 82.74 73.3332 82.3661 73.2973 82.1273C73.2641 81.9062 73.6728 81.7198 73.8715 81.6129L73.9003 81.5971L73.9253 81.5826C74.1331 81.4567 74.3288 81.31 74.5077 81.1453C74.9616 80.7273 75.2912 80.2031 75.4352 79.6293L75.4478 79.577Z" fill="white"/>
<path fill-rule="evenodd" clip-rule="evenodd" d="M31.948 46.1934C32.3556 45.1688 33.7332 45.5671 33.5797 46.6435C33.4877 47.2882 33.1347 47.9692 32.8177 48.5343C32.5595 48.9943 32.265 49.4432 31.8657 49.788C32.5765 50.4514 33.3143 51.0906 34.0708 51.6975C34.8962 52.3596 35.7642 52.97 36.6614 53.5309C37.4482 54.0229 38.2705 54.4588 39.0121 55.0201C39.7017 55.542 40.3298 56.1696 40.6495 56.989C40.99 57.8615 40.842 58.7625 40.5913 59.6345L40.5625 59.7331C40.3063 60.5969 39.8628 61.6382 40.4777 62.4521C40.7908 62.8664 41.2459 63.1599 41.6388 63.4911C41.9881 63.7855 42.3159 64.1057 42.6165 64.4496C43.2721 65.1993 43.8052 66.0428 44.1417 66.9828L44.1718 67.0681C44.4602 67.9002 44.671 68.9195 44.2813 69.7365C44.1695 69.9706 43.8089 69.8945 43.7463 69.6665C43.6047 69.1499 43.6121 68.609 43.4934 68.0851C43.3698 67.5403 43.1643 67.0231 42.8958 66.5338C42.3764 65.5873 41.6729 64.7787 40.8418 64.0952L40.593 63.8928C39.9447 63.3605 39.349 62.7958 39.2174 61.9148C39.0766 60.9723 39.454 60.0745 39.6968 59.1824C39.8659 58.5607 39.9211 57.9647 39.7383 57.4029C39.515 57.7676 39.2104 58.1137 38.9694 58.4224C38.4894 59.0375 38.0049 59.6488 37.5217 60.2613C37.0262 60.8893 36.543 61.5272 36.0828 62.1817C35.877 62.4745 35.6734 62.769 35.4704 63.0638C35.3178 63.2854 35.1049 63.5067 34.9386 63.7327C34.979 63.8536 34.9759 63.993 34.9027 64.0919C34.0204 65.2844 32.7653 62.7963 32.438 62.1677C31.7714 60.8875 31.2753 59.5274 30.6065 58.2475C29.9135 56.9207 29.1243 55.6293 28.2448 54.418C27.7128 53.6853 27.1165 52.9971 26.6298 52.2412C25.4832 53.2813 23.9744 53.9785 22.5886 54.6108C21.066 55.3053 19.4841 55.8728 17.923 56.4753L17.4618 56.6545C14.7719 57.7047 12.0163 58.8584 9.7805 60.7238C7.15322 62.9159 5.59892 65.9711 4.44179 69.1349C3.10976 72.7772 2.00776 76.5177 0.980495 80.2559C0.454808 82.1685 -0.0439854 84.0898 -0.512907 86.0172C-0.926118 87.7153 -1.26864 89.4303 -1.74697 91.1109C-0.776855 91.0766 0.329557 91.4523 1.15781 91.5608C4.93252 92.0551 8.65642 92.843 12.2202 94.2072C12.6604 94.3757 12.7878 94.8155 12.6919 95.172C12.9458 95.1003 13.1994 95.0277 13.4533 94.9564C13.1752 94.53 13.3079 93.7678 13.3298 93.2953L13.3311 93.2628C13.3536 92.6331 13.4219 92.0028 13.4662 91.3743C13.5505 90.1762 13.6603 88.9868 13.8062 87.7955L13.8435 87.4977C14.0089 86.2016 14.1311 84.898 14.3116 83.6042L14.3329 83.4561C14.2464 83.1251 14.1456 82.7981 14.0399 82.4725C13.7581 81.6053 13.3603 80.7891 13.0118 79.9492C12.9706 79.8503 13.1115 79.7935 13.1773 79.8528C13.7676 80.384 14.2365 81.058 14.6132 81.7629C14.6197 81.7297 14.6255 81.6963 14.6323 81.6631L14.6753 81.4514C14.7813 80.9352 14.9103 80.3921 15.2268 79.9735C15.2605 79.929 15.3272 79.9196 15.3591 79.9735C15.662 80.4863 15.6959 81.1357 15.7425 81.7193C15.7952 82.3794 15.8018 83.0479 15.7925 83.7099C15.7744 85.0035 15.6832 86.3008 15.6106 87.5923C15.5394 88.8615 15.3995 90.1145 15.2192 91.3712L15.1849 91.6069C15.0968 92.2051 15.0246 92.8107 14.9084 93.4047L14.8755 93.5664C14.8134 93.8611 14.7752 94.2765 14.6514 94.6215C17.8344 93.7334 21.0222 92.8655 24.2161 92.0129C26.5245 91.3966 28.8353 90.7895 31.1451 90.1786C31.267 89.9588 31.4188 89.7536 31.6082 89.5701C32.2322 88.9655 33.0592 88.6958 33.8178 89.1612C33.8794 89.1991 33.8846 89.2958 33.8178 89.3324C33.6724 89.4119 33.5268 89.4933 33.3838 89.5783L34.7708 89.2025C35.8075 88.9214 36.8565 88.5702 37.9176 88.3743C39.872 87.4095 41.9739 86.7111 44.0327 86.0209L44.2753 85.9388C45.3294 85.5793 46.4198 85.1768 47.5089 84.9775C48.3062 84.8316 49.2421 85.0076 49.5627 85.8248C49.9687 86.0924 50.3506 86.4069 50.7191 86.7162C50.9855 86.9397 51.2409 87.1773 51.5007 87.4087L51.5485 87.4508C51.7609 87.6351 51.9291 87.7585 51.9812 88.0518C52.0081 88.2034 51.9119 88.4082 51.725 88.3881C51.1534 88.3269 50.6886 87.6641 50.301 87.2683C50.0015 86.9624 49.6996 86.646 49.4263 86.3098C49.2669 86.3966 49.0485 86.381 48.9471 86.1889C48.4211 85.1925 46.9802 85.8829 46.183 86.1192L45.041 86.4574C44.47 86.6267 43.8992 86.7968 43.3294 86.97C41.7634 87.4457 40.2051 87.9781 38.6248 88.415C38.7662 88.5705 38.7467 88.8471 38.4782 88.9523C37.2412 89.4378 35.8842 89.6889 34.5991 90.022C33.7878 90.2326 32.9769 90.4443 32.1664 90.6574C32.0274 90.8826 31.9274 91.1374 31.8853 91.4341C31.7306 92.5247 32.029 93.7831 32.3196 94.838L32.3633 94.9953C32.6022 95.8434 32.9537 96.8831 33.6851 97.4186C33.8637 97.5492 34.091 97.6401 34.3202 97.6607C35.752 96.9234 37.1838 96.1862 38.6164 95.4504C38.8818 95.314 39.127 95.4986 39.1865 95.7181C39.6917 95.6351 40.1956 95.5045 40.6547 95.3486C41.426 95.0866 42.0282 94.5868 42.7513 94.2412C44.1504 93.5726 45.5791 94.3939 46.8318 95.0182L47.1205 95.1602C47.6822 95.4328 48.8509 95.9566 49.1204 95.2109C49.3811 94.4895 48.5569 93.7185 48.0246 93.3938C47.3901 93.0066 46.6512 92.7995 45.9341 92.6269C45.5247 92.5283 45.1102 92.4479 44.6932 92.3892C44.2203 92.3226 43.7318 92.3326 43.2764 92.1791C43.0501 92.103 43.0153 91.7435 43.2764 91.6841C43.9774 91.5245 44.814 91.6986 45.5455 91.8765L45.9279 91.9707C46.6649 92.1516 47.409 92.3787 48.0803 92.7396C48.5684 93.0021 49.0836 93.4009 49.4202 93.889C49.7125 93.6174 50.0762 93.6266 50.4552 93.7273L50.6608 93.7845C51.0005 93.8787 51.2758 93.9435 51.6062 93.8783C51.6504 93.6377 51.6952 93.3971 51.7431 93.1565C52.214 90.7914 52.7305 88.4353 53.3004 86.0918C54.2833 82.0496 55.4208 78.0517 56.7031 74.0948L56.8318 73.6993C57.1275 72.7942 57.3655 71.8081 57.8423 70.9767C58.2933 70.1905 59.0158 69.7376 59.8742 69.4978C60.8484 69.2257 61.872 69.0833 62.8657 68.8994C63.0874 68.8585 63.3097 68.8196 63.5315 68.7793C63.344 68.4406 63.2041 68.0562 63.078 67.7612L63.0559 67.71C62.7851 67.0923 62.5418 66.4635 62.3068 65.8313L62.1311 65.356C61.7069 64.2115 61.269 63.0858 60.6726 62.0154C60.0448 60.8888 59.2119 59.9678 58.1737 59.2055C56.0569 57.6512 53.5055 56.8584 51.4524 55.1973C51.3683 55.1293 51.4762 55.0129 51.5616 55.0559C52.9479 55.7528 54.4444 56.2266 55.8864 56.7939L56.1708 56.9062C57.3105 57.3581 58.4679 57.8502 59.4544 58.5819C60.5542 59.3979 61.4203 60.4113 62.0714 61.6163C62.713 62.8041 63.1234 64.1337 63.5761 65.4025L63.6972 65.7405C63.8798 66.2475 64.0684 66.7529 64.2845 67.2462C64.456 67.6379 64.7762 68.085 64.9217 68.5324C65.3198 68.4633 65.7179 68.394 66.1164 68.3274C74.7482 66.8857 83.4765 66.0386 92.2241 65.7908C92.5663 65.7811 92.7434 66.1078 92.6929 66.4064C91.8534 71.3724 91.1074 76.3553 90.2889 81.325C89.9316 83.4941 89.5671 85.6614 89.1942 87.8277C89.0052 88.9253 88.7868 90.0186 88.6079 91.1177C88.4634 92.0054 88.3585 92.9 88.1105 93.7671C87.8881 94.5445 87.5467 95.2942 86.9861 95.8874C86.3817 96.5268 85.5382 96.8363 84.6891 96.9825C82.5336 97.3536 80.3227 97.5051 78.1497 97.7524L66.5807 99.0691C66.7497 100.606 66.7624 102.12 66.6848 103.675L66.6406 104.524C66.6045 105.207 66.5613 105.891 66.4632 106.566C66.3403 107.414 65.9526 108.132 65.3816 108.765C64.8572 109.347 64.2202 109.843 63.6006 110.319C62.9574 110.812 62.2929 111.289 61.5367 111.594L61.4385 111.633C60.7751 111.892 59.5306 112.293 58.6238 112.147C58.7423 112.741 58.9717 113.38 58.7684 113.968C58.674 114.24 58.3172 114.377 58.0986 114.144C57.6655 113.684 57.6317 113.076 57.5291 112.475C57.4224 111.85 57.3304 111.223 57.2486 110.595C57.0905 109.379 56.9675 108.152 56.93 106.926C56.8913 105.667 56.9062 104.407 56.974 103.149C57.0089 102.503 57.0521 101.858 57.1341 101.216C57.169 100.943 57.2048 100.669 57.2456 100.396C57.2605 100.296 57.277 100.197 57.2948 100.098L56.2564 100.215C54.6642 100.393 53.0712 100.554 51.4677 100.579C51.2778 100.582 51.1317 100.495 51.0363 100.369C50.9345 100.535 50.7574 100.653 50.5038 100.653C48.2645 100.644 46.1792 99.9117 44.1426 99.0484C43.116 98.6131 42.1053 98.1419 41.0772 97.7104C40.1176 97.3076 39.0916 97.0202 38.1551 96.5664L35.6943 97.8577C35.6763 97.9212 35.6531 97.9812 35.6285 98.0315C35.4683 98.3587 35.1524 98.5362 34.8298 98.6698C34.5201 98.7984 34.1994 98.8384 33.8869 98.8059C32.0206 99.7843 30.1539 100.762 28.2859 101.737L26.4175 102.711C22.695 104.65 18.9871 106.621 15.2411 108.514L14.9653 108.653C13.6714 109.302 12.2821 109.96 10.8462 110.451C10.8206 110.815 10.8368 111.168 10.8672 111.553L10.8746 111.637C10.9174 112.092 11.0092 112.662 10.6445 112.985C10.4548 113.154 10.1159 113.154 9.98692 112.901C9.75284 112.44 9.963 111.714 10.0372 111.214C10.0635 111.036 10.0955 110.854 10.143 110.676C8.49688 111.166 6.8009 111.404 5.12577 111.129C3.49482 110.861 2.23166 109.833 1.21332 108.576C0.138608 107.249 -0.625094 105.703 -1.03485 104.046C-1.50118 102.16 -1.53162 100.212 -1.52067 98.2801C-1.50905 96.2229 -1.43298 94.1556 -1.18286 92.1122C-1.4569 92.0478 -1.7608 91.992 -2.03772 92.0113C-2.17488 92.2308 -2.44094 92.3233 -2.68136 92.2947C-3.20416 92.8715 -1.87808 93.461 -1.4543 93.6086C-1.30715 93.6599 -1.32291 93.899 -1.49263 93.8918L-1.59953 93.8867C-2.25435 93.8519 -2.93086 93.74 -3.31587 93.1313C-3.62439 92.6433 -3.5317 92.0653 -3.16392 91.6674C-2.921 89.3697 -2.34028 87.1323 -1.7998 84.8909C-1.26941 82.6909 -0.679555 80.5051 -0.054359 78.3303L0.225921 77.357C1.21028 73.9469 2.23918 70.5093 3.59702 67.2348C4.27505 65.5998 5.05613 63.9948 6.11491 62.5691C7.10183 61.2401 8.26702 60.1029 9.60636 59.1316C12.1032 57.3208 15.033 56.2266 17.9117 55.1842L18.0405 55.1375C19.5323 54.5977 21.0204 54.0514 22.4952 53.4665C23.7994 52.9493 25.049 52.2935 26.3471 51.7685C26.3049 51.6919 26.2642 51.6144 26.225 51.5361L26.201 51.5563C26.1969 51.5596 26.1927 51.5627 26.1883 51.5657C26.0578 51.6562 25.8656 51.6117 25.758 51.5102C25.4543 51.2234 25.5571 50.9052 25.7599 50.6078L25.7863 50.5699C26.0343 50.2224 26.2555 49.855 26.4844 49.4948L26.6277 49.2696C27.0119 48.6679 27.4156 48.0622 27.9279 47.565C28.1652 47.3345 28.4249 47.1622 28.7001 47.0337C28.6765 46.9839 28.8829 46.8822 28.9413 46.9334C29.8132 46.6142 30.8163 46.681 31.7668 46.7691M66.0205 99.1326L64.8083 99.2705C63.4748 99.4223 62.1407 99.5691 60.8064 99.7145L57.9083 100.03C57.9009 100.195 57.8808 100.356 57.8772 100.481C57.8583 101.125 57.8441 101.769 57.8308 102.412C57.804 103.703 57.8334 104.994 57.9183 106.282C58.0006 107.53 58.109 108.778 58.2774 110.017L58.3119 110.265L58.3319 110.395C58.4693 110.408 58.6044 110.474 58.7167 110.608C58.9618 110.901 59.8494 110.616 60.196 110.493C60.7661 110.29 61.3029 109.947 61.7983 109.603C62.282 109.267 62.7176 108.876 63.1362 108.464L63.4786 108.125C63.8193 107.786 64.1604 107.425 64.3691 106.999C64.6521 106.422 64.6887 105.712 64.7717 105.083C64.8739 104.309 64.9956 103.536 65.1242 102.766M30.8322 91.009L30.7064 91.0421C26.1391 92.2562 21.5786 93.5061 16.9973 94.6666C14.7301 95.241 12.4521 95.7736 10.1822 96.337L9.81464 96.4289C8.02387 96.8817 6.21161 97.4266 4.84027 98.726C4.78965 98.7739 4.71618 98.7004 4.76382 98.6495C6.24176 97.0756 8.34374 96.4093 10.362 95.8317C10.735 95.725 11.1086 95.6207 11.4817 95.5145C8.73697 94.5357 5.9489 93.6841 3.09647 93.0767C2.36196 92.9202 1.61891 92.8054 0.884986 92.6484C0.37314 92.5388 -0.126725 92.3805 -0.633165 92.2491L-1.03152 92.1488L-1.03681 93.4083C-1.04344 95.1922 -1.04028 96.9747 -0.949301 98.7583L-0.93208 99.0887C-0.825937 101.074 -0.660258 103.1 0.0438673 104.971C0.616044 106.492 1.52805 107.925 2.72072 109.033C3.3242 109.593 3.97303 110.03 4.77506 110.245C5.51974 110.445 6.29996 110.469 7.06549 110.415C10.7374 110.159 14.006 108.163 17.1957 106.511C22.4129 103.809 27.6307 101.108 32.8532 98.4161C32.712 98.3196 32.5791 98.2083 32.4581 98.0833C31.7578 97.3597 31.3884 96.3693 31.1458 95.41C30.8875 94.389 30.7331 93.2946 30.7151 92.2405M37.4766 99.4593C37.5227 99.4345 37.5761 99.4656 37.5783 99.5177C37.5944 99.9167 37.374 100.31 37.2093 100.67L37.1918 100.708C36.9918 101.153 36.7727 101.593 36.5461 102.025C36.0932 102.889 35.6226 103.744 35.1314 104.586C34.1436 106.281 33.0459 107.905 31.7484 109.381C31.4554 109.715 30.9734 109.287 31.1615 108.928C32.0682 107.197 33.1252 105.563 34.2133 103.944C34.758 103.133 35.3023 102.321 35.8524 101.514C36.0819 101.177 36.3143 100.841 36.553 100.511L36.697 100.313M91.6457 66.7819C87.0624 66.9204 82.4845 67.2194 77.923 67.688C73.6808 68.1238 69.4542 68.7039 65.2514 69.427C64.3736 69.5781 63.4968 69.7353 62.6212 69.8987L62.0959 69.9975C61.2201 70.1636 60.1502 70.2321 59.3705 70.7001C58.5484 71.1935 58.3262 72.2248 58.0527 73.0751C57.7311 74.0752 57.4177 75.0782 57.1127 76.0836C55.9017 80.0754 54.7955 84.1018 53.8086 88.1548C53.3188 90.1666 52.8841 92.1897 52.4262 94.2088C52.0193 96.0028 51.5704 97.7765 51.1013 99.5525C51.1592 99.5075 51.23 99.4733 51.3156 99.455C53.6447 98.9593 56.0221 98.7438 58.3859 98.47L58.6146 98.4433C61.06 98.1556 63.5054 97.87 65.9522 97.5948L82.1521 95.7723C83.1075 95.6649 84.131 95.6503 85.0608 95.3938C86.6416 94.9576 87.0121 93.1896 87.2773 91.7816L87.2853 91.739C88.085 87.4849 88.7215 83.1938 89.4672 78.9289M51.4781 94.6069C50.8492 94.5654 49.9884 93.9891 49.5112 94.0305C49.7617 94.451 49.8747 94.9305 49.7304 95.4427C49.3286 96.8679 47.5116 96.1305 46.6364 95.6951C45.9188 95.3379 45.2259 94.9009 44.4314 94.7336C43.5314 94.5443 42.9217 94.9024 42.1614 95.3151C41.5368 95.654 40.8567 95.8974 40.1573 96.0233C39.7854 96.0904 39.4321 96.0975 39.0795 96.0714C39.0582 96.0887 39.0343 96.1047 39.007 96.1191L38.8205 96.217C39.6639 96.2556 40.523 96.516 41.3079 96.7544C42.1213 97.0013 42.9198 97.299 43.714 97.6034L44.4954 97.9039C46.4227 98.6422 48.4177 99.3433 50.5035 99.3372C50.6534 99.3368 50.7763 99.3783 50.873 99.446M47.9595 90.1415C48.5809 90.0655 49.1544 90.147 49.6509 90.5516C50.2496 91.0395 50.6519 91.8488 51.5127 91.9019C51.7637 91.9174 51.822 92.2704 51.5726 92.3442C50.9318 92.534 50.413 92.1872 49.9765 91.7369L49.683 91.4301C49.2515 90.9833 48.8537 90.6378 48.1216 90.6645C47.3377 90.6931 46.5523 90.8743 45.7735 90.9665C44.8911 91.0708 44.009 91.1598 43.1239 91.2366C43.0828 91.2402 43.0758 91.1754 43.1143 91.1659L44.1057 90.9191M47.3594 87.6005L47.4619 87.5903C48.3642 87.5026 49.1893 87.4992 49.9952 87.9848L50.1497 88.0783C50.8762 88.5201 51.667 89.0405 52.1213 89.7557C52.1957 89.8728 52.0728 90.0105 51.9485 89.9808C51.0752 89.7711 50.4369 89.1302 49.7026 88.6505C48.8785 88.1122 48.0272 88.201 47.0875 88.2846C46.1777 88.3656 45.2684 88.4769 44.3675 88.6286C43.521 88.771 42.6718 88.9958 41.8168 89.0675L41.817 89.0658C41.7193 89.0656 41.6636 88.9189 41.7632 88.8691C42.6309 88.4356 43.6359 88.2305 44.5798 88.0325M74.769 78.6791C74.6818 78.2618 75.1949 78.0683 75.4328 78.3993L75.4833 78.4691C75.9971 79.1733 76.7402 80.0569 76.7024 80.9525C77.154 80.9624 77.6222 81.2369 77.7982 81.6446C77.8796 81.8332 77.9071 82.0567 77.8892 82.2881C78.2997 82.32 78.7474 82.5896 78.9984 82.8521C79.4144 83.2873 79.4472 83.9023 79.1488 84.4108C78.4981 85.5192 77.0766 85.9225 75.8766 86.0125L75.8339 86.0156C74.5944 86.1013 72.8084 86.0781 71.9586 85.0143C71.1388 83.9882 72.0448 83.1574 72.9739 82.7063C72.7321 82.4854 72.6068 82.1686 72.7246 81.8345C72.9314 81.2473 73.6615 81.0204 74.074 80.6122C74.5769 80.1145 74.9093 79.4318 74.7767 78.7181M75.4502 79.5814C75.3135 80.1756 74.9777 80.719 74.5101 81.1497C74.3312 81.3144 74.1356 81.461 73.9277 81.587L73.9027 81.6015C73.7182 81.7051 73.2648 81.8992 73.2997 82.1316C73.3356 82.3705 74.0744 82.7444 74.2757 82.7446C74.3215 82.7446 74.3474 82.8162 74.3007 82.8369C73.9358 82.9982 73.6171 83.0673 73.2602 82.8969C73.0218 83.1404 72.7903 83.3923 72.5609 83.6421C72.1553 84.084 72.2941 84.5506 72.7734 84.8796C73.5435 85.4083 74.7142 85.3954 75.6127 85.357C76.5171 85.3183 77.4839 85.1165 78.1904 84.5139L78.2211 84.4871C78.6051 84.1455 78.9558 83.5666 78.3678 83.2376C78.1375 83.1088 77.8888 83.1164 77.6701 83.0537C77.4656 83.4549 77.1337 83.7762 76.7287 83.8382C76.4015 83.8883 76.1761 83.4767 76.4738 83.2799L76.5407 83.2384C76.9145 82.9997 77.2335 82.632 77.225 82.1533C77.2193 81.8209 76.7553 81.4011 76.4531 81.7134L76.4392 81.7284C76.1863 82.0136 75.7409 81.6542 75.9072 81.3382L75.9152 81.3238M16.4635 63.0563C16.4624 62.9849 16.5628 62.9581 16.5978 63.0199C17.1849 64.0532 17.4918 65.3197 17.8045 66.4581C18.1321 67.6505 18.3965 68.8551 18.634 70.0685C19.1151 72.5256 19.3715 74.9686 19.3889 77.4728C19.3913 77.8304 18.809 77.9255 18.7521 77.5591C18.3739 75.1232 18.0116 72.6847 17.6306 70.2495C17.4389 69.0246 17.2157 67.8045 17.0022 66.5833M22.2754 64.8558C22.2322 64.7133 22.4395 64.6656 22.4925 64.7959C23.6707 67.6891 24.0697 70.9678 23.3133 74.0201C23.1975 74.487 22.5139 74.2847 22.6012 73.8237M37.4724 62.2851C37.4665 62.1785 37.6049 62.1617 37.657 62.2351C38.2153 63.0219 38.4469 64.0757 39.4263 64.4824C39.9153 64.6854 40.4656 64.6501 40.8976 64.993C41.1864 65.2224 41.4079 65.5844 41.1911 65.9318C41.1212 66.044 40.9255 66.1002 40.8306 65.9783C40.6921 65.8006 40.6188 65.5879 40.4306 65.4547C40.1652 65.2669 39.8073 65.2552 39.503 65.1669C39.1094 65.0528 38.7625 64.853 38.4784 64.5562M46.7988 49.1607C46.8563 49.1314 46.9115 49.1501 46.9483 49.1999C47.0009 49.2708 46.9944 49.3398 46.9301 49.3884C47.016 49.5641 47.1176 50.0044 47.1321 50.0685C47.1909 50.3283 47.2534 50.5866 47.3188 50.8447C47.4508 51.3652 47.5664 51.8898 47.6985 52.4105C47.8385 52.9624 48.0054 53.5085 48.191 54.0467C48.203 54.0815 48.2162 54.1171 48.23 54.1532L48.2512 54.2077L48.2564 54.1995C48.2941 54.1398 48.3727 54.1815 48.3634 54.2445C48.3547 54.302 48.3431 54.3592 48.3333 54.4166L48.3528 54.4681C48.4742 54.7951 48.5574 55.1395 48.3345 55.4281C48.2512 55.536 48.1594 55.5999 48.0451 55.6189C47.8619 56.2233 47.6319 56.8164 47.3857 57.3861L47.3136 57.5524C46.9515 58.3836 46.5653 59.2039 45.9887 59.9115C45.3592 60.684 44.4933 61.2115 43.9449 62.0581C43.6898 62.4518 43.5123 62.8659 43.3682 63.3106L43.314 63.4794C43.2117 63.7939 43.0938 64.0988 42.7988 64.2833C42.7047 64.3421 42.5637 64.3234 42.4878 64.2431C41.883 63.6031 42.5161 62.4079 42.8808 61.7883C43.3878 60.9265 44.1215 60.3753 44.8562 59.7251C45.6482 59.0244 46.1533 58.0869 46.6419 57.1634C46.9412 56.5976 47.2301 56.0197 47.5343 55.4514C47.2165 55.1704 47.1148 54.6122 47.0071 54.2243L46.9973 54.1895C46.8193 53.5682 46.6779 52.9307 46.5886 52.2905C46.5026 51.6749 46.4668 51.0681 46.4895 50.4491L46.4961 50.2914M47.98 52.0909C47.9098 51.9946 48.026 51.8856 48.1223 51.9056C48.7081 52.0268 49.2807 52.3815 49.8064 52.6683L49.8626 52.6988C50.2822 52.9251 50.7045 53.2025 50.9248 53.6423C51.1645 54.1203 51.1447 54.6708 51.112 55.1903L51.109 55.2389C51.0689 55.8618 51.0625 56.5091 50.9307 57.1208C50.8633 57.4338 50.5798 57.522 50.3375 57.448C50.0491 58.3589 49.2391 59.0299 48.6474 59.7487C47.8931 60.665 48.035 61.9021 48.1139 63.0057C48.1458 63.4525 47.5902 63.5796 47.3041 63.3412L46.6447 62.7932C46.5349 62.7018 46.4252 62.6101 46.3158 62.5182C46.2221 62.4393 46.1293 62.3598 46.0372 62.2794L45.8997 62.1579C45.8387 62.1033 45.5697 61.8027 45.491 61.7902C45.3005 61.7599 44.8478 62.2622 44.6929 62.4198L44.6732 62.4395C44.3816 62.7255 44.1182 63.0333 43.8728 63.3597C43.8276 63.4197 43.7393 63.3699 43.7716 63.3006C43.9915 62.8294 44.2472 62.3788 44.5508 61.9572L44.6122 61.8732C44.8141 61.6009 45.0853 61.1201 45.4418 61.0396C45.8772 60.9415 46.3119 61.3783 46.6287 61.6207L46.6487 61.6359C46.7994 61.749 46.9484 61.8641 47.0971 61.98C47.0815 61.1583 47.1853 60.3281 47.6093 59.62C47.9083 59.1207 48.3563 58.7508 48.7397 58.3217C49.1664 57.8438 49.3893 57.2565 49.7756 56.7589C49.8253 56.6949 49.8939 56.6604 49.9682 56.6494C49.983 56.2494 50.0419 55.8453 50.0874 55.4496L50.1006 55.3311C50.1466 54.9011 50.2553 54.3759 50.0449 53.9732C49.8461 53.5928 49.39 53.3243 49.0522 53.0663L48.7764 52.8522M28.9702 47.5442C28.7938 47.6462 28.629 47.7731 28.4794 47.9318C28.0087 48.4313 27.6721 49.053 27.3446 49.6511C27.1682 49.9732 26.9982 50.2988 26.8204 50.6201C26.7431 50.76 26.6636 50.8982 26.5832 51.0363C26.546 51.0999 26.4356 51.2264 26.3808 51.3043C26.4416 51.3896 26.5045 51.4735 26.5687 51.5566C26.5932 51.5883 28.2818 53.4285 28.8705 54.1487C29.7718 55.2519 30.5775 56.4172 31.2663 57.6644C31.9407 58.8858 32.4542 60.1789 33.079 61.424C33.3918 62.0473 33.741 62.6662 34.1862 63.2056C34.2034 63.2267 34.2216 63.2466 34.2391 63.2673C34.409 62.8081 34.8444 62.3165 35.0583 62.0342L35.0782 62.0075C35.5632 61.3535 36.0753 60.7193 36.5986 60.0957C37.0766 59.5264 37.5667 58.9693 38.0686 58.4215L38.2574 58.2164C38.6072 57.8385 39.0514 57.273 39.5633 57.003C39.5085 56.9052 39.445 56.8084 39.372 56.7129C38.8923 56.0859 38.2143 55.6308 37.5452 55.2202L37.1113 54.9562C35.4758 53.9591 33.8657 52.9158 32.4458 51.6202C31.6946 50.9347 30.9537 50.2167 30.3223 49.4171L30.099 49.1344M31.6994 47.0505C30.9335 47.1148 30.1064 47.0995 29.3986 47.3492C30.0279 47.9442 30.626 48.5868 31.2404 49.1918C31.2951 48.7826 31.4069 48.3784 31.5016 47.9793" fill="black"/>
<path fill-rule="evenodd" clip-rule="evenodd" d="M39.4836 9.20648C44.9259 9.20648 50.5551 13.4355 52.5501 16.1342C54.2273 18.4031 55.1304 28.663 55.1304 35.5968C55.1304 37.047 55.9287 39.7806 55.6957 41.1677C54.842 46.2507 51.1229 50.5137 43.7619 50.5137C36.4009 50.5137 31.1231 47.5886 25.6518 39.7351C22.9972 39.7351 21.7106 37.6942 21.6919 34.4734C21.6732 31.2526 24.2544 30.0808 24.2544 30.0808C24.2544 30.0808 23.3341 17.3703 25.6518 14.0611C27.9696 10.7519 34.0413 9.20648 39.4836 9.20648Z" fill="#D08B5B"/>
<path fill-rule="evenodd" clip-rule="evenodd" d="M37.1937 7.40919C40.6299 7.06039 43.997 7.35346 47.3833 7.95988C47.6421 8.00686 47.7888 8.17704 47.8433 8.38161C49.4383 8.45464 51.0352 8.57196 52.6281 8.6594C53.2061 8.69111 53.5338 9.2637 53.2703 9.78076C53.2176 9.88348 53.1629 9.98341 53.1073 10.0833L53.1772 10.0603C53.6564 9.90615 54.174 9.83016 54.6409 10.0748C55.2352 10.3861 55.4682 11.0731 55.3368 11.7053C55.3032 11.8667 55.2467 12.0214 55.1825 12.1724C55.3129 12.1638 55.4442 12.1666 55.5746 12.1839C56.2685 12.2762 56.7842 12.8095 56.8206 13.5196C56.8743 14.5918 56.1851 15.6796 55.3733 16.4473C55.4911 16.6905 55.5362 16.9768 55.4872 17.267C55.3895 17.8407 54.9679 18.1842 54.4793 18.4083C54.6831 19.057 54.7794 19.7352 54.7226 20.4282C54.7036 20.6596 54.5017 20.8507 54.2887 20.8976C55.0829 23.0898 55.4848 25.4434 55.7739 27.7368C55.98 29.3684 56.0816 31.0096 56.094 32.6536C56.1 33.3958 56.0878 34.1389 56.0567 34.8813L56.0442 35.1596C56.0059 35.962 56.004 36.8046 55.8602 37.5984C56.3509 38.4353 56.5484 39.4741 56.6318 40.4118C56.7353 41.5726 56.5714 42.7698 56.2061 43.874C54.8278 48.0461 50.6681 50.6789 46.4899 51.3631C42.6226 51.9964 38.1474 51.1441 35.8873 47.6223C35.8518 47.5666 35.9275 47.5205 35.9716 47.5571C37.5886 48.8753 39.4643 49.4634 41.5021 49.7497C45.0255 50.2437 48.9858 49.4057 51.8134 47.1842C53.1706 46.1177 54.1492 44.5649 54.5796 42.8938C54.7991 42.0396 54.8749 41.1488 54.7885 40.2697C54.7003 39.378 54.3065 38.617 54.0582 37.7743C53.9748 37.4898 54.063 37.2255 54.2365 37.0373C54.2853 36.353 54.4004 35.6631 54.4444 34.981C54.4933 34.2054 54.5231 33.43 54.5336 32.6536C54.5538 31.0432 54.4867 29.4298 54.3515 27.8262C54.1042 24.8896 53.4477 22.0244 53.0624 19.1128C52.9197 19.2411 52.7152 19.2937 52.5009 19.1817L52.4786 19.1695L52.3617 19.1023C52.355 19.1023 52.3473 19.1033 52.3405 19.1041C51.5403 19.1821 50.7102 19.0706 49.9435 18.8313C49.1411 18.5815 48.3965 18.1972 47.7312 17.685C47.6048 18.3277 47.5519 18.9773 47.5511 19.6326C47.5501 20.042 47.1178 20.2544 46.7747 20.0795C45.2536 19.305 43.8005 18.4124 42.4213 17.4092C42.2602 18.2366 42.0992 19.0638 41.9371 19.8921C41.8749 20.2112 41.4694 20.3399 41.2097 20.1881C40.1765 19.5855 39.2842 18.7968 38.5576 17.8588C38.4126 18.1369 38.2671 18.415 38.1206 18.6924L37.9001 19.108C37.6825 19.5164 37.3911 19.9681 36.9148 20.0987C36.4106 20.237 35.9898 19.9095 35.8202 19.452C35.7684 19.3099 35.7205 19.1637 35.6764 19.0167C35.2469 19.9998 34.762 20.9607 34.2138 21.8774C33.3914 23.2523 32.4041 24.4774 31.4198 25.7343C31.1207 26.1158 30.6089 25.7516 30.5677 25.3808C30.5437 25.1626 30.5236 24.9436 30.5063 24.7253C29.9327 25.8857 29.3342 27.0352 28.6822 28.1514L28.7755 28.5181C29.0446 29.6018 29.268 30.6932 29.5109 31.7827C29.5893 32.1342 29.403 32.6367 28.9933 32.6966C28.5039 32.7681 28.0408 33.0187 27.5396 32.8463C26.9929 32.6581 26.8849 32.1845 26.6269 31.7356C26.5754 31.6461 26.5155 31.564 26.4511 31.4859L26.4347 31.5073C26.3945 31.5602 26.2986 31.5026 26.3226 31.442L26.3507 31.3721C26.129 31.1362 25.8637 30.9394 25.6197 30.7277C25.04 30.6298 24.388 30.737 23.9886 30.9731C23.079 31.5111 22.6612 32.62 22.6525 33.6396C22.642 34.833 23.0109 36.1744 23.6339 37.1949C23.9082 37.6436 24.2839 38.049 24.7803 38.248C25.273 38.4458 25.8069 38.3844 26.3082 38.5707C26.6398 38.6948 26.844 39.0638 26.6437 39.3981C26.6302 39.4212 26.6149 39.4423 26.6004 39.4645L26.7495 39.6628C26.8521 39.8003 26.959 39.9474 27.0587 40.1005C27.3136 40.3946 27.582 40.6781 27.8418 40.9673C28.3219 41.5005 28.7878 42.0483 29.2602 42.5892C29.706 43.0995 30.1776 43.5789 30.6635 44.0507C31.1227 44.4976 31.6958 44.8732 32.1176 45.3499C32.5277 45.815 32.639 46.6268 31.9641 46.896C31.2175 47.1944 30.5566 46.4949 30.054 46.0285L30.0329 46.009C29.1116 45.1591 28.2796 44.1878 27.6189 43.1184C26.9645 43.5651 26.0179 43.6077 25.3662 43.1612C25.0233 42.9263 24.7601 42.5314 24.6323 42.1019C24.5117 42.129 24.3912 42.1449 24.2737 42.143C24.2132 42.1782 24.1526 42.2124 24.0912 42.2443C23.6052 42.4979 23.0081 42.3846 22.7858 41.8455C22.5833 41.356 22.7919 40.8002 22.9743 40.3286L23.012 40.2312C23.1155 39.9622 23.2295 39.6691 23.3714 39.3934C22.9765 39.0955 22.639 38.7255 22.3535 38.3047C21.394 36.8874 20.9148 34.8146 21.1266 33.1236C21.2541 32.1031 21.7323 31.0461 22.5154 30.3581L22.4867 30.2831C22.2672 29.7249 22.0678 29.1646 21.9385 28.5747C21.787 27.8848 21.7131 27.1699 21.6461 26.4675C21.5043 24.9839 21.5426 23.4667 21.7314 21.9888C22.0861 19.2071 22.9851 16.4762 24.581 14.1614C24.1285 13.6184 23.7701 12.9795 23.9569 12.2445C24.0423 11.9071 24.2368 11.5872 24.5302 11.394C24.6921 11.2874 24.8848 11.2711 25.0468 11.1827L25.0955 11.1558C25.1667 11.1142 25.1123 11.1186 25.0698 10.9252C24.9021 10.1525 25.0411 9.40601 25.8893 9.14945C26.6878 8.90827 27.443 9.42042 27.9156 10.0306C29.152 9.15128 30.7814 8.69111 32.2144 8.30003C33.8438 7.85697 35.5153 7.58033 37.1937 7.40919ZM23.8382 33.3246C23.8324 32.6952 24.4276 32.307 25.0133 32.41C25.4066 32.4786 25.7347 32.7139 26.0428 32.9571L26.193 33.0762C26.5682 33.3715 26.9989 33.6898 27.2225 34.1078C27.5503 34.7247 26.8574 35.5548 26.2105 35.1224C25.7666 34.8243 25.4822 34.3465 25.1911 33.9027L25.1609 33.857C25.0286 33.6581 24.9127 33.4467 24.7314 33.2872L24.6923 33.2528C24.6327 33.2019 24.5687 33.1554 24.4918 33.1334C24.3434 33.0906 24.0685 33.1505 24.0031 33.3277L23.9972 33.3458C23.9733 33.4352 23.8392 33.4159 23.8382 33.3246Z" fill="black"/>
<path fill-rule="evenodd" clip-rule="evenodd" d="M48.7375 42.0362C48.0856 42.2926 47.3154 42.3532 46.6426 42.1347C45.9992 41.9258 45.4149 41.4609 45.0614 40.8762C44.7466 40.3553 44.6151 39.7373 44.8012 39.1212C44.8101 39.0917 44.839 39.0728 44.8668 39.0654C45.0191 39.2041 45.1131 39.3418 45.2071 39.4788C45.3655 39.7099 45.5243 39.9385 45.7423 40.1361C46.0594 40.4234 46.4867 40.6568 46.9107 40.7338C47.3259 40.8093 47.7508 40.7426 48.1226 40.5437C48.3487 40.4229 48.5315 40.2614 48.7125 40.0991C48.9096 39.9224 49.1036 39.743 49.3751 39.6432C49.5926 39.5632 49.8211 39.6307 49.9967 39.7645C50.1853 39.9083 50.321 40.1334 50.3135 40.3687C50.3018 40.7332 50.1423 41.0373 49.9109 41.2882C49.5979 41.6274 49.1555 41.8718 48.7375 42.0362ZM47.9636 32.9509C48.6889 33.3919 49.7941 34.4204 49.0138 35.5138C48.0954 36.4779 46.773 35.3725 46.1214 34.8726C45.5171 34.4851 44.8382 35.4816 45.3988 35.934C50.1076 39.4216 52.0186 33.0662 48.3305 32.4323C47.9244 32.3625 47.7736 32.8144 47.9636 32.9509ZM40.3347 26.8398C41.3232 26.7926 42.1944 27.2367 43.1365 27.4385C44.0071 27.6251 44.8648 27.513 45.7115 27.2757C47.0856 26.8905 47.6537 28.9948 46.2983 29.4049C45.3113 29.7036 44.272 29.7243 43.2591 29.5704C42.3594 29.4336 41.6052 28.9954 40.7474 28.7403C40.0112 28.5215 39.1452 28.6124 38.3677 28.7154L38.0659 28.756C37.6174 28.8165 37.1664 28.8771 36.7223 28.9648C36.3369 29.041 35.9522 29.1805 35.5589 29.1966C35.5143 29.1985 35.4764 29.1405 35.5046 29.1018C35.9615 28.4743 36.8421 27.9791 37.5425 27.6489L37.59 27.6266C38.4547 27.2233 39.372 26.8858 40.3347 26.8398ZM39.9725 31.4671L39.9724 31.4455C39.9737 30.8327 40.3304 29.4337 41.2122 29.4337C41.7631 29.4337 42.0975 30.3858 42.1554 31.3673L42.1574 31.4074C42.183 32.0176 42.0156 33.3514 41.2122 33.3514C40.4003 33.3514 39.9808 32.0881 39.9725 31.4671ZM52.9543 31.4671L52.9545 31.4455C52.9531 30.8327 52.5964 29.4337 51.7146 29.4337C51.1776 29.4337 50.8462 30.3388 50.7763 31.2938L50.7715 31.3673C50.7367 31.9569 50.8932 33.3514 51.7146 33.3514C52.5265 33.3514 52.946 32.0881 52.9543 31.4671ZM52.9406 26.0935L53.0037 26.0949C54.0341 26.1306 55.094 26.7413 55.3691 27.767C55.3833 27.8202 55.3177 27.8561 55.2788 27.8196C54.4315 27.026 53.292 27.7843 52.4436 28.1817L52.132 28.3258C51.0382 28.8348 49.7942 29.4333 48.5798 29.0539C48.003 28.8738 47.6367 28.2809 47.8012 27.6821C47.9476 27.1493 48.5905 26.7015 49.1473 26.8938L49.1726 26.903C49.625 27.0761 50.1812 26.9007 50.6484 26.7278L51.0323 26.5836C51.6494 26.3493 52.2695 26.0872 52.9406 26.0935Z" fill="black"/>
</g>
</svg>
