<svg width="281" height="104" viewBox="0 0 281 104" fill="none" xmlns="http://www.w3.org/2000/svg">
<rect opacity="0.2" x="16.2891" width="55.1325" height="55.1325" rx="6.26506" fill="url(#paint0_radial)"/>
<rect opacity="0.99" x="8.77148" y="6.26514" width="70.1687" height="70.1687" rx="6.26506" fill="#FFD48C"/>
<rect y="15.0361" width="87.7108" height="87.7108" rx="6.26506" fill="url(#paint1_radial)"/>
<path d="M115.323 48V24.434H129.596V27.9191H119.306V34.0928H128.6V37.5779H119.306V44.5149H129.928V48H115.323ZM139.039 48.4979C138.154 48.4979 137.335 48.3651 136.583 48.0996C135.852 47.834 135.211 47.4579 134.657 46.9711C134.104 46.4843 133.673 45.9089 133.363 45.2451C133.053 44.5813 132.898 43.8511 132.898 43.0545C132.898 41.9481 133.186 40.9855 133.761 40.1668C134.359 39.326 135.189 38.6732 136.251 38.2085C137.313 37.7438 138.552 37.5115 139.968 37.5115C140.743 37.5115 141.484 37.5889 142.192 37.7438C142.9 37.8766 143.575 38.0757 144.217 38.3413V37.246C144.217 36.4715 144.073 35.7966 143.785 35.2213C143.497 34.6238 143.088 34.1591 142.557 33.8272C142.026 33.4953 141.384 33.3294 140.632 33.3294C139.835 33.3294 139.116 33.5396 138.474 33.96C137.833 34.3804 137.357 34.9668 137.047 35.7191L133.529 34.9226C133.794 33.9489 134.27 33.1081 134.956 32.4C135.664 31.6919 136.505 31.1387 137.479 30.7404C138.474 30.3421 139.548 30.143 140.698 30.143C141.783 30.143 142.767 30.32 143.652 30.674C144.56 31.0281 145.334 31.526 145.976 32.1677C146.617 32.8094 147.115 33.5728 147.469 34.4579C147.823 35.343 148 36.3277 148 37.4119V48H144.515L144.383 45.7098C143.918 46.5506 143.221 47.2255 142.291 47.7345C141.362 48.2434 140.278 48.4979 139.039 48.4979ZM136.749 42.8885C136.749 43.3753 136.881 43.8179 137.147 44.2162C137.412 44.5923 137.777 44.8911 138.242 45.1123C138.729 45.3336 139.293 45.4443 139.935 45.4443C140.754 45.4443 141.484 45.2672 142.126 44.9132C142.767 44.5591 143.276 44.0834 143.652 43.486C144.029 42.8664 144.217 42.1694 144.217 41.3949V40.9966C143.641 40.7532 143.044 40.5651 142.424 40.4323C141.827 40.2774 141.207 40.2 140.566 40.2C139.415 40.2 138.486 40.4434 137.777 40.9302C137.091 41.417 136.749 42.0698 136.749 42.8885ZM158.048 48.4979C156.919 48.4979 155.868 48.3098 154.895 47.9336C153.943 47.5574 153.124 47.0264 152.438 46.3404C151.775 45.6323 151.299 44.8026 151.011 43.8511L154.463 42.9549C154.751 43.7072 155.216 44.2936 155.857 44.714C156.499 45.1345 157.24 45.3447 158.081 45.3447C158.944 45.3447 159.652 45.1455 160.205 44.7472C160.758 44.3268 161.035 43.7957 161.035 43.154C161.035 42.6009 160.814 42.1362 160.371 41.76C159.929 41.3838 159.21 41.1072 158.214 40.9302L157.118 40.7311C155.26 40.3991 153.855 39.8017 152.903 38.9387C151.974 38.0757 151.509 36.9694 151.509 35.6196C151.509 34.5353 151.786 33.5838 152.339 32.7651C152.892 31.9464 153.656 31.3047 154.629 30.84C155.603 30.3753 156.72 30.143 157.981 30.143C159.066 30.143 160.061 30.3311 160.969 30.7072C161.876 31.0834 162.639 31.6145 163.259 32.3004C163.878 32.9864 164.321 33.794 164.587 34.7234L161.168 35.5532C160.902 34.8451 160.482 34.2919 159.907 33.8936C159.353 33.4732 158.701 33.263 157.948 33.263C157.174 33.263 156.532 33.4621 156.023 33.8604C155.514 34.2366 155.26 34.7234 155.26 35.3208C155.26 35.8298 155.481 36.2502 155.924 36.5821C156.388 36.914 157.163 37.1796 158.247 37.3787L159.342 37.5779C161.113 37.8877 162.473 38.4962 163.425 39.4034C164.376 40.3106 164.852 41.4391 164.852 42.7889C164.852 43.6077 164.686 44.3711 164.354 45.0791C164.022 45.7651 163.547 46.3736 162.927 46.9047C162.33 47.4136 161.61 47.8009 160.77 48.0664C159.951 48.354 159.044 48.4979 158.048 48.4979ZM172.205 25.7949C172.205 26.2153 172.094 26.6026 171.873 26.9566C171.673 27.3106 171.397 27.5983 171.043 27.8196C170.689 28.0187 170.302 28.1183 169.881 28.1183C169.461 28.1183 169.073 28.0187 168.719 27.8196C168.365 27.5983 168.078 27.3106 167.856 26.9566C167.657 26.6026 167.558 26.2153 167.558 25.7949C167.558 25.3745 167.657 24.9872 167.856 24.6332C168.078 24.2791 168.365 24.0026 168.719 23.8034C169.073 23.5821 169.461 23.4715 169.881 23.4715C170.302 23.4715 170.689 23.5821 171.043 23.8034C171.397 24.0026 171.673 24.2791 171.873 24.6332C172.094 24.9872 172.205 25.3745 172.205 25.7949ZM167.989 48V30.6409H171.806V48H167.989ZM175.931 48V23.3055H179.748V48H175.931ZM186.195 54.9038C185.642 54.9038 185.122 54.8485 184.635 54.7379C184.171 54.6272 183.717 54.4502 183.274 54.2068L184.104 51.1864C184.348 51.297 184.624 51.3855 184.934 51.4519C185.244 51.5404 185.543 51.5847 185.83 51.5847C186.494 51.5847 187.069 51.3966 187.556 51.0204C188.065 50.6443 188.485 50.0357 188.817 49.1949L189.348 47.834L182.279 30.6409H186.461L191.141 43.6187L195.389 30.6409H199.439L192.07 50.0911C191.428 51.7506 190.621 52.9677 189.647 53.7421C188.696 54.5166 187.545 54.9038 186.195 54.9038Z" fill="#3C3C3C"/>
<path d="M115.157 96V72.434H119.804L127.239 86.0426L134.707 72.434H139.188V96H134.409V81.097L128.932 91.0877H125.414L119.937 81.097V96H115.157ZM148.598 96.4979C147.691 96.4979 146.861 96.3651 146.109 96.0996C145.357 95.834 144.693 95.4579 144.118 94.9711C143.564 94.4621 143.133 93.8757 142.823 93.2119C142.513 92.5481 142.358 91.8179 142.358 91.0213C142.358 89.9149 142.657 88.9413 143.255 88.1004C143.852 87.2596 144.693 86.6068 145.777 86.1421C146.861 85.6553 148.123 85.4119 149.561 85.4119C150.291 85.4119 150.977 85.4783 151.619 85.6111C152.283 85.7438 152.924 85.9319 153.544 86.1753V85.1464C153.544 84.1506 153.256 83.343 152.681 82.7234C152.128 82.1038 151.364 81.794 150.391 81.794C149.661 81.794 148.997 81.9821 148.399 82.3583C147.802 82.7123 147.381 83.2213 147.138 83.8851L142.989 83.0553C143.232 82.0374 143.708 81.1523 144.416 80.4C145.146 79.6255 146.032 79.0281 147.072 78.6077C148.112 78.1872 149.24 77.977 150.457 77.977C151.586 77.977 152.615 78.154 153.544 78.5081C154.473 78.8621 155.27 79.3711 155.934 80.0349C156.62 80.6987 157.14 81.4843 157.494 82.3915C157.87 83.2766 158.058 84.2723 158.058 85.3787V96H153.909L153.776 93.9421C153.312 94.6945 152.637 95.314 151.752 95.8009C150.866 96.2655 149.815 96.4979 148.598 96.4979ZM146.939 90.7889C146.939 91.4085 147.193 91.9174 147.702 92.3157C148.211 92.714 148.886 92.9132 149.727 92.9132C150.457 92.9132 151.11 92.7583 151.685 92.4485C152.261 92.1387 152.714 91.7183 153.046 91.1872C153.378 90.634 153.544 90.0255 153.544 89.3617V89.1957C153.057 88.9966 152.537 88.8417 151.984 88.7311C151.431 88.5983 150.878 88.5319 150.324 88.5319C149.284 88.5319 148.455 88.7421 147.835 89.1626C147.238 89.5609 146.939 90.103 146.939 90.7889ZM161.761 96V78.4749H166.043L166.176 80.7319C166.685 79.8911 167.382 79.2272 168.267 78.7404C169.174 78.2315 170.203 77.977 171.353 77.977C172.637 77.977 173.754 78.2868 174.706 78.9064C175.679 79.5038 176.432 80.3668 176.963 81.4953C177.494 82.6238 177.759 83.9515 177.759 85.4783V96H173.113V86.0757C173.113 84.8587 172.836 83.9072 172.283 83.2213C171.73 82.5132 170.966 82.1591 169.993 82.1591C169.285 82.1591 168.665 82.3251 168.134 82.657C167.603 82.9668 167.182 83.4094 166.873 83.9847C166.563 84.56 166.408 85.2128 166.408 85.943V96H161.761ZM186.879 96.4979C185.972 96.4979 185.142 96.3651 184.389 96.0996C183.637 95.834 182.973 95.4579 182.398 94.9711C181.845 94.4621 181.413 93.8757 181.103 93.2119C180.794 92.5481 180.639 91.8179 180.639 91.0213C180.639 89.9149 180.938 88.9413 181.535 88.1004C182.132 87.2596 182.973 86.6068 184.058 86.1421C185.142 85.6553 186.403 85.4119 187.841 85.4119C188.572 85.4119 189.258 85.4783 189.899 85.6111C190.563 85.7438 191.205 85.9319 191.824 86.1753V85.1464C191.824 84.1506 191.537 83.343 190.961 82.7234C190.408 82.1038 189.645 81.794 188.671 81.794C187.941 81.794 187.277 81.9821 186.68 82.3583C186.082 82.7123 185.662 83.2213 185.418 83.8851L181.269 83.0553C181.513 82.0374 181.989 81.1523 182.697 80.4C183.427 79.6255 184.312 79.0281 185.352 78.6077C186.392 78.1872 187.521 77.977 188.738 77.977C189.866 77.977 190.895 78.154 191.824 78.5081C192.754 78.8621 193.55 79.3711 194.214 80.0349C194.9 80.6987 195.42 81.4843 195.774 82.3915C196.15 83.2766 196.338 84.2723 196.338 85.3787V96H192.189L192.057 93.9421C191.592 94.6945 190.917 95.314 190.032 95.8009C189.147 96.2655 188.096 96.4979 186.879 96.4979ZM185.219 90.7889C185.219 91.4085 185.474 91.9174 185.983 92.3157C186.492 92.714 187.166 92.9132 188.007 92.9132C188.738 92.9132 189.39 92.7583 189.966 92.4485C190.541 92.1387 190.995 91.7183 191.326 91.1872C191.658 90.634 191.824 90.0255 191.824 89.3617V89.1957C191.338 88.9966 190.818 88.8417 190.264 88.7311C189.711 88.5983 189.158 88.5319 188.605 88.5319C187.565 88.5319 186.735 88.7421 186.115 89.1626C185.518 89.5609 185.219 90.103 185.219 90.7889ZM207.244 95.5021C206.138 95.5021 205.098 95.2809 204.124 94.8383C203.173 94.3957 202.343 93.7872 201.635 93.0128C200.927 92.2162 200.373 91.2979 199.975 90.2579C199.577 89.1957 199.378 88.0562 199.378 86.8391C199.378 85.5779 199.577 84.4162 199.975 83.354C200.396 82.2698 200.971 81.3294 201.701 80.5328C202.453 79.7362 203.316 79.1166 204.29 78.674C205.286 78.2094 206.359 77.977 207.51 77.977C208.638 77.977 209.656 78.2094 210.563 78.674C211.471 79.1166 212.223 79.7694 212.82 80.6323L212.92 78.4749H217.202V93.9089C217.202 95.2587 216.98 96.4868 216.538 97.5932C216.117 98.6996 215.509 99.6511 214.712 100.448C213.916 101.244 212.964 101.853 211.858 102.273C210.773 102.716 209.568 102.937 208.24 102.937C206.934 102.937 205.762 102.727 204.722 102.306C203.682 101.908 202.774 101.344 202 100.614C201.225 99.8834 200.617 99.0315 200.174 98.0579L204.622 96.9626C205.02 97.6043 205.529 98.1021 206.149 98.4562C206.791 98.8323 207.51 99.0204 208.306 99.0204C209.169 99.0204 209.911 98.8213 210.53 98.423C211.172 98.0468 211.67 97.5047 212.024 96.7966C212.378 96.1106 212.555 95.303 212.555 94.3736V92.9464C211.957 93.743 211.194 94.3736 210.265 94.8383C209.357 95.2809 208.351 95.5021 207.244 95.5021ZM208.373 91.3864C209.191 91.3864 209.911 91.1872 210.53 90.7889C211.172 90.3685 211.681 89.8153 212.057 89.1294C212.433 88.4213 212.621 87.6247 212.621 86.7396C212.621 85.8545 212.433 85.0689 212.057 84.383C211.681 83.6749 211.172 83.1217 210.53 82.7234C209.911 82.303 209.191 82.0928 208.373 82.0928C207.554 82.0928 206.824 82.303 206.182 82.7234C205.562 83.1217 205.065 83.6749 204.688 84.383C204.312 85.0689 204.124 85.8545 204.124 86.7396C204.124 87.6247 204.312 88.4213 204.688 89.1294C205.065 89.8153 205.562 90.3685 206.182 90.7889C206.824 91.1872 207.554 91.3864 208.373 91.3864ZM229.214 96.4979C227.908 96.4979 226.702 96.2766 225.596 95.834C224.512 95.3694 223.571 94.7277 222.775 93.9089C221.978 93.0681 221.358 92.0834 220.916 90.9549C220.473 89.8043 220.252 88.554 220.252 87.2043C220.252 85.8987 220.473 84.6817 220.916 83.5532C221.358 82.4247 221.967 81.4511 222.741 80.6323C223.538 79.7915 224.467 79.1387 225.53 78.674C226.592 78.2094 227.742 77.977 228.981 77.977C230.265 77.977 231.427 78.1983 232.467 78.6409C233.529 79.0834 234.436 79.714 235.188 80.5328C235.941 81.3515 236.516 82.3251 236.914 83.4536C237.335 84.5821 237.545 85.8434 237.545 87.2374V88.3991H224.965C225.164 89.7047 225.64 90.7336 226.393 91.486C227.145 92.2162 228.096 92.5813 229.247 92.5813C230.044 92.5813 230.763 92.3932 231.404 92.017C232.068 91.6409 232.61 91.0987 233.031 90.3906L237.18 91.7183C236.781 92.714 236.184 93.566 235.387 94.274C234.591 94.9821 233.661 95.5353 232.599 95.9336C231.537 96.3098 230.409 96.4979 229.214 96.4979ZM228.981 81.5617C227.964 81.5617 227.101 81.8936 226.393 82.5574C225.707 83.2213 225.253 84.1285 225.032 85.2791H232.765C232.588 84.1285 232.157 83.2213 231.471 82.5574C230.807 81.8936 229.977 81.5617 228.981 81.5617ZM247.959 96.4979C246.831 96.4979 245.78 96.2655 244.806 95.8009C243.833 95.3362 242.981 94.6945 242.251 93.8757C241.52 93.0349 240.945 92.0613 240.525 90.9549C240.126 89.8485 239.927 88.6426 239.927 87.337C239.927 86.0094 240.137 84.7813 240.558 83.6528C240.978 82.5243 241.565 81.5396 242.317 80.6987C243.069 79.8357 243.943 79.1719 244.939 78.7072C245.957 78.2204 247.052 77.977 248.225 77.977C249.309 77.977 250.294 78.1983 251.179 78.6409C252.086 79.0613 252.839 79.6587 253.436 80.4332V71.2391H258.083V96H253.801L253.668 93.4443C253.049 94.3957 252.241 95.1481 251.245 95.7013C250.272 96.2323 249.176 96.4979 247.959 96.4979ZM249.088 92.3157C249.929 92.3157 250.681 92.0945 251.345 91.6519C252.009 91.2094 252.529 90.6119 252.905 89.8596C253.303 89.0851 253.502 88.2111 253.502 87.2374C253.502 86.2638 253.303 85.4009 252.905 84.6485C252.529 83.874 252.009 83.2655 251.345 82.823C250.681 82.3804 249.929 82.1591 249.088 82.1591C248.247 82.1591 247.495 82.3804 246.831 82.823C246.167 83.2655 245.636 83.874 245.238 84.6485C244.862 85.4009 244.674 86.2638 244.674 87.2374C244.674 88.2111 244.862 89.0851 245.238 89.8596C245.636 90.6119 246.167 91.2094 246.831 91.6519C247.495 92.0945 248.247 92.3157 249.088 92.3157Z" fill="url(#paint2_radial)"/>
<path d="M54.0258 51.3118C54.5421 50.7968 55.1774 50.417 55.8754 50.2059C56.5734 49.9948 57.3126 49.959 58.0278 50.1017C58.7429 50.2443 59.4119 50.5609 59.9755 51.0236C60.5392 51.4863 60.9801 52.0807 61.2593 52.7544C61.5386 53.428 61.6475 54.1601 61.5765 54.8858C61.5055 55.6116 61.2567 56.3087 60.8522 56.9154C60.4477 57.5221 59.8999 58.0198 59.2573 58.3645C58.6146 58.7092 57.897 58.8901 57.1678 58.8914H26.1035M39.5765 45.738C39.9889 45.3231 40.4974 45.0166 41.0567 44.8457C41.6161 44.6747 42.209 44.6446 42.7829 44.7581C43.3567 44.8715 43.8935 45.125 44.3458 45.4959C44.798 45.8668 45.1516 46.3438 45.3751 46.8843C45.5986 47.4248 45.6851 48.0122 45.6269 48.5942C45.5687 49.1762 45.3676 49.7348 45.0414 50.2204C44.7153 50.7059 44.2743 51.1034 43.7575 51.3774C43.2408 51.6514 42.6643 51.7935 42.0794 51.791H26.1035L39.5765 45.738ZM44.9018 72.0449C45.3142 72.4598 45.8227 72.7663 46.382 72.9372C46.9414 73.1082 47.5343 73.1382 48.1082 73.0248C48.682 72.9114 49.2188 72.6579 49.6711 72.287C50.1233 71.916 50.4769 71.4391 50.7004 70.8986C50.9239 70.3581 51.0104 69.7707 50.9522 69.1887C50.894 68.6067 50.6929 68.0481 50.3668 67.5625C50.0406 67.077 49.5996 66.6795 49.0828 66.4055C48.5661 66.1315 47.9896 65.9894 47.4047 65.9918H26.1035L44.9018 72.0449Z" stroke="white" stroke-width="3.5502" stroke-linecap="round" stroke-linejoin="round"/>
<defs>
<radialGradient id="paint0_radial" cx="0" cy="0" r="1" gradientUnits="userSpaceOnUse" gradientTransform="translate(72.2183 52.376) rotate(177.624) scale(66.503 1241.96)">
<stop stop-color="#E0C535"/>
<stop offset="1" stop-color="#EFAD3C"/>
</radialGradient>
<radialGradient id="paint1_radial" cx="0" cy="0" r="1" gradientUnits="userSpaceOnUse" gradientTransform="translate(88.9783 98.3615) rotate(177.624) scale(105.8 1975.84)">
<stop stop-color="#F1A93D"/>
<stop offset="1" stop-color="#DCCB33"/>
</radialGradient>
<radialGradient id="paint2_radial" cx="0" cy="0" r="1" gradientUnits="userSpaceOnUse" gradientTransform="translate(283.428 101.95) rotate(179.42) scale(202.484 924.344)">
<stop stop-color="#F1A93D"/>
<stop offset="1" stop-color="#DCCB33"/>
</radialGradient>
</defs>
</svg>
