<svg width="259" height="104" viewBox="0 0 259 104" fill="none" xmlns="http://www.w3.org/2000/svg">
<path d="M115.323 48V24.434H122.46C124.34 24.434 125.945 24.7438 127.272 25.3634C128.622 25.983 129.651 26.8681 130.359 28.0187C131.089 29.1694 131.454 30.5634 131.454 32.2009C131.454 33.7498 131.078 35.1106 130.326 36.2834C129.574 37.434 128.511 38.3302 127.14 38.9719C125.768 39.5915 124.152 39.9013 122.294 39.9013C121.851 39.9013 121.375 39.8791 120.866 39.8349C120.38 39.7906 119.86 39.7353 119.306 39.6689V48H115.323ZM119.306 27.9523V36.1506C119.793 36.217 120.28 36.2723 120.767 36.3166C121.254 36.3608 121.707 36.383 122.128 36.383C123.809 36.383 125.093 36.0179 125.978 35.2877C126.885 34.5574 127.339 33.5174 127.339 32.1677C127.339 30.84 126.907 29.8111 126.044 29.0808C125.181 28.3285 123.964 27.9523 122.393 27.9523H119.306ZM165.217 24.434L158.246 48H154.131L149.185 30.0766L144.24 48H140.091L133.121 24.434H137.435L142.281 42.623L147.26 24.434H151.177L156.189 42.623L161.001 24.434H165.217ZM164.39 48L173.783 24.434H178.098L187.525 48H183.343L181.119 42.1583H170.63L168.406 48H164.39ZM171.958 38.7064H179.791L175.875 28.5166L171.958 38.7064Z" fill="#3C3C3C"/>
<path d="M113.531 96L122.891 72.434H128.135L137.529 96H132.45L130.525 90.8221H120.335L118.41 96H113.531ZM121.895 86.64H128.965L125.414 77.2468L121.895 86.64ZM142.983 96L136.411 78.4749H141.489L145.406 91.0877L149.389 78.4749H154.301L147.729 96H142.983ZM161.337 96.4979C160.43 96.4979 159.6 96.3651 158.848 96.0996C158.095 95.834 157.431 95.4579 156.856 94.9711C156.303 94.4621 155.871 93.8757 155.562 93.2119C155.252 92.5481 155.097 91.8179 155.097 91.0213C155.097 89.9149 155.396 88.9413 155.993 88.1004C156.591 87.2596 157.431 86.6068 158.516 86.1421C159.6 85.6553 160.861 85.4119 162.299 85.4119C163.03 85.4119 163.716 85.4783 164.357 85.6111C165.021 85.7438 165.663 85.9319 166.282 86.1753V85.1464C166.282 84.1506 165.995 83.343 165.419 82.7234C164.866 82.1038 164.103 81.794 163.129 81.794C162.399 81.794 161.735 81.9821 161.138 82.3583C160.54 82.7123 160.12 83.2213 159.876 83.8851L155.728 83.0553C155.971 82.0374 156.447 81.1523 157.155 80.4C157.885 79.6255 158.77 79.0281 159.81 78.6077C160.85 78.1872 161.979 77.977 163.196 77.977C164.324 77.977 165.353 78.154 166.282 78.5081C167.212 78.8621 168.008 79.3711 168.672 80.0349C169.358 80.6987 169.878 81.4843 170.232 82.3915C170.608 83.2766 170.796 84.2723 170.796 85.3787V96H166.648L166.515 93.9421C166.05 94.6945 165.375 95.314 164.49 95.8009C163.605 96.2655 162.554 96.4979 161.337 96.4979ZM159.677 90.7889C159.677 91.4085 159.932 91.9174 160.441 92.3157C160.95 92.714 161.625 92.9132 162.465 92.9132C163.196 92.9132 163.848 92.7583 164.424 92.4485C164.999 92.1387 165.453 91.7183 165.785 91.1872C166.116 90.634 166.282 90.0255 166.282 89.3617V89.1957C165.796 88.9966 165.276 88.8417 164.722 88.7311C164.169 88.5983 163.616 88.5319 163.063 88.5319C162.023 88.5319 161.193 88.7421 160.574 89.1626C159.976 89.5609 159.677 90.103 159.677 90.7889ZM179.478 73.7285C179.478 74.2374 179.357 74.6911 179.113 75.0894C178.892 75.4877 178.571 75.8085 178.151 76.0519C177.752 76.2732 177.31 76.3838 176.823 76.3838C176.336 76.3838 175.883 76.2732 175.462 76.0519C175.064 75.8085 174.743 75.4877 174.5 75.0894C174.278 74.6911 174.168 74.2374 174.168 73.7285C174.168 73.2196 174.278 72.766 174.5 72.3677C174.743 71.9694 175.064 71.6596 175.462 71.4383C175.883 71.1949 176.336 71.0732 176.823 71.0732C177.31 71.0732 177.752 71.1949 178.151 71.4383C178.571 71.6596 178.892 71.9694 179.113 72.3677C179.357 72.766 179.478 73.2196 179.478 73.7285ZM174.5 96V78.4749H179.146V96H174.5ZM182.862 96V71.2391H187.509V96H182.862ZM196.635 96.4979C195.728 96.4979 194.898 96.3651 194.146 96.0996C193.394 95.834 192.73 95.4579 192.154 94.9711C191.601 94.4621 191.17 93.8757 190.86 93.2119C190.55 92.5481 190.395 91.8179 190.395 91.0213C190.395 89.9149 190.694 88.9413 191.291 88.1004C191.889 87.2596 192.73 86.6068 193.814 86.1421C194.898 85.6553 196.16 85.4119 197.598 85.4119C198.328 85.4119 199.014 85.4783 199.656 85.6111C200.32 85.7438 200.961 85.9319 201.581 86.1753V85.1464C201.581 84.1506 201.293 83.343 200.718 82.7234C200.165 82.1038 199.401 81.794 198.428 81.794C197.697 81.794 197.034 81.9821 196.436 82.3583C195.839 82.7123 195.418 83.2213 195.175 83.8851L191.026 83.0553C191.269 82.0374 191.745 81.1523 192.453 80.4C193.183 79.6255 194.068 79.0281 195.108 78.6077C196.148 78.1872 197.277 77.977 198.494 77.977C199.623 77.977 200.651 78.154 201.581 78.5081C202.51 78.8621 203.307 79.3711 203.971 80.0349C204.657 80.6987 205.177 81.4843 205.531 82.3915C205.907 83.2766 206.095 84.2723 206.095 85.3787V96H201.946L201.813 93.9421C201.348 94.6945 200.674 95.314 199.788 95.8009C198.903 96.2655 197.852 96.4979 196.635 96.4979ZM194.976 90.7889C194.976 91.4085 195.23 91.9174 195.739 92.3157C196.248 92.714 196.923 92.9132 197.764 92.9132C198.494 92.9132 199.147 92.7583 199.722 92.4485C200.297 92.1387 200.751 91.7183 201.083 91.1872C201.415 90.634 201.581 90.0255 201.581 89.3617V89.1957C201.094 88.9966 200.574 88.8417 200.021 88.7311C199.468 88.5983 198.914 88.5319 198.361 88.5319C197.321 88.5319 196.491 88.7421 195.872 89.1626C195.274 89.5609 194.976 90.103 194.976 90.7889ZM209.798 96V71.2391H214.445V80.6987C215.064 79.8579 215.839 79.194 216.768 78.7072C217.72 78.2204 218.76 77.977 219.888 77.977C221.039 77.977 222.101 78.2094 223.075 78.674C224.048 79.1387 224.9 79.7915 225.63 80.6323C226.361 81.4511 226.925 82.4136 227.323 83.52C227.744 84.6264 227.954 85.8323 227.954 87.1379C227.954 88.4655 227.744 89.6936 227.323 90.8221C226.903 91.9506 226.316 92.9464 225.564 93.8094C224.812 94.6502 223.927 95.314 222.909 95.8009C221.891 96.2655 220.796 96.4979 219.623 96.4979C218.472 96.4979 217.432 96.2545 216.503 95.7677C215.573 95.2809 214.81 94.5949 214.213 93.7098L214.08 96H209.798ZM218.793 92.3157C219.634 92.3157 220.386 92.0945 221.05 91.6519C221.714 91.2094 222.234 90.6119 222.61 89.8596C223.008 89.0851 223.207 88.2111 223.207 87.2374C223.207 86.2638 223.008 85.4009 222.61 84.6485C222.234 83.874 221.714 83.2655 221.05 82.823C220.386 82.3804 219.634 82.1591 218.793 82.1591C217.952 82.1591 217.2 82.3804 216.536 82.823C215.872 83.2655 215.341 83.874 214.943 84.6485C214.567 85.4009 214.378 86.2638 214.378 87.2374C214.378 88.2111 214.567 89.0851 214.943 89.8596C215.341 90.6119 215.872 91.2094 216.536 91.6519C217.2 92.0945 217.952 92.3157 218.793 92.3157ZM230.997 96V71.2391H235.643V96H230.997ZM247.657 96.4979C246.352 96.4979 245.146 96.2766 244.039 95.834C242.955 95.3694 242.015 94.7277 241.218 93.9089C240.421 93.0681 239.802 92.0834 239.359 90.9549C238.917 89.8043 238.695 88.554 238.695 87.2043C238.695 85.8987 238.917 84.6817 239.359 83.5532C239.802 82.4247 240.41 81.4511 241.185 80.6323C241.981 79.7915 242.911 79.1387 243.973 78.674C245.035 78.2094 246.186 77.977 247.425 77.977C248.708 77.977 249.87 78.1983 250.91 78.6409C251.972 79.0834 252.879 79.714 253.632 80.5328C254.384 81.3515 254.959 82.3251 255.358 83.4536C255.778 84.5821 255.988 85.8434 255.988 87.2374V88.3991H243.409C243.608 89.7047 244.083 90.7336 244.836 91.486C245.588 92.2162 246.54 92.5813 247.69 92.5813C248.487 92.5813 249.206 92.3932 249.848 92.017C250.512 91.6409 251.054 91.0987 251.474 90.3906L255.623 91.7183C255.225 92.714 254.627 93.566 253.831 94.274C253.034 94.9821 252.105 95.5353 251.043 95.9336C249.981 96.3098 248.852 96.4979 247.657 96.4979ZM247.425 81.5617C246.407 81.5617 245.544 81.8936 244.836 82.5574C244.15 83.2213 243.696 84.1285 243.475 85.2791H251.209C251.032 84.1285 250.6 83.2213 249.914 82.5574C249.25 81.8936 248.421 81.5617 247.425 81.5617Z" fill="url(#paint0_radial)"/>
<rect opacity="0.2" x="16.2891" width="55.1325" height="55.1325" rx="6.26506" fill="url(#paint1_radial)"/>
<rect opacity="0.99" x="8.77148" y="6.26514" width="70.1687" height="70.1687" rx="6.26506" fill="#82D8F3"/>
<rect y="15.0361" width="87.7108" height="87.7108" rx="6.26506" fill="url(#paint2_radial)"/>
<path d="M54.5 45H33.5C31.567 45 30 46.567 30 48.5V69.5C30 71.433 31.567 73 33.5 73H54.5C56.433 73 58 71.433 58 69.5V48.5C58 46.567 56.433 45 54.5 45Z" stroke="white" stroke-width="3.5" stroke-linecap="round" stroke-linejoin="round"/>
<path d="M49.25 53.75H38.75V64.25H49.25V53.75Z" stroke="white" stroke-width="3.5" stroke-linecap="round" stroke-linejoin="round"/>
<path d="M38.75 39.75V45" stroke="white" stroke-width="3.5" stroke-linecap="round" stroke-linejoin="round"/>
<path d="M49.25 39.75V45" stroke="white" stroke-width="3.5" stroke-linecap="round" stroke-linejoin="round"/>
<path d="M38.75 73V78.25" stroke="white" stroke-width="3.5" stroke-linecap="round" stroke-linejoin="round"/>
<path d="M49.25 73V78.25" stroke="white" stroke-width="3.5" stroke-linecap="round" stroke-linejoin="round"/>
<path d="M58 53.75H63.25" stroke="white" stroke-width="3.5" stroke-linecap="round" stroke-linejoin="round"/>
<path d="M58 62.5H63.25" stroke="white" stroke-width="3.5" stroke-linecap="round" stroke-linejoin="round"/>
<path d="M24.75 53.75H30" stroke="white" stroke-width="3.5" stroke-linecap="round" stroke-linejoin="round"/>
<path d="M24.75 62.5H30" stroke="white" stroke-width="3.5" stroke-linecap="round" stroke-linejoin="round"/>
<defs>
<radialGradient id="paint0_radial" cx="0" cy="0" r="1" gradientUnits="userSpaceOnUse" gradientTransform="translate(261.11 101.95) rotate(179.333) scale(175.971 924.329)">
<stop stop-color="#2A94CF"/>
<stop offset="1" stop-color="#20C1CB"/>
</radialGradient>
<radialGradient id="paint1_radial" cx="0" cy="0" r="1" gradientUnits="userSpaceOnUse" gradientTransform="translate(72.2183 52.376) rotate(177.624) scale(66.503 1241.96)">
<stop stop-color="#2A94CF"/>
<stop offset="1" stop-color="#20C1CB"/>
</radialGradient>
<radialGradient id="paint2_radial" cx="0" cy="0" r="1" gradientUnits="userSpaceOnUse" gradientTransform="translate(88.9783 98.3615) rotate(177.624) scale(105.8 1975.84)">
<stop stop-color="#2A94CF"/>
<stop offset="1" stop-color="#20C1CB"/>
</radialGradient>
</defs>
</svg>
