<svg width="125" height="125" viewBox="0 0 125 125" fill="none" xmlns="http://www.w3.org/2000/svg">
<g filter="url(#filter0_f)">
<rect x="40" y="40" width="45" height="45" rx="10" fill="url(#paint0_linear)"/>
</g>
<circle cx="64" cy="57" r="29" fill="url(#paint1_linear)"/>
<path d="M69.4998 52.6667C71.2947 52.6667 72.7498 51.2117 72.7498 49.4167C72.7498 47.6218 71.2947 46.1667 69.4998 46.1667C67.7048 46.1667 66.2498 47.6218 66.2498 49.4167C66.2498 51.2117 67.7048 52.6667 69.4998 52.6667Z" stroke="white" stroke-width="1.5" stroke-linecap="round" stroke-linejoin="round"/>
<path d="M56.5002 60.25C58.2952 60.25 59.7502 58.7949 59.7502 57C59.7502 55.2051 58.2952 53.75 56.5002 53.75C54.7053 53.75 53.2502 55.2051 53.2502 57C53.2502 58.7949 54.7053 60.25 56.5002 60.25Z" stroke="white" stroke-width="1.5" stroke-linecap="round" stroke-linejoin="round"/>
<path d="M69.4998 67.8334C71.2947 67.8334 72.7498 66.3783 72.7498 64.5834C72.7498 62.7884 71.2947 61.3334 69.4998 61.3334C67.7048 61.3334 66.2498 62.7884 66.2498 64.5834C66.2498 66.3783 67.7048 67.8334 69.4998 67.8334Z" stroke="white" stroke-width="1.5" stroke-linecap="round" stroke-linejoin="round"/>
<path d="M59.3057 58.6359L66.7048 62.9475" stroke="white" stroke-width="1.5" stroke-linecap="round" stroke-linejoin="round"/>
<path d="M66.694 51.0525L59.3057 55.3642" stroke="white" stroke-width="1.5" stroke-linecap="round" stroke-linejoin="round"/>
<circle cx="64" cy="57" r="29" fill="#4285F4"/>
<path d="M69.4998 52.6667C71.2947 52.6667 72.7498 51.2117 72.7498 49.4167C72.7498 47.6218 71.2947 46.1667 69.4998 46.1667C67.7048 46.1667 66.2498 47.6218 66.2498 49.4167C66.2498 51.2117 67.7048 52.6667 69.4998 52.6667Z" stroke="white" stroke-width="1.5" stroke-linecap="round" stroke-linejoin="round"/>
<path d="M56.5002 60.25C58.2952 60.25 59.7502 58.7949 59.7502 57C59.7502 55.2051 58.2952 53.75 56.5002 53.75C54.7053 53.75 53.2502 55.2051 53.2502 57C53.2502 58.7949 54.7053 60.25 56.5002 60.25Z" stroke="white" stroke-width="1.5" stroke-linecap="round" stroke-linejoin="round"/>
<path d="M69.4998 67.8334C71.2947 67.8334 72.7498 66.3783 72.7498 64.5834C72.7498 62.7884 71.2947 61.3334 69.4998 61.3334C67.7048 61.3334 66.2498 62.7884 66.2498 64.5834C66.2498 66.3783 67.7048 67.8334 69.4998 67.8334Z" stroke="white" stroke-width="1.5" stroke-linecap="round" stroke-linejoin="round"/>
<path d="M59.3057 58.6359L66.7048 62.9475" stroke="white" stroke-width="1.5" stroke-linecap="round" stroke-linejoin="round"/>
<path d="M66.694 51.0525L59.3057 55.3642" stroke="white" stroke-width="1.5" stroke-linecap="round" stroke-linejoin="round"/>
<defs>
<filter id="filter0_f" x="0" y="0" width="125" height="125" filterUnits="userSpaceOnUse" color-interpolation-filters="sRGB">
<feFlood flood-opacity="0" result="BackgroundImageFix"/>
<feBlend mode="normal" in="SourceGraphic" in2="BackgroundImageFix" result="shape"/>
<feGaussianBlur stdDeviation="20" result="effect1_foregroundBlur"/>
</filter>
<linearGradient id="paint0_linear" x1="48.3742" y1="41.8614" x2="48.3742" y2="83.6262" gradientUnits="userSpaceOnUse">
<stop stop-color="#4654D3"/>
<stop offset="1" stop-color="#3AB5EA" stop-opacity="0.68"/>
</linearGradient>
<linearGradient id="paint1_linear" x1="31" y1="7" x2="76" y2="128" gradientUnits="userSpaceOnUse">
<stop stop-color="#4654D3"/>
<stop offset="1" stop-color="#C51593" stop-opacity="0.68"/>
</linearGradient>
</defs>
</svg>
