<svg width="257" height="104" viewBox="0 0 257 104" fill="none" xmlns="http://www.w3.org/2000/svg">
<rect opacity="0.2" x="16.2891" width="55.1325" height="55.1325" rx="6.26506" fill="url(#paint0_radial)"/>
<rect opacity="0.99" x="8.77148" y="6.26514" width="70.1687" height="70.1687" rx="6.26506" fill="#ABB8F8"/>
<rect y="15.0361" width="87.7108" height="87.7108" rx="6.26506" fill="url(#paint1_radial)"/>
<path d="M40.3047 60.6667C41.067 61.6858 42.0396 62.5291 43.1565 63.1393C44.2734 63.7495 45.5084 64.1124 46.7779 64.2033C48.0473 64.2942 49.3215 64.1111 50.5139 63.6662C51.7063 63.2214 52.7892 62.5254 53.6889 61.6253L59.0142 56.3C60.631 54.626 61.5256 52.3841 61.5054 50.0569C61.4851 47.7298 60.5517 45.5037 58.9061 43.8581C57.2605 42.2125 55.0345 41.2791 52.7073 41.2589C50.3802 41.2387 48.1382 42.1333 46.4643 43.75L43.4111 46.7854" stroke="white" stroke-width="3.5502" stroke-linecap="round" stroke-linejoin="round"/>
<path d="M47.4061 57.1164C46.6438 56.0973 45.6712 55.254 44.5543 54.6438C43.4374 54.0336 42.2024 53.6707 40.9329 53.5798C39.6635 53.4889 38.3893 53.6721 37.1969 54.1169C36.0044 54.5617 34.9216 55.2577 34.0218 56.1578L28.6965 61.4831C27.0798 63.1571 26.1852 65.3991 26.2054 67.7262C26.2256 70.0533 27.1591 72.2794 28.8047 73.925C30.4502 75.5706 32.6763 76.504 35.0035 76.5242C37.3306 76.5444 39.5726 75.6498 41.2465 74.0331L44.2819 70.9977" stroke="white" stroke-width="3.5502" stroke-linecap="round" stroke-linejoin="round"/>
<path d="M116.323 48V24.434H130.596V27.9191H120.306V34.0928H129.6V37.5779H120.306V44.5149H130.928V48H116.323ZM140.039 48.4979C139.154 48.4979 138.335 48.3651 137.583 48.0996C136.852 47.834 136.211 47.4579 135.657 46.9711C135.104 46.4843 134.673 45.9089 134.363 45.2451C134.053 44.5813 133.898 43.8511 133.898 43.0545C133.898 41.9481 134.186 40.9855 134.761 40.1668C135.359 39.326 136.189 38.6732 137.251 38.2085C138.313 37.7438 139.552 37.5115 140.968 37.5115C141.743 37.5115 142.484 37.5889 143.192 37.7438C143.9 37.8766 144.575 38.0757 145.217 38.3413V37.246C145.217 36.4715 145.073 35.7966 144.785 35.2213C144.497 34.6238 144.088 34.1591 143.557 33.8272C143.026 33.4953 142.384 33.3294 141.632 33.3294C140.835 33.3294 140.116 33.5396 139.474 33.96C138.833 34.3804 138.357 34.9668 138.047 35.7191L134.529 34.9226C134.794 33.9489 135.27 33.1081 135.956 32.4C136.664 31.6919 137.505 31.1387 138.479 30.7404C139.474 30.3421 140.548 30.143 141.698 30.143C142.783 30.143 143.767 30.32 144.652 30.674C145.56 31.0281 146.334 31.526 146.976 32.1677C147.617 32.8094 148.115 33.5728 148.469 34.4579C148.823 35.343 149 36.3277 149 37.4119V48H145.515L145.383 45.7098C144.918 46.5506 144.221 47.2255 143.291 47.7345C142.362 48.2434 141.278 48.4979 140.039 48.4979ZM137.749 42.8885C137.749 43.3753 137.881 43.8179 138.147 44.2162C138.412 44.5923 138.777 44.8911 139.242 45.1123C139.729 45.3336 140.293 45.4443 140.935 45.4443C141.754 45.4443 142.484 45.2672 143.126 44.9132C143.767 44.5591 144.276 44.0834 144.652 43.486C145.029 42.8664 145.217 42.1694 145.217 41.3949V40.9966C144.641 40.7532 144.044 40.5651 143.424 40.4323C142.827 40.2774 142.207 40.2 141.566 40.2C140.415 40.2 139.486 40.4434 138.777 40.9302C138.091 41.417 137.749 42.0698 137.749 42.8885ZM159.048 48.4979C157.919 48.4979 156.868 48.3098 155.895 47.9336C154.943 47.5574 154.124 47.0264 153.438 46.3404C152.775 45.6323 152.299 44.8026 152.011 43.8511L155.463 42.9549C155.751 43.7072 156.216 44.2936 156.857 44.714C157.499 45.1345 158.24 45.3447 159.081 45.3447C159.944 45.3447 160.652 45.1455 161.205 44.7472C161.758 44.3268 162.035 43.7957 162.035 43.154C162.035 42.6009 161.814 42.1362 161.371 41.76C160.929 41.3838 160.21 41.1072 159.214 40.9302L158.118 40.7311C156.26 40.3991 154.855 39.8017 153.903 38.9387C152.974 38.0757 152.509 36.9694 152.509 35.6196C152.509 34.5353 152.786 33.5838 153.339 32.7651C153.892 31.9464 154.656 31.3047 155.629 30.84C156.603 30.3753 157.72 30.143 158.981 30.143C160.066 30.143 161.061 30.3311 161.969 30.7072C162.876 31.0834 163.639 31.6145 164.259 32.3004C164.878 32.9864 165.321 33.794 165.587 34.7234L162.168 35.5532C161.902 34.8451 161.482 34.2919 160.907 33.8936C160.353 33.4732 159.701 33.263 158.948 33.263C158.174 33.263 157.532 33.4621 157.023 33.8604C156.514 34.2366 156.26 34.7234 156.26 35.3208C156.26 35.8298 156.481 36.2502 156.924 36.5821C157.388 36.914 158.163 37.1796 159.247 37.3787L160.342 37.5779C162.113 37.8877 163.473 38.4962 164.425 39.4034C165.376 40.3106 165.852 41.4391 165.852 42.7889C165.852 43.6077 165.686 44.3711 165.354 45.0791C165.022 45.7651 164.547 46.3736 163.927 46.9047C163.33 47.4136 162.61 47.8009 161.77 48.0664C160.951 48.354 160.044 48.4979 159.048 48.4979ZM171.021 54.9038C170.468 54.9038 169.948 54.8485 169.461 54.7379C168.996 54.6272 168.543 54.4502 168.1 54.2068L168.93 51.1864C169.173 51.297 169.45 51.3855 169.76 51.4519C170.069 51.5404 170.368 51.5847 170.656 51.5847C171.32 51.5847 171.895 51.3966 172.382 51.0204C172.891 50.6443 173.311 50.0357 173.643 49.1949L174.174 47.834L167.104 30.6409H171.286L175.966 43.6187L180.215 30.6409H184.264L176.896 50.0911C176.254 51.7506 175.446 52.9677 174.473 53.7421C173.521 54.5166 172.371 54.9038 171.021 54.9038Z" fill="#3C3C3C"/>
<path d="M123.426 96.4979C122.01 96.4979 120.705 96.2545 119.51 95.7677C118.337 95.2587 117.33 94.5506 116.489 93.6434C115.671 92.714 115.106 91.6077 114.797 90.3243L119.41 89.3285C119.698 90.2357 120.196 90.9438 120.904 91.4528C121.634 91.9617 122.497 92.2162 123.493 92.2162C124.201 92.2162 124.82 92.0945 125.351 91.8511C125.905 91.5855 126.325 91.2315 126.613 90.7889C126.923 90.3464 127.077 89.8374 127.077 89.2621C127.077 88.5319 126.801 87.9455 126.248 87.503C125.694 87.0383 124.798 86.6621 123.559 86.3745L122.497 86.1421C120.063 85.6111 118.271 84.7591 117.12 83.5864C115.969 82.3915 115.394 80.9421 115.394 79.2383C115.394 78.1762 115.604 77.2026 116.025 76.3174C116.445 75.4323 117.02 74.6689 117.751 74.0272C118.503 73.3634 119.377 72.8545 120.373 72.5004C121.369 72.1243 122.442 71.9362 123.592 71.9362C124.898 71.9362 126.115 72.1796 127.243 72.6664C128.372 73.1532 129.323 73.8502 130.098 74.7574C130.872 75.6647 131.392 76.7379 131.658 77.977L127.111 78.9728C126.845 78.0877 126.38 77.4128 125.717 76.9481C125.075 76.4613 124.323 76.2179 123.46 76.2179C122.862 76.2179 122.32 76.3396 121.833 76.583C121.369 76.8043 120.992 77.1251 120.705 77.5455C120.439 77.9438 120.306 78.3974 120.306 78.9064C120.306 79.6808 120.605 80.2783 121.203 80.6987C121.8 81.097 122.685 81.4289 123.858 81.6945L124.92 81.9268C127.332 82.4579 129.113 83.2987 130.264 84.4494C131.437 85.6 132.023 87.0715 132.023 88.8638C132.023 89.9923 131.802 91.0213 131.359 91.9506C130.939 92.88 130.341 93.6877 129.567 94.3736C128.792 95.0596 127.885 95.5906 126.845 95.9668C125.805 96.3209 124.666 96.4979 123.426 96.4979ZM134.885 96V71.2391H139.532V80.4C140.063 79.6477 140.749 79.0613 141.59 78.6409C142.431 78.1983 143.394 77.977 144.478 77.977C145.761 77.977 146.879 78.2868 147.83 78.9064C148.804 79.5038 149.556 80.3668 150.087 81.4953C150.618 82.6238 150.884 83.9515 150.884 85.4783V96H146.237V86.0757C146.237 84.8587 145.96 83.9072 145.407 83.2213C144.854 82.5132 144.091 82.1591 143.117 82.1591C142.409 82.1591 141.789 82.3251 141.258 82.657C140.727 82.9668 140.307 83.4094 139.997 83.9847C139.687 84.56 139.532 85.2128 139.532 85.943V96H134.885ZM160.003 96.4979C159.096 96.4979 158.266 96.3651 157.514 96.0996C156.761 95.834 156.098 95.4579 155.522 94.9711C154.969 94.4621 154.538 93.8757 154.228 93.2119C153.918 92.5481 153.763 91.8179 153.763 91.0213C153.763 89.9149 154.062 88.9413 154.659 88.1004C155.257 87.2596 156.098 86.6068 157.182 86.1421C158.266 85.6553 159.527 85.4119 160.966 85.4119C161.696 85.4119 162.382 85.4783 163.024 85.6111C163.687 85.7438 164.329 85.9319 164.949 86.1753V85.1464C164.949 84.1506 164.661 83.343 164.086 82.7234C163.533 82.1038 162.769 81.794 161.795 81.794C161.065 81.794 160.401 81.9821 159.804 82.3583C159.207 82.7123 158.786 83.2213 158.543 83.8851L154.394 83.0553C154.637 82.0374 155.113 81.1523 155.821 80.4C156.551 79.6255 157.436 79.0281 158.476 78.6077C159.516 78.1872 160.645 77.977 161.862 77.977C162.99 77.977 164.019 78.154 164.949 78.5081C165.878 78.8621 166.675 79.3711 167.338 80.0349C168.024 80.6987 168.544 81.4843 168.898 82.3915C169.275 83.2766 169.463 84.2723 169.463 85.3787V96H165.314L165.181 93.9421C164.716 94.6945 164.041 95.314 163.156 95.8009C162.271 96.2655 161.22 96.4979 160.003 96.4979ZM158.344 90.7889C158.344 91.4085 158.598 91.9174 159.107 92.3157C159.616 92.714 160.291 92.9132 161.132 92.9132C161.862 92.9132 162.515 92.7583 163.09 92.4485C163.665 92.1387 164.119 91.7183 164.451 91.1872C164.783 90.634 164.949 90.0255 164.949 89.3617V89.1957C164.462 88.9966 163.942 88.8417 163.389 88.7311C162.835 88.5983 162.282 88.5319 161.729 88.5319C160.689 88.5319 159.859 88.7421 159.24 89.1626C158.642 89.5609 158.344 90.103 158.344 90.7889ZM173.166 96V78.4749H177.448L177.614 81.1302C178.056 80.2009 178.654 79.4928 179.406 79.006C180.158 78.497 181.043 78.2426 182.061 78.2426C182.371 78.2426 182.681 78.2757 182.991 78.3421C183.3 78.3864 183.577 78.4528 183.82 78.5413L183.323 83.1217C183.079 83.0332 182.825 82.9779 182.559 82.9557C182.316 82.9115 182.061 82.8894 181.796 82.8894C180.512 82.8894 179.528 83.2877 178.842 84.0843C178.156 84.8587 177.813 85.9651 177.813 87.4034V96H173.166ZM194.202 96.4979C192.897 96.4979 191.691 96.2766 190.584 95.834C189.5 95.3694 188.56 94.7277 187.763 93.9089C186.967 93.0681 186.347 92.0834 185.904 90.9549C185.462 89.8043 185.241 88.554 185.241 87.2043C185.241 85.8987 185.462 84.6817 185.904 83.5532C186.347 82.4247 186.956 81.4511 187.73 80.6323C188.527 79.7915 189.456 79.1387 190.518 78.674C191.58 78.2094 192.731 77.977 193.97 77.977C195.253 77.977 196.415 78.1983 197.455 78.6409C198.517 79.0834 199.424 79.714 200.177 80.5328C200.929 81.3515 201.504 82.3251 201.903 83.4536C202.323 84.5821 202.533 85.8434 202.533 87.2374V88.3991H189.954C190.153 89.7047 190.629 90.7336 191.381 91.486C192.133 92.2162 193.085 92.5813 194.236 92.5813C195.032 92.5813 195.751 92.3932 196.393 92.017C197.057 91.6409 197.599 91.0987 198.019 90.3906L202.168 91.7183C201.77 92.714 201.173 93.566 200.376 94.274C199.579 94.9821 198.65 95.5353 197.588 95.9336C196.526 96.3098 195.397 96.4979 194.202 96.4979ZM193.97 81.5617C192.952 81.5617 192.089 81.8936 191.381 82.5574C190.695 83.2213 190.241 84.1285 190.02 85.2791H197.754C197.577 84.1285 197.145 83.2213 196.459 82.5574C195.796 81.8936 194.966 81.5617 193.97 81.5617ZM210.396 73.7285C210.396 74.2374 210.274 74.6911 210.031 75.0894C209.81 75.4877 209.489 75.8085 209.068 76.0519C208.67 76.2732 208.228 76.3838 207.741 76.3838C207.254 76.3838 206.8 76.2732 206.38 76.0519C205.982 75.8085 205.661 75.4877 205.417 75.0894C205.196 74.6911 205.085 74.2374 205.085 73.7285C205.085 73.2196 205.196 72.766 205.417 72.3677C205.661 71.9694 205.982 71.6596 206.38 71.4383C206.8 71.1949 207.254 71.0732 207.741 71.0732C208.228 71.0732 208.67 71.1949 209.068 71.4383C209.489 71.6596 209.81 71.9694 210.031 72.3677C210.274 72.766 210.396 73.2196 210.396 73.7285ZM205.417 96V78.4749H210.064V96H205.417ZM213.78 96V78.4749H218.062L218.195 80.7319C218.704 79.8911 219.401 79.2272 220.286 78.7404C221.193 78.2315 222.222 77.977 223.372 77.977C224.656 77.977 225.773 78.2868 226.725 78.9064C227.698 79.5038 228.451 80.3668 228.982 81.4953C229.513 82.6238 229.778 83.9515 229.778 85.4783V96H225.132V86.0757C225.132 84.8587 224.855 83.9072 224.302 83.2213C223.749 82.5132 222.985 82.1591 222.012 82.1591C221.304 82.1591 220.684 82.3251 220.153 82.657C219.622 82.9668 219.201 83.4094 218.892 83.9847C218.582 84.56 218.427 85.2128 218.427 85.943V96H213.78ZM240.69 95.5021C239.584 95.5021 238.544 95.2809 237.57 94.8383C236.619 94.3957 235.789 93.7872 235.081 93.0128C234.373 92.2162 233.819 91.2979 233.421 90.2579C233.023 89.1957 232.824 88.0562 232.824 86.8391C232.824 85.5779 233.023 84.4162 233.421 83.354C233.842 82.2698 234.417 81.3294 235.147 80.5328C235.899 79.7362 236.762 79.1166 237.736 78.674C238.732 78.2094 239.805 77.977 240.956 77.977C242.084 77.977 243.102 78.2094 244.009 78.674C244.916 79.1166 245.669 79.7694 246.266 80.6323L246.366 78.4749H250.648V93.9089C250.648 95.2587 250.426 96.4868 249.984 97.5932C249.563 98.6996 248.955 99.6511 248.158 100.448C247.362 101.244 246.41 101.853 245.304 102.273C244.219 102.716 243.014 102.937 241.686 102.937C240.38 102.937 239.208 102.727 238.168 102.306C237.128 101.908 236.22 101.344 235.446 100.614C234.671 99.8834 234.063 99.0315 233.62 98.0579L238.068 96.9626C238.466 97.6043 238.975 98.1021 239.595 98.4562C240.236 98.8323 240.956 99.0204 241.752 99.0204C242.615 99.0204 243.356 98.8213 243.976 98.423C244.618 98.0468 245.116 97.5047 245.47 96.7966C245.824 96.1106 246.001 95.303 246.001 94.3736V92.9464C245.403 93.743 244.64 94.3736 243.711 94.8383C242.803 95.2809 241.796 95.5021 240.69 95.5021ZM241.819 91.3864C242.637 91.3864 243.356 91.1872 243.976 90.7889C244.618 90.3685 245.127 89.8153 245.503 89.1294C245.879 88.4213 246.067 87.6247 246.067 86.7396C246.067 85.8545 245.879 85.0689 245.503 84.383C245.127 83.6749 244.618 83.1217 243.976 82.7234C243.356 82.303 242.637 82.0928 241.819 82.0928C241 82.0928 240.27 82.303 239.628 82.7234C239.008 83.1217 238.511 83.6749 238.134 84.383C237.758 85.0689 237.57 85.8545 237.57 86.7396C237.57 87.6247 237.758 88.4213 238.134 89.1294C238.511 89.8153 239.008 90.3685 239.628 90.7889C240.27 91.1872 241 91.3864 241.819 91.3864Z" fill="url(#paint2_radial)"/>
<defs>
<radialGradient id="paint0_radial" cx="0" cy="0" r="1" gradientUnits="userSpaceOnUse" gradientTransform="translate(72.2183 52.376) rotate(177.624) scale(66.503 1241.96)">
<stop stop-color="#6563EF"/>
<stop offset="1" stop-color="#4285F4"/>
</radialGradient>
<radialGradient id="paint1_radial" cx="0" cy="0" r="1" gradientUnits="userSpaceOnUse" gradientTransform="translate(88.9783 98.3615) rotate(177.624) scale(105.8 1975.84)">
<stop stop-color="#6563EF"/>
<stop offset="1" stop-color="#4285F4"/>
</radialGradient>
<radialGradient id="paint2_radial" cx="0" cy="0" r="1" gradientUnits="userSpaceOnUse" gradientTransform="translate(259.066 101.95) rotate(179.319) scale(172.356 924.326)">
<stop stop-color="#6563EF"/>
<stop offset="1" stop-color="#4285F4"/>
</radialGradient>
</defs>
</svg>
