<svg width="257" height="104" viewBox="0 0 257 104" fill="none" xmlns="http://www.w3.org/2000/svg">
<rect opacity="0.2" x="16.2891" width="55.1325" height="55.1325" rx="6.26506" fill="url(#paint0_radial)"/>
<rect opacity="0.99" x="8.77148" y="6.26514" width="70.1687" height="70.1687" rx="6.26506" fill="#62F578"/>
<rect y="15.0361" width="87.7108" height="87.7108" rx="6.26506" fill="url(#paint1_radial)"/>
<path d="M114.57 45L123.06 23.7H126.96L135.48 45H131.7L129.69 39.72H120.21L118.2 45H114.57ZM121.41 36.6H128.49L124.95 27.39L121.41 36.6ZM144.082 45.45C143.042 45.45 142.072 45.24 141.172 44.82C140.292 44.4 139.522 43.82 138.862 43.08C138.202 42.34 137.682 41.47 137.302 40.47C136.942 39.47 136.762 38.39 136.762 37.23C136.762 36.05 136.952 34.95 137.332 33.93C137.712 32.91 138.242 32.02 138.922 31.26C139.602 30.5 140.392 29.91 141.292 29.49C142.212 29.07 143.202 28.86 144.262 28.86C145.302 28.86 146.252 29.08 147.112 29.52C147.972 29.96 148.682 30.58 149.242 31.38V22.68H152.692V45H149.542L149.392 42.48C148.832 43.4 148.092 44.13 147.172 44.67C146.252 45.19 145.222 45.45 144.082 45.45ZM144.802 42.33C145.662 42.33 146.432 42.11 147.112 41.67C147.792 41.21 148.322 40.59 148.702 39.81C149.102 39.03 149.302 38.15 149.302 37.17C149.302 36.17 149.102 35.28 148.702 34.5C148.322 33.72 147.792 33.11 147.112 32.67C146.432 32.21 145.662 31.98 144.802 31.98C143.942 31.98 143.172 32.21 142.492 32.67C141.812 33.11 141.272 33.72 140.872 34.5C140.492 35.28 140.302 36.17 140.302 37.17C140.302 38.15 140.492 39.03 140.872 39.81C141.272 40.59 141.812 41.21 142.492 41.67C143.172 42.11 143.942 42.33 144.802 42.33ZM163.037 45.45C161.997 45.45 161.027 45.24 160.127 44.82C159.247 44.4 158.477 43.82 157.817 43.08C157.157 42.34 156.637 41.47 156.257 40.47C155.897 39.47 155.717 38.39 155.717 37.23C155.717 36.05 155.907 34.95 156.287 33.93C156.667 32.91 157.197 32.02 157.877 31.26C158.557 30.5 159.347 29.91 160.247 29.49C161.167 29.07 162.157 28.86 163.217 28.86C164.257 28.86 165.207 29.08 166.067 29.52C166.927 29.96 167.637 30.58 168.197 31.38V22.68H171.647V45H168.497L168.347 42.48C167.787 43.4 167.047 44.13 166.127 44.67C165.207 45.19 164.177 45.45 163.037 45.45ZM163.757 42.33C164.617 42.33 165.387 42.11 166.067 41.67C166.747 41.21 167.277 40.59 167.657 39.81C168.057 39.03 168.257 38.15 168.257 37.17C168.257 36.17 168.057 35.28 167.657 34.5C167.277 33.72 166.747 33.11 166.067 32.67C165.387 32.21 164.617 31.98 163.757 31.98C162.897 31.98 162.127 32.21 161.447 32.67C160.767 33.11 160.227 33.72 159.827 34.5C159.447 35.28 159.257 36.17 159.257 37.17C159.257 38.15 159.447 39.03 159.827 39.81C160.227 40.59 160.767 41.21 161.447 41.67C162.127 42.11 162.897 42.33 163.757 42.33Z" fill="#3C3C3C"/>
<path d="M116.157 96V72.434H123.725C125.65 72.434 127.31 72.7438 128.704 73.3634C130.12 73.9608 131.204 74.8349 131.957 75.9855C132.709 77.114 133.085 78.4528 133.085 80.0017C133.085 80.9089 132.919 81.783 132.587 82.6238C132.255 83.4426 131.791 84.1949 131.193 84.8809C130.596 85.5447 129.877 86.0979 129.036 86.5404L134.38 96H128.936L124.721 87.8349C124.3 87.857 123.847 87.8681 123.36 87.8681C122.652 87.8681 121.877 87.8017 121.037 87.6689V96H116.157ZM121.037 76.6162V83.5532C121.457 83.6196 121.877 83.6749 122.298 83.7191C122.718 83.7413 123.161 83.7523 123.626 83.7523C125.042 83.7523 126.137 83.4426 126.911 82.823C127.686 82.1813 128.073 81.2962 128.073 80.1677C128.073 79.0391 127.686 78.1651 126.911 77.5455C126.137 76.926 125.042 76.6162 123.626 76.6162H121.037ZM144.674 96.4979C143.369 96.4979 142.163 96.2766 141.057 95.834C139.972 95.3694 139.032 94.7277 138.235 93.9089C137.439 93.0681 136.819 92.0834 136.377 90.9549C135.934 89.8043 135.713 88.554 135.713 87.2043C135.713 85.8987 135.934 84.6817 136.377 83.5532C136.819 82.4247 137.428 81.4511 138.202 80.6323C138.999 79.7915 139.928 79.1387 140.99 78.674C142.052 78.2094 143.203 77.977 144.442 77.977C145.725 77.977 146.887 78.1983 147.927 78.6409C148.989 79.0834 149.897 79.714 150.649 80.5328C151.401 81.3515 151.977 82.3251 152.375 83.4536C152.795 84.5821 153.005 85.8434 153.005 87.2374V88.3991H140.426C140.625 89.7047 141.101 90.7336 141.853 91.486C142.605 92.2162 143.557 92.5813 144.708 92.5813C145.504 92.5813 146.223 92.3932 146.865 92.017C147.529 91.6409 148.071 91.0987 148.491 90.3906L152.64 91.7183C152.242 92.714 151.645 93.566 150.848 94.274C150.051 94.9821 149.122 95.5353 148.06 95.9336C146.998 96.3098 145.869 96.4979 144.674 96.4979ZM144.442 81.5617C143.424 81.5617 142.561 81.8936 141.853 82.5574C141.167 83.2213 140.714 84.1285 140.492 85.2791H148.226C148.049 84.1285 147.617 83.2213 146.931 82.5574C146.268 81.8936 145.438 81.5617 144.442 81.5617ZM162.39 96.4979C161.151 96.4979 160.023 96.2987 159.005 95.9004C158.009 95.5021 157.157 94.9379 156.449 94.2077C155.763 93.4774 155.287 92.6145 155.022 91.6187L159.204 90.7226C159.425 91.4085 159.824 91.9506 160.399 92.3489C160.974 92.7472 161.66 92.9464 162.457 92.9464C163.209 92.9464 163.829 92.7804 164.315 92.4485C164.802 92.1166 165.046 91.663 165.046 91.0877C165.046 90.6009 164.824 90.2026 164.382 89.8928C163.961 89.5609 163.253 89.3064 162.258 89.1294L161.328 88.9634C159.425 88.6315 157.976 88.0119 156.98 87.1047C156.007 86.1974 155.52 85.0468 155.52 83.6528C155.52 82.5464 155.807 81.5728 156.383 80.7319C156.958 79.8689 157.755 79.194 158.772 78.7072C159.79 78.2204 160.963 77.977 162.291 77.977C163.464 77.977 164.526 78.1762 165.477 78.5745C166.451 78.9506 167.258 79.4928 167.9 80.2009C168.542 80.9089 168.984 81.7608 169.228 82.7566L165.079 83.6196C164.858 82.9557 164.492 82.4357 163.984 82.0596C163.497 81.6834 162.921 81.4953 162.258 81.4953C161.572 81.4953 161.007 81.6613 160.565 81.9932C160.122 82.3251 159.901 82.7455 159.901 83.2545C159.901 83.697 160.111 84.0732 160.532 84.383C160.974 84.6706 161.715 84.903 162.755 85.08L163.685 85.246C165.566 85.5779 167.004 86.2085 168 87.1379C168.995 88.0451 169.493 89.2068 169.493 90.623C169.493 91.486 169.316 92.2715 168.962 92.9796C168.63 93.6877 168.144 94.3072 167.502 94.8383C166.86 95.3694 166.108 95.7787 165.245 96.0664C164.382 96.354 163.43 96.4979 162.39 96.4979ZM180.288 96.4979C178.694 96.4979 177.3 96.166 176.105 95.5021C174.933 94.8162 174.014 93.8536 173.351 92.6145C172.709 91.3532 172.388 89.8706 172.388 88.1668V78.4749H177.035V88.2664C177.035 89.5277 177.334 90.5234 177.931 91.2536C178.528 91.9617 179.336 92.3157 180.354 92.3157C181.372 92.3157 182.179 91.9617 182.777 91.2536C183.374 90.5234 183.673 89.5277 183.673 88.2664V78.4749H188.32V88.1668C188.32 89.4281 188.132 90.5677 187.756 91.5855C187.379 92.6034 186.837 93.4774 186.129 94.2077C185.421 94.9379 184.569 95.5021 183.574 95.9004C182.6 96.2987 181.505 96.4979 180.288 96.4979ZM192.031 96V78.4749H196.312L196.445 80.6987C196.954 79.8579 197.64 79.194 198.503 78.7072C199.366 78.2204 200.34 77.977 201.424 77.977C202.597 77.977 203.637 78.2647 204.544 78.84C205.473 79.4153 206.192 80.2119 206.701 81.2298C207.232 80.2562 207.996 79.4706 208.991 78.8732C210.009 78.2757 211.171 77.977 212.477 77.977C213.782 77.977 214.911 78.2868 215.862 78.9064C216.814 79.5038 217.544 80.3668 218.053 81.4953C218.584 82.6238 218.849 83.9515 218.849 85.4783V96H214.203V86.0757C214.203 84.8587 213.937 83.9072 213.406 83.2213C212.875 82.5132 212.134 82.1591 211.182 82.1591C210.518 82.1591 209.921 82.3251 209.39 82.657C208.881 82.9668 208.483 83.4094 208.195 83.9847C207.907 84.56 207.763 85.2128 207.763 85.943V96H203.117V86.0757C203.117 84.8587 202.851 83.9072 202.32 83.2213C201.789 82.5132 201.048 82.1591 200.096 82.1591C199.432 82.1591 198.835 82.3251 198.304 82.657C197.795 82.9668 197.397 83.4094 197.109 83.9847C196.821 84.56 196.677 85.2128 196.677 85.943V96H192.031ZM230.862 96.4979C229.557 96.4979 228.351 96.2766 227.244 95.834C226.16 95.3694 225.219 94.7277 224.423 93.9089C223.626 93.0681 223.007 92.0834 222.564 90.9549C222.122 89.8043 221.9 88.554 221.9 87.2043C221.9 85.8987 222.122 84.6817 222.564 83.5532C223.007 82.4247 223.615 81.4511 224.39 80.6323C225.186 79.7915 226.116 79.1387 227.178 78.674C228.24 78.2094 229.391 77.977 230.63 77.977C231.913 77.977 233.075 78.1983 234.115 78.6409C235.177 79.0834 236.084 79.714 236.837 80.5328C237.589 81.3515 238.164 82.3251 238.562 83.4536C238.983 84.5821 239.193 85.8434 239.193 87.2374V88.3991H226.614C226.813 89.7047 227.288 90.7336 228.041 91.486C228.793 92.2162 229.745 92.5813 230.895 92.5813C231.692 92.5813 232.411 92.3932 233.053 92.017C233.717 91.6409 234.259 91.0987 234.679 90.3906L238.828 91.7183C238.43 92.714 237.832 93.566 237.036 94.274C236.239 94.9821 235.31 95.5353 234.248 95.9336C233.185 96.3098 232.057 96.4979 230.862 96.4979ZM230.63 81.5617C229.612 81.5617 228.749 81.8936 228.041 82.5574C227.355 83.2213 226.901 84.1285 226.68 85.2791H234.414C234.237 84.1285 233.805 83.2213 233.119 82.5574C232.455 81.8936 231.625 81.5617 230.63 81.5617Z" fill="url(#paint2_radial)"/>
<path d="M47.5 41.5H33.5C32.5717 41.5 31.6815 41.8687 31.0251 42.5251C30.3687 43.1815 30 44.0717 30 45V73C30 73.9283 30.3687 74.8185 31.0251 75.4749C31.6815 76.1313 32.5717 76.5 33.5 76.5H54.5C55.4283 76.5 56.3185 76.1313 56.9749 75.4749C57.6312 74.8185 58 73.9283 58 73V52L47.5 41.5Z" stroke="white" stroke-width="3.5" stroke-linecap="round" stroke-linejoin="round"/>
<path d="M47.5 41.5V52H58" stroke="white" stroke-width="3.5" stroke-linecap="round" stroke-linejoin="round"/>
<path d="M51 60.75H37" stroke="white" stroke-width="3.5" stroke-linecap="round" stroke-linejoin="round"/>
<path d="M51 67.75H37" stroke="white" stroke-width="3.5" stroke-linecap="round" stroke-linejoin="round"/>
<path d="M40.5 53.75H38.75H37" stroke="white" stroke-width="3.5" stroke-linecap="round" stroke-linejoin="round"/>
<defs>
<radialGradient id="paint0_radial" cx="0" cy="0" r="1" gradientUnits="userSpaceOnUse" gradientTransform="translate(72.2183 52.376) rotate(177.624) scale(66.503 1241.96)">
<stop stop-color="#2FD94B"/>
<stop offset="1" stop-color="#29CC3C"/>
</radialGradient>
<radialGradient id="paint1_radial" cx="0" cy="0" r="1" gradientUnits="userSpaceOnUse" gradientTransform="translate(88.9783 98.3615) rotate(177.624) scale(105.8 1975.84)">
<stop stop-color="#1DB32C"/>
<stop offset="1" stop-color="#1EDB48"/>
</radialGradient>
<radialGradient id="paint2_radial" cx="0" cy="0" r="1" gradientUnits="userSpaceOnUse" gradientTransform="translate(259.066 101.95) rotate(179.319) scale(172.356 924.326)">
<stop stop-color="#1DB32C"/>
<stop offset="1" stop-color="#1EDB48"/>
</radialGradient>
</defs>
</svg>
