<svg width="239" height="104" viewBox="0 0 239 104" fill="none" xmlns="http://www.w3.org/2000/svg">
<rect opacity="0.2" x="16.29" width="55.1325" height="55.1325" rx="6.26506" fill="url(#paint0_linear)"/>
<rect opacity="0.99" x="8.77148" y="6.26514" width="70.1687" height="70.1687" rx="6.26506" fill="#A376D0"/>
<rect y="15.0361" width="87.7108" height="87.7108" rx="6.26506" fill="url(#paint1_linear)"/>
<path d="M115.628 48.4893V24.9233H129.602V28.4748H119.611V35.2459H128.573V38.7973H119.611V48.4893H115.628ZM132.801 48.4893V31.1301H136.286L136.452 33.9846C136.895 33.011 137.503 32.2586 138.278 31.7276C139.074 31.1744 140.004 30.8978 141.066 30.8978C141.398 30.8978 141.719 30.9199 142.028 30.9642C142.338 31.0084 142.615 31.0859 142.858 31.1965L142.427 34.9139C142.183 34.8254 141.929 34.7701 141.663 34.748C141.398 34.7037 141.132 34.6816 140.867 34.6816C139.539 34.6816 138.499 35.1242 137.747 36.0093C136.994 36.8944 136.618 38.1224 136.618 39.6935V48.4893H132.801ZM153.216 48.9871C151.933 48.9871 150.749 48.7659 149.665 48.3233C148.603 47.8586 147.673 47.2169 146.877 46.3982C146.08 45.5795 145.46 44.6169 145.018 43.5105C144.597 42.382 144.387 41.1429 144.387 39.7931C144.387 38.4876 144.597 37.2816 145.018 36.1752C145.46 35.0688 146.058 34.1063 146.81 33.2876C147.585 32.4467 148.492 31.7939 149.532 31.3293C150.572 30.8646 151.7 30.6322 152.917 30.6322C154.134 30.6322 155.241 30.8535 156.237 31.2961C157.254 31.7165 158.129 32.325 158.859 33.1216C159.611 33.9182 160.186 34.8697 160.585 35.9761C160.983 37.0603 161.182 38.2663 161.182 39.5939V40.7224H148.337C148.448 41.7403 148.713 42.6254 149.134 43.3778C149.576 44.108 150.14 44.6722 150.826 45.0705C151.512 45.4688 152.309 45.668 153.216 45.668C155.031 45.668 156.447 44.8603 157.465 43.245L160.817 44.5395C160.419 45.4467 159.832 46.2433 159.058 46.9293C158.306 47.5931 157.42 48.102 156.403 48.4561C155.407 48.8101 154.345 48.9871 153.216 48.9871ZM152.917 33.719C152.143 33.719 151.446 33.8961 150.826 34.2501C150.229 34.6042 149.72 35.102 149.3 35.7437C148.879 36.3854 148.591 37.1378 148.437 38.0007H157.199C157.066 37.1378 156.812 36.3854 156.436 35.7437C156.06 35.102 155.562 34.6042 154.942 34.2501C154.345 33.8961 153.67 33.719 152.917 33.719ZM172.664 48.9871C171.381 48.9871 170.197 48.7659 169.113 48.3233C168.051 47.8586 167.121 47.2169 166.325 46.3982C165.528 45.5795 164.909 44.6169 164.466 43.5105C164.046 42.382 163.835 41.1429 163.835 39.7931C163.835 38.4876 164.046 37.2816 164.466 36.1752C164.909 35.0688 165.506 34.1063 166.258 33.2876C167.033 32.4467 167.94 31.7939 168.98 31.3293C170.02 30.8646 171.149 30.6322 172.366 30.6322C173.583 30.6322 174.689 30.8535 175.685 31.2961C176.703 31.7165 177.577 32.325 178.307 33.1216C179.059 33.9182 179.635 34.8697 180.033 35.9761C180.431 37.0603 180.63 38.2663 180.63 39.5939V40.7224H167.785C167.896 41.7403 168.161 42.6254 168.582 43.3778C169.024 44.108 169.589 44.6722 170.275 45.0705C170.96 45.4688 171.757 45.668 172.664 45.668C174.479 45.668 175.895 44.8603 176.913 43.245L180.265 44.5395C179.867 45.4467 179.28 46.2433 178.506 46.9293C177.754 47.5931 176.869 48.102 175.851 48.4561C174.855 48.8101 173.793 48.9871 172.664 48.9871ZM172.366 33.719C171.591 33.719 170.894 33.8961 170.275 34.2501C169.677 34.6042 169.168 35.102 168.748 35.7437C168.327 36.3854 168.04 37.1378 167.885 38.0007H176.647C176.515 37.1378 176.26 36.3854 175.884 35.7437C175.508 35.102 175.01 34.6042 174.39 34.2501C173.793 33.8961 173.118 33.719 172.366 33.719Z" fill="#3C3C3C"/>
<path d="M123.472 96.4979C122.166 96.4979 120.96 96.2655 119.854 95.8009C118.748 95.3362 117.785 94.6945 116.966 93.8757C116.148 93.0349 115.506 92.0502 115.041 90.9217C114.599 89.7932 114.378 88.5651 114.378 87.2374C114.378 85.9098 114.61 84.6928 115.075 83.5864C115.539 82.4579 116.181 81.4732 117 80.6323C117.84 79.7915 118.814 79.1387 119.92 78.674C121.049 78.2094 122.277 77.977 123.605 77.977C124.91 77.977 126.116 78.2094 127.223 78.674C128.329 79.1387 129.292 79.7915 130.11 80.6323C130.929 81.4511 131.56 82.4247 132.002 83.5532C132.467 84.6596 132.699 85.8766 132.699 87.2043C132.699 88.5319 132.467 89.76 132.002 90.8885C131.538 92.017 130.885 93.0017 130.044 93.8426C129.225 94.6834 128.252 95.3362 127.123 95.8009C126.017 96.2655 124.8 96.4979 123.472 96.4979ZM123.538 92.3157C124.379 92.3157 125.132 92.0945 125.795 91.6519C126.459 91.2094 126.979 90.6119 127.355 89.8596C127.754 89.0851 127.953 88.2111 127.953 87.2374C127.953 86.2638 127.754 85.4009 127.355 84.6485C126.979 83.874 126.459 83.2655 125.795 82.823C125.132 82.3804 124.379 82.1591 123.538 82.1591C122.698 82.1591 121.945 82.3804 121.281 82.823C120.618 83.2655 120.086 83.874 119.688 84.6485C119.312 85.4009 119.124 86.2638 119.124 87.2374C119.124 88.2111 119.312 89.0851 119.688 89.8596C120.086 90.6119 120.618 91.2094 121.281 91.6519C121.945 92.0945 122.698 92.3157 123.538 92.3157ZM136.961 96V82.2255H133.974V78.4749H136.961V77.4791C136.961 76.5277 137.116 75.6536 137.426 74.857C137.758 74.0383 138.211 73.3413 138.786 72.766C139.384 72.1685 140.081 71.7149 140.878 71.4051C141.696 71.0732 142.581 70.9072 143.533 70.9072C144.263 70.9072 144.916 70.9957 145.491 71.1728C146.089 71.3498 146.598 71.5489 147.018 71.7702L146.089 75.3217C145.823 75.1889 145.513 75.0783 145.159 74.9898C144.827 74.8791 144.506 74.8238 144.197 74.8238C143.312 74.8238 142.659 75.0894 142.238 75.6204C141.818 76.1294 141.608 76.8485 141.608 77.7779V78.4749H146.255V82.2255H141.608V96H136.961ZM167.07 96.6638C165.721 96.6638 164.448 96.4647 163.253 96.0664C162.058 95.6681 160.974 95.1038 160.001 94.3736C159.027 93.6434 158.186 92.7804 157.478 91.7847C156.792 90.7668 156.261 89.6383 155.885 88.3991C155.509 87.1379 155.321 85.7991 155.321 84.383C155.321 82.9668 155.509 81.6281 155.885 80.3668C156.283 79.0834 156.836 77.9217 157.544 76.8817C158.252 75.8196 159.093 74.9123 160.067 74.16C161.041 73.3855 162.114 72.7991 163.286 72.4008C164.481 71.9804 165.743 71.7702 167.07 71.7702C168.287 71.7702 169.438 71.9362 170.522 72.2681C171.606 72.6 172.591 73.0757 173.476 73.6953C174.361 74.3149 175.125 75.0562 175.766 75.9191C176.43 76.7821 176.928 77.7557 177.26 78.84L172.481 80.0349C171.949 78.8621 171.208 77.9549 170.257 77.3132C169.305 76.6494 168.221 76.3174 167.004 76.3174C166.075 76.3174 165.201 76.5166 164.382 76.9149C163.585 77.3132 162.888 77.8774 162.291 78.6077C161.715 79.3157 161.262 80.1566 160.93 81.1302C160.598 82.1038 160.432 83.166 160.432 84.3166C160.432 85.4672 160.587 86.5183 160.897 87.4698C161.229 88.4213 161.693 89.2511 162.291 89.9591C162.888 90.6451 163.585 91.1762 164.382 91.5523C165.201 91.9285 166.097 92.1166 167.07 92.1166C168.332 92.1166 169.438 91.8068 170.389 91.1872C171.363 90.5455 172.138 89.6162 172.713 88.3991L177.492 89.594C177.028 91.0323 176.286 92.2826 175.269 93.3447C174.273 94.4068 173.078 95.2255 171.684 95.8009C170.29 96.3762 168.752 96.6638 167.07 96.6638ZM188.818 96.4979C187.512 96.4979 186.306 96.2655 185.2 95.8009C184.093 95.3362 183.131 94.6945 182.312 93.8757C181.493 93.0349 180.852 92.0502 180.387 90.9217C179.945 89.7932 179.723 88.5651 179.723 87.2374C179.723 85.9098 179.956 84.6928 180.42 83.5864C180.885 82.4579 181.527 81.4732 182.345 80.6323C183.186 79.7915 184.16 79.1387 185.266 78.674C186.395 78.2094 187.623 77.977 188.95 77.977C190.256 77.977 191.462 78.2094 192.568 78.674C193.675 79.1387 194.637 79.7915 195.456 80.6323C196.275 81.4511 196.905 82.4247 197.348 83.5532C197.813 84.6596 198.045 85.8766 198.045 87.2043C198.045 88.5319 197.813 89.76 197.348 90.8885C196.883 92.017 196.23 93.0017 195.39 93.8426C194.571 94.6834 193.597 95.3362 192.469 95.8009C191.362 96.2655 190.145 96.4979 188.818 96.4979ZM188.884 92.3157C189.725 92.3157 190.477 92.0945 191.141 91.6519C191.805 91.2094 192.325 90.6119 192.701 89.8596C193.099 89.0851 193.299 88.2111 193.299 87.2374C193.299 86.2638 193.099 85.4009 192.701 84.6485C192.325 83.874 191.805 83.2655 191.141 82.823C190.477 82.3804 189.725 82.1591 188.884 82.1591C188.043 82.1591 187.291 82.3804 186.627 82.823C185.963 83.2655 185.432 83.874 185.034 84.6485C184.658 85.4009 184.47 86.2638 184.47 87.2374C184.47 88.2111 184.658 89.0851 185.034 89.8596C185.432 90.6119 185.963 91.2094 186.627 91.6519C187.291 92.0945 188.043 92.3157 188.884 92.3157ZM207.406 96.4979C206.167 96.4979 205.038 96.2987 204.02 95.9004C203.024 95.5021 202.173 94.9379 201.464 94.2077C200.779 93.4774 200.303 92.6145 200.037 91.6187L204.219 90.7226C204.441 91.4085 204.839 91.9506 205.414 92.3489C205.99 92.7472 206.676 92.9464 207.472 92.9464C208.224 92.9464 208.844 92.7804 209.331 92.4485C209.818 92.1166 210.061 91.663 210.061 91.0877C210.061 90.6009 209.84 90.2026 209.397 89.8928C208.977 89.5609 208.269 89.3064 207.273 89.1294L206.344 88.9634C204.441 88.6315 202.991 88.0119 201.996 87.1047C201.022 86.1974 200.535 85.0468 200.535 83.6528C200.535 82.5464 200.823 81.5728 201.398 80.7319C201.973 79.8689 202.77 79.194 203.788 78.7072C204.806 78.2204 205.979 77.977 207.306 77.977C208.479 77.977 209.541 78.1762 210.493 78.5745C211.466 78.9506 212.274 79.4928 212.916 80.2009C213.557 80.9089 214 81.7608 214.243 82.7566L210.094 83.6196C209.873 82.9557 209.508 82.4357 208.999 82.0596C208.512 81.6834 207.937 81.4953 207.273 81.4953C206.587 81.4953 206.023 81.6613 205.58 81.9932C205.138 82.3251 204.916 82.7455 204.916 83.2545C204.916 83.697 205.127 84.0732 205.547 84.383C205.99 84.6706 206.731 84.903 207.771 85.08L208.7 85.246C210.581 85.5779 212.019 86.2085 213.015 87.1379C214.011 88.0451 214.509 89.2068 214.509 90.623C214.509 91.486 214.332 92.2715 213.978 92.9796C213.646 93.6877 213.159 94.3072 212.517 94.8383C211.876 95.3694 211.123 95.7787 210.26 96.0664C209.397 96.354 208.446 96.4979 207.406 96.4979ZM224.713 96.4979C223.495 96.4979 222.444 96.2655 221.559 95.8009C220.696 95.314 220.021 94.617 219.535 93.7098C219.07 92.8026 218.838 91.6962 218.838 90.3906V82.2255H215.85V78.4749H218.838V72.5004H223.484V78.4749H228.264V82.2255H223.484V89.8264C223.484 90.6672 223.661 91.32 224.015 91.7847C224.37 92.2272 224.912 92.4485 225.642 92.4485C226.018 92.4485 226.416 92.3932 226.837 92.2826C227.279 92.1719 227.7 92.0281 228.098 91.8511L228.928 95.3362C228.353 95.6902 227.711 95.9668 227.003 96.166C226.295 96.3872 225.531 96.4979 224.713 96.4979Z" fill="url(#paint2_linear)"/>
<path d="M43.8565 76.6426C53.6601 76.6426 61.6075 68.6952 61.6075 58.8916C61.6075 49.088 53.6601 41.1406 43.8565 41.1406C34.0529 41.1406 26.1055 49.088 26.1055 58.8916C26.1055 68.6952 34.0529 76.6426 43.8565 76.6426Z" stroke="white" stroke-width="3.5502" stroke-linecap="round" stroke-linejoin="round"/>
<path d="M43.8553 65.9918C47.7767 65.9918 50.9557 62.8129 50.9557 58.8914C50.9557 54.97 47.7767 51.791 43.8553 51.791C39.9338 51.791 36.7549 54.97 36.7549 58.8914C36.7549 62.8129 39.9338 65.9918 43.8553 65.9918Z" stroke="white" stroke-width="3.5502" stroke-linecap="round" stroke-linejoin="round"/>
<path d="M31.3057 46.342L38.8321 53.8685" stroke="white" stroke-width="3.5502" stroke-linecap="round" stroke-linejoin="round"/>
<path d="M48.8809 63.915L56.4073 71.4415" stroke="white" stroke-width="3.5502" stroke-linecap="round" stroke-linejoin="round"/>
<path d="M48.8809 53.8685L56.4073 46.342" stroke="white" stroke-width="3.5502" stroke-linecap="round" stroke-linejoin="round"/>
<path d="M48.8809 53.8682L55.147 47.6021" stroke="white" stroke-width="3.5502" stroke-linecap="round" stroke-linejoin="round"/>
<path d="M31.3057 71.4415L38.8321 63.915" stroke="white" stroke-width="3.5502" stroke-linecap="round" stroke-linejoin="round"/>
<defs>
<linearGradient id="paint0_linear" x1="14.5536" y1="-32.6443" x2="112.554" y2="-0.479426" gradientUnits="userSpaceOnUse">
<stop stop-color="#4654D3"/>
<stop offset="1" stop-color="#C51593"/>
</linearGradient>
<linearGradient id="paint1_linear" x1="-2.76254" y1="-36.8979" x2="153.147" y2="14.2734" gradientUnits="userSpaceOnUse">
<stop stop-color="#4654D3"/>
<stop offset="1" stop-color="#C51593"/>
</linearGradient>
<linearGradient id="paint2_linear" x1="109.498" y1="38.7237" x2="232.219" y2="153.665" gradientUnits="userSpaceOnUse">
<stop stop-color="#4654D3"/>
<stop offset="1" stop-color="#C51593"/>
</linearGradient>
</defs>
</svg>
