<svg width="239" height="104" viewBox="0 0 239 104" fill="none" xmlns="http://www.w3.org/2000/svg">
<rect opacity="0.2" x="16.29" width="55.1325" height="55.1325" rx="6.26506" fill="url(#paint0_linear)"/>
<rect opacity="0.99" x="8.77148" y="6.26514" width="70.1687" height="70.1687" rx="6.26506" fill="#79F5F2"/>
<rect y="15" width="87.7108" height="87.7108" rx="6.26506" fill="url(#paint1_linear)"/>
<path d="M125.121 49.1531C123.616 49.1531 122.266 48.9207 121.071 48.4561C119.877 47.9914 118.848 47.3165 117.985 46.4314C117.144 45.5463 116.491 44.4952 116.026 43.2782C115.584 42.039 115.363 40.6561 115.363 39.1293V24.9233H119.412V38.9633C119.412 40.291 119.644 41.4416 120.109 42.4152C120.596 43.3667 121.271 44.108 122.134 44.639C122.997 45.1701 124.014 45.4356 125.187 45.4356C126.36 45.4356 127.378 45.1701 128.241 44.639C129.104 44.108 129.768 43.3667 130.232 42.4152C130.719 41.4416 130.963 40.291 130.963 38.9633V24.9233H135.012V39.1293C135.012 40.6561 134.78 42.039 134.315 43.2782C133.85 44.4952 133.175 45.5463 132.29 46.4314C131.427 47.2944 130.387 47.9693 129.17 48.4561C127.975 48.9207 126.626 49.1531 125.121 49.1531ZM145.063 48.9871C143.934 48.9871 142.883 48.799 141.91 48.4229C140.958 48.0467 140.14 47.5156 139.454 46.8297C138.79 46.1216 138.314 45.2918 138.026 44.3403L141.478 43.4442C141.766 44.1965 142.231 44.7829 142.872 45.2033C143.514 45.6237 144.255 45.8339 145.096 45.8339C145.959 45.8339 146.667 45.6348 147.22 45.2365C147.774 44.8161 148.05 44.285 148.05 43.6433C148.05 43.0901 147.829 42.6254 147.386 42.2493C146.944 41.8731 146.225 41.5965 145.229 41.4195L144.134 41.2203C142.275 40.8884 140.87 40.291 139.918 39.428C138.989 38.565 138.524 37.4586 138.524 36.1088C138.524 35.0246 138.801 34.0731 139.354 33.2544C139.907 32.4356 140.671 31.7939 141.644 31.3293C142.618 30.8646 143.735 30.6322 144.997 30.6322C146.081 30.6322 147.077 30.8203 147.984 31.1965C148.891 31.5727 149.654 32.1037 150.274 32.7897C150.894 33.4756 151.336 34.2833 151.602 35.2127L148.183 36.0424C147.917 35.3344 147.497 34.7812 146.922 34.3829C146.369 33.9624 145.716 33.7522 144.963 33.7522C144.189 33.7522 143.547 33.9514 143.038 34.3497C142.529 34.7259 142.275 35.2127 142.275 35.8101C142.275 36.319 142.496 36.7395 142.939 37.0714C143.403 37.4033 144.178 37.6688 145.262 37.868L146.357 38.0671C148.128 38.3769 149.489 38.9854 150.44 39.8927C151.391 40.7999 151.867 41.9284 151.867 43.2782C151.867 44.0969 151.701 44.8603 151.369 45.5684C151.037 46.2544 150.562 46.8629 149.942 47.3939C149.345 47.9029 148.626 48.2901 147.785 48.5556C146.966 48.8433 146.059 48.9871 145.063 48.9871ZM163.07 48.9871C161.786 48.9871 160.603 48.7659 159.518 48.3233C158.456 47.8586 157.527 47.2169 156.73 46.3982C155.934 45.5795 155.314 44.6169 154.872 43.5105C154.451 42.382 154.241 41.1429 154.241 39.7931C154.241 38.4876 154.451 37.2816 154.872 36.1752C155.314 35.0688 155.912 34.1063 156.664 33.2876C157.438 32.4467 158.346 31.7939 159.386 31.3293C160.426 30.8646 161.554 30.6322 162.771 30.6322C163.988 30.6322 165.095 30.8535 166.09 31.2961C167.108 31.7165 167.982 32.325 168.712 33.1216C169.465 33.9182 170.04 34.8697 170.438 35.9761C170.837 37.0603 171.036 38.2663 171.036 39.5939V40.7224H158.191C158.301 41.7403 158.567 42.6254 158.987 43.3778C159.43 44.108 159.994 44.6722 160.68 45.0705C161.366 45.4688 162.163 45.668 163.07 45.668C164.884 45.668 166.301 44.8603 167.318 43.245L170.671 44.5395C170.272 45.4467 169.686 46.2433 168.912 46.9293C168.159 47.5931 167.274 48.102 166.256 48.4561C165.261 48.8101 164.198 48.9871 163.07 48.9871ZM162.771 33.719C161.997 33.719 161.3 33.8961 160.68 34.2501C160.083 34.6042 159.574 35.102 159.153 35.7437C158.733 36.3854 158.445 37.1378 158.29 38.0007H167.053C166.92 37.1378 166.666 36.3854 166.289 35.7437C165.913 35.102 165.415 34.6042 164.796 34.2501C164.198 33.8961 163.523 33.719 162.771 33.719ZM185.572 26.2841C185.572 26.7046 185.461 27.0918 185.24 27.4459C185.041 27.7999 184.764 28.0876 184.41 28.3088C184.056 28.508 183.669 28.6076 183.248 28.6076C182.828 28.6076 182.441 28.508 182.087 28.3088C181.733 28.0876 181.445 27.7999 181.224 27.4459C181.025 27.0918 180.925 26.7046 180.925 26.2841C180.925 25.8637 181.025 25.4765 181.224 25.1224C181.445 24.7684 181.733 24.4918 182.087 24.2927C182.441 24.0714 182.828 23.9607 183.248 23.9607C183.669 23.9607 184.056 24.0714 184.41 24.2927C184.764 24.4918 185.041 24.7684 185.24 25.1224C185.461 25.4765 185.572 25.8637 185.572 26.2841ZM181.357 48.4893V31.1301H185.174V48.4893H181.357ZM196.467 48.9871C194.719 48.9871 193.347 48.4893 192.352 47.4935C191.356 46.4756 190.858 45.0263 190.858 43.1454V34.2169H187.804V31.1301H190.858V25.2552H194.675V31.1301H199.72V34.2169H194.675V42.7471C194.675 43.6765 194.863 44.3956 195.239 44.9046C195.637 45.3914 196.213 45.6348 196.965 45.6348C197.363 45.6348 197.795 45.5795 198.26 45.4688C198.724 45.3361 199.156 45.159 199.554 44.9378L200.417 47.8254C199.908 48.1795 199.311 48.4561 198.625 48.6552C197.961 48.8765 197.242 48.9871 196.467 48.9871Z" fill="#3C3C3C"/>
<path d="M126.758 96.6638C125.364 96.6638 124.047 96.4647 122.808 96.0664C121.569 95.6681 120.44 95.1038 119.423 94.3736C118.427 93.6213 117.564 92.7362 116.834 91.7183C116.126 90.6783 115.572 89.5277 115.174 88.2664C114.776 87.0051 114.577 85.6664 114.577 84.2502C114.577 82.834 114.776 81.4953 115.174 80.234C115.572 78.9506 116.137 77.8 116.867 76.7821C117.597 75.7421 118.46 74.857 119.456 74.1268C120.474 73.3745 121.602 72.7991 122.841 72.4008C124.08 71.9804 125.408 71.7702 126.824 71.7702C128.218 71.7702 129.535 71.9694 130.774 72.3677C132.013 72.766 133.131 73.3413 134.126 74.0936C135.144 74.8238 136.007 75.7089 136.715 76.7489C137.446 77.7668 138.01 78.9064 138.408 80.1677C138.806 81.4289 139.006 82.7677 139.006 84.1838C139.006 85.6 138.806 86.9498 138.408 88.2332C138.01 89.4945 137.446 90.6451 136.715 91.6851C135.985 92.703 135.111 93.5881 134.093 94.3404C133.098 95.0706 131.98 95.6349 130.741 96.0332C129.502 96.4536 128.174 96.6638 126.758 96.6638ZM126.791 92.1166C127.809 92.1166 128.749 91.9285 129.612 91.5523C130.498 91.154 131.25 90.6009 131.869 89.8928C132.511 89.1847 133.009 88.3549 133.363 87.4034C133.717 86.4298 133.894 85.3677 133.894 84.217C133.894 83.0664 133.717 82.0153 133.363 81.0638C133.009 80.0902 132.511 79.2494 131.869 78.5413C131.25 77.8332 130.498 77.2911 129.612 76.9149C128.749 76.5166 127.809 76.3174 126.791 76.3174C125.773 76.3174 124.822 76.5166 123.937 76.9149C123.074 77.2911 122.321 77.8332 121.68 78.5413C121.06 79.2494 120.573 80.0902 120.219 81.0638C119.865 82.0153 119.688 83.0664 119.688 84.217C119.688 85.3677 119.865 86.4298 120.219 87.4034C120.573 88.3549 121.06 89.1847 121.68 89.8928C122.321 90.6009 123.074 91.154 123.937 91.5523C124.822 91.9285 125.773 92.1166 126.791 92.1166ZM143.995 96V82.126H141.007V78.4749H143.995V77.4791C143.995 76.5277 144.15 75.6536 144.459 74.857C144.791 74.0383 145.245 73.3413 145.82 72.766C146.418 72.1685 147.115 71.7149 147.911 71.4051C148.73 71.0732 149.615 70.9072 150.567 70.9072C151.297 70.9072 151.95 70.9957 152.525 71.1728C153.122 71.3498 153.631 71.5489 154.052 71.7702L153.122 75.3217C152.857 75.1889 152.547 75.0783 152.193 74.9898C151.861 74.8791 151.54 74.8238 151.23 74.8238C150.345 74.8238 149.693 75.0894 149.272 75.6204C148.852 76.1294 148.642 76.8485 148.642 77.7779V78.4749H155.346V77.4791C155.346 76.5277 155.501 75.6536 155.811 74.857C156.143 74.0383 156.596 73.3413 157.172 72.766C157.769 72.1685 158.466 71.7149 159.263 71.4051C160.082 71.0732 160.967 70.9072 161.918 70.9072C162.648 70.9072 163.301 70.9957 163.876 71.1728C164.474 71.3498 164.983 71.5489 165.403 71.7702L164.474 75.3217C164.208 75.1889 163.899 75.0783 163.544 74.9898C163.213 74.8791 162.892 74.8238 162.582 74.8238C161.697 74.8238 161.044 75.0894 160.624 75.6204C160.203 76.1294 159.993 76.8485 159.993 77.7779V78.4749H164.64V82.126H159.993V96H155.346V82.126H148.642V96H143.995ZM167.227 96V71.2391H171.874V96H167.227ZM180.569 73.7285C180.569 74.2374 180.447 74.6911 180.203 75.0894C179.982 75.4877 179.661 75.8085 179.241 76.0519C178.843 76.2732 178.4 76.3838 177.913 76.3838C177.426 76.3838 176.973 76.2732 176.552 76.0519C176.154 75.8085 175.833 75.4877 175.59 75.0894C175.369 74.6911 175.258 74.2374 175.258 73.7285C175.258 73.2196 175.369 72.766 175.59 72.3677C175.833 71.9694 176.154 71.6596 176.552 71.4383C176.973 71.1949 177.426 71.0732 177.913 71.0732C178.4 71.0732 178.843 71.1949 179.241 71.4383C179.661 71.6596 179.982 71.9694 180.203 72.3677C180.447 72.766 180.569 73.2196 180.569 73.7285ZM175.59 96V78.4749H180.237V96H175.59ZM183.953 96V78.4749H188.234L188.367 80.7319C188.876 79.8911 189.573 79.2272 190.458 78.7404C191.365 78.2315 192.394 77.977 193.545 77.977C194.828 77.977 195.946 78.2868 196.897 78.9064C197.871 79.5038 198.623 80.3668 199.154 81.4953C199.685 82.6238 199.951 83.9515 199.951 85.4783V96H195.304V86.0757C195.304 84.8587 195.027 83.9072 194.474 83.2213C193.921 82.5132 193.158 82.1591 192.184 82.1591C191.476 82.1591 190.856 82.3251 190.325 82.657C189.794 82.9668 189.374 83.4094 189.064 83.9847C188.754 84.56 188.599 85.2128 188.599 85.943V96H183.953ZM211.958 96.4979C210.652 96.4979 209.446 96.2766 208.34 95.834C207.256 95.3694 206.315 94.7277 205.519 93.9089C204.722 93.0681 204.103 92.0834 203.66 90.9549C203.217 89.8043 202.996 88.554 202.996 87.2043C202.996 85.8987 203.217 84.6817 203.66 83.5532C204.103 82.4247 204.711 81.4511 205.486 80.6323C206.282 79.7915 207.212 79.1387 208.274 78.674C209.336 78.2094 210.486 77.977 211.726 77.977C213.009 77.977 214.171 78.1983 215.211 78.6409C216.273 79.0834 217.18 79.714 217.932 80.5328C218.685 81.3515 219.26 82.3251 219.658 83.4536C220.079 84.5821 220.289 85.8434 220.289 87.2374V88.3991H207.709C207.909 89.7047 208.384 90.7336 209.137 91.486C209.889 92.2162 210.84 92.5813 211.991 92.5813C212.788 92.5813 213.507 92.3932 214.149 92.017C214.812 91.6409 215.354 91.0987 215.775 90.3906L219.924 91.7183C219.526 92.714 218.928 93.566 218.132 94.274C217.335 94.9821 216.406 95.5353 215.343 95.9336C214.281 96.3098 213.153 96.4979 211.958 96.4979ZM211.726 81.5617C210.708 81.5617 209.845 81.8936 209.137 82.5574C208.451 83.2213 207.997 84.1285 207.776 85.2791H215.509C215.332 84.1285 214.901 83.2213 214.215 82.5574C213.551 81.8936 212.721 81.5617 211.726 81.5617Z" fill="url(#paint2_linear)"/>
<path d="M24.75 39.7493L63.25 78.2493" stroke="white" stroke-width="3.5" stroke-linecap="round" stroke-linejoin="round"/>
<path d="M52.2627 57.355C53.6961 58.0545 55.0365 58.9305 56.2527 59.9625" stroke="white" stroke-width="3.5" stroke-linecap="round" stroke-linejoin="round"/>
<path d="M31.75 59.9628C34.3436 57.7942 37.4653 56.3511 40.7975 55.7803" stroke="white" stroke-width="3.5" stroke-linecap="round" stroke-linejoin="round"/>
<path d="M41.7422 46.8373C45.4914 46.5352 49.2631 46.9916 52.832 48.1792C56.401 49.3669 59.6941 51.2614 62.5147 53.7498" stroke="white" stroke-width="3.5" stroke-linecap="round" stroke-linejoin="round"/>
<path d="M25.4854 53.7502C27.9129 51.6044 30.6963 49.8988 33.7104 48.7102" stroke="white" stroke-width="3.5" stroke-linecap="round" stroke-linejoin="round"/>
<path d="M37.9258 66.1925C39.7024 64.9303 41.8277 64.2522 44.007 64.2522C46.1864 64.2522 48.3117 64.9303 50.0883 66.1925" stroke="white" stroke-width="3.5" stroke-linecap="round" stroke-linejoin="round"/>
<path d="M44 73H44.0177" stroke="white" stroke-width="3.5" stroke-linecap="round" stroke-linejoin="round"/>
<defs>
<linearGradient id="paint0_linear" x1="14.5536" y1="-32.6443" x2="112.554" y2="-0.479426" gradientUnits="userSpaceOnUse">
<stop stop-color="#31C9C3"/>
<stop offset="1" stop-color="#2FC8C3"/>
</linearGradient>
<linearGradient id="paint1_linear" x1="-2.76254" y1="-36.9341" x2="153.147" y2="14.2373" gradientUnits="userSpaceOnUse">
<stop stop-color="#46D3C2"/>
<stop offset="1" stop-color="#15BAC5"/>
</linearGradient>
<linearGradient id="paint2_linear" x1="109.498" y1="38.7237" x2="232.219" y2="153.665" gradientUnits="userSpaceOnUse">
<stop stop-color="#46D3C2"/>
<stop offset="1" stop-color="#15BAC5"/>
</linearGradient>
</defs>
</svg>
