<svg width="228" height="26" viewBox="0 0 228 26" fill="none" xmlns="http://www.w3.org/2000/svg">
<path d="M1.4 20V5.8H6.32C7.25333 5.8 8.05333 5.95333 8.72 6.26C9.4 6.55333 9.92667 6.97333 10.3 7.52C10.6733 8.06667 10.86 8.71333 10.86 9.46C10.86 10.14 10.7 10.74 10.38 11.26C10.0733 11.78 9.62667 12.1867 9.04 12.48C9.8 12.7467 10.3933 13.1933 10.82 13.82C11.2467 14.4333 11.46 15.1533 11.46 15.98C11.46 16.7933 11.2533 17.5 10.84 18.1C10.4267 18.7 9.84 19.1667 9.08 19.5C8.33333 19.8333 7.44667 20 6.42 20H1.4ZM3.76 7.88V11.64H6.1C6.84667 11.64 7.42 11.48 7.82 11.16C8.22 10.84 8.42 10.3733 8.42 9.76C8.42 9.17333 8.21333 8.71333 7.8 8.38C7.4 8.04667 6.83333 7.88 6.1 7.88H3.76ZM3.76 17.92H6.32C7.17333 17.92 7.83333 17.7333 8.3 17.36C8.76667 16.9733 9 16.4467 9 15.78C9 15.0867 8.76667 14.5533 8.3 14.18C7.83333 13.8067 7.17333 13.62 6.32 13.62H3.76V17.92ZM18.1056 20.3C17.1723 20.3 16.359 20.1 15.6656 19.7C14.9856 19.3 14.4523 18.7333 14.0656 18C13.6923 17.2533 13.5056 16.38 13.5056 15.38V9.54H15.8056V15.42C15.8056 16.2867 16.0123 16.9733 16.4256 17.48C16.839 17.9733 17.4056 18.22 18.1256 18.22C18.8456 18.22 19.4123 17.9733 19.8256 17.48C20.239 16.9733 20.4456 16.2867 20.4456 15.42V9.54H22.7456V15.38C22.7456 16.3667 22.5523 17.2333 22.1656 17.98C21.7923 18.7133 21.259 19.2867 20.5656 19.7C19.8723 20.1 19.0523 20.3 18.1056 20.3ZM27.7644 6.62C27.7644 6.87333 27.6977 7.10667 27.5644 7.32C27.4444 7.53333 27.2777 7.70667 27.0644 7.84C26.851 7.96 26.6177 8.02 26.3644 8.02C26.111 8.02 25.8777 7.96 25.6644 7.84C25.451 7.70667 25.2777 7.53333 25.1444 7.32C25.0244 7.10667 24.9644 6.87333 24.9644 6.62C24.9644 6.36667 25.0244 6.13333 25.1444 5.92C25.2777 5.70667 25.451 5.54 25.6644 5.42C25.8777 5.28667 26.111 5.22 26.3644 5.22C26.6177 5.22 26.851 5.28667 27.0644 5.42C27.2777 5.54 27.4444 5.70667 27.5644 5.92C27.6977 6.13333 27.7644 6.36667 27.7644 6.62ZM25.2244 20V9.54H27.5244V20H25.2244ZM30.0095 20V5.12H32.3095V20H30.0095ZM39.2147 20.3C38.5214 20.3 37.8747 20.16 37.2747 19.88C36.688 19.6 36.1747 19.2133 35.7347 18.72C35.2947 18.2267 34.948 17.6467 34.6947 16.98C34.4547 16.3133 34.3347 15.5933 34.3347 14.82C34.3347 14.0333 34.4614 13.3 34.7147 12.62C34.968 11.94 35.3214 11.3467 35.7747 10.84C36.228 10.3333 36.7547 9.94 37.3547 9.66C37.968 9.38 38.628 9.24 39.3347 9.24C40.028 9.24 40.6614 9.38667 41.2347 9.68C41.808 9.97333 42.2814 10.3867 42.6547 10.92V5.12H44.9547V20H42.8547L42.7547 18.32C42.3814 18.9333 41.888 19.42 41.2747 19.78C40.6614 20.1267 39.9747 20.3 39.2147 20.3ZM39.6947 18.22C40.268 18.22 40.7814 18.0733 41.2347 17.78C41.688 17.4733 42.0414 17.06 42.2947 16.54C42.5614 16.02 42.6947 15.4333 42.6947 14.78C42.6947 14.1133 42.5614 13.52 42.2947 13C42.0414 12.48 41.688 12.0733 41.2347 11.78C40.7814 11.4733 40.268 11.32 39.6947 11.32C39.1214 11.32 38.608 11.4733 38.1547 11.78C37.7014 12.0733 37.3414 12.48 37.0747 13C36.8214 13.52 36.6947 14.1133 36.6947 14.78C36.6947 15.4333 36.8214 16.02 37.0747 16.54C37.3414 17.06 37.7014 17.4733 38.1547 17.78C38.608 18.0733 39.1214 18.22 39.6947 18.22ZM51.6892 20V5.12H53.9892V11.06C54.3626 10.4867 54.8492 10.04 55.4492 9.72C56.0492 9.4 56.7092 9.24 57.4292 9.24C58.1226 9.24 58.7626 9.38 59.3492 9.66C59.9492 9.94 60.4692 10.3267 60.9092 10.82C61.3492 11.3133 61.6892 11.8933 61.9292 12.56C62.1826 13.2267 62.3092 13.9467 62.3092 14.72C62.3092 15.5067 62.1826 16.24 61.9292 16.92C61.6759 17.6 61.3226 18.1933 60.8692 18.7C60.4159 19.2067 59.8826 19.6 59.2692 19.88C58.6692 20.16 58.0159 20.3 57.3092 20.3C56.5759 20.3 55.9092 20.14 55.3092 19.82C54.7226 19.5 54.2492 19.0467 53.8892 18.46L53.7892 20H51.6892ZM56.9492 18.22C57.5226 18.22 58.0359 18.0733 58.4892 17.78C58.9426 17.4733 59.2959 17.06 59.5492 16.54C59.8159 16.02 59.9492 15.4267 59.9492 14.76C59.9492 14.0933 59.8159 13.5067 59.5492 13C59.2959 12.48 58.9426 12.0733 58.4892 11.78C58.0359 11.4733 57.5226 11.32 56.9492 11.32C56.3759 11.32 55.8626 11.4733 55.4092 11.78C54.9559 12.0733 54.5959 12.48 54.3292 13C54.0759 13.5067 53.9492 14.0933 53.9492 14.76C53.9492 15.4267 54.0759 16.02 54.3292 16.54C54.5959 17.06 54.9559 17.4733 55.4092 17.78C55.8626 18.0733 56.3759 18.22 56.9492 18.22ZM65.4134 24.16C65.0801 24.16 64.7668 24.1267 64.4734 24.06C64.1934 23.9933 63.9201 23.8867 63.6534 23.74L64.1534 21.92C64.3001 21.9867 64.4668 22.04 64.6534 22.08C64.8401 22.1333 65.0201 22.16 65.1934 22.16C65.5934 22.16 65.9401 22.0467 66.2334 21.82C66.5401 21.5933 66.7934 21.2267 66.9934 20.72L67.3134 19.9L63.0534 9.54H65.5734L68.3934 17.36L70.9534 9.54H73.3934L68.9534 21.26C68.5668 22.26 68.0801 22.9933 67.4934 23.46C66.9201 23.9267 66.2268 24.16 65.4134 24.16ZM113.392 20V5.8H118.572C119.692 5.8 120.712 5.97333 121.632 6.32C122.566 6.65333 123.359 7.13333 124.012 7.76C124.679 8.37333 125.192 9.11333 125.552 9.98C125.912 10.8467 126.092 11.8133 126.092 12.88C126.092 13.9467 125.912 14.92 125.552 15.8C125.192 16.6667 124.679 17.4133 124.012 18.04C123.346 18.6667 122.552 19.1533 121.632 19.5C120.712 19.8333 119.692 20 118.572 20H113.392ZM115.832 17.82H118.452C119.506 17.82 120.412 17.62 121.172 17.22C121.932 16.82 122.519 16.2533 122.932 15.52C123.359 14.7733 123.572 13.9 123.572 12.9C123.572 11.9 123.359 11.0333 122.932 10.3C122.519 9.55333 121.926 8.98 121.152 8.58C120.392 8.18 119.492 7.98 118.452 7.98H115.832V17.82ZM132.592 20.3C131.792 20.3 131.045 20.16 130.352 19.88C129.672 19.5867 129.092 19.18 128.612 18.66C128.132 18.14 127.792 17.52 127.592 16.8L129.892 16.24C130.105 16.8533 130.445 17.3267 130.912 17.66C131.378 17.9933 131.945 18.16 132.612 18.16C133.092 18.16 133.518 18.0667 133.892 17.88C134.265 17.6933 134.558 17.44 134.772 17.12C134.998 16.8 135.112 16.4333 135.112 16.02C135.112 15.5133 134.925 15.0933 134.552 14.76C134.192 14.4133 133.618 14.1533 132.832 13.98L132.092 13.82C130.678 13.5133 129.632 13.0067 128.952 12.3C128.285 11.5933 127.952 10.7333 127.952 9.72C127.952 9.10667 128.072 8.54667 128.312 8.04C128.552 7.52 128.885 7.07333 129.312 6.7C129.738 6.31333 130.238 6.02 130.812 5.82C131.385 5.60667 132.005 5.5 132.672 5.5C133.432 5.5 134.132 5.64 134.772 5.92C135.412 6.2 135.958 6.6 136.412 7.12C136.865 7.62667 137.185 8.23333 137.372 8.94L135.092 9.5C134.878 8.9 134.558 8.44 134.132 8.12C133.705 7.8 133.198 7.64 132.612 7.64C132.185 7.64 131.805 7.72667 131.472 7.9C131.152 8.06 130.892 8.28667 130.692 8.58C130.505 8.86 130.412 9.18 130.412 9.54C130.412 10.06 130.605 10.4733 130.992 10.78C131.378 11.0867 131.972 11.3333 132.772 11.52L133.512 11.68C136.232 12.2933 137.592 13.6733 137.592 15.82C137.592 16.4733 137.465 17.08 137.212 17.64C136.972 18.1867 136.625 18.66 136.172 19.06C135.718 19.4467 135.185 19.7533 134.572 19.98C133.972 20.1933 133.312 20.3 132.592 20.3ZM146.278 20.4C145.278 20.4 144.351 20.22 143.498 19.86C142.658 19.4867 141.925 18.9667 141.298 18.3C140.685 17.6333 140.205 16.8533 139.858 15.96C139.511 15.0533 139.338 14.0667 139.338 13C139.338 12.1467 139.451 11.34 139.678 10.58C139.905 9.80667 140.225 9.10667 140.638 8.48C141.065 7.84 141.565 7.29333 142.138 6.84C142.711 6.37333 143.345 6.02 144.038 5.78C144.745 5.52667 145.491 5.4 146.278 5.4C147.198 5.4 148.051 5.56667 148.838 5.9C149.638 6.22 150.325 6.68 150.898 7.28C151.485 7.86667 151.925 8.56667 152.218 9.38L149.878 10.04C149.531 9.28 149.038 8.69333 148.398 8.28C147.771 7.85333 147.058 7.64 146.258 7.64C145.631 7.64 145.051 7.77333 144.518 8.04C143.985 8.30667 143.518 8.68 143.118 9.16C142.718 9.64 142.405 10.2067 142.178 10.86C141.965 11.5133 141.858 12.22 141.858 12.98C141.858 13.74 141.965 14.44 142.178 15.08C142.405 15.7067 142.711 16.2533 143.098 16.72C143.498 17.1733 143.965 17.5267 144.498 17.78C145.045 18.0333 145.645 18.16 146.298 18.16C147.125 18.16 147.851 17.9533 148.478 17.54C149.118 17.1267 149.631 16.5333 150.018 15.76L152.358 16.42C152.051 17.2333 151.605 17.94 151.018 18.54C150.431 19.14 149.731 19.6 148.918 19.92C148.105 20.24 147.225 20.4 146.278 20.4ZM162.324 20.3C161.564 20.3 160.87 20.16 160.244 19.88C159.63 19.5867 159.104 19.1733 158.664 18.64C158.224 18.1067 157.89 17.4533 157.664 16.68L160.024 16.18C160.49 17.46 161.264 18.1 162.344 18.1C162.784 18.1 163.164 17.9933 163.484 17.78C163.817 17.5533 164.07 17.24 164.244 16.84C164.417 16.44 164.504 15.9733 164.504 15.44V5.8H166.944V15.38C166.944 16.1133 166.83 16.7867 166.604 17.4C166.39 18 166.077 18.52 165.664 18.96C165.264 19.3867 164.777 19.72 164.204 19.96C163.644 20.1867 163.017 20.3 162.324 20.3ZM173.764 20.3C172.964 20.3 172.217 20.16 171.524 19.88C170.844 19.5867 170.264 19.18 169.784 18.66C169.304 18.14 168.964 17.52 168.764 16.8L171.064 16.24C171.277 16.8533 171.617 17.3267 172.084 17.66C172.55 17.9933 173.117 18.16 173.784 18.16C174.264 18.16 174.69 18.0667 175.064 17.88C175.437 17.6933 175.73 17.44 175.944 17.12C176.17 16.8 176.284 16.4333 176.284 16.02C176.284 15.5133 176.097 15.0933 175.724 14.76C175.364 14.4133 174.79 14.1533 174.004 13.98L173.264 13.82C171.85 13.5133 170.804 13.0067 170.124 12.3C169.457 11.5933 169.124 10.7333 169.124 9.72C169.124 9.10667 169.244 8.54667 169.484 8.04C169.724 7.52 170.057 7.07333 170.484 6.7C170.91 6.31333 171.41 6.02 171.984 5.82C172.557 5.60667 173.177 5.5 173.844 5.5C174.604 5.5 175.304 5.64 175.944 5.92C176.584 6.2 177.13 6.6 177.584 7.12C178.037 7.62667 178.357 8.23333 178.544 8.94L176.264 9.5C176.05 8.9 175.73 8.44 175.304 8.12C174.877 7.8 174.37 7.64 173.784 7.64C173.357 7.64 172.977 7.72667 172.644 7.9C172.324 8.06 172.064 8.28667 171.864 8.58C171.677 8.86 171.584 9.18 171.584 9.54C171.584 10.06 171.777 10.4733 172.164 10.78C172.55 11.0867 173.144 11.3333 173.944 11.52L174.684 11.68C177.404 12.2933 178.764 13.6733 178.764 15.82C178.764 16.4733 178.637 17.08 178.384 17.64C178.144 18.1867 177.797 18.66 177.344 19.06C176.89 19.4467 176.357 19.7533 175.744 19.98C175.144 20.1933 174.484 20.3 173.764 20.3ZM185.053 20.3C184.253 20.3 183.506 20.16 182.813 19.88C182.133 19.5867 181.553 19.18 181.073 18.66C180.593 18.14 180.253 17.52 180.053 16.8L182.353 16.24C182.566 16.8533 182.906 17.3267 183.373 17.66C183.839 17.9933 184.406 18.16 185.073 18.16C185.553 18.16 185.979 18.0667 186.353 17.88C186.726 17.6933 187.019 17.44 187.233 17.12C187.459 16.8 187.573 16.4333 187.573 16.02C187.573 15.5133 187.386 15.0933 187.013 14.76C186.653 14.4133 186.079 14.1533 185.293 13.98L184.553 13.82C183.139 13.5133 182.093 13.0067 181.413 12.3C180.746 11.5933 180.413 10.7333 180.413 9.72C180.413 9.10667 180.533 8.54667 180.773 8.04C181.013 7.52 181.346 7.07333 181.773 6.7C182.199 6.31333 182.699 6.02 183.273 5.82C183.846 5.60667 184.466 5.5 185.133 5.5C185.893 5.5 186.593 5.64 187.233 5.92C187.873 6.2 188.419 6.6 188.873 7.12C189.326 7.62667 189.646 8.23333 189.833 8.94L187.553 9.5C187.339 8.9 187.019 8.44 186.593 8.12C186.166 7.8 185.659 7.64 185.073 7.64C184.646 7.64 184.266 7.72667 183.933 7.9C183.613 8.06 183.353 8.28667 183.153 8.58C182.966 8.86 182.873 9.18 182.873 9.54C182.873 10.06 183.066 10.4733 183.453 10.78C183.839 11.0867 184.433 11.3333 185.233 11.52L185.973 11.68C188.693 12.2933 190.053 13.6733 190.053 15.82C190.053 16.4733 189.926 17.08 189.673 17.64C189.433 18.1867 189.086 18.66 188.633 19.06C188.179 19.4467 187.646 19.7533 187.033 19.98C186.433 20.1933 185.773 20.3 185.053 20.3ZM191.025 20L196.685 5.8H199.285L204.965 20H202.445L201.105 16.48H194.785L193.445 20H191.025ZM195.585 14.4H200.305L197.945 8.26L195.585 14.4ZM208.633 20V7.98H204.493V5.8H215.213V7.98H211.073V20H208.633ZM217.494 20V5.8H226.094V7.9H219.894V11.62H225.494V13.72H219.894V17.9H226.294V20H217.494Z" fill="#5A5A5A"/>
<rect x="80.6475" y="12.8052" width="12.896" height="4.22454" rx="2.11227" transform="rotate(-30 80.6475 12.8052)" fill="#DB4437"/>
<rect x="82.7393" y="10.6993" width="12.896" height="4.22454" rx="2.11227" transform="rotate(29.5587 82.7393 10.6993)" fill="#4285F4"/>
<rect x="108.938" y="14.2215" width="12.896" height="4.22454" rx="2.11227" transform="rotate(150 108.938 14.2215)" fill="#F4B400"/>
<rect x="106.846" y="16.3274" width="12.896" height="4.22454" rx="2.11227" transform="rotate(-150.441 106.846 16.3274)" fill="#0F9D58"/>
</svg>
