<svg width="252" height="75" viewBox="0 0 252 75" fill="none" xmlns="http://www.w3.org/2000/svg">
<g filter="url(#filter0_d)">
<rect x="15" y="11" width="222" height="45" rx="5" fill="url(#paint0_radial)"/>
</g>
<path d="M64.743 40.255C64.063 40.255 63.4283 40.136 62.839 39.898C62.261 39.6487 61.768 39.303 61.36 38.861C60.952 38.419 60.663 37.892 60.493 37.28L62.448 36.804C62.6293 37.3253 62.9183 37.7277 63.315 38.011C63.7117 38.2943 64.1933 38.436 64.76 38.436C65.168 38.436 65.5307 38.3567 65.848 38.198C66.1653 38.0393 66.4147 37.824 66.596 37.552C66.7887 37.28 66.885 36.9683 66.885 36.617C66.885 36.1863 66.7263 35.8293 66.409 35.546C66.103 35.2513 65.6157 35.0303 64.947 34.883L64.318 34.747C63.1167 34.4863 62.227 34.0557 61.649 33.455C61.0823 32.8543 60.799 32.1233 60.799 31.262C60.799 30.7407 60.901 30.2647 61.105 29.834C61.309 29.392 61.5923 29.0123 61.955 28.695C62.3177 28.3663 62.7427 28.117 63.23 27.947C63.7173 27.7657 64.2443 27.675 64.811 27.675C65.457 27.675 66.052 27.794 66.596 28.032C67.14 28.27 67.6047 28.61 67.99 29.052C68.3753 29.4827 68.6473 29.9983 68.806 30.599L66.868 31.075C66.6867 30.565 66.4147 30.174 66.052 29.902C65.6893 29.63 65.2587 29.494 64.76 29.494C64.3973 29.494 64.0743 29.5677 63.791 29.715C63.519 29.851 63.298 30.0437 63.128 30.293C62.9693 30.531 62.89 30.803 62.89 31.109C62.89 31.551 63.0543 31.9023 63.383 32.163C63.7117 32.4237 64.216 32.6333 64.896 32.792L65.525 32.928C67.837 33.4493 68.993 34.6223 68.993 36.447C68.993 37.0023 68.8853 37.518 68.67 37.994C68.466 38.4587 68.1713 38.861 67.786 39.201C67.4007 39.5297 66.9473 39.7903 66.426 39.983C65.916 40.1643 65.355 40.255 64.743 40.255ZM72.8087 28.627C72.8087 28.8423 72.752 29.0407 72.6387 29.222C72.5367 29.4033 72.395 29.5507 72.2137 29.664C72.0324 29.766 71.834 29.817 71.6187 29.817C71.4034 29.817 71.205 29.766 71.0237 29.664C70.8424 29.5507 70.695 29.4033 70.5817 29.222C70.4797 29.0407 70.4287 28.8423 70.4287 28.627C70.4287 28.4117 70.4797 28.2133 70.5817 28.032C70.695 27.8507 70.8424 27.709 71.0237 27.607C71.205 27.4937 71.4034 27.437 71.6187 27.437C71.834 27.437 72.0324 27.4937 72.2137 27.607C72.395 27.709 72.5367 27.8507 72.6387 28.032C72.752 28.2133 72.8087 28.4117 72.8087 28.627ZM70.6497 40V31.109H72.6047V40H70.6497ZM78.4231 39.83C77.8451 39.83 77.3068 39.7167 76.8081 39.49C76.3094 39.2633 75.8731 38.9517 75.4991 38.555C75.1251 38.147 74.8361 37.6767 74.6321 37.144C74.4281 36.6 74.3261 36.0107 74.3261 35.376C74.3261 34.7413 74.4281 34.152 74.6321 33.608C74.8474 33.0527 75.1478 32.571 75.5331 32.163C75.9184 31.755 76.3661 31.4377 76.8761 31.211C77.3861 30.973 77.9358 30.854 78.5251 30.854C79.1371 30.854 79.6924 30.99 80.1911 31.262C80.7011 31.5227 81.1091 31.891 81.4151 32.367L81.4831 31.109H83.2681V39.065C83.2681 39.745 83.1604 40.3627 82.9451 40.918C82.7298 41.4847 82.4238 41.9663 82.0271 42.363C81.6304 42.771 81.1544 43.0827 80.5991 43.298C80.0551 43.5133 79.4431 43.621 78.7631 43.621C77.8564 43.621 77.0631 43.417 76.3831 43.009C75.7031 42.601 75.1704 42.0343 74.7851 41.309L76.6381 40.663C76.8874 41.071 77.1991 41.377 77.5731 41.581C77.9471 41.7963 78.3664 41.904 78.8311 41.904C79.3298 41.904 79.7661 41.7907 80.1401 41.564C80.5141 41.3487 80.8031 41.037 81.0071 40.629C81.2111 40.2323 81.3131 39.762 81.3131 39.218V38.368C80.9958 38.8213 80.5878 39.1783 80.0891 39.439C79.5904 39.6997 79.0351 39.83 78.4231 39.83ZM78.8311 38.062C79.3071 38.062 79.7321 37.943 80.1061 37.705C80.4914 37.467 80.7918 37.144 81.0071 36.736C81.2338 36.328 81.3471 35.8633 81.3471 35.342C81.3471 34.8207 81.2338 34.356 81.0071 33.948C80.7918 33.54 80.4914 33.217 80.1061 32.979C79.7321 32.741 79.3071 32.622 78.8311 32.622C78.3551 32.622 77.9301 32.741 77.5561 32.979C77.1821 33.217 76.8818 33.54 76.6551 33.948C76.4398 34.356 76.3321 34.8207 76.3321 35.342C76.3321 35.8633 76.4398 36.328 76.6551 36.736C76.8818 37.144 77.1821 37.467 77.5561 37.705C77.9301 37.943 78.3551 38.062 78.8311 38.062ZM85.3753 40V31.109H87.1603L87.2283 32.333C87.489 31.8797 87.8516 31.5227 88.3163 31.262C88.7923 30.99 89.3363 30.854 89.9483 30.854C90.617 30.854 91.195 31.0127 91.6823 31.33C92.181 31.6473 92.5663 32.095 92.8383 32.673C93.1103 33.251 93.2463 33.931 93.2463 34.713V40H91.2913V34.934C91.2913 34.2087 91.127 33.642 90.7983 33.234C90.481 32.826 90.0333 32.622 89.4553 32.622C89.0473 32.622 88.679 32.7183 88.3503 32.911C88.033 33.1037 87.7836 33.3643 87.6023 33.693C87.421 34.0217 87.3303 34.4013 87.3303 34.832V40H85.3753ZM103.97 40.34C103.199 40.34 102.508 40.221 101.896 39.983C101.284 39.745 100.757 39.3993 100.315 38.946C99.8843 38.4927 99.55 37.9543 99.312 37.331C99.0853 36.6963 98.972 35.988 98.972 35.206V27.93H101.046V35.121C101.046 35.801 101.165 36.3903 101.403 36.889C101.652 37.3763 101.998 37.756 102.44 38.028C102.882 38.3 103.403 38.436 104.004 38.436C104.605 38.436 105.126 38.3 105.568 38.028C106.01 37.756 106.35 37.3763 106.588 36.889C106.837 36.3903 106.962 35.801 106.962 35.121V27.93H109.036V35.206C109.036 35.988 108.917 36.6963 108.679 37.331C108.441 37.9543 108.095 38.4927 107.642 38.946C107.2 39.388 106.667 39.7337 106.044 39.983C105.432 40.221 104.741 40.34 103.97 40.34ZM111.141 43.366V31.109H112.926L113.011 32.537C113.328 32.0157 113.748 31.6077 114.269 31.313C114.79 31.007 115.374 30.854 116.02 30.854C116.609 30.854 117.153 30.973 117.652 31.211C118.162 31.449 118.604 31.7777 118.978 32.197C119.352 32.6163 119.641 33.1093 119.845 33.676C120.06 34.2427 120.168 34.8547 120.168 35.512C120.168 36.1807 120.06 36.804 119.845 37.382C119.63 37.96 119.329 38.4643 118.944 38.895C118.559 39.3257 118.105 39.66 117.584 39.898C117.074 40.136 116.519 40.255 115.918 40.255C115.329 40.255 114.79 40.1303 114.303 39.881C113.816 39.6317 113.413 39.2803 113.096 38.827V43.366H111.141ZM115.612 38.487C116.099 38.487 116.536 38.3623 116.921 38.113C117.306 37.8523 117.607 37.501 117.822 37.059C118.049 36.617 118.162 36.1127 118.162 35.546C118.162 34.9793 118.049 34.4807 117.822 34.05C117.607 33.608 117.306 33.2623 116.921 33.013C116.536 32.7523 116.099 32.622 115.612 32.622C115.125 32.622 114.688 32.7523 114.303 33.013C113.918 33.2623 113.612 33.608 113.385 34.05C113.17 34.4807 113.062 34.9793 113.062 35.546C113.062 36.1127 113.17 36.617 113.385 37.059C113.612 37.501 113.918 37.8523 114.303 38.113C114.688 38.3623 115.125 38.487 115.612 38.487ZM126.3 40V32.69H124.736V31.109H126.3V30.48C126.3 29.8227 126.436 29.2503 126.708 28.763C126.98 28.2643 127.354 27.879 127.83 27.607C128.306 27.3237 128.85 27.182 129.462 27.182C129.814 27.182 130.131 27.2273 130.414 27.318C130.709 27.3973 130.97 27.4993 131.196 27.624L130.754 29.12C130.607 29.0407 130.437 28.9783 130.244 28.933C130.063 28.8763 129.882 28.848 129.7 28.848C129.213 28.848 128.85 29.001 128.612 29.307C128.374 29.6017 128.255 30.0267 128.255 30.582V31.109H130.805V32.69H128.255V40H126.3ZM136.14 40.255C135.494 40.255 134.893 40.1417 134.338 39.915C133.794 39.677 133.318 39.3483 132.91 38.929C132.502 38.4983 132.185 37.9997 131.958 37.433C131.731 36.855 131.618 36.226 131.618 35.546C131.618 34.8773 131.731 34.2597 131.958 33.693C132.185 33.115 132.502 32.6163 132.91 32.197C133.329 31.7663 133.817 31.4377 134.372 31.211C134.939 30.973 135.551 30.854 136.208 30.854C136.854 30.854 137.449 30.973 137.993 31.211C138.548 31.4377 139.03 31.7663 139.438 32.197C139.846 32.6163 140.163 33.1093 140.39 33.676C140.617 34.2427 140.73 34.866 140.73 35.546C140.73 36.226 140.617 36.855 140.39 37.433C140.163 37.9997 139.84 38.4983 139.421 38.929C139.013 39.3483 138.526 39.677 137.959 39.915C137.404 40.1417 136.797 40.255 136.14 40.255ZM136.174 38.487C136.661 38.487 137.098 38.3623 137.483 38.113C137.868 37.8523 138.169 37.501 138.384 37.059C138.611 36.617 138.724 36.1127 138.724 35.546C138.724 34.9793 138.611 34.4807 138.384 34.05C138.169 33.608 137.868 33.2623 137.483 33.013C137.098 32.7523 136.661 32.622 136.174 32.622C135.687 32.622 135.25 32.7523 134.865 33.013C134.48 33.2623 134.174 33.608 133.947 34.05C133.732 34.4807 133.624 34.9793 133.624 35.546C133.624 36.1127 133.732 36.617 133.947 37.059C134.174 37.501 134.48 37.8523 134.865 38.113C135.25 38.3623 135.687 38.487 136.174 38.487ZM142.451 40V31.109H144.236L144.321 32.571C144.548 32.0723 144.86 31.687 145.256 31.415C145.664 31.1317 146.14 30.99 146.684 30.99C146.854 30.99 147.019 31.0013 147.177 31.024C147.336 31.0467 147.478 31.0863 147.602 31.143L147.381 33.047C147.257 33.0017 147.126 32.9733 146.99 32.962C146.854 32.9393 146.718 32.928 146.582 32.928C145.902 32.928 145.37 33.1547 144.984 33.608C144.599 34.0613 144.406 34.6903 144.406 35.495V40H142.451ZM152.646 40V27.93H160.041V30.14H155.111V33.115H159.497V35.308H155.111V40H152.646ZM161.876 40V27.93H165.752C166.738 27.93 167.588 28.0887 168.302 28.406C169.028 28.712 169.583 29.1597 169.968 29.749C170.354 30.327 170.546 31.0127 170.546 31.806C170.546 32.2707 170.461 32.7183 170.291 33.149C170.121 33.5683 169.883 33.9537 169.577 34.305C169.271 34.645 168.903 34.9283 168.472 35.155L171.209 40H168.421L166.262 35.818C166.047 35.8293 165.815 35.835 165.565 35.835C165.203 35.835 164.806 35.801 164.375 35.733V40H161.876ZM164.375 30.072V33.625C164.591 33.659 164.806 33.6873 165.021 33.71C165.237 33.7213 165.463 33.727 165.701 33.727C166.427 33.727 166.988 33.5683 167.384 33.251C167.781 32.9223 167.979 32.469 167.979 31.891C167.979 31.313 167.781 30.8653 167.384 30.548C166.988 30.2307 166.427 30.072 165.701 30.072H164.375ZM172.601 40V27.93H180.166V30.089H175.049V32.724H179.622V34.883H175.049V37.841H180.336V40H172.601ZM182.363 40V27.93H189.928V30.089H184.811V32.724H189.384V34.883H184.811V37.841H190.098V40H182.363Z" fill="white"/>
<defs>
<filter id="filter0_d" x="0" y="0" width="252" height="75" filterUnits="userSpaceOnUse" color-interpolation-filters="sRGB">
<feFlood flood-opacity="0" result="BackgroundImageFix"/>
<feColorMatrix in="SourceAlpha" type="matrix" values="0 0 0 0 0 0 0 0 0 0 0 0 0 0 0 0 0 0 127 0"/>
<feOffset dy="4"/>
<feGaussianBlur stdDeviation="7.5"/>
<feColorMatrix type="matrix" values="0 0 0 0 0 0 0 0 0 0 0 0 0 0 0 0 0 0 0.05 0"/>
<feBlend mode="normal" in2="BackgroundImageFix" result="effect1_dropShadow"/>
<feBlend mode="normal" in="SourceGraphic" in2="effect1_dropShadow" result="shape"/>
</filter>
<radialGradient id="paint0_radial" cx="0" cy="0" r="1" gradientUnits="userSpaceOnUse" gradientTransform="translate(240.208 53.7501) rotate(179.518) scale(267.564 1014.54)">
<stop stop-color="#6563EF"/>
<stop offset="1" stop-color="#4285F4"/>
</radialGradient>
</defs>
</svg>
