<svg width="183" height="75" viewBox="0 0 183 75" fill="none" xmlns="http://www.w3.org/2000/svg">
<g filter="url(#filter0_d)">
<rect x="15" y="11" width="153" height="45" rx="5" fill="url(#paint0_radial)"/>
</g>
<path d="M65.743 39.255C65.063 39.255 64.4283 39.136 63.839 38.898C63.261 38.6487 62.768 38.303 62.36 37.861C61.952 37.419 61.663 36.892 61.493 36.28L63.448 35.804C63.6293 36.3253 63.9183 36.7277 64.315 37.011C64.7117 37.2943 65.1933 37.436 65.76 37.436C66.168 37.436 66.5307 37.3567 66.848 37.198C67.1653 37.0393 67.4147 36.824 67.596 36.552C67.7887 36.28 67.885 35.9683 67.885 35.617C67.885 35.1863 67.7263 34.8293 67.409 34.546C67.103 34.2513 66.6157 34.0303 65.947 33.883L65.318 33.747C64.1167 33.4863 63.227 33.0557 62.649 32.455C62.0823 31.8543 61.799 31.1233 61.799 30.262C61.799 29.7407 61.901 29.2647 62.105 28.834C62.309 28.392 62.5923 28.0123 62.955 27.695C63.3177 27.3663 63.7427 27.117 64.23 26.947C64.7173 26.7657 65.2443 26.675 65.811 26.675C66.457 26.675 67.052 26.794 67.596 27.032C68.14 27.27 68.6047 27.61 68.99 28.052C69.3753 28.4827 69.6473 28.9983 69.806 29.599L67.868 30.075C67.6867 29.565 67.4147 29.174 67.052 28.902C66.6893 28.63 66.2587 28.494 65.76 28.494C65.3973 28.494 65.0743 28.5677 64.791 28.715C64.519 28.851 64.298 29.0437 64.128 29.293C63.9693 29.531 63.89 29.803 63.89 30.109C63.89 30.551 64.0543 30.9023 64.383 31.163C64.7117 31.4237 65.216 31.6333 65.896 31.792L66.525 31.928C68.837 32.4493 69.993 33.6223 69.993 35.447C69.993 36.0023 69.8853 36.518 69.67 36.994C69.466 37.4587 69.1713 37.861 68.786 38.201C68.4007 38.5297 67.9473 38.7903 67.426 38.983C66.916 39.1643 66.355 39.255 65.743 39.255ZM73.8087 27.627C73.8087 27.8423 73.752 28.0407 73.6387 28.222C73.5367 28.4033 73.395 28.5507 73.2137 28.664C73.0324 28.766 72.834 28.817 72.6187 28.817C72.4034 28.817 72.205 28.766 72.0237 28.664C71.8424 28.5507 71.695 28.4033 71.5817 28.222C71.4797 28.0407 71.4287 27.8423 71.4287 27.627C71.4287 27.4117 71.4797 27.2133 71.5817 27.032C71.695 26.8507 71.8424 26.709 72.0237 26.607C72.205 26.4937 72.4034 26.437 72.6187 26.437C72.834 26.437 73.0324 26.4937 73.2137 26.607C73.395 26.709 73.5367 26.8507 73.6387 27.032C73.752 27.2133 73.8087 27.4117 73.8087 27.627ZM71.6497 39V30.109H73.6047V39H71.6497ZM79.4231 38.83C78.8451 38.83 78.3068 38.7167 77.8081 38.49C77.3094 38.2633 76.8731 37.9517 76.4991 37.555C76.1251 37.147 75.8361 36.6767 75.6321 36.144C75.4281 35.6 75.3261 35.0107 75.3261 34.376C75.3261 33.7413 75.4281 33.152 75.6321 32.608C75.8474 32.0527 76.1478 31.571 76.5331 31.163C76.9184 30.755 77.3661 30.4377 77.8761 30.211C78.3861 29.973 78.9358 29.854 79.5251 29.854C80.1371 29.854 80.6924 29.99 81.1911 30.262C81.7011 30.5227 82.1091 30.891 82.4151 31.367L82.4831 30.109H84.2681V38.065C84.2681 38.745 84.1604 39.3627 83.9451 39.918C83.7298 40.4847 83.4238 40.9663 83.0271 41.363C82.6304 41.771 82.1544 42.0827 81.5991 42.298C81.0551 42.5133 80.4431 42.621 79.7631 42.621C78.8564 42.621 78.0631 42.417 77.3831 42.009C76.7031 41.601 76.1704 41.0343 75.7851 40.309L77.6381 39.663C77.8874 40.071 78.1991 40.377 78.5731 40.581C78.9471 40.7963 79.3664 40.904 79.8311 40.904C80.3298 40.904 80.7661 40.7907 81.1401 40.564C81.5141 40.3487 81.8031 40.037 82.0071 39.629C82.2111 39.2323 82.3131 38.762 82.3131 38.218V37.368C81.9958 37.8213 81.5878 38.1783 81.0891 38.439C80.5904 38.6997 80.0351 38.83 79.4231 38.83ZM79.8311 37.062C80.3071 37.062 80.7321 36.943 81.1061 36.705C81.4914 36.467 81.7918 36.144 82.0071 35.736C82.2338 35.328 82.3471 34.8633 82.3471 34.342C82.3471 33.8207 82.2338 33.356 82.0071 32.948C81.7918 32.54 81.4914 32.217 81.1061 31.979C80.7321 31.741 80.3071 31.622 79.8311 31.622C79.3551 31.622 78.9301 31.741 78.5561 31.979C78.1821 32.217 77.8818 32.54 77.6551 32.948C77.4398 33.356 77.3321 33.8207 77.3321 34.342C77.3321 34.8633 77.4398 35.328 77.6551 35.736C77.8818 36.144 78.1821 36.467 78.5561 36.705C78.9301 36.943 79.3551 37.062 79.8311 37.062ZM86.3753 39V30.109H88.1603L88.2283 31.333C88.489 30.8797 88.8516 30.5227 89.3163 30.262C89.7923 29.99 90.3363 29.854 90.9483 29.854C91.617 29.854 92.195 30.0127 92.6823 30.33C93.181 30.6473 93.5663 31.095 93.8383 31.673C94.1103 32.251 94.2463 32.931 94.2463 33.713V39H92.2913V33.934C92.2913 33.2087 92.127 32.642 91.7983 32.234C91.481 31.826 91.0333 31.622 90.4553 31.622C90.0473 31.622 89.679 31.7183 89.3503 31.911C89.033 32.1037 88.7836 32.3643 88.6023 32.693C88.421 33.0217 88.3303 33.4013 88.3303 33.832V39H86.3753ZM104.97 39.34C104.199 39.34 103.508 39.221 102.896 38.983C102.284 38.745 101.757 38.3993 101.315 37.946C100.884 37.4927 100.55 36.9543 100.312 36.331C100.085 35.6963 99.972 34.988 99.972 34.206V26.93H102.046V34.121C102.046 34.801 102.165 35.3903 102.403 35.889C102.652 36.3763 102.998 36.756 103.44 37.028C103.882 37.3 104.403 37.436 105.004 37.436C105.605 37.436 106.126 37.3 106.568 37.028C107.01 36.756 107.35 36.3763 107.588 35.889C107.837 35.3903 107.962 34.801 107.962 34.121V26.93H110.036V34.206C110.036 34.988 109.917 35.6963 109.679 36.331C109.441 36.9543 109.095 37.4927 108.642 37.946C108.2 38.388 107.667 38.7337 107.044 38.983C106.432 39.221 105.741 39.34 104.97 39.34ZM112.141 42.366V30.109H113.926L114.011 31.537C114.328 31.0157 114.748 30.6077 115.269 30.313C115.79 30.007 116.374 29.854 117.02 29.854C117.609 29.854 118.153 29.973 118.652 30.211C119.162 30.449 119.604 30.7777 119.978 31.197C120.352 31.6163 120.641 32.1093 120.845 32.676C121.06 33.2427 121.168 33.8547 121.168 34.512C121.168 35.1807 121.06 35.804 120.845 36.382C120.63 36.96 120.329 37.4643 119.944 37.895C119.559 38.3257 119.105 38.66 118.584 38.898C118.074 39.136 117.519 39.255 116.918 39.255C116.329 39.255 115.79 39.1303 115.303 38.881C114.816 38.6317 114.413 38.2803 114.096 37.827V42.366H112.141ZM116.612 37.487C117.099 37.487 117.536 37.3623 117.921 37.113C118.306 36.8523 118.607 36.501 118.822 36.059C119.049 35.617 119.162 35.1127 119.162 34.546C119.162 33.9793 119.049 33.4807 118.822 33.05C118.607 32.608 118.306 32.2623 117.921 32.013C117.536 31.7523 117.099 31.622 116.612 31.622C116.125 31.622 115.688 31.7523 115.303 32.013C114.918 32.2623 114.612 32.608 114.385 33.05C114.17 33.4807 114.062 33.9793 114.062 34.546C114.062 35.1127 114.17 35.617 114.385 36.059C114.612 36.501 114.918 36.8523 115.303 37.113C115.688 37.3623 116.125 37.487 116.612 37.487Z" fill="white"/>
<defs>
<filter id="filter0_d" x="0" y="0" width="183" height="75" filterUnits="userSpaceOnUse" color-interpolation-filters="sRGB">
<feFlood flood-opacity="0" result="BackgroundImageFix"/>
<feColorMatrix in="SourceAlpha" type="matrix" values="0 0 0 0 0 0 0 0 0 0 0 0 0 0 0 0 0 0 127 0"/>
<feOffset dy="4"/>
<feGaussianBlur stdDeviation="7.5"/>
<feColorMatrix type="matrix" values="0 0 0 0 0 0 0 0 0 0 0 0 0 0 0 0 0 0 0.05 0"/>
<feBlend mode="normal" in2="BackgroundImageFix" result="effect1_dropShadow"/>
<feBlend mode="normal" in="SourceGraphic" in2="effect1_dropShadow" result="shape"/>
</filter>
<radialGradient id="paint0_radial" cx="0" cy="0" r="1" gradientUnits="userSpaceOnUse" gradientTransform="translate(170.211 53.7501) rotate(179.301) scale(184.41 1014.5)">
<stop stop-color="#6563EF"/>
<stop offset="1" stop-color="#4285F4"/>
</radialGradient>
</defs>
</svg>
