<svg width="102" height="29" viewBox="0 0 102 29" fill="none" xmlns="http://www.w3.org/2000/svg">
<path d="M42.43 22V6.38H52V9.24H45.62V13.09H51.296V15.928H45.62V22H42.43ZM59.2712 22.33C58.4058 22.33 57.6065 22.176 56.8732 21.868C56.1398 21.56 55.5018 21.1347 54.9592 20.592C54.4165 20.0347 53.9912 19.382 53.6832 18.634C53.3898 17.886 53.2432 17.072 53.2432 16.192C53.2432 15.312 53.3972 14.5053 53.7052 13.772C54.0132 13.024 54.4385 12.3713 54.9812 11.814C55.5385 11.2567 56.1838 10.824 56.9172 10.516C57.6652 10.208 58.4792 10.054 59.3592 10.054C60.2245 10.054 61.0238 10.208 61.7572 10.516C62.4905 10.824 63.1285 11.2567 63.6712 11.814C64.2138 12.3567 64.6318 13.002 64.9252 13.75C65.2332 14.4833 65.3872 15.29 65.3872 16.17C65.3872 17.05 65.2332 17.864 64.9252 18.612C64.6172 19.36 64.1845 20.0127 63.6272 20.57C63.0845 21.1273 62.4392 21.56 61.6912 21.868C60.9578 22.176 60.1512 22.33 59.2712 22.33ZM59.3152 19.558C59.8725 19.558 60.3712 19.4113 60.8112 19.118C61.2512 18.8247 61.5958 18.4287 61.8452 17.93C62.1092 17.4167 62.2412 16.8373 62.2412 16.192C62.2412 15.5467 62.1092 14.9747 61.8452 14.476C61.5958 13.9627 61.2512 13.5593 60.8112 13.266C60.3712 12.9727 59.8725 12.826 59.3152 12.826C58.7578 12.826 58.2592 12.9727 57.8192 13.266C57.3792 13.5593 57.0272 13.9627 56.7632 14.476C56.5138 14.9747 56.3892 15.5467 56.3892 16.192C56.3892 16.8373 56.5138 17.4167 56.7632 17.93C57.0272 18.4287 57.3792 18.8247 57.8192 19.118C58.2592 19.4113 58.7578 19.558 59.3152 19.558ZM67.4117 22V5.588H70.4917V22H67.4117ZM76.2547 7.238C76.2547 7.57533 76.174 7.876 76.0127 8.14C75.866 8.404 75.6533 8.61667 75.3747 8.778C75.1107 8.92467 74.8173 8.998 74.4947 8.998C74.172 8.998 73.8713 8.92467 73.5927 8.778C73.3287 8.61667 73.116 8.404 72.9547 8.14C72.808 7.876 72.7347 7.57533 72.7347 7.238C72.7347 6.90067 72.808 6.6 72.9547 6.336C73.116 6.072 73.3287 5.86667 73.5927 5.72C73.8713 5.55867 74.172 5.478 74.4947 5.478C74.8173 5.478 75.1107 5.55867 75.3747 5.72C75.6533 5.86667 75.866 6.072 76.0127 6.336C76.174 6.6 76.2547 6.90067 76.2547 7.238ZM72.9547 22V10.384H76.0347V22H72.9547ZM84.0856 22.33C83.2203 22.33 82.421 22.176 81.6876 21.868C80.9543 21.56 80.3163 21.1347 79.7736 20.592C79.231 20.0347 78.8056 19.382 78.4976 18.634C78.2043 17.886 78.0576 17.072 78.0576 16.192C78.0576 15.312 78.2116 14.5053 78.5196 13.772C78.8276 13.024 79.253 12.3713 79.7956 11.814C80.353 11.2567 80.9983 10.824 81.7316 10.516C82.4796 10.208 83.2936 10.054 84.1736 10.054C85.039 10.054 85.8383 10.208 86.5716 10.516C87.305 10.824 87.943 11.2567 88.4856 11.814C89.0283 12.3567 89.4463 13.002 89.7396 13.75C90.0476 14.4833 90.2016 15.29 90.2016 16.17C90.2016 17.05 90.0476 17.864 89.7396 18.612C89.4316 19.36 88.999 20.0127 88.4416 20.57C87.899 21.1273 87.2536 21.56 86.5056 21.868C85.7723 22.176 84.9656 22.33 84.0856 22.33ZM84.1296 19.558C84.687 19.558 85.1856 19.4113 85.6256 19.118C86.0656 18.8247 86.4103 18.4287 86.6596 17.93C86.9236 17.4167 87.0556 16.8373 87.0556 16.192C87.0556 15.5467 86.9236 14.9747 86.6596 14.476C86.4103 13.9627 86.0656 13.5593 85.6256 13.266C85.1856 12.9727 84.687 12.826 84.1296 12.826C83.5723 12.826 83.0736 12.9727 82.6336 13.266C82.1936 13.5593 81.8416 13.9627 81.5776 14.476C81.3283 14.9747 81.2036 15.5467 81.2036 16.192C81.2036 16.8373 81.3283 17.4167 81.5776 17.93C81.8416 18.4287 82.1936 18.8247 82.6336 19.118C83.0736 19.4113 83.5723 19.558 84.1296 19.558ZM96.4061 22.33C95.5848 22.33 94.8368 22.198 94.1621 21.934C93.5021 21.67 92.9375 21.296 92.4681 20.812C92.0135 20.328 91.6981 19.756 91.5221 19.096L94.2941 18.502C94.4408 18.9567 94.7048 19.316 95.0861 19.58C95.4675 19.844 95.9221 19.976 96.4501 19.976C96.9488 19.976 97.3595 19.866 97.6821 19.646C98.0048 19.426 98.1661 19.1253 98.1661 18.744C98.1661 18.4213 98.0195 18.1573 97.7261 17.952C97.4475 17.732 96.9781 17.5633 96.3181 17.446L95.7021 17.336C94.4408 17.116 93.4801 16.7053 92.8201 16.104C92.1748 15.5027 91.8521 14.74 91.8521 13.816C91.8521 13.0827 92.0428 12.4373 92.4241 11.88C92.8055 11.308 93.3335 10.8607 94.0081 10.538C94.6828 10.2153 95.4601 10.054 96.3401 10.054C97.1175 10.054 97.8215 10.186 98.4521 10.45C99.0975 10.6993 99.6328 11.0587 100.058 11.528C100.483 11.9973 100.777 12.562 100.938 13.222L98.1881 13.794C98.0415 13.354 97.7995 13.0093 97.4621 12.76C97.1395 12.5107 96.7581 12.386 96.3181 12.386C95.8635 12.386 95.4895 12.496 95.1961 12.716C94.9028 12.936 94.7561 13.2147 94.7561 13.552C94.7561 13.8453 94.8955 14.0947 95.1741 14.3C95.4675 14.4907 95.9588 14.6447 96.6481 14.762L97.2641 14.872C98.5108 15.092 99.4641 15.51 100.124 16.126C100.784 16.7273 101.114 17.4973 101.114 18.436C101.114 19.008 100.997 19.5287 100.762 19.998C100.542 20.4673 100.219 20.878 99.7941 21.23C99.3688 21.582 98.8701 21.8533 98.2981 22.044C97.7261 22.2347 97.0955 22.33 96.4061 22.33Z" fill="url(#paint0_linear)"/>
<path d="M21.9833 27H10.3304C9.62768 27 9.18673 26.2414 9.53453 25.6308L15.3775 15.3731C15.5311 15.1035 15.5377 14.7744 15.395 14.4988L9.61714 3.33695C9.2974 2.71927 9.75574 1.98462 10.4511 2.00025L21.9838 2.25941C22.3004 2.26652 22.5909 2.43672 22.7519 2.70945L29.691 14.4634C29.8643 14.7568 29.8603 15.1222 29.6806 15.4118L22.7617 26.5669C22.5946 26.8362 22.3002 27 21.9833 27Z" fill="url(#paint1_linear)"/>
<path d="M0.0817067 14.6274L6.25339 3.92981C6.48564 3.52726 7.06458 3.52141 7.3049 3.91919L11.0176 10.0643C11.1288 10.2484 11.135 10.4775 11.0337 10.6674L8.91047 14.6484C8.81325 14.8307 8.8148 15.0499 8.91461 15.2308L11.0208 19.0483C11.1293 19.2449 11.1211 19.4853 10.9995 19.674L7.29842 25.417C7.05422 25.796 6.49769 25.7887 6.26346 25.4035L0.0888898 15.2498C-0.0270016 15.0592 -0.0297554 14.8206 0.0817067 14.6274Z" fill="url(#paint2_linear)"/>
<defs>
<linearGradient id="paint0_linear" x1="71.5" y1="0" x2="71.5" y2="29" gradientUnits="userSpaceOnUse">
<stop stop-color="#4954D2"/>
<stop offset="1" stop-color="#D35FB6"/>
</linearGradient>
<linearGradient id="paint1_linear" x1="-0.939155" y1="-12.8026" x2="49.9717" y2="7.12728" gradientUnits="userSpaceOnUse">
<stop stop-color="#4654D3"/>
<stop offset="1" stop-color="#C51593"/>
</linearGradient>
<linearGradient id="paint2_linear" x1="-0.939155" y1="-12.8026" x2="49.9717" y2="7.12728" gradientUnits="userSpaceOnUse">
<stop stop-color="#4654D3"/>
<stop offset="1" stop-color="#C51593"/>
</linearGradient>
</defs>
</svg>
