<svg width="153" height="29" viewBox="0 0 153 29" fill="none" xmlns="http://www.w3.org/2000/svg">
<path d="M42.43 22V6.38H48.502C49.734 6.38 50.856 6.57067 51.868 6.952C52.88 7.31867 53.7527 7.84667 54.486 8.536C55.2193 9.22533 55.784 10.0467 56.18 11C56.576 11.9533 56.774 13.0093 56.774 14.168C56.774 15.3267 56.5687 16.39 56.158 17.358C55.762 18.3113 55.1973 19.14 54.464 19.844C53.7307 20.5333 52.8507 21.0687 51.824 21.45C50.812 21.8167 49.69 22 48.458 22H42.43ZM45.708 19.096H48.304C49.3453 19.096 50.2473 18.898 51.01 18.502C51.7727 18.106 52.3593 17.5413 52.77 16.808C53.1807 16.0747 53.386 15.202 53.386 14.19C53.386 13.178 53.1807 12.3053 52.77 11.572C52.3593 10.8387 51.7727 10.274 51.01 9.878C50.2473 9.482 49.3453 9.284 48.304 9.284H45.708V19.096ZM63.9414 22.33C63.0027 22.33 62.1374 22.1687 61.3454 21.846C60.568 21.5087 59.9007 21.0393 59.3434 20.438C58.8007 19.822 58.4267 19.0887 58.2214 18.238L61.2794 17.578C61.47 18.1793 61.8 18.6487 62.2694 18.986C62.7534 19.3233 63.3254 19.492 63.9854 19.492C64.4547 19.492 64.8654 19.4113 65.2174 19.25C65.584 19.074 65.8627 18.8393 66.0534 18.546C66.2587 18.2527 66.3614 17.9153 66.3614 17.534C66.3614 17.05 66.178 16.6613 65.8114 16.368C65.4447 16.06 64.8507 15.8107 64.0294 15.62L63.3254 15.466C61.712 15.114 60.524 14.5493 59.7614 13.772C58.9987 12.98 58.6174 12.0193 58.6174 10.89C58.6174 10.186 58.7567 9.54067 59.0354 8.954C59.314 8.36733 59.6954 7.86133 60.1794 7.436C60.678 6.996 61.2574 6.65867 61.9174 6.424C62.5774 6.17467 63.2887 6.05 64.0514 6.05C64.9167 6.05 65.7234 6.21133 66.4714 6.534C67.2194 6.85667 67.85 7.31867 68.3634 7.92C68.8767 8.52133 69.2214 9.23267 69.3974 10.054L66.3834 10.714C66.2074 10.1273 65.8994 9.68 65.4594 9.372C65.034 9.04933 64.5354 8.888 63.9634 8.888C63.5674 8.888 63.208 8.96867 62.8854 9.13C62.5774 9.27667 62.328 9.48933 62.1374 9.768C61.9614 10.032 61.8734 10.3327 61.8734 10.67C61.8734 11.1833 62.0714 11.5793 62.4674 11.858C62.8634 12.122 63.45 12.342 64.2274 12.518L64.9314 12.672C66.53 13.024 67.7107 13.5813 68.4734 14.344C69.2507 15.1067 69.6394 16.082 69.6394 17.27C69.6394 18.018 69.4927 18.7 69.1994 19.316C68.9207 19.932 68.5247 20.4673 68.0114 20.922C67.498 21.3767 66.8967 21.7287 66.2074 21.978C65.518 22.2127 64.7627 22.33 63.9414 22.33ZM79.21 22.44C78.3154 22.44 77.472 22.308 76.68 22.044C75.888 21.78 75.1694 21.406 74.524 20.922C73.8787 20.438 73.3214 19.866 72.852 19.206C72.3974 18.5313 72.0454 17.7833 71.796 16.962C71.5467 16.126 71.422 15.2387 71.422 14.3C71.422 13.3613 71.5467 12.474 71.796 11.638C72.06 10.7873 72.4267 10.0173 72.896 9.328C73.3654 8.624 73.9227 8.02267 74.568 7.524C75.2134 7.01067 75.9247 6.622 76.702 6.358C77.494 6.07933 78.33 5.94 79.21 5.94C80.0167 5.94 80.7794 6.05 81.498 6.27C82.2167 6.49 82.8694 6.80533 83.456 7.216C84.0427 7.62667 84.5487 8.118 84.974 8.69C85.414 9.262 85.744 9.90733 85.964 10.626L82.796 11.418C82.444 10.6407 81.9527 10.0393 81.322 9.614C80.6914 9.174 79.9727 8.954 79.166 8.954C78.55 8.954 77.9707 9.086 77.428 9.35C76.9 9.614 76.438 9.988 76.042 10.472C75.6607 10.9413 75.36 11.4987 75.14 12.144C74.92 12.7893 74.81 13.4933 74.81 14.256C74.81 15.0187 74.9127 15.7153 75.118 16.346C75.338 16.9767 75.646 17.5267 76.042 17.996C76.438 18.4507 76.9 18.8027 77.428 19.052C77.9707 19.3013 78.5647 19.426 79.21 19.426C80.046 19.426 80.7794 19.2207 81.41 18.81C82.0554 18.3847 82.5687 17.7687 82.95 16.962L86.118 17.754C85.81 18.7073 85.3187 19.536 84.644 20.24C83.984 20.944 83.192 21.4867 82.268 21.868C81.344 22.2493 80.3247 22.44 79.21 22.44Z" fill="url(#paint0_linear)"/>
<path d="M92.8323 22V6.38H102.402V9.24H96.0223V13.09H101.698V15.928H96.0223V22H92.8323ZM109.674 22.33C108.808 22.33 108.009 22.176 107.276 21.868C106.542 21.56 105.904 21.1347 105.362 20.592C104.819 20.0347 104.394 19.382 104.086 18.634C103.792 17.886 103.646 17.072 103.646 16.192C103.646 15.312 103.8 14.5053 104.108 13.772C104.416 13.024 104.841 12.3713 105.384 11.814C105.941 11.2567 106.586 10.824 107.32 10.516C108.068 10.208 108.882 10.054 109.762 10.054C110.627 10.054 111.426 10.208 112.16 10.516C112.893 10.824 113.531 11.2567 114.074 11.814C114.616 12.3567 115.034 13.002 115.328 13.75C115.636 14.4833 115.79 15.29 115.79 16.17C115.79 17.05 115.636 17.864 115.328 18.612C115.02 19.36 114.587 20.0127 114.03 20.57C113.487 21.1273 112.842 21.56 112.094 21.868C111.36 22.176 110.554 22.33 109.674 22.33ZM109.718 19.558C110.275 19.558 110.774 19.4113 111.214 19.118C111.654 18.8247 111.998 18.4287 112.248 17.93C112.512 17.4167 112.644 16.8373 112.644 16.192C112.644 15.5467 112.512 14.9747 112.248 14.476C111.998 13.9627 111.654 13.5593 111.214 13.266C110.774 12.9727 110.275 12.826 109.718 12.826C109.16 12.826 108.662 12.9727 108.222 13.266C107.782 13.5593 107.43 13.9627 107.166 14.476C106.916 14.9747 106.792 15.5467 106.792 16.192C106.792 16.8373 106.916 17.4167 107.166 17.93C107.43 18.4287 107.782 18.8247 108.222 19.118C108.662 19.4113 109.16 19.558 109.718 19.558ZM117.814 22V5.588H120.894V22H117.814ZM126.657 7.238C126.657 7.57533 126.576 7.876 126.415 8.14C126.268 8.404 126.056 8.61667 125.777 8.778C125.513 8.92467 125.22 8.998 124.897 8.998C124.574 8.998 124.274 8.92467 123.995 8.778C123.731 8.61667 123.518 8.404 123.357 8.14C123.21 7.876 123.137 7.57533 123.137 7.238C123.137 6.90067 123.21 6.6 123.357 6.336C123.518 6.072 123.731 5.86667 123.995 5.72C124.274 5.55867 124.574 5.478 124.897 5.478C125.22 5.478 125.513 5.55867 125.777 5.72C126.056 5.86667 126.268 6.072 126.415 6.336C126.576 6.6 126.657 6.90067 126.657 7.238ZM123.357 22V10.384H126.437V22H123.357ZM134.488 22.33C133.623 22.33 132.823 22.176 132.09 21.868C131.357 21.56 130.719 21.1347 130.176 20.592C129.633 20.0347 129.208 19.382 128.9 18.634C128.607 17.886 128.46 17.072 128.46 16.192C128.46 15.312 128.614 14.5053 128.922 13.772C129.23 13.024 129.655 12.3713 130.198 11.814C130.755 11.2567 131.401 10.824 132.134 10.516C132.882 10.208 133.696 10.054 134.576 10.054C135.441 10.054 136.241 10.208 136.974 10.516C137.707 10.824 138.345 11.2567 138.888 11.814C139.431 12.3567 139.849 13.002 140.142 13.75C140.45 14.4833 140.604 15.29 140.604 16.17C140.604 17.05 140.45 17.864 140.142 18.612C139.834 19.36 139.401 20.0127 138.844 20.57C138.301 21.1273 137.656 21.56 136.908 21.868C136.175 22.176 135.368 22.33 134.488 22.33ZM134.532 19.558C135.089 19.558 135.588 19.4113 136.028 19.118C136.468 18.8247 136.813 18.4287 137.062 17.93C137.326 17.4167 137.458 16.8373 137.458 16.192C137.458 15.5467 137.326 14.9747 137.062 14.476C136.813 13.9627 136.468 13.5593 136.028 13.266C135.588 12.9727 135.089 12.826 134.532 12.826C133.975 12.826 133.476 12.9727 133.036 13.266C132.596 13.5593 132.244 13.9627 131.98 14.476C131.731 14.9747 131.606 15.5467 131.606 16.192C131.606 16.8373 131.731 17.4167 131.98 17.93C132.244 18.4287 132.596 18.8247 133.036 19.118C133.476 19.4113 133.975 19.558 134.532 19.558ZM146.808 22.33C145.987 22.33 145.239 22.198 144.564 21.934C143.904 21.67 143.34 21.296 142.87 20.812C142.416 20.328 142.1 19.756 141.924 19.096L144.696 18.502C144.843 18.9567 145.107 19.316 145.488 19.58C145.87 19.844 146.324 19.976 146.852 19.976C147.351 19.976 147.762 19.866 148.084 19.646C148.407 19.426 148.568 19.1253 148.568 18.744C148.568 18.4213 148.422 18.1573 148.128 17.952C147.85 17.732 147.38 17.5633 146.72 17.446L146.104 17.336C144.843 17.116 143.882 16.7053 143.222 16.104C142.577 15.5027 142.254 14.74 142.254 13.816C142.254 13.0827 142.445 12.4373 142.826 11.88C143.208 11.308 143.736 10.8607 144.41 10.538C145.085 10.2153 145.862 10.054 146.742 10.054C147.52 10.054 148.224 10.186 148.854 10.45C149.5 10.6993 150.035 11.0587 150.46 11.528C150.886 11.9973 151.179 12.562 151.34 13.222L148.59 13.794C148.444 13.354 148.202 13.0093 147.864 12.76C147.542 12.5107 147.16 12.386 146.72 12.386C146.266 12.386 145.892 12.496 145.598 12.716C145.305 12.936 145.158 13.2147 145.158 13.552C145.158 13.8453 145.298 14.0947 145.576 14.3C145.87 14.4907 146.361 14.6447 147.05 14.762L147.666 14.872C148.913 15.092 149.866 15.51 150.526 16.126C151.186 16.7273 151.516 17.4973 151.516 18.436C151.516 19.008 151.399 19.5287 151.164 19.998C150.944 20.4673 150.622 20.878 150.196 21.23C149.771 21.582 149.272 21.8533 148.7 22.044C148.128 22.2347 147.498 22.33 146.808 22.33Z" fill="url(#paint1_linear)"/>
<path d="M21.9833 27H10.3304C9.62768 27 9.18673 26.2414 9.53453 25.6308L15.3775 15.3731C15.5311 15.1035 15.5377 14.7744 15.395 14.4988L9.61714 3.33695C9.2974 2.71927 9.75574 1.98462 10.4511 2.00025L21.9838 2.25941C22.3004 2.26652 22.5909 2.43672 22.7519 2.70945L29.691 14.4634C29.8643 14.7568 29.8603 15.1222 29.6806 15.4118L22.7617 26.5669C22.5946 26.8362 22.3002 27 21.9833 27Z" fill="url(#paint2_linear)"/>
<path d="M0.0817067 14.6274L6.25339 3.92981C6.48564 3.52726 7.06458 3.52141 7.3049 3.91919L11.0176 10.0643C11.1288 10.2484 11.135 10.4775 11.0337 10.6674L8.91047 14.6484C8.81325 14.8307 8.8148 15.0499 8.91461 15.2308L11.0208 19.0483C11.1293 19.2449 11.1211 19.4853 10.9995 19.674L7.29842 25.417C7.05422 25.796 6.49769 25.7887 6.26346 25.4035L0.0888898 15.2498C-0.0270016 15.0592 -0.0297554 14.8206 0.0817067 14.6274Z" fill="url(#paint3_linear)"/>
<defs>
<linearGradient id="paint0_linear" x1="37.4724" y1="-17.1711" x2="122.072" y2="90.0658" gradientUnits="userSpaceOnUse">
<stop stop-color="#4654D3"/>
<stop offset="1" stop-color="#C51593"/>
</linearGradient>
<linearGradient id="paint1_linear" x1="97" y1="0" x2="97" y2="29" gradientUnits="userSpaceOnUse">
<stop stop-color="#4954D2"/>
<stop offset="1" stop-color="#D35FB6"/>
</linearGradient>
<linearGradient id="paint2_linear" x1="-0.939155" y1="-12.8026" x2="49.9717" y2="7.12728" gradientUnits="userSpaceOnUse">
<stop stop-color="#4654D3"/>
<stop offset="1" stop-color="#C51593"/>
</linearGradient>
<linearGradient id="paint3_linear" x1="-0.939155" y1="-12.8026" x2="49.9717" y2="7.12728" gradientUnits="userSpaceOnUse">
<stop stop-color="#4654D3"/>
<stop offset="1" stop-color="#C51593"/>
</linearGradient>
</defs>
</svg>
