<svg width="271" height="310" viewBox="0 0 271 310" fill="none" xmlns="http://www.w3.org/2000/svg">
<mask id="mask0" mask-type="alpha" maskUnits="userSpaceOnUse" x="0" y="0" width="271" height="310">
<rect width="270.959" height="309.92" rx="17.0414" fill="#C4C4C4"/>
</mask>
<g mask="url(#mask0)">
<path fill-rule="evenodd" clip-rule="evenodd" d="M113.067 136.853C126.197 135.912 144.198 138.516 147.995 153.492C149.173 158.942 151.494 161.334 155.392 164.898C180.138 196.583 93.7995 201.909 89.3611 171.012C80.0107 174.418 69.8323 175.14 60.4762 178.583C55.4019 180.458 50.8006 183.417 46.3914 186.511C28.4112 199.287 10.6856 212.427 -7.23051 225.294C-0.297478 228.488 12.8839 240.682 7.51279 248.876C6.2616 250.472 4.40435 251.572 2.76144 252.739L1.89509 253.358C0.0313301 254.694 -3.10609 256.971 -4.84103 258.209L-5.161 258.442C-5.28645 258.533 -5.42797 258.635 -5.55579 258.726C6.95562 277.025 21.5981 293.91 37.8402 308.985C39.2232 310.271 38.6567 313.147 36.6551 313.482L34.2705 313.832C26.5707 314.954 18.7245 315.963 10.9652 315.354C3.40823 314.532 -1.1456 307.84 -6.31167 302.992C-16.6279 292.443 -26.2311 281.191 -34.978 269.304L-35.1602 269.054C-37.8825 265.332 -41.4959 261.529 -41.7603 256.723C-42.2426 255.278 -40.9734 253.208 -39.7538 252.223L-39.3375 251.622C-32.7963 242.211 -25.3934 233.135 -16.1184 226.319C-16.1529 225.304 -15.6836 224.236 -14.7542 223.563L24.0079 195.501C34.0092 188.616 43.305 180.524 54.1456 174.964C65.2305 169.625 77.7397 169.415 89.0993 164.959C89.3401 161.747 96.0896 160.927 95.8765 161.423C102.998 157.123 106.664 152.007 107.795 147.305C108.925 142.602 107.52 138.314 113.067 136.853ZM208.923 237.602C220.909 219.561 232.334 239.522 237.324 251.553C243.219 268.017 231.01 288.27 223.123 302.464C220.218 306.406 216.397 314.72 211.277 315.322C198.376 315.27 185.458 314.361 172.55 314.09C164.215 312.022 175.909 299.492 183.987 304.068C186.434 304.984 187.657 307.764 190.044 308.656C190.913 308.842 190.973 308.454 191.327 307.587L191.377 307.466C192.007 305.967 192.619 304.46 193.24 302.957C198.495 290.01 204.051 277.177 209.576 264.35C210.756 261.565 209.101 259.271 206.949 257.613C205.301 256.256 198.219 252.944 204.892 254.402C202.322 248.436 205.41 242.38 208.923 237.602ZM179.166 212.905C180.32 212.761 181.802 213.924 181.979 215.051C183.451 224.394 181.811 233.631 179.845 242.77L179.483 244.443C178.758 247.777 177.948 251.176 176.139 254.097C174.293 257.079 171.501 259.326 168.295 260.692C158.012 264.792 145.223 260.737 137.658 253.073C132.819 246.441 137.073 238.111 137.885 230.842C137.118 228.884 136.835 226.619 136.391 224.599L136.337 224.358L134.612 216.825C134.231 215.164 135.442 212.89 137.431 213.119C151.298 214.71 165.315 214.638 179.166 212.905Z" fill="#D08B5B"/>
<rect x="133.828" y="213.303" width="48.6949" height="48.9587" fill="#FDEA6B"/>
<path fill-rule="evenodd" clip-rule="evenodd" d="M227.595 235.242C227.553 235.056 227.776 234.914 227.92 235.054C230.36 237.406 232.083 240.412 233.974 243.198C235.775 245.851 237.735 248.402 239.079 251.33C240.327 254.052 241.132 256.813 241.371 259.804C241.611 262.774 241.3 265.751 240.777 268.676C239.747 274.438 237.544 279.895 235.127 285.195C232.776 290.347 230.12 295.352 227.316 300.267L226.31 302.022C225.084 304.158 223.845 306.29 222.517 308.359C220.866 310.935 219.358 313.593 217.181 315.742C215.634 317.272 212.72 315.742 213.424 313.556C213.73 312.604 213.97 311.708 214.445 310.824C214.805 310.151 215.211 309.497 215.592 308.834C216.356 307.508 217.112 306.176 217.875 304.849C219.478 302.061 221.167 299.324 222.755 296.526C225.51 291.674 228.111 286.732 230.411 281.645L230.682 281.045C232.798 276.334 234.804 271.455 235.734 266.36C236.712 260.992 235.836 255.932 233.93 250.887C232.944 248.277 231.835 245.726 230.683 243.185L230.461 242.7C229.348 240.275 228.168 237.863 227.595 235.242ZM109.124 142.387C109.146 142.291 109.308 142.284 109.323 142.387C110.008 146.945 108.483 151.767 106 155.559C104.644 157.63 102.973 159.5 101.003 161.003L100.849 161.119C98.8372 162.624 96.1183 164.078 93.6203 163.102C93.542 163.072 93.4686 163.038 93.4001 162.999C93.6815 163.434 93.9409 163.892 94.2052 164.35C94.9906 165.713 95.6954 167.126 96.4613 168.502C97.8316 170.962 99.4637 173.162 101.527 175.089C109.775 182.791 121.357 184.622 132.235 184.534L133.003 184.527C137.781 184.493 144.03 184.737 147.718 181.278C149.7 179.42 150.792 176.778 151.778 174.298C152.747 171.867 153.41 169.358 154.215 166.886C152.534 165.733 150.992 164.326 149.781 162.68C148.518 160.967 147.564 159.038 147.013 156.979L146.932 156.672C146.506 155.03 146.078 152.858 146.764 151.307C146.842 151.129 147.136 151.141 147.219 151.307C147.588 152.049 147.659 152.886 147.887 153.679C148.151 154.602 148.45 155.52 148.844 156.394C149.605 158.088 150.611 159.699 151.817 161.109C152.813 162.276 153.892 163.349 155.125 164.249C155.852 162.994 157.538 162.825 158.95 163.238C160.842 163.792 162.709 164.502 164.534 165.252L164.898 165.402C166.702 166.152 168.74 166.839 170.429 167.86C171.454 168.35 172.438 168.842 173.363 169.278C177.971 171.443 182.512 173.742 187.032 176.084L188 176.587C189.894 177.574 191.771 178.57 193.418 179.946C195.094 181.346 196.396 183.26 197.619 185.054C200.416 189.157 203.052 193.377 205.817 197.502C211.401 205.825 216.985 214.148 222.601 222.452C223.959 224.462 225.491 226.422 226.709 228.518C227.876 230.52 227.845 232.576 227.617 234.811L227.574 235.222C227.138 239.321 226.388 243.259 224.088 246.774C220.469 252.302 214.768 255.744 208.736 258.113C209.473 258.661 210.165 259.254 211.044 259.631C212.394 260.209 213.836 260.507 215.296 260.627C216.855 260.752 218.612 260.363 219.875 261.423C220.381 261.846 220.396 262.865 219.875 263.288C218.661 264.279 217.092 263.995 215.613 263.829L215.524 263.819C214.151 263.668 212.798 263.413 211.509 262.909C211.19 262.784 210.875 262.644 210.569 262.49C210.579 262.517 210.584 262.549 210.579 262.583C210.358 264.27 209.881 265.864 209.377 267.476L209.057 268.497C208.406 270.583 207.75 272.664 207.075 274.744C205.789 278.706 204.389 282.629 202.985 286.548L201.772 289.929C200.526 293.398 199.265 296.863 197.871 300.274C197.01 302.379 196.144 304.484 195.28 306.587C194.436 308.641 193.734 310.859 192.686 312.815C191.825 314.425 189.476 313.272 189.853 311.618C190.347 309.447 191.279 307.292 191.991 305.18C192.716 303.035 193.425 300.888 194.162 298.749C195.443 295.032 196.862 291.365 198.288 287.701L199.701 284.069C201.087 280.51 202.49 276.955 203.989 273.442L204.153 273.057C205.71 269.383 207.318 265.252 210.148 262.405C210.185 262.365 210.236 262.346 210.287 262.341C209.593 261.964 208.942 261.506 208.369 260.965L208.341 260.937C208.115 260.697 207.18 259.516 206.879 258.808C206.487 258.948 206.096 259.083 205.704 259.214C205.022 259.445 204.456 259.278 204.057 258.914L203.298 259.384C202.485 259.88 201.612 260.351 200.715 260.375C199.584 260.404 198.696 259.78 198.092 258.86C197.548 258.037 197.225 257.149 196.538 256.412C195.862 255.688 195.079 255.076 194.28 254.493L193.337 253.807C191.609 252.544 189.933 251.269 188.541 249.602C187.841 248.76 186.904 247.761 186.478 246.75C186.395 246.554 186.344 246.371 186.334 246.192C186.241 246.823 186.146 247.457 186.05 248.089C184.714 256.977 183.635 265.927 183.29 274.916C183.121 279.349 183.045 283.787 183.243 288.223C183.341 290.438 183.503 292.651 183.725 294.859C183.836 295.966 183.951 297.07 184.085 298.171L184.116 298.426C184.155 298.764 184.181 299.09 184.151 299.4C185.228 299.931 185.847 301.273 186.278 302.32C186.606 303.118 186.351 303.894 185.823 304.455C186.454 305.03 187.017 305.706 187.489 306.479C187.584 306.636 187.379 306.759 187.256 306.661C186.481 306.044 185.646 305.537 184.775 305.148C184.318 305.322 183.818 305.368 183.358 305.241C182.859 305.104 182.429 304.771 182.118 304.348C179.644 303.941 177.072 304.438 174.845 305.987C174.383 306.311 173.964 306.675 173.566 307.072C173.497 307.141 173.426 307.229 173.355 307.314L173.841 307.501C174.042 307.577 174.207 307.637 174.27 307.65C174.695 307.736 175.125 307.782 175.556 307.819L176.201 307.872C178.68 308.078 181.151 308.147 183.456 309.184C183.941 309.402 183.772 310.149 183.314 310.274C181.631 310.73 179.961 310.695 178.247 310.573L177.88 310.545C176.287 310.423 174.576 310.43 173.022 309.99C173.394 311.008 172.888 312.337 171.334 312.545C166.668 313.167 161.972 312.874 157.301 312.462C152.583 312.046 147.867 311.652 143.137 311.405C127.837 310.6 112.514 310.754 97.2 310.973L88.5461 311.098C81.6447 311.196 74.7421 311.271 67.841 311.219L64.6106 311.188C63.2454 311.175 61.8794 311.159 60.5158 311.118L59.6978 311.091C58.073 311.033 55.9221 311.277 54.5102 310.315C53.3455 309.522 53.0861 308.068 53.7884 306.896C53.9915 306.558 54.2704 306.257 54.5616 305.963C55.1587 300.859 55.4939 295.731 55.8365 290.605C57.0257 272.666 56.3308 254.821 53.5877 237.063C46.2272 239.313 38.9793 242.135 31.9173 245.164C28.0975 246.801 24.2974 248.5 20.5413 250.282C17.113 251.91 13.6701 253.944 10.007 255.002C9.67402 255.297 9.20843 255.438 8.79547 255.307L8.74192 255.288H8.73948C8.36264 255.376 7.9442 255.322 7.53311 255.075C7.44991 255.025 7.36671 254.974 7.28352 254.922L7.15872 254.843C5.86916 254.03 4.57227 253.029 3.65954 251.805C2.55106 252.833 1.35938 253.776 0.187275 254.73C-1.08516 255.768 -2.35269 256.811 -3.61044 257.863C-4.10962 258.282 -4.66019 258.681 -5.10065 259.163L-5.16463 259.234C-5.17487 259.246 -5.18466 259.257 -5.19363 259.269C-3.28743 260.502 -1.6186 262.375 -0.123489 264.003C1.48198 265.75 3.03194 267.553 4.56922 269.363L6.05743 271.118C16.581 283.55 27.2122 296.432 40.8365 305.569C42.9899 307.013 40.9368 310.531 38.7982 309.055C34.7509 306.267 30.9213 303.17 27.2435 299.911C20.7982 294.206 14.9989 287.804 9.569 281.134C6.82104 277.758 4.15383 274.299 1.54045 270.818L0.653477 269.637C-0.528515 268.062 -1.70424 266.483 -2.82985 264.867L-3.06536 264.528C-4.05269 263.103 -5.10265 261.502 -5.73931 259.861C-5.98401 260.108 -6.26052 260.316 -6.66427 260.473C-7.35432 260.742 -8.20097 260.177 -8.36982 259.504C-8.78091 257.871 -7.36166 256.899 -6.20668 256.032C-4.80456 254.985 -3.37553 253.974 -1.94404 252.968L-1.43272 252.606C0.35738 251.336 2.15688 250.032 4.10734 249.029C4.16607 248.951 4.23703 248.877 4.31778 248.813C4.41076 248.74 4.5013 248.669 4.59429 248.598C2.26476 244.818 -0.289886 241.186 -3.14062 237.753C-5.28417 235.171 -7.55986 232.706 -9.96769 230.371L-11.0494 229.323C-12.6855 227.742 -14.3867 226.139 -16.2026 224.765L-16.7711 225.41C-17.5301 226.269 -18.2967 227.121 -19.1072 227.928C-20.7026 229.514 -22.276 231.132 -23.8421 232.75C-26.4429 235.442 -28.9556 238.217 -31.4603 240.996L-32.7124 242.385C-35.3209 245.281 -38.1153 248.123 -40.4864 251.217L-40.6048 251.374C-41.64 252.763 -42.3769 254.3 -41.8959 256.064C-41.4318 257.765 -40.3282 259.273 -39.3771 260.742L-39.2825 260.889C-35.3992 266.94 -31.2393 272.837 -26.7833 278.48C-17.8592 289.782 -7.67977 300.494 4.46704 308.352C6.15057 309.441 4.57716 312.149 2.89119 311.047C-4.20261 306.408 -10.7189 300.837 -16.714 294.854C-22.2173 289.363 -27.2042 283.317 -31.878 277.112C-34.1561 274.083 -36.3388 270.992 -38.431 267.832C-40.4595 264.764 -42.8062 261.609 -44.2768 258.226C-45.0475 256.446 -45.3315 254.52 -44.7001 252.644C-44.1212 250.921 -42.9762 249.49 -41.785 248.144L-41.6732 248.018C-38.935 244.941 -36.1479 241.9 -33.3364 238.889C-30.515 235.869 -27.5639 232.956 -24.5517 230.128C-22.1855 227.903 -19.7189 225.942 -17.0811 224.126C-17.3184 223.957 -17.5558 223.796 -17.798 223.639C-18.5346 223.159 -18.7205 222.133 -18.0745 221.482C-16.3103 219.7 -14.2768 218.15 -12.3633 216.528C-10.5648 215.003 -8.76622 213.475 -6.96769 211.948C-3.30701 208.844 0.353668 205.737 4.01435 202.631C10.5894 197.052 17.1277 191.434 23.6807 185.83C26.4132 183.495 29.1712 181.188 31.922 178.875L36.8094 174.76L39.1998 172.752C40.4246 171.726 41.6754 170.711 43.0682 169.929C46.3453 168.087 50.2851 167.29 53.8956 166.315L54.1359 166.249C58.1856 165.141 62.2574 164.098 66.3512 163.167C70.4499 162.237 74.5657 161.39 78.6986 160.624C82.4132 159.934 86.2158 159.341 90.0037 159.253C90.9433 158.896 92.1228 158.771 93.0477 159.153C93.4295 159.312 93.8283 159.545 94.1831 159.838C96.0355 159.187 97.8634 158.876 99.5934 157.775C101.321 156.676 102.85 155.231 104.137 153.64C106.797 150.345 108.19 146.453 109.124 142.387ZM151.704 253.961C150.236 253.859 148.915 254.466 147.603 255.112C148.342 255.433 149.081 255.751 149.82 256.067L154.739 258.167C156.364 258.86 158.084 259.462 159.628 260.316C159.738 260.377 159.826 260.451 159.892 260.537C161.497 259.509 163.195 258.591 164.823 257.614C165.195 257.391 165.569 257.168 165.943 256.945C164.005 257.594 162.018 257.92 159.914 257.31C157.107 256.5 154.67 254.17 151.704 253.961ZM155.727 249.036L155.463 248.857C154.039 247.88 152.34 246.624 150.611 247.501C149.796 247.915 149.128 248.583 148.325 249.029C147.518 249.479 146.629 249.825 145.729 250.033C144.234 250.378 142.521 250.429 140.913 250.096L140.938 252.27C142.154 252.772 143.363 253.286 144.571 253.805C145.356 253.536 146.112 253.214 146.906 252.86L147.442 252.62C148.971 251.932 150.515 251.472 152.206 251.69C155.39 252.099 157.795 254.466 160.839 255.254C164.571 256.224 167.938 253.438 171.464 252.75C172.045 252.635 172.644 252.568 173.24 252.558L173.438 252.556L173.527 252.505C174.285 252.059 175.42 251.634 175.949 250.884C176.524 250.072 176.573 248.711 176.761 247.756C176.781 247.661 176.801 247.563 176.818 247.467C176.485 247.467 176.147 247.484 175.805 247.548C174.728 247.746 173.715 248.128 172.712 248.554C170.815 249.359 168.96 250.277 166.964 250.813C165.009 251.34 162.965 251.589 160.951 251.298C158.987 251.014 157.354 250.128 155.727 249.036ZM156.033 241.393L155.739 241.203C154.961 240.707 154.069 240.193 153.116 240.375C152.265 240.539 151.533 241.217 150.791 241.636C149.164 242.554 147.339 243.056 145.477 243.183C143.928 243.288 142.32 243.1 140.83 242.64L140.881 247.453C141.427 247.626 141.992 247.751 142.587 247.795C144.393 247.93 146.154 247.496 147.669 246.5L148.435 245.991C149.747 245.129 150.977 244.445 152.712 244.76C154.43 245.073 155.871 246.175 157.276 247.134L157.506 247.289C159.119 248.354 160.754 249.042 162.733 249.058C164.869 249.075 166.981 248.481 168.97 247.749C170.945 247.024 172.822 246.155 174.933 245.888C175.579 245.807 176.367 245.783 177.109 245.91C177.207 245.364 177.3 244.821 177.388 244.275C177.579 243.102 177.742 241.932 177.884 240.76C174.138 239.751 170.678 243.014 167.198 244.02C165.18 244.603 162.982 244.596 160.964 244.033C159.096 243.511 157.627 242.429 156.033 241.393ZM156.043 233.288C155.243 233.134 154.452 233.504 153.772 233.883C152.037 234.846 150.54 236.184 148.575 236.691C146.047 237.342 143.282 236.782 140.771 235.717C140.781 237.203 140.793 238.689 140.806 240.175C141.278 240.353 141.762 240.498 142.257 240.613C144.014 241.014 145.876 240.96 147.606 240.454C149.37 239.937 150.723 238.542 152.492 238.106C154.301 237.659 156.007 238.529 157.465 239.517L157.903 239.817C159.57 240.948 161.186 241.931 163.271 242.123C165.476 242.326 167.392 241.636 169.362 240.721L169.82 240.508C172.314 239.362 175.552 238.058 178.041 239.362C178.237 237.511 178.379 235.661 178.474 233.807C178.132 233.68 177.777 233.587 177.368 233.585C176.392 233.58 175.367 233.888 174.456 234.209C172.467 234.911 170.615 235.959 168.645 236.711C166.778 237.426 164.71 237.798 162.718 237.477C160.873 237.181 159.488 236.216 158.213 234.894L158.028 234.699C157.469 234.104 156.871 233.449 156.043 233.288ZM157.504 226.417C156.581 225.93 155.458 225.477 154.391 225.619C153.373 225.753 152.695 226.444 152.068 227.183L151.729 227.587C150.607 228.914 149.504 230.03 147.775 230.576C145.984 231.139 144.085 230.919 142.418 230.094C141.826 229.8 141.276 229.435 140.722 229.076L140.752 232.98C141.858 233.531 142.984 234.028 144.219 234.329C146.5 234.884 148.438 234.473 150.388 233.215L150.593 233.082C152.062 232.117 153.568 230.968 155.382 230.86C157.153 230.754 158.482 231.736 159.648 232.938L159.784 233.08C161.255 234.632 162.74 235.389 164.928 235.21C167.049 235.037 169.034 234.1 170.977 233.293L171.153 233.22C172.93 232.49 174.978 231.739 176.928 232.018C177.395 232.084 178 232.228 178.538 232.481C178.616 230.654 178.653 228.826 178.661 226.995C177.552 226.033 175.827 225.874 174.439 226.268C172.267 226.885 170.488 228.476 168.413 229.34C166.572 230.106 164.654 230.277 162.777 229.553C160.839 228.804 159.32 227.377 157.504 226.417ZM178.538 218.726C175.291 218.838 172.115 220.951 169.015 221.756C165.551 222.655 162.725 221.43 159.639 220.069L159.241 219.894C157.658 219.198 155.957 218.574 154.203 218.858C152.493 219.137 150.98 220.084 149.51 220.941L149.228 221.103C146.549 222.629 143.821 223.674 140.693 223.413C140.71 224.395 140.703 225.374 140.705 226.334C141.219 226.628 141.714 226.961 142.183 227.264L142.352 227.371C143.843 228.304 145.38 228.917 147.158 228.341C148.876 227.783 149.683 226.287 150.863 225.056C151.947 223.925 153.361 223.238 154.947 223.303C156.652 223.372 158.265 224.123 159.674 225.041C161.084 225.959 162.447 227.146 164.096 227.607C167.796 228.635 170.965 224.721 174.464 224.111C175.932 223.854 177.552 224.18 178.661 225.066C178.648 222.956 178.602 220.841 178.538 218.726ZM150.589 217.84C150.131 217.857 149.674 217.876 149.216 217.896C147.523 217.969 145.829 218.053 144.136 218.148C142.964 218.211 141.523 218.572 140.373 218.214C140.343 218.332 140.304 218.444 140.253 218.554C140.426 219.421 140.534 220.317 140.6 221.223C141.662 221.338 142.741 221.299 143.789 221.081C146.302 220.559 148.342 218.973 150.589 217.84ZM178.489 217.113C172.306 217.539 166.075 217.392 159.881 217.526L159.138 217.543C159.109 217.543 159.08 217.546 159.05 217.546C159.76 217.821 160.465 218.137 161.167 218.458L161.869 218.78C163.528 219.543 165.217 220.168 167.074 220.033C169.063 219.888 170.938 219.076 172.797 218.42C174.571 217.793 176.615 217.372 178.506 217.646C178.501 217.468 178.496 217.291 178.489 217.113Z" fill="black"/>
<path fill-rule="evenodd" clip-rule="evenodd" d="M127.105 50.0894C140.97 50.0894 161.264 59.3711 162.79 68.301C164.588 78.8247 168.583 118.396 166.408 131.346C164.233 144.295 155.753 153.863 137 153.863C118.248 153.863 104.251 143.611 101.037 140.091C97.8232 136.571 93.929 125.616 93.929 125.616C93.929 125.616 83.6617 123.872 83.6141 115.666C83.5665 107.461 88.772 104.926 88.772 104.926C88.772 104.926 85.9626 70.8873 91.8674 62.4568C97.7721 54.0263 113.24 50.0894 127.105 50.0894Z" fill="#D08B5B"/>
<path fill-rule="evenodd" clip-rule="evenodd" d="M168.966 93.4363C169.725 101.708 170.011 110.05 170.158 118.354C170.299 126.221 169.608 134.427 165.137 141.154C161.228 147.039 155.275 151.31 148.645 153.616C144.872 154.931 140.695 155.418 136.71 155.538C134.651 155.599 132.588 155.511 130.541 155.298C130.284 155.271 130.025 155.248 129.767 155.225C128.033 155.07 126.314 154.916 125.052 153.604C124.654 153.19 124.659 152.341 125.248 152.072C126.368 151.56 127.128 151.506 128.356 151.675C129.374 151.814 130.395 151.925 131.42 151.996C133.618 152.15 135.83 152.155 138.028 151.986C142.067 151.675 146.198 150.532 149.866 148.799C155.616 146.077 160.556 141.616 163.223 135.764C166.28 129.062 166.126 121.313 165.983 114.097L165.977 113.801C165.818 105.796 165.523 97.8156 164.829 89.8378C164.567 86.8198 164.192 83.8182 163.818 80.8156C163.712 79.9701 163.607 79.1246 163.504 78.2787C163.257 76.2322 162.932 74.1952 162.534 72.1735C162.414 71.5629 162.274 70.9572 162.133 70.3522C162.028 69.8971 161.923 69.4424 161.826 68.9863C161.662 69.013 161.496 69.0279 161.325 69.035C160.305 69.0695 159.189 68.8198 158.432 68.0928C158.141 68.2911 157.772 68.4159 157.328 68.4379C154.614 68.5723 151.872 68.5124 149.136 68.4527C147.641 68.42 146.148 68.3874 144.663 68.3865C140.443 68.3841 136.221 68.3865 131.999 68.3988C131.355 68.4006 130.712 68.4031 130.067 68.4056C126.492 68.4193 122.91 68.433 119.338 68.3376C118.582 68.3173 117.82 68.3041 117.055 68.2908C113.857 68.2354 110.611 68.1792 107.486 67.5983C106.184 72.2347 106.231 77.3289 108.944 81.4708C109.71 82.6384 109.087 84.0142 108.089 84.7437C107.068 85.4881 105.233 86.6295 103.663 86.7468C103.602 86.8839 103.54 87.0207 103.479 87.1573C103.387 87.3619 103.295 87.566 103.206 87.7698C102.457 89.4816 101.782 91.2043 101.309 93.0167C101.066 93.9508 100.856 94.9004 100.68 95.8558C100.694 96.023 100.709 96.19 100.727 96.3567C100.727 96.3717 100.729 96.3866 100.731 96.4033L100.732 96.4103C100.742 96.4791 100.754 96.5574 100.761 96.6015C100.783 96.719 100.805 96.8366 100.827 96.9542C100.895 97.3163 100.963 97.678 101.035 98.0384C101.262 99.2012 101.437 100.374 101.562 101.551C101.789 103.705 101.767 106.506 99.672 107.781C98.5513 108.464 97.2083 108.393 96.0237 107.935C95.3634 107.679 94.7853 107.336 94.1891 106.982C94.0668 106.909 93.9437 106.836 93.819 106.763C93.6263 106.65 93.4298 106.546 93.2336 106.443C92.9873 106.313 92.7416 106.183 92.5051 106.036C92.3881 105.962 92.2758 105.874 92.1708 105.781C91.3772 105.95 90.6029 106.266 90.1685 106.481C89.0035 107.061 87.9806 107.901 87.1111 108.866C85.2629 110.919 84.7086 113.813 84.9674 116.498C85.2089 118.998 86.1883 121.869 88.1586 123.531C89.0157 124.256 90.0855 124.679 91.216 124.667C91.7725 124.662 92.2855 124.545 92.8227 124.403C93.0519 124.342 93.3043 124.316 93.5566 124.289C93.8876 124.255 94.2182 124.22 94.4954 124.109C95.2204 123.818 96.1143 124.706 95.8189 125.436C95.7531 125.598 95.6957 125.754 95.6403 125.905C95.5082 126.266 95.3873 126.595 95.1911 126.897C97.2131 130.207 99.4279 133.414 101.784 136.491C103.278 138.439 104.958 140.17 106.646 141.909C107.358 142.642 108.071 143.377 108.772 144.131C109.815 145.252 110.25 147.46 108.362 147.939C106.702 148.365 105.412 146.839 104.389 145.628C104.252 145.466 104.119 145.309 103.991 145.164C99.5109 140.055 96.1241 134.189 94.5391 127.568C93.8239 128.077 93.0032 128.354 92.1388 128.474C90.4173 128.711 88.6765 128.371 87.1675 127.497C81.4534 124.19 80.0713 115.252 82.7476 109.651C83.3929 108.303 84.3462 107.099 85.5083 106.164C85.4167 105.989 85.3806 105.783 85.4394 105.562C85.5427 105.175 85.6563 104.793 85.7754 104.412C85.6453 104.354 85.55 104.234 85.5681 104.055C85.659 103.123 85.7481 102.191 85.8371 101.258L85.8855 100.751C85.8744 100.246 85.8591 99.7406 85.8439 99.2354C85.809 98.0761 85.774 96.9158 85.7876 95.7496C85.8014 94.5086 85.8436 93.2682 85.8858 92.0279C85.9343 90.6012 85.9829 89.1746 85.9881 87.7473C86.0039 83.1247 86.1051 78.5045 86.2064 73.8843C86.3089 69.2023 86.4115 64.5204 86.4252 59.8359C86.4396 55.2849 86.4494 50.7271 86.3297 46.1789C86.3284 46.1466 86.3278 46.1151 86.3272 46.0835C86.3267 46.0551 86.3261 46.0267 86.3251 45.9977C86.3101 45.4395 86.2747 44.8524 86.2385 44.2498C86.0383 40.9228 85.8098 37.1251 88.8157 35.1311C89.3993 34.7445 90.127 34.7397 90.7619 34.9893C92.5883 33.714 94.8788 33.0993 97.0691 32.7443C100.298 32.2218 103.548 31.9085 106.801 31.5951C107.752 31.5034 108.703 31.4117 109.654 31.3147C111.847 31.092 114.154 31.0065 116.362 31.0555C117.51 31.0807 118.666 31.0391 119.824 30.9975C120.917 30.9582 122.011 30.9189 123.101 30.9356C125.65 30.9772 128.219 31.0726 130.778 31.2832C130.838 31.2771 130.898 31.2716 130.958 31.2661C131.019 31.2606 131.08 31.255 131.14 31.2489C135.016 30.8762 138.888 31.0733 142.761 31.2704C143.699 31.3182 144.637 31.3659 145.576 31.4056C150.161 31.5989 155.003 32.0738 159.121 34.2743C159.65 34.5568 160.098 34.878 160.481 35.2358C161.018 35.3115 161.529 35.464 161.989 35.7203C163.314 35.4518 164.794 36.0471 165.108 37.5891C165.564 39.8485 165.738 42.1273 165.464 44.4188C165.46 44.4476 165.457 44.4773 165.454 44.5077C165.451 44.5339 165.448 44.5605 165.445 44.5877C165.998 46.7135 165.961 49.0351 165.501 51.1318C165.695 53.7809 165.806 56.4377 165.821 59.09C165.823 59.4914 165.829 59.8943 165.835 60.2981C165.855 61.7402 165.876 63.193 165.743 64.6221C165.593 66.2304 164.933 67.5031 163.894 68.7246C163.698 68.9547 163.367 68.9929 163.092 68.9371C163.021 68.9226 162.959 68.9031 162.903 68.8798C163.415 69.9816 163.84 71.1383 164.256 72.2698C164.348 72.5207 164.439 72.7704 164.532 73.018C165.337 75.1869 166.119 77.3925 166.673 79.6397C167.796 84.1706 168.536 88.7876 168.966 93.4363ZM91.1532 113.942C90.9213 113.781 90.6875 113.619 90.4345 113.499C90.4027 113.484 89.0646 113.049 89.3234 113.624C89.4113 113.815 89.1818 114.028 89.0182 113.859C88.5543 113.387 88.8131 112.819 89.2551 112.398C90.0533 111.636 91.2451 111.812 92.2243 111.994C93.5868 112.246 94.9103 112.843 96.058 113.609C97.2935 114.434 98.8197 115.578 99.0638 117.142C99.286 118.579 97.86 120.163 96.3925 119.201C95.5985 118.679 95.0424 117.904 94.4844 117.126C94.0866 116.571 93.6878 116.015 93.201 115.548C92.627 115 92.0067 114.518 91.3501 114.077C91.2844 114.033 91.2188 113.987 91.1532 113.942Z" fill="black"/>
<path fill-rule="evenodd" clip-rule="evenodd" d="M142.781 136.175C141.136 135.504 139.668 134.384 138.595 132.954C138.222 132.456 138.126 131.931 138.204 131.451C138.292 130.911 138.611 130.421 139.047 130.093C139.484 129.764 140.03 129.601 140.559 129.684C141.018 129.756 141.475 130.007 141.837 130.529L141.912 130.633C142.55 131.497 143.381 132.205 144.329 132.662C145.241 133.102 146.262 133.307 147.319 133.188C149.331 132.96 150.718 131.872 152.193 130.393C152.375 130.206 152.558 130.014 152.742 129.818C152.858 129.641 153.019 129.527 153.198 129.467C153.396 129.401 153.621 129.405 153.827 129.476C154.025 129.546 154.202 129.677 154.321 129.852C154.434 130.018 154.498 130.223 154.478 130.459C154.343 131.991 153.542 133.358 152.404 134.432C151.141 135.624 149.467 136.449 147.89 136.739C146.153 137.057 144.384 136.829 142.781 136.175ZM148.71 112.538C150.557 113.662 153.373 116.282 151.385 119.067C149.045 121.523 145.676 118.707 144.016 117.434C142.477 116.447 140.747 118.985 142.176 120.138C154.172 129.023 159.04 112.832 149.644 111.217C148.61 111.039 148.225 112.191 148.71 112.538ZM127.213 102.203C127.417 99.6676 131.276 99.0919 131.66 101.601C132.004 103.848 131.599 105.912 130.588 107.935C129.621 109.868 127.191 108.966 127.007 107.206C126.761 104.847 127.086 103.78 127.213 102.203ZM156.592 101.08C157.13 100.375 157.907 99.8939 158.838 100.166C161.746 101.016 160.889 105.146 159.868 107.157C159.313 108.249 157.519 108.526 156.708 107.564C155.387 105.997 154.754 102.866 156.434 101.322C156.479 101.242 156.53 101.161 156.592 101.08ZM130.547 91.1096L131.006 91.0291C132.427 90.7832 134.194 90.547 135.2 91.69C135.733 92.2961 135.916 93.4226 135.2 94.0028C133.939 95.0236 132.545 94.628 131.034 94.7144C129.789 94.7859 128.593 94.992 127.394 95.3349C124.763 96.0872 122.619 97.4605 120.372 98.9684C120.077 99.1662 119.776 98.789 119.917 98.5131C121.214 95.9714 123.727 93.8836 126.245 92.6109C127.589 91.9316 129.06 91.3681 130.547 91.1096ZM153.941 89.9711L154.292 90.0431C158.119 90.8432 163.09 92.4415 164.902 96.2014C164.971 96.7331 164.898 96.8471 164.839 96.9215L164.819 96.9463C164.77 97.0098 164.731 97.0975 164.501 97.1698C164.437 97.1546 164.373 97.1385 164.307 97.1214C163.477 96.9036 162.82 96.6036 162.183 96.2924L161.494 95.9524C160.693 95.5598 159.886 95.1816 159.03 94.9023C157.204 94.3065 155.326 93.8868 153.419 93.6627C153.006 93.6141 152.607 93.4746 152.293 93.2354C151.995 93.0083 151.768 92.694 151.664 92.2761C151.529 91.7353 151.568 91.3259 151.858 90.8381C152.076 90.4717 152.388 90.2178 152.746 90.072C153.112 89.9233 153.528 89.8883 153.941 89.9711Z" fill="black"/>
</g>
</svg>
